<svg width="43" height="11" viewBox="0 0 43 11" fill="none" xmlns="http://www.w3.org/2000/svg">
<g clip-path="url(#clip0_43_983)">
<path d="M22.7567 10.2887L24.6887 4.51813L26.4107 10.67L28.9403 10.3267L32.0162 0L30.0586 0.40071L28.2598 6.4246L26.5255 0L23.3162 0.381292L23.589 1.48722L22.1724 6.41224L20.3418 0.00617834L17.4954 0.38747L20.2403 10.6382L22.7567 10.2887Z" fill="white"/>
<path d="M15.1502 10.3072L15.1563 0L12.3858 0.406888L12.3726 10.6382L15.1502 10.3072Z" fill="white"/>
<path d="M6.64084 0.00610352L3.80056 0.393574L4.271 1.4995L1.95147 6.33538L0.896743 6.3292L1.27186 7.88614L0 10.6382L1.70346 10.2886L2.82792 7.88614L6.89503 7.8985L8.03891 10.6311L10.873 10.3072L6.64084 0.00610352ZM3.53931 6.32302L4.96298 3.20296L6.25955 6.31684L3.53931 6.32302Z" fill="white"/>
<path d="M38.5996 0.00610352L35.7655 0.393574L36.2359 1.4995L33.9164 6.33538L32.8555 6.3292L33.2368 7.88614L31.9658 10.6382L33.6693 10.2886L34.7937 7.88614L38.8547 7.8985L40.0047 10.6311L42.8326 10.3072L38.5996 0.00610352ZM35.4981 6.32302L36.9279 3.20296L38.2183 6.31684L35.4981 6.32302Z" fill="white"/>
</g>
<defs>
<clipPath id="clip0_43_983">
<rect width="42.8318" height="10.67" fill="white"/>
</clipPath>
</defs>
</svg>
