<svg width="38" height="11" viewBox="0 0 38 11" fill="none" xmlns="http://www.w3.org/2000/svg">
<path d="M14.2643 0.265762H17.4114V4.05603H17.7444L21.7134 0.265762H25.9987L20.4363 5.30875L26.6495 10.5794H22.2817L17.7444 6.61801H17.4114V10.5794H14.2643V0.265762ZM4.94522 6.5294H8.48341L6.68682 2.65817L4.94675 6.5294H4.94522ZM4.94522 6.5294H8.48341L6.68682 2.65817L4.94675 6.5294H4.94522ZM4.94522 6.5294H8.48341L6.68682 2.65817L4.94675 6.5294H4.94522ZM4.88717 0.265762H8.48952L13.45 10.5717H10.3763L9.51462 8.74917H3.90332L3.09057 10.5717H0L4.88717 0.265762ZM4.88717 0.265762H8.48952L13.45 10.5717H10.3763L9.51462 8.74917H3.90332L3.09057 10.5717H0L4.88717 0.265762ZM4.88717 0.265762H8.48952L13.45 10.5717H10.3763L9.51462 8.74917H3.90332L3.09057 10.5717H0L4.88717 0.265762ZM37.3282 3.09662L37.7346 0.517835C36.297 0.23368 34.8396 0.0625754 33.376 0.00604985C31.636 -0.0351985 30.148 0.145072 29.6927 0.226041C28.8463 0.372702 28.139 0.649219 27.5783 1.05559C27.007 1.47419 26.5716 2.05166 26.3256 2.71469C26.0491 3.42202 25.9116 4.31727 25.9116 5.41569C25.9116 6.51412 26.0491 7.40784 26.3256 8.09989C26.5746 8.75376 27.007 9.32054 27.5692 9.73455C28.1222 10.1256 28.8295 10.4022 29.6759 10.5397C30.6903 10.6924 31.7154 10.7658 32.742 10.7596C34.9542 10.7596 37.426 10.1409 37.8904 9.9469V5.16362H33.1331V7.11604H35.1986V7.9624C34.3889 8.12281 33.567 8.216 32.742 8.23891C29.0663 8.33669 28.8143 6.90522 28.8143 5.38361C28.8143 4.03311 29.2863 2.91941 30.9852 2.69941C32.6855 2.47942 34.8487 2.594 37.3282 3.09815" fill="white"/>
</svg>
