<svg width="75" height="10" viewBox="0 0 75 10" fill="none" xmlns="http://www.w3.org/2000/svg">
<path d="M4.04552 6.12338C4.04552 6.85558 4.01009 8.00111 2.97674 8.00111C2.45122 8.00111 2.0674 7.62911 2.0674 7.10358C2.0674 6.09386 3.40189 6.10567 4.04552 6.12338ZM2.35083 4.57632C2.32721 4.29289 2.53979 3.67879 3.18341 3.67879C3.82704 3.67879 4.03961 4.1866 4.03961 4.45232V5.0369C3.2956 5.01328 2.35083 5.04871 1.60092 5.37347C0.467198 5.85767 0.272339 6.91463 0.272339 7.35158C0.272339 8.56798 1.14625 9.24112 2.3095 9.24112C3.15389 9.24112 3.80342 8.93998 4.22266 8.21959H4.24628C4.24628 8.4794 4.2699 8.76874 4.31123 9.05217H5.9882C5.96458 8.86322 5.91144 8.68017 5.89963 8.36721V4.96013C5.89963 3.0824 4.49428 2.62183 3.23656 2.62183C2.56341 2.62183 1.90797 2.72221 1.39425 3.01745C0.898249 3.30088 0.561674 3.79098 0.549865 4.57042H2.33902L2.35083 4.57632Z" fill="white"/>
<path d="M10.5703 8.28436C10.1747 8.85712 9.58417 9.24094 8.6394 9.24094C8.0194 9.24094 6.81482 8.76855 6.59043 7.85921C6.49005 7.4754 6.46643 7.07387 6.46643 6.8613V2.80469H8.33235V6.54834C8.34416 7.22149 8.53312 7.98911 9.45427 7.98911C10.0388 7.98911 10.5467 7.45768 10.5762 6.54834V2.80469H12.4421V7.93007C12.4539 8.30207 12.4775 8.67407 12.5189 9.05198H10.6529L10.5762 8.28436H10.5703Z" fill="white"/>
<path d="M14.81 5.93424C14.81 4.97766 14.9576 3.86755 16.1563 3.86755C17.166 3.86755 17.4967 5.07213 17.4967 5.93424C17.4967 6.79634 17.1601 8.00092 16.1563 8.00092C14.9635 8.00092 14.81 6.89672 14.81 5.93424ZM17.4967 3.53098H17.4731C17.1247 3.00545 16.4515 2.62164 15.8079 2.62164C13.8652 2.62164 12.885 4.25136 12.885 5.92833C12.885 7.6053 13.7471 9.23503 15.5717 9.23503C16.3807 9.23503 17.0774 8.89845 17.4849 8.16626H17.5085C17.5085 8.4674 17.5321 8.75083 17.5557 9.05198H19.4216C19.398 8.63864 19.3567 8.2194 19.3567 7.80606V0.0766602H17.4908V3.53688L17.4967 3.53098Z" fill="white"/>
<path d="M21.7776 9.05788H19.9117V2.81059H21.7776V9.05788ZM21.8426 1.67686H19.8527V0.0766602H21.8426V1.68277V1.67686Z" fill="white"/>
<path d="M24.1573 5.93443C24.1573 4.93651 24.3463 3.86774 25.4918 3.86774C26.6373 3.86774 26.8204 4.93651 26.8204 5.93443C26.8204 6.93234 26.6314 8.00111 25.4918 8.00111C24.3522 8.00111 24.1573 6.93234 24.1573 5.93443ZM28.7454 5.93443C28.7454 3.96812 27.529 2.62183 25.4859 2.62183C23.4428 2.62183 22.2264 3.96222 22.2264 5.93443C22.2264 7.90664 23.4428 9.24112 25.4859 9.24112C27.5231 9.24112 28.7454 7.89483 28.7454 5.93443Z" fill="white"/>
<path d="M30.8947 5.07812H29.3477V6.47166H30.8947V5.07812Z" fill="white"/>
<path d="M31.5737 2.81077V1.58257L33.4396 0.909424V2.81077H34.845V4.05669H33.4396V6.95595C33.4396 7.77672 33.5636 8.00111 34.2132 8.00111C34.4139 8.00111 34.6147 7.97749 34.8096 7.96568V9.05807C34.597 9.15845 33.605 9.24702 33.3452 9.24702C31.8926 9.24702 31.5796 8.49121 31.5796 7.1331V4.0626H30.3219V2.81668H31.5796L31.5737 2.81077Z" fill="white"/>
<path d="M36.7581 5.19038C36.7817 4.50542 36.9707 3.8736 37.8269 3.8736C38.7362 3.8736 38.9252 4.50542 38.9252 5.19038H36.7581ZM40.8501 6.43039C40.8501 6.02295 40.8501 5.62143 40.8029 5.23761C40.7557 4.84199 40.6671 4.46408 40.4899 4.1216C39.9703 3.02331 38.996 2.62769 37.8269 2.62769C35.9255 2.62769 34.8331 4.06846 34.8331 5.9521C34.8331 8.0424 35.6893 9.24698 37.8269 9.24698C39.2795 9.24698 40.4899 8.73917 40.6494 7.19211H38.9724C38.7953 7.76487 38.4764 8.00107 37.8269 8.00107C36.8703 8.00107 36.7581 7.23935 36.7581 6.43039H40.8501Z" fill="white"/>
<path d="M45.0072 5.00147C44.9954 4.49365 44.7828 3.86774 44.0625 3.86774C43.2653 3.86774 43.2535 5.35576 43.2299 5.84585C43.2771 6.41862 43.2948 7.99521 44.0861 7.99521C44.8065 7.99521 45.019 7.28663 45.0308 6.77882H46.8436C46.7846 8.37312 45.7985 9.24112 44.0802 9.24112C42.2261 9.24112 41.2931 7.58187 41.2931 5.93443C41.2931 4.28698 42.2261 2.62183 44.0802 2.62183C45.6745 2.62183 46.8554 3.53117 46.8436 5.00147H45.0013H45.0072Z" fill="white"/>
<path d="M47.2982 9.05788V0.0766602H49.1523V3.54869L49.1759 3.57231C49.5598 2.99954 50.1443 2.62754 51.095 2.62754C51.715 2.62754 52.9196 3.08812 53.1499 3.99746C53.2503 4.38127 53.2739 4.7828 53.2739 4.99537V9.06379H51.408V5.30833C51.3962 4.63518 51.2072 3.87936 50.2861 3.87936C49.7015 3.87936 49.1937 4.39898 49.1641 5.30833V9.06379H47.2982V9.05788Z" fill="white"/>
<path d="M55.6713 3.53117L55.6949 3.5666C56.0787 2.99383 56.6633 2.62183 57.6081 2.62183C58.2281 2.62183 59.4386 3.0824 59.657 3.99174C59.7574 4.37556 59.781 4.77708 59.781 4.98966V9.05807H57.9151V5.30261C57.9033 4.62946 57.7144 3.87365 56.7932 3.87365C56.2086 3.87365 55.7008 4.39327 55.6772 5.30261V9.05807H53.8113V2.81078H55.6654V3.53117H55.6713Z" fill="white"/>
<path d="M62.202 9.05788H60.3361V2.81059H62.202V9.05788ZM62.261 1.67686H60.2711V0.0766602H62.261V1.68277V1.67686Z" fill="white"/>
<path d="M66.359 5.00147C66.3472 4.49365 66.1346 3.86774 65.4143 3.86774C64.6171 3.86774 64.6053 5.35576 64.5817 5.84585C64.6289 6.41862 64.6466 7.99521 65.4379 7.99521C66.1583 7.99521 66.3708 7.28663 66.3826 6.77882H68.1954C68.1364 8.37312 67.1503 9.24112 65.432 9.24112C63.5779 9.24112 62.6449 7.58187 62.6449 5.93443C62.6449 4.28698 63.5779 2.62183 65.432 2.62183C67.0263 2.62183 68.2072 3.53117 68.1954 5.00147H66.3531H66.359Z" fill="white"/>
<path d="M72.311 6.12338C72.311 6.85558 72.2756 8.00111 71.2422 8.00111C70.7167 8.00111 70.3329 7.62911 70.3329 7.10358C70.3329 6.09386 71.6615 6.10567 72.311 6.12338ZM70.6163 4.57632C70.5927 4.29289 70.8053 3.67879 71.4489 3.67879C72.0925 3.67879 72.311 4.1866 72.311 4.45232V5.0369C71.567 5.01328 70.6163 5.04871 69.8723 5.37347C68.7386 5.85767 68.5378 6.91463 68.5378 7.35158C68.5378 8.56798 69.4118 9.24112 70.5809 9.24112C71.4253 9.24112 72.0748 8.93998 72.5 8.21959H72.5236C72.5236 8.4794 72.5472 8.76874 72.5826 9.05217H74.2655C74.2419 8.86322 74.1888 8.68017 74.1769 8.36721V4.96013C74.1769 3.0824 72.7716 2.62183 71.5139 2.62183C70.8407 2.62183 70.1853 2.72221 69.6716 3.01745C69.1756 3.30088 68.839 3.79098 68.8272 4.57042H70.6163V4.57632Z" fill="white"/>
</svg>
