<svg width="15" height="16" viewBox="0 0 15 16" fill="none" xmlns="http://www.w3.org/2000/svg">
<path fill-rule="evenodd" clip-rule="evenodd" d="M10.5705 16C11.7788 16 12.886 15.5503 13.6912 14.6999C14.5473 13.9001 15 12.7498 15 11.6002C15 10.4499 14.5473 9.35015 13.6912 8.50008C12.886 7.69995 11.7788 7.20001 10.5705 7.20001C9.41311 7.20001 8.30537 7.69995 7.44988 8.50008C6.64406 9.35015 6.19133 10.4499 6.19133 11.6002C6.19133 12.7498 6.64406 13.9001 7.44988 14.6999C8.30537 15.5503 9.41311 16 10.5705 16ZM7.29847 11.6004C7.29847 10.7501 7.65066 9.90061 8.2548 9.30051C8.90922 8.70041 9.71444 8.35028 10.5702 8.35028C11.4763 8.35028 12.2815 8.70011 12.8857 9.30051C13.5401 9.90061 13.8923 10.7504 13.8923 11.6004C13.8923 13.4002 12.3821 14.8503 10.5702 14.8503C9.71415 14.8503 8.90922 14.4999 8.2548 13.9004C7.65096 13.3003 7.29847 12.4499 7.29847 11.6004ZM4.68113 10.9005C4.98305 11.4001 5.13445 12.0002 5.13445 12.6003C5.13445 13.4997 4.78226 14.3501 4.12785 15.0001C3.47344 15.6502 2.61765 16 1.71188 16H0V0.250554H1.15801C2.46683 0.250554 3.77565 0.750489 4.73199 1.70043C5.68773 2.65036 6.19162 3.95043 6.19162 5.30044C6.19162 7.15037 5.18502 8.84992 3.524 9.70028C3.97644 10.0002 4.37891 10.4502 4.68113 10.9005ZM3.92617 8.05008C4.68112 7.30018 5.08418 6.30031 5.08418 5.30044C5.08418 4.25033 4.68112 3.25046 3.92617 2.50056C3.17122 1.80059 2.21488 1.35059 1.15801 1.35059V9.20005C2.21488 9.20005 3.17122 8.79999 3.92617 8.05008ZM1.15801 14.8503H1.71188C2.00964 14.8515 2.30469 14.7941 2.58001 14.6814C2.85533 14.5687 3.10547 14.403 3.31599 14.1939C3.52652 13.9847 3.69327 13.7362 3.80662 13.4627C3.91998 13.1892 3.97769 12.8961 3.97644 12.6003C3.97644 12.0002 3.72509 11.4001 3.32203 11.0003C2.86929 10.5506 2.31543 10.3004 1.71188 10.3004H1.15801V14.8503ZM11.6777 0.500522L11.0741 1.10062L11.0233 1.15056V1.10062C10.973 1.05039 10.8222 0.950524 10.5705 0.950524C10.4197 0.950524 10.2183 1.00046 10.1178 1.15056C10.0167 1.20049 9.91612 1.35059 9.91612 1.55033C9.91612 1.75036 10.0167 1.90046 10.1178 2.00033L12.1816 4.0503L12.7857 3.4505L13.4401 4.0503V4.10024L12.7857 4.70004L13.6912 5.55011L13.0368 6.19985L12.1813 5.34978C12.0305 5.44995 11.8793 5.59975 11.6274 5.84972C11.3255 6.14962 10.8724 6.34965 10.47 6.39988C10.1178 6.39988 9.56392 6.34995 9.11089 5.89965C8.7587 5.54982 8.60729 5.09981 8.60729 4.64981C8.60729 4.19981 8.7587 3.69988 9.11089 3.39997L9.46308 3.04984L9.66417 2.84981C9.66417 2.79987 9.6139 2.79987 9.6139 2.79987C9.41282 2.64978 9.00976 2.24971 9.00976 1.54974C9.00976 1.1999 9.16116 0.799837 9.46308 0.499935C9.76501 0.200032 10.1678 0 10.5702 0C11.1241 0 11.5266 0.299902 11.6774 0.45L11.6777 0.500522ZM11.5269 4.70034L10.3186 3.50043L9.7653 4.00037C9.6139 4.2004 9.51336 4.40043 9.51336 4.6504C9.51336 4.85043 9.56363 5.05017 9.7653 5.2505C10.1175 5.60034 10.6708 5.5504 10.973 5.2505L11.5269 4.70034Z" fill="white"/>
</svg>
