<svg width="40" height="11" viewBox="0 0 40 11" fill="none" xmlns="http://www.w3.org/2000/svg">
<g clip-path="url(#clip0_72_754)">
<path d="M20.109 6.12086C20.109 6.88595 19.8491 7.53555 19.315 8.08411C18.7953 8.63267 18.1602 8.92138 17.3951 8.95025C16.6155 8.97912 15.9371 8.70485 15.3741 8.14185C14.7966 7.57886 14.5224 6.90038 14.5368 6.12086V1.51587H15.2586V4.24422C15.7927 3.63792 16.4567 3.3059 17.2507 3.29146C18.0302 3.26259 18.6943 3.52243 19.2573 4.09986C19.8347 4.66285 20.109 5.34133 20.109 6.12086ZM19.4882 6.12086C19.4738 5.54343 19.2573 5.03818 18.8531 4.61954C18.4344 4.20091 17.9436 3.99881 17.3518 3.99881C16.7599 3.99881 16.298 4.20091 15.8938 4.61954C15.4896 5.03818 15.2875 5.52899 15.273 6.12086C15.2586 6.74159 15.4607 7.27571 15.8938 7.72322C16.3268 8.17073 16.8465 8.38726 17.4528 8.35839C18.0302 8.32952 18.5066 8.09855 18.9108 7.66548C19.3006 7.21797 19.5027 6.69828 19.4882 6.12086Z" fill="white"/>
<path d="M26.3884 6.38063H21.4659C21.5236 6.92918 21.7546 7.39113 22.1732 7.75202C22.5774 8.11291 23.0682 8.28614 23.6312 8.28614C24.4974 8.2717 25.1181 7.8675 25.4934 7.08798H26.2729C26.0708 7.67984 25.7244 8.14178 25.2336 8.48824C24.7428 8.8347 24.2086 9.00792 23.6023 9.02236C22.8517 9.0368 22.1876 8.76252 21.6102 8.19952C21.0328 7.63653 20.7441 6.97249 20.7296 6.19296C20.7152 5.37013 21.0039 4.66278 21.5958 4.07092C22.2021 3.47905 22.895 3.20477 23.7178 3.24808C24.4541 3.29139 25.0892 3.59454 25.6233 4.15753C26.143 4.70609 26.4029 5.32682 26.4029 6.0053V6.38063H26.3884ZM25.6666 5.70215C25.5656 5.1969 25.3202 4.77827 24.9449 4.46068C24.5695 4.14309 24.122 3.9843 23.5879 3.96987C23.0682 3.96987 22.6063 4.11422 22.2021 4.44624C21.8123 4.76383 21.5525 5.18246 21.4514 5.70215H25.6666Z" fill="white"/>
<path d="M32.6102 6.12068V8.90677H31.874V8.04063C31.2677 8.73354 30.5314 9.06556 29.6653 9.03669C28.9002 9.00782 28.2506 8.7191 27.7165 8.15611C27.1824 7.59312 26.9081 6.91464 26.9081 6.13511C26.9081 5.35559 27.1968 4.6338 27.7742 4.04194C28.3517 3.46451 29.0446 3.19023 29.853 3.2191C30.6325 3.24797 31.2965 3.53669 31.8451 4.11412C32.3792 4.67711 32.6391 5.34115 32.6102 6.12068ZM31.874 6.06294C31.8595 5.47107 31.6574 4.98026 31.2532 4.56162C30.849 4.14299 30.3582 3.94089 29.7952 3.94089C29.2034 3.94089 28.6981 4.14299 28.2795 4.56162C27.8608 4.98026 27.6443 5.48551 27.6443 6.07737C27.6299 6.66923 27.832 7.17448 28.2217 7.62199C28.6259 8.05506 29.1023 8.30047 29.6653 8.3149C30.2716 8.34378 30.8057 8.12724 31.2388 7.67973C31.6719 7.21779 31.8884 6.68367 31.874 6.06294Z" fill="white"/>
<path d="M35.3964 9.0079C34.0105 9.0079 33.3176 8.41604 33.3176 7.24675V1.55908H34.0683V3.42129H35.3819V3.99871H34.0683V7.20344C34.0683 8.04071 34.5014 8.47378 35.3819 8.47378V9.0079H35.3964Z" fill="white"/>
<path d="M39.5394 7.26124C39.5827 7.75205 39.4094 8.17069 39.0197 8.53158C38.6444 8.89247 38.0814 9.05126 37.5906 9.02239C37.1286 8.99352 36.7533 8.80586 36.4357 8.47384C36.1325 8.14182 35.9738 7.73762 35.9738 7.27567H36.7244V7.46334C36.7244 7.651 36.8255 7.83867 37.0276 8.04077C37.2297 8.24286 37.5617 8.32948 37.7927 8.32948C38.0958 8.32948 38.3412 8.22843 38.5144 8.0552C38.6732 7.89641 38.7598 7.66544 38.7598 7.40559C38.7598 6.94365 38.5 6.62607 37.9659 6.45284L37.2152 6.25074C36.5512 6.0342 36.1903 5.5867 36.1614 4.87935C36.147 4.46071 36.2913 4.09982 36.5945 3.79667C36.8976 3.49352 37.2585 3.33473 37.6916 3.32029C38.0669 3.30586 38.4134 3.42134 38.731 3.68118C39.0486 3.94103 39.2218 4.25861 39.2507 4.63394V4.79273H38.4856V4.66281C38.4856 4.47515 38.399 4.31636 38.2402 4.20087C38.0814 4.08538 37.8937 4.02764 37.6772 4.02764C37.4751 4.02764 37.3018 4.11426 37.143 4.24418C36.9987 4.38853 36.9121 4.56176 36.9121 4.7783C36.8832 5.16806 37.1142 5.44234 37.605 5.61557L38.2402 5.8321C38.9908 6.04864 39.4961 6.53945 39.5394 7.26124Z" fill="white"/>
<path d="M5.51441 7.14559C6.42386 7.14559 7.16008 6.40937 7.16008 5.49992C7.16008 4.59047 6.42386 3.85425 5.51441 3.85425C4.60496 3.85425 3.86874 4.59047 3.86874 5.49992C3.8543 6.40937 4.59052 7.14559 5.51441 7.14559Z" fill="white"/>
<path d="M5.51444 0C4.95144 0 4.41732 0.0866142 3.91207 0.230971V3.11811C4.35958 2.81496 4.90814 2.64173 5.48556 2.64173C7.07349 2.64173 8.35827 3.92651 8.35827 5.51444C8.35827 7.10236 7.07349 8.38714 5.48556 8.38714C3.89764 8.38714 2.61286 7.10236 2.61286 5.51444V0.822835C1.03937 1.79003 0 3.52231 0 5.5C0 8.5315 2.4685 11 5.5 11C8.5315 11 11 8.5315 11 5.5C11 2.4685 8.54593 0 5.51444 0Z" fill="white"/>
</g>
<defs>
<clipPath id="clip0_72_754">
<rect width="39.5451" height="11" fill="white"/>
</clipPath>
</defs>
</svg>
