<svg width="286" height="75" viewBox="0 0 286 75" fill="none" xmlns="http://www.w3.org/2000/svg">
<g clip-path="url(#clip0_36_666)">
<path fill-rule="evenodd" clip-rule="evenodd" d="M61.6283 73.9966V16.1417H49.3726V73.9966H61.6283Z" stroke="#00FF67" stroke-width="2" stroke-linecap="round" stroke-linejoin="round"/>
<path fill-rule="evenodd" clip-rule="evenodd" d="M275.89 16.1417C275.89 16.1417 285.029 17.1743 285.029 26.1755V73.9966H272.783V27.8413C272.783 26.1657 271.142 26.1657 271.142 26.1657H259.517V73.9869H247.261V16.1417H275.9H275.89Z" stroke="#00FF67" stroke-width="2" stroke-miterlimit="10"/>
<path fill-rule="evenodd" clip-rule="evenodd" d="M61.6283 10.6183V1.1008L49.3726 1.1008V10.6183H61.6283Z" stroke="#00FF67" stroke-width="2" stroke-linecap="round" stroke-linejoin="round"/>
<path fill-rule="evenodd" clip-rule="evenodd" d="M27.7066 63.2322L13.2172 63.2517V11.7093H27.7357C27.7357 11.7093 31.5135 21.032 31.5135 37.4854C31.5135 53.9388 27.7066 63.2322 27.7066 63.2322ZM44.0508 37.4854C44.0508 0.974152 31.9893 0.974152 31.9893 0.974152L0.971191 0.974152L0.971191 73.9966L31.9796 73.9674C31.9796 73.9674 44.0508 73.9966 44.0508 37.4854ZM78.1086 35.1085C78.1086 40.5053 82.5079 40.4955 82.5079 40.4955H96.4437C96.4437 40.4955 106.116 40.2033 106.116 57.3386C106.116 74.474 96.3466 74.0064 96.3466 74.0064H67.5718V63.9823H90.9277C94.181 63.9823 94.181 60.1637 94.181 60.1637V54.4746C94.181 50.5488 90.9277 50.539 90.9277 50.539H75.1078C75.1078 50.539 66.0471 50.5585 66.0471 33.3939C66.0471 16.2294 75.1078 16.1612 75.1078 16.1612H105.097V26.1852H82.4302C78.0795 26.2534 78.0407 31.9035 78.0407 31.9035L78.1086 35.1182V35.1085Z" stroke="#00FF67" stroke-width="2" stroke-miterlimit="10"/>
<path d="M233.588 16.1417C233.588 16.1417 242.726 17.1743 242.726 26.1755V73.9966H216.136C206.425 73.9966 205.551 60.3487 205.551 60.3487M205.561 60.3487V50.7339C205.561 50.7339 206.173 36.9691 216.175 36.9691M216.166 36.9691H230.47V27.8413M230.48 27.8413C230.48 26.1657 228.839 26.1657 228.839 26.1657M228.839 26.1755H206.697L206.736 16.1514H233.597" stroke="#00FF67" stroke-width="2" stroke-linecap="round" stroke-linejoin="round"/>
<path fill-rule="evenodd" clip-rule="evenodd" d="M219.079 63.9726H230.48V47.0029H219.069C217.098 47.1295 217.049 49.672 217.049 49.672V61.3814C217.049 61.3814 217.263 63.9726 219.089 63.9726H219.079Z" stroke="#00FF67" stroke-width="2" stroke-miterlimit="10"/>
<path fill-rule="evenodd" clip-rule="evenodd" d="M167.793 27.8705C167.793 26.1949 166.103 26.1755 166.103 26.1755H161.733C159.451 26.1657 159.461 27.8997 159.461 27.8997V74.0064H147.205V16.1417H191.469C191.469 16.1417 200.647 17.1938 200.647 26.1949L200.598 74.0161H188.352V27.8705C188.352 26.1949 186.711 26.1949 186.711 26.1949H182.341C180.185 26.1755 180.068 27.8413 180.068 27.8413V73.9966H167.735L167.774 27.8705H167.793ZM143.388 73.9966V63.9726H127.306C121.887 63.9726 121.946 48.2595 121.946 48.2595V41.8496C121.946 41.8496 121.878 26.2047 127.306 26.1657H142.874V16.1417H119.965C110.457 16.1417 109.739 40.0961 109.739 40.0961V49.7889C109.739 49.7889 110.583 74.0064 119.586 74.0064H143.388V73.9966Z" stroke="#00FF67" stroke-width="2" stroke-linecap="round" stroke-linejoin="round"/>
</g>
<defs>
<clipPath id="clip0_36_666">
<rect width="286" height="75" fill="white"/>
</clipPath>
</defs>
</svg>
