<svg width="127" height="32" viewBox="0 0 127 32" fill="none" xmlns="http://www.w3.org/2000/svg">
<g clip-path="url(#clip0_42_765)">
<path d="M5.59283 27.2081H12.0476C14.2369 20.669 14.2935 11.5064 12.0476 4.79822H5.59283V27.2081ZM0.119507 0.116943H13.8437C13.8437 0.116943 19.3328 0.116942 19.3328 16.0031C19.3328 31.8893 13.8437 31.8893 13.8437 31.8893H0.119507V0.116943ZM102.521 20.1523H97.4535C97.4535 20.1523 96.6513 20.0785 96.5286 21.2965V26.3776C96.6639 27.5802 97.4251 27.5187 97.4251 27.5187H102.521V20.1554V20.1523Z" stroke="white" stroke-width="0.75" stroke-miterlimit="10"/>
<path d="M21.714 0.169189V4.32759H27.1842V0.169189H21.714ZM21.714 6.70821V31.8801H27.1842V6.70821H21.714ZM33.274 6.71744C33.274 6.71744 32.2643 6.71437 31.2357 7.63709C30.2071 8.56289 29.1596 10.4237 29.1596 14.1976C29.1596 17.9716 30.2071 19.8324 31.2357 20.7582C32.2643 21.684 33.274 21.6778 33.274 21.6778H40.2069C40.9493 21.6778 41.3456 22.1023 41.5312 22.5114C41.7168 22.9204 41.7168 23.3264 41.7168 23.3264V25.8639C41.7168 25.8639 41.7168 26.273 41.5312 26.6851C41.3456 27.0973 40.9461 27.5248 40.2069 27.5248H29.8328V31.8831H42.7077C42.7077 31.8831 43.774 31.8831 44.8592 30.985C45.9445 30.0838 47.0423 28.2722 47.0423 24.5936C47.0423 20.9151 45.9413 19.1034 44.8592 18.2023C43.774 17.3011 42.7077 17.3041 42.7077 17.3041H36.5863C35.5577 17.3041 35.0167 16.7074 34.7587 16.1261C34.5008 15.5448 34.504 14.9697 34.504 14.9697V13.724C34.504 13.724 34.504 13.075 34.7367 12.4199C34.8531 12.0908 35.0324 11.7586 35.3029 11.5064C35.5766 11.2511 35.9478 11.0819 36.4291 11.0819H46.5767V6.72359H33.274V6.71744ZM52.8553 6.71744C52.8553 6.71744 52.6163 6.71744 52.2293 6.90506C51.8424 7.09576 51.3171 7.47715 50.7887 8.25531C49.7286 9.81471 48.6497 12.9673 48.6497 19.2972C48.6497 25.6271 49.7034 28.7828 50.7415 30.3422C51.2605 31.1204 51.7732 31.5048 52.1507 31.6925C52.5282 31.8831 52.761 31.8801 52.761 31.8801H63.6667V27.5217H56.4413C56.1362 27.5217 55.8657 27.4079 55.6392 27.2142C55.4095 27.0204 55.2239 26.7497 55.0635 26.4237C54.7427 25.7747 54.5351 24.9104 54.3967 24C54.1167 22.1792 54.1167 20.18 54.1167 19.4326C54.1167 18.6851 54.1167 16.6182 54.3967 14.7297C54.5351 13.7855 54.7458 12.8874 55.0667 12.2138C55.2271 11.8755 55.4158 11.5956 55.6455 11.3926C55.8751 11.1926 56.1456 11.0727 56.4539 11.0727H63.4591V6.71437H52.8648L52.8553 6.71744ZM65.3779 6.71744H85.0913C87.4788 7.04655 89.2152 8.64901 89.2152 11.0758V31.8801H83.7073V11.7524C83.7073 11.0758 82.8454 11.0758 82.8454 11.0758H81.0146C81.0146 11.0758 80.0678 11.0758 80.0678 11.7524V31.8801H74.5316V11.7524C74.5316 11.0758 73.7106 11.0758 73.7106 11.0758H71.8232C71.8232 11.0758 70.8387 11.0758 70.8387 11.7524V31.8801H65.3748V6.71744H65.3779ZM110.008 6.71744H122.76C125.147 7.04655 126.884 8.64901 126.884 11.0758V31.8801H121.376V11.7524C121.376 11.0758 120.514 11.0758 120.514 11.0758H115.475V31.8801H110.011V6.71744H110.008Z" stroke="white" stroke-width="0.75" stroke-linejoin="round"/>
<path d="M91.9173 6.71753H103.905C106.293 7.04663 108.029 8.64909 108.029 11.0759V31.8802H95.7549C95.7549 31.8802 92.0525 31.8802 91.3888 25.9747L91.4014 21.7825C91.9581 15.7879 95.7297 15.7879 95.7297 15.7879H102.521V11.7525C102.521 11.0759 101.659 11.0759 101.659 11.0759H91.9204V6.71753H91.9173Z" stroke="white" stroke-width="0.75" stroke-linejoin="round"/>
</g>
<defs>
<clipPath id="clip0_42_765">
<rect width="127" height="32" fill="white"/>
</clipPath>
</defs>
</svg>
