<svg width="48" height="16" viewBox="0 0 48 16" fill="none" xmlns="http://www.w3.org/2000/svg">
<g clip-path="url(#clip0_43_988)">
<path d="M26.6487 4.46968C26.6161 4.41781 26.6055 4.35539 26.6209 4.29585C26.6507 4.24591 26.7073 4.21709 26.7649 4.22382H31.516C31.5563 4.21133 31.5995 4.23438 31.612 4.27472C31.6168 4.28912 31.6168 4.30545 31.612 4.31986L31.6312 4.55035C31.6399 4.75491 31.6677 4.97676 31.6812 5.1746L31.6888 5.4339C31.7004 5.60869 31.708 5.79885 31.708 5.97172C31.6917 6.0303 31.6322 6.06487 31.5736 6.04855C31.5237 6.05143 31.4804 6.01397 31.4776 5.96403C31.4776 5.96019 31.4776 5.95635 31.4776 5.95251C31.4238 5.75851 31.3537 5.57028 31.2663 5.38972L31.1702 5.23606C30.9983 5.04975 30.6516 5.05359 30.3251 5.05359L29.0324 5.04783C28.8154 5.06319 28.6444 5.23894 28.6348 5.45695V6.76403C28.6387 6.82358 28.6511 6.8812 28.6732 6.9369C28.6915 7.02814 28.7721 7.09248 28.8653 7.09056H29.8065C30.0562 7.09056 30.3059 7.01085 30.4403 6.78036L30.7092 6.30017C30.7525 6.26463 30.812 6.25695 30.8629 6.28096C30.9215 6.29729 30.9561 6.35683 30.9397 6.41541C30.9397 6.41541 30.9474 6.96763 30.9474 7.16643C30.9474 7.36523 30.9589 8.24014 30.9589 8.24014V8.78084C30.9484 8.82502 30.908 8.85575 30.8629 8.85479C30.8187 8.85191 30.7803 8.82214 30.7669 8.77988C30.7025 8.55227 30.6218 8.32946 30.5239 8.11337L30.4336 7.99044C30.3376 7.85599 30.1849 7.8339 30.0303 7.8339H28.9076C28.8355 7.83006 28.7654 7.85791 28.7155 7.91073C28.6675 7.96355 28.6406 8.03174 28.6387 8.10281L28.6194 9.50785L28.63 9.57412C28.6636 9.78732 28.654 9.81613 28.7654 10.0101C28.8365 10.1033 28.9383 10.1676 29.0535 10.1916C29.139 10.2099 29.2264 10.2214 29.3138 10.2262L30.0014 10.206C30.6219 10.1436 30.9407 10.1359 31.3671 9.84975C31.6043 9.69128 31.7676 9.36379 31.8579 9.18612C31.8982 9.14098 31.9645 9.13138 32.0163 9.16211C32.0375 9.18708 32.0509 9.21589 32.0576 9.24759C32.0759 9.45119 32.0547 9.65671 31.9971 9.85359L31.9395 10.0457L31.8924 10.1964C31.8435 10.3271 31.783 10.4529 31.7119 10.5729C31.4622 10.9177 31.1971 11.0742 30.7938 11.0742C30.448 11.0742 29.9803 11.0445 29.6346 11.006L29.0199 10.9484L28.5589 10.9292H27.9251L26.811 10.9484C26.7813 10.9484 26.7525 10.934 26.7342 10.91L26.6958 10.7948C26.7112 10.7189 26.7611 10.6555 26.8303 10.6219L27.1184 10.5259C27.2912 10.4567 27.4055 10.2896 27.4065 10.1033L27.4449 5.33402C27.4526 5.25527 27.4507 5.17556 27.4391 5.09777C27.3882 4.90473 27.2528 4.74435 27.0703 4.66175C26.9128 4.59453 26.8206 4.57244 26.7697 4.55131C26.7236 4.53402 26.6824 4.50617 26.6487 4.46968ZM26.3299 5.30137L26.2444 4.36499C26.2377 4.292 26.1772 4.23534 26.1032 4.23246L20.1681 4.24495C20.122 4.26511 20.0922 4.31025 20.0912 4.36019L19.976 5.14771C19.6552 4.82118 19.2691 4.56571 18.8427 4.39861L18.7467 4.36019C17.8824 4.01445 16.9325 4.0279 16.0298 4.2776C15.0819 4.55035 14.304 5.22742 13.9016 6.1273C13.9016 6.14555 13.892 6.16187 13.8756 6.1686C13.8612 6.17436 13.8487 6.14459 13.8487 6.14459C13.7604 5.7249 13.7786 5.28984 13.9016 4.8788C13.9342 4.79044 13.9275 4.69248 13.8824 4.60989C13.8372 4.51769 13.7277 4.47544 13.6327 4.51385L13.0478 4.73954C12.9786 4.75875 12.9066 4.75875 12.8375 4.73954L11.8194 4.39765C11.6658 4.34098 11.492 4.29104 11.3575 4.25263C10.739 4.04519 10.0725 4.02886 9.44538 4.20653C9.17935 4.28336 8.92101 4.38804 8.67707 4.51865C8.31789 4.73858 8 5.02094 7.73878 5.35131L7.39496 5.81998C7.39496 5.81998 7.30948 4.95563 7.31813 4.3794C7.31813 4.10377 7.35654 3.51505 7.35654 3.51505C7.35654 3.41901 7.2605 3.35851 7.17791 3.34603C7.09244 3.34218 7.01273 3.3854 6.96759 3.45743C6.96759 3.45743 6.5988 4.171 6.5066 4.30257C6.43746 4.38132 6.36062 4.45143 6.27611 4.51385C6.15318 4.59645 6.01681 4.65599 5.87275 4.6896C5.72197 4.72802 5.56735 4.74723 5.41176 4.74723H4.03361C3.80312 4.74723 3.61104 4.60989 3.59184 4.3794L3.55342 3.49585L3.57263 1.74218C3.57263 1.61733 3.5928 1.49248 3.63025 1.3734C3.70708 1.1429 3.89916 1.04398 4.12965 0.989243C4.23818 0.972917 4.3467 0.967154 4.45618 0.970035L6.16567 0.950828C6.58824 0.950828 7.0108 0.992124 7.37575 1.20341C7.64466 1.35707 7.83577 1.54338 7.91645 1.74603C7.98079 1.93906 8.02785 2.13786 8.05666 2.33954C8.08259 2.41253 8.13349 2.47304 8.19976 2.51241C8.26122 2.5393 8.33229 2.53738 8.39184 2.50665C8.43601 2.46439 8.46675 2.41061 8.48115 2.35107C8.50708 2.25695 8.52149 2.15995 8.52341 2.06295C8.52341 1.94386 8.52341 1.48 8.51092 1.13714C8.50132 0.801968 8.46867 0.467754 8.41489 0.136422C8.3928 0.0547893 8.31693 -0.00187339 8.23241 4.73812e-05L0.129652 0.0960858C0.0797119 0.0970462 0.0345738 0.126818 0.0144058 0.172917C-0.00480192 0.216134 -0.00480192 0.264153 0.0144058 0.30737C0.0307323 0.363073 0.0739496 0.40629 0.129652 0.422616L0.47539 0.518655C0.727011 0.573397 0.963265 0.683841 1.16687 0.842304C1.40216 1.01613 1.64706 1.20821 1.70468 1.49633C1.75942 1.72874 1.78535 1.96787 1.78151 2.20701C1.78151 2.20701 1.85162 8.53594 1.85162 8.96811C1.85354 9.21493 1.81128 9.46079 1.72869 9.6932L1.58752 10.0101C1.46267 10.2185 1.29172 10.3962 1.08812 10.5287L0.761585 10.7208C0.684754 10.7496 0.642497 10.8332 0.665546 10.9129C0.693397 10.9974 0.77599 11.0521 0.864346 11.0445L2.68908 10.9484H3.72629L5.7431 11.1021C6.13878 11.1367 6.53733 11.1434 6.93397 11.1213C7.34598 11.104 7.74646 10.9849 8.10084 10.7746L8.20264 10.7093C8.42257 10.5508 8.59352 10.3347 8.69628 10.0841L9.51645 10.4413L10.6689 10.8831C11.2365 11.0982 11.783 11.3643 12.3016 11.6783C12.6809 11.9213 12.9556 12.2987 13.0699 12.7347C13.1256 12.9672 13.1381 13.2082 13.1083 13.4454C13.0708 13.6385 13.0132 13.8267 12.9373 14.0082C12.8538 14.1638 12.7491 14.3069 12.6262 14.4337C12.4456 14.6046 12.2411 14.7487 12.0192 14.8601C11.8819 14.9302 11.1712 15.2116 10.7102 15.1962C10.2492 15.1808 10.1253 15.1472 10.0831 15.1367C9.89292 15.0896 9.70564 15.0329 9.52125 14.9657C9.42521 14.9254 8.86339 14.6171 8.56086 14.2714C8.01441 13.6548 7.60816 12.9278 7.36999 12.1393C7.35078 12.0596 7.3114 11.9866 7.25474 11.928C7.20672 11.8742 7.13277 11.8521 7.06267 11.8704C6.98679 11.8886 6.92725 11.9482 6.909 12.0241C6.8898 12.1191 6.8898 12.2171 6.909 12.3122L7.23553 13.6951L7.33157 14.1945C7.39016 14.5115 7.42857 14.8322 7.44682 15.1549C7.4593 15.3163 7.5928 15.4401 7.75414 15.443C7.75414 15.443 8.09124 15.3921 8.25354 15.4622C8.41585 15.5323 9.48283 15.808 9.48283 15.808C9.83818 15.904 10.2022 15.9607 10.569 15.9789L10.9426 16L11.3719 15.9741L11.8079 15.9088C12.219 15.7974 12.6089 15.6178 12.9604 15.3768C13.2447 15.1741 13.4905 14.9225 13.6884 14.6344C13.9765 14.2176 14.1801 13.7489 14.2867 13.2533L14.3424 12.8279L14.3625 12.5571C14.4058 12.0173 14.2876 11.4776 14.0216 11.006C13.6595 10.3069 13.0776 9.74699 12.3659 9.41181L11.3229 8.99693L10.06 8.56667C9.76519 8.44182 9.48379 8.2872 9.21969 8.10569C8.97767 7.9405 8.77407 7.72346 8.62425 7.47184C8.4072 7.1213 8.33037 6.70161 8.40912 6.29633L8.47059 6.10425C8.71549 5.61061 9.14574 5.23318 9.66723 5.05647C10.1945 4.88552 10.764 4.8932 11.2874 5.07664C11.7253 5.24663 12.025 5.40221 12.025 5.40221C12.7357 5.8824 13.1957 6.41157 13.4655 7.2183L13.5241 7.4315C13.5491 8.00293 13.6711 8.56571 13.8862 9.09585C13.9534 9.26007 14.0379 9.41565 14.1378 9.56163C14.5085 10.0678 15.078 10.5681 15.5304 10.764C15.9616 10.9513 16.4178 11.0723 16.8855 11.1213C17.3974 11.1674 17.914 11.1357 18.4163 11.0253C19.0569 10.8946 19.6312 10.5412 20.0375 10.0284C20.5724 9.38396 20.8634 8.5734 20.8605 7.73594V7.51025C20.8538 6.96475 20.7289 6.4279 20.4956 5.93522L20.3995 5.72394C20.3505 5.6279 20.3352 5.64711 20.3755 5.50689L20.4908 5.31481C20.5868 5.18036 20.6886 5.16499 20.8317 5.13426C21.019 5.10353 21.2091 5.09104 21.3983 5.09777H22.3011C22.3789 5.09393 22.4557 5.12178 22.5124 5.1746C22.5709 5.2303 22.6055 5.30521 22.6084 5.38588L22.5892 9.76811C22.5892 9.86799 22.5604 9.96499 22.5076 10.0495C22.4509 10.1494 22.376 10.2387 22.2867 10.3107C22.1148 10.4356 21.9256 10.5355 21.7249 10.6065C21.6528 10.6325 21.5904 10.6449 21.552 10.7026C21.5299 10.766 21.5366 10.837 21.5712 10.8946C21.6048 10.9571 21.6759 10.9878 21.7441 10.9715L21.8593 10.9907C22.8341 10.8533 23.8242 10.8591 24.7981 11.0099L24.9133 10.9715C24.9921 10.9331 25.0324 10.8447 25.0094 10.7602C24.9911 10.6843 24.9316 10.6248 24.8557 10.6065L24.4898 10.4625C24.2689 10.352 23.8579 9.99381 23.8579 9.7249L23.8675 5.42622C23.8607 5.3369 23.8857 5.24759 23.9385 5.1746C23.9587 5.14194 23.9875 5.11505 24.0211 5.09681C24.12 5.04014 24.2334 5.01325 24.3477 5.01998H25.0391C25.5011 5.01998 25.7114 5.16115 25.9755 5.57796L26.1436 5.88048C26.182 5.9381 26.328 5.94771 26.3453 5.86319C26.3549 5.67592 26.3501 5.48768 26.3299 5.30137ZM7.88475 9.47328C7.78487 9.54819 7.67635 9.61253 7.56303 9.66535C7.28259 9.78828 6.99352 9.892 6.69868 9.97652C6.54406 10.0159 6.22617 10.0812 6.06867 10.1014C5.91116 10.1215 5.2581 10.1331 5.2581 10.1331L4.509 10.0975C4.37455 10.0812 4.2401 10.0562 4.10852 10.0245C3.98271 9.99188 3.86747 9.92562 3.77623 9.83246C3.71285 9.71433 3.67059 9.5866 3.64946 9.45503C3.57359 9.03246 3.59184 8.68672 3.59184 8.25935C3.59184 8.25935 3.5976 6.33186 3.64946 5.95443C3.67539 5.76235 3.87995 5.62502 4.09124 5.62502C4.09124 5.62502 5.74406 5.60101 5.83914 5.60581C5.90444 5.61061 5.96879 5.6231 6.03121 5.64423C6.41537 5.72106 6.72269 5.93234 6.83793 6.30017C6.93589 6.58732 7.006 6.88312 7.04922 7.18372L7.10684 7.58708L7.16447 7.8752C7.27107 8.42166 7.51981 8.9297 7.88475 9.34939C7.90108 9.36475 7.91068 9.38588 7.91357 9.40797C7.91164 9.43198 7.90108 9.45503 7.88475 9.47328ZM19.4487 8.89705C19.3287 9.31769 19.0828 9.69224 18.7448 9.9698C18.546 10.1187 18.3203 10.2272 18.0802 10.2896C17.7767 10.3895 17.4569 10.4279 17.1381 10.4039C16.654 10.3904 16.1892 10.2089 15.8233 9.892C15.3998 9.53858 15.102 8.94699 14.9916 8.3698C14.9388 8.06824 14.9071 7.76379 14.8956 7.45839C14.8956 7.36235 14.9032 7.19429 14.9109 7.07424C14.9465 6.74867 15.0262 6.42982 15.1462 6.12538C15.2327 5.90353 15.3604 5.69993 15.5227 5.52514C15.7657 5.22838 16.097 5.01709 16.4687 4.9201C16.7357 4.8423 17.0132 4.80965 17.2908 4.82406C17.4944 4.82982 17.696 4.86151 17.891 4.9201C18.2415 5.02286 18.5642 5.20341 18.836 5.44831C19.0636 5.67208 19.2403 5.94387 19.3527 6.24254C19.4727 6.53066 19.5208 6.71505 19.587 7.34026C19.6408 7.86367 19.5938 8.39188 19.4487 8.89705ZM41.6864 10.7948C41.6672 10.7564 41.6269 10.7515 41.5712 10.7371C41.4214 10.6949 41.2764 10.6373 41.1371 10.5672C40.9863 10.4951 40.8442 10.4077 40.7107 10.3069C40.4956 10.1148 40.3083 9.90737 40.2891 9.61926L40.2651 9.16211V5.30233C40.2651 5.07088 40.4648 4.7261 40.6406 4.59356L40.8413 4.47544C40.9085 4.45335 40.9546 4.39188 40.9565 4.32178C40.9383 4.26031 40.8855 4.21517 40.8221 4.20653L40.1882 4.22574C39.9001 4.22574 39.661 4.26127 39.3729 4.28048C39.1606 4.29969 38.9359 4.29296 38.7246 4.29296C38.5517 4.2872 38.3798 4.27088 38.2098 4.24495C38.1436 4.21998 38.0687 4.23438 38.0178 4.28336C37.9794 4.37652 38.0024 4.48312 38.0754 4.55227L38.594 4.81349C38.7669 4.8884 38.9397 4.98444 38.9974 5.15731C39.0348 5.25527 39.054 5.35995 39.055 5.46463L39.0934 10.0197C39.08 10.1801 38.9628 10.3127 38.8053 10.3463C38.5613 10.3674 38.3174 10.3059 38.1138 10.1705C37.8535 10.0255 37.6403 9.80845 37.4992 9.54627L36.9229 8.48984C36.7501 8.16331 36.6127 7.94531 36.4581 7.61974L36.8048 7.40845C37.1496 7.19717 37.381 6.76115 37.4607 6.377L37.48 6.28096C37.5145 6.04567 37.5145 5.80557 37.48 5.57028L37.4607 5.47424C37.3263 4.78276 36.7116 4.32178 36.0202 4.22574C36.0202 4.22574 35.7791 4.18924 35.5938 4.1758C35.4084 4.16235 34.934 4.17004 34.934 4.17004L34.6824 4.17772L33.3176 4.21709C33.0583 4.23726 32.799 4.24014 32.5397 4.22766L32.1882 4.20269C32.1258 4.19885 32.0672 4.23054 32.0355 4.28432C32.0125 4.34194 32.0125 4.40629 32.0355 4.46391C32.0691 4.51481 32.1172 4.55611 32.1729 4.58108C32.2401 4.61085 32.461 4.66271 32.5974 4.72514C32.8173 4.85095 32.9671 5.06992 33.0046 5.32058C33.0142 5.38396 33.0209 5.44831 33.0238 5.51265V9.71433C33.0094 9.8776 32.9767 10.038 32.9277 10.1945C32.8528 10.4068 32.7164 10.4951 32.5359 10.6257L32.3909 10.716C32.3169 10.74 32.2699 10.8121 32.2756 10.8889C32.3054 10.958 32.3736 11.0032 32.4485 11.0041C32.4485 11.0041 33.9457 10.9148 34.1849 10.9206C34.424 10.9263 35.0415 10.9657 35.0415 10.9657C35.1222 10.9638 35.1923 10.9091 35.2144 10.8313C35.2182 10.7487 35.1616 10.6747 35.08 10.6584L34.6276 10.4145C34.5661 10.3732 34.5076 10.328 34.4528 10.279C34.3587 10.1849 34.2876 10.0697 34.2463 9.9429C34.1926 9.78828 34.1628 9.62598 34.158 9.46271V8.09609C34.1609 8.00677 34.2367 7.93666 34.3261 7.93954C34.3337 7.93954 34.3424 7.9405 34.3501 7.94242H34.8879C35.1184 7.94242 35.4363 8.06247 35.5208 8.19981L35.5803 8.29585L35.7724 8.68C36.0365 9.22742 36.3313 9.76043 36.6559 10.2742C36.8663 10.5796 37.1688 10.8092 37.5203 10.9273C37.6788 10.9638 37.8391 10.9897 38.0005 11.0041L38.3078 11.0233L39.0185 10.9465C39.466 10.911 39.9145 10.9052 40.363 10.9273L40.9777 10.9657C41.189 10.9849 41.381 10.9849 41.5923 11.0041C41.6307 11.0041 41.6691 10.9657 41.7076 10.9273C41.7287 10.8831 41.72 10.8303 41.6864 10.7948ZM35.4824 7.24711L35.0982 7.26727H34.4643C34.3837 7.26439 34.3088 7.22982 34.2531 7.17124C34.2012 7.12802 34.1724 7.06175 34.1762 6.99453L34.1858 5.1698C34.1858 4.97772 34.3453 4.8932 34.5565 4.874H34.7486L34.9493 4.8692L35.2048 4.89032C35.781 4.96715 36.1124 5.12658 36.34 5.55299L36.4168 5.78348C36.4965 6.14747 36.5071 6.53546 36.3083 6.8399C36.1364 7.10689 35.8281 7.22886 35.4824 7.24711ZM44.5292 4.11049C44.8058 4.10473 45.0814 4.12202 45.3551 4.16235C45.6634 4.21517 45.9659 4.29681 46.2579 4.40821L46.7044 4.56859C46.8504 4.61469 47.0089 4.55131 47.0838 4.41781C47.1155 4.38708 47.1558 4.36787 47.199 4.36019C47.2471 4.35443 47.2951 4.36883 47.3335 4.39861C47.3815 4.45143 47.4084 4.51962 47.4103 4.59068V4.8788C47.3748 5.23126 47.3873 5.5866 47.4487 5.93522L47.5256 6.39621C47.5333 6.46727 47.5256 6.5393 47.5064 6.60749C47.4776 6.6411 47.4353 6.66223 47.3911 6.66511C47.3412 6.66415 47.296 6.63438 47.2759 6.58828C47.0627 5.9333 46.6103 5.38204 46.0082 5.04591C45.3801 4.68384 44.2017 4.71073 43.5496 5.15443C43.0425 5.49921 42.8072 5.94291 42.666 6.51145L42.6084 6.79957C42.5623 7.10977 42.5575 7.42382 42.5959 7.73498C42.5959 7.73498 42.5959 7.76956 42.6708 8.1854C42.7275 8.51577 42.8427 8.83366 43.0118 9.1237C43.1645 9.35131 43.3527 9.55203 43.5697 9.71818C43.9011 9.95539 44.2785 10.1187 44.678 10.1984C45.1448 10.2637 45.6211 10.2205 46.0687 10.0716C46.4182 9.93234 46.5133 9.90257 46.6689 9.80653C46.9426 9.64615 47.1914 9.44927 47.4103 9.21974C47.4478 9.17556 47.514 9.17076 47.5582 9.20917C47.5947 9.24086 47.6053 9.29272 47.5832 9.33498C47.539 9.47232 47.4737 9.60101 47.3911 9.71914C47.1078 10.0937 46.7573 10.4125 46.3587 10.6603C46.0956 10.8236 45.8094 10.9455 45.5097 11.0214C45.1918 11.0906 44.8672 11.1155 44.5426 11.0973C44.1316 11.0714 43.7263 10.9888 43.3383 10.8524C42.6334 10.6056 42.0447 10.1062 41.6864 9.45023C41.1208 8.38516 41.0996 7.11457 41.6288 6.03126C42.1666 4.89801 43.2413 4.1297 44.5292 4.11049Z" fill="white"/>
</g>
<defs>
<clipPath id="clip0_43_988">
<rect width="47.5947" height="16" fill="white"/>
</clipPath>
</defs>
</svg>
