<svg width="32" height="20" viewBox="0 0 32 20" fill="none" xmlns="http://www.w3.org/2000/svg">
<path d="M15.8 19.125C6.2804 19.125 1.26819 10.4824 1.06085 10.113C0.979717 9.96528 0.979717 9.79292 1.06085 9.64519C1.26819 9.27584 6.2804 0.625 15.8 0.625C25.3196 0.625 30.3318 9.27584 30.5391 9.64519C30.6203 9.79292 30.6203 9.96528 30.5391 10.113C30.3318 10.4824 25.3196 19.125 15.8 19.125ZM2.20573 9.875C3.07114 11.2457 7.81291 18.099 15.8 18.099C23.7871 18.099 28.5289 11.2457 29.3943 9.875C28.5289 8.50433 23.7871 1.65095 15.8 1.65095C7.81291 1.65095 3.07114 8.51253 2.20573 9.875Z" fill="white" stroke="white" stroke-miterlimit="10"/>
<circle cx="15.8" cy="9.87495" r="4.55" stroke="white" stroke-width="2"/>
</svg>
