<svg width="27" height="24" viewBox="0 0 27 24" fill="none" xmlns="http://www.w3.org/2000/svg">
<path fill-rule="evenodd" clip-rule="evenodd" d="M26.4445 18.1594C26.4445 19.2863 25.839 20.1945 24.8131 20.5981C24.8131 21.9352 23.6862 23.0536 22.3576 23.0536C21.0289 23.0536 19.9188 21.9268 19.9188 20.5981V15.8132C19.9188 14.6864 20.6336 13.8623 21.5503 13.467V10.0949C21.5503 5.60431 17.9847 2.03876 13.4773 2.03876C8.96992 2.03876 5.30346 5.61272 5.30346 10.1033V13.4754C6.32939 13.8623 7.04418 14.6948 7.04418 15.8216V20.6065C7.04418 21.9436 5.92575 23.062 4.58866 23.062C3.1759 23.062 2.14996 21.9352 2.14996 20.6065C1.12403 20.2029 0.518555 19.2863 0.518555 18.1678C0.518555 17.1419 1.12403 16.2337 2.14996 15.8216C2.14996 14.6948 2.77225 13.8707 3.78978 13.4754V10.1033C3.78978 4.80542 8.07012 0.407349 13.4689 0.407349C18.8677 0.407349 23.1817 4.80542 23.1817 10.1033V13.4754C24.0899 13.8623 24.8131 14.6948 24.8131 15.8216C25.839 16.2253 26.4445 17.1419 26.4445 18.1678V18.1594Z" fill="white"/>
</svg>
