<svg width="57" height="74" viewBox="0 0 57 74" fill="none" xmlns="http://www.w3.org/2000/svg">
<g clip-path="url(#clip0_36_597)">
<path d="M0.967773 71.2554L0.967773 61.5708H1.89413L1.89413 71.2554H0.967773Z" fill="#00FF67"/>
<path d="M5.81286 71.269C5.71299 71.2894 5.58213 71.3235 5.41683 71.3711C5.25498 71.4188 5.07246 71.4426 4.87273 71.4426C4.46293 71.4426 4.153 71.3337 3.93949 71.1123C3.72598 70.8944 3.61922 70.5028 3.61922 69.9375V64.4005H2.62744V63.6718H3.61922V61.5674H4.43538V63.6718H5.75431V64.4005H4.43882V69.5868C4.43882 69.7707 4.44227 69.9341 4.4526 70.0703C4.46293 70.2065 4.48704 70.3189 4.53525 70.4074C4.58002 70.496 4.65233 70.5573 4.74531 70.5981C4.84174 70.6356 4.9726 70.656 5.14822 70.656C5.25842 70.656 5.36862 70.6458 5.48226 70.6254C5.5959 70.6049 5.7061 70.5811 5.8163 70.5539V71.269H5.81286Z" fill="#00FF67"/>
<path d="M6.79105 63.1474C6.79105 63.3926 6.72217 63.5901 6.58787 63.7399C6.45356 63.8863 6.28138 63.9885 6.06787 64.0464V63.7365C6.14708 63.6922 6.22284 63.6309 6.29515 63.5526C6.36747 63.4743 6.40535 63.3517 6.40535 63.1848V62.8988H6.06787V62.1599H6.7876V63.1474H6.79105Z" fill="#00FF67"/>
<path d="M7.33506 68.8104C7.46247 69.4438 7.68976 69.8898 8.02035 70.1486C8.35095 70.4074 8.82618 70.5368 9.4426 70.5368C9.7422 70.5368 10.0005 70.4994 10.2174 70.4245C10.4344 70.3496 10.6135 70.2474 10.7546 70.118C10.8958 69.992 11.0026 69.8456 11.0749 69.6855C11.1472 69.5255 11.1851 69.3552 11.1851 69.1747C11.1851 68.8172 11.0749 68.5482 10.8511 68.3745C10.6272 68.2008 10.3483 68.0612 10.0142 67.9625C9.68021 67.8637 9.31518 67.7786 8.92604 67.7071C8.53691 67.6355 8.17187 67.53 7.83784 67.387C7.5038 67.2439 7.22486 67.043 7.00102 66.7774C6.77718 66.5118 6.66698 66.1406 6.66698 65.6571C6.66698 65.0441 6.88393 64.5402 7.31439 64.1485C7.74486 63.7569 8.35439 63.5594 9.14299 63.5594C9.9316 63.5594 10.5239 63.7365 10.9991 64.0907C11.4744 64.4448 11.7636 65.0373 11.8635 65.8716H11.0336C10.9613 65.3029 10.7546 64.9045 10.4137 64.673C10.0728 64.4414 9.64577 64.3256 9.12922 64.3256C8.61267 64.3256 8.21664 64.4414 7.94459 64.673C7.67254 64.9045 7.53823 65.211 7.53823 65.589C7.53823 65.9193 7.64843 66.1713 7.87227 66.3484C8.09611 66.522 8.37161 66.665 8.70909 66.774C9.04313 66.883 9.40816 66.9783 9.7973 67.0635C10.1864 67.1486 10.5515 67.2678 10.8855 67.4244C11.2195 67.5811 11.4985 67.7922 11.7223 68.0544C11.9462 68.32 12.0564 68.6878 12.0564 69.1611C12.0564 69.5119 11.984 69.8217 11.8394 70.0908C11.6948 70.3598 11.495 70.5845 11.2402 70.765C10.9854 70.9455 10.6858 71.0783 10.3345 71.1702C9.9867 71.2588 9.60101 71.3064 9.18432 71.3064C8.76763 71.3064 8.39571 71.2417 8.07545 71.1157C7.75174 70.9897 7.47969 70.8093 7.25241 70.5845C7.02512 70.3564 6.8495 70.0942 6.72208 69.7911C6.59466 69.488 6.52235 69.1611 6.50513 68.8138H7.33506V68.8104Z" fill="#00FF67"/>
<path d="M18.1895 66.8251C18.3444 66.8047 18.527 66.7774 18.7405 66.74C18.954 66.7025 19.1296 66.6514 19.2639 66.5833C19.3982 66.5186 19.4843 66.4062 19.5153 66.2496C19.5463 66.093 19.5635 65.9499 19.5635 65.8171C19.5635 65.3813 19.4292 65.0271 19.1606 64.7479C18.892 64.4686 18.4409 64.329 17.8072 64.329C17.5248 64.329 17.2666 64.3563 17.0324 64.4073C16.7948 64.4584 16.5916 64.5504 16.4125 64.6764C16.2335 64.8024 16.0888 64.9726 15.9786 65.1872C15.865 65.3983 15.7892 65.6673 15.7548 65.9874H14.9249C14.9524 65.5515 15.0488 65.1803 15.2107 64.8739C15.3725 64.5674 15.586 64.3154 15.8443 64.1213C16.1026 63.9272 16.4022 63.7876 16.7431 63.6956C17.0841 63.6071 17.4422 63.5594 17.8244 63.5594C18.1791 63.5594 18.5132 63.6003 18.8231 63.6786C19.1365 63.7603 19.4085 63.8863 19.6393 64.06C19.87 64.2337 20.0525 64.4686 20.1834 64.7615C20.3142 65.0543 20.3797 65.4153 20.3797 65.8376V69.8354C20.3797 70.1657 20.4348 70.3768 20.5484 70.4653C20.662 70.5539 20.8893 70.5334 21.2337 70.4006V71.0681C21.1717 71.0885 21.0787 71.1157 20.9548 71.1532C20.8308 71.1907 20.7137 71.2111 20.5932 71.2111C20.4658 71.2111 20.3452 71.1975 20.2247 71.1668C20.0904 71.1464 19.9802 71.1021 19.8976 71.0306C19.8149 70.9591 19.7495 70.874 19.7013 70.7752C19.6496 70.6765 19.6186 70.5675 19.5979 70.4483C19.5807 70.3291 19.5704 70.2065 19.5704 70.0737C19.226 70.4721 18.83 70.7718 18.3858 70.9795C17.9415 71.1872 17.4594 71.2928 16.9429 71.2928C16.6329 71.2928 16.3368 71.2519 16.0509 71.1668C15.7651 71.0817 15.5137 70.9489 15.2968 70.7684C15.0798 70.5879 14.9076 70.37 14.7802 70.1078C14.6528 69.849 14.5908 69.5391 14.5908 69.1781C14.5908 67.9318 15.4104 67.1929 17.0531 66.9647L18.1895 66.8251ZM19.5635 67.2508C19.2191 67.4006 18.8713 67.5027 18.5166 67.547C18.1619 67.5947 17.8107 67.6321 17.456 67.6594C16.8292 67.7071 16.3437 67.8535 15.9924 68.0987C15.6446 68.3438 15.469 68.7184 15.469 69.219C15.469 69.4472 15.5103 69.6413 15.5998 69.8081C15.6859 69.975 15.7996 70.1112 15.9407 70.2202C16.0819 70.3291 16.2438 70.4108 16.4298 70.4619C16.6157 70.513 16.8051 70.5402 16.9945 70.5402C17.3217 70.5402 17.6385 70.4994 17.9484 70.4143C18.2584 70.3291 18.5304 70.1997 18.7715 70.0226C19.0125 69.849 19.2054 69.6242 19.35 69.3552C19.4946 69.0862 19.567 68.7661 19.567 68.3983V67.2508H19.5635Z" fill="#00FF67"/>
<path d="M24.6535 68.0578C24.6879 68.5107 24.7878 68.8955 24.9462 69.2122C25.1046 69.5289 25.3078 69.7877 25.5592 69.9852C25.8071 70.1827 26.0964 70.3291 26.4236 70.4177C26.7507 70.5062 27.0985 70.5539 27.4704 70.5539C27.9043 70.5539 28.2831 70.496 28.6 70.3836C28.9168 70.2712 29.1751 70.118 29.3748 69.9239C29.5745 69.7298 29.7226 69.505 29.8156 69.2497C29.912 68.9943 29.9568 68.7252 29.9568 68.4426C29.9568 68.0442 29.8707 67.7241 29.6985 67.4789C29.5263 67.2337 29.3025 67.0328 29.0235 66.8762C28.748 66.7195 28.4278 66.5935 28.0696 66.5016C27.7115 66.4062 27.343 66.3143 26.9677 66.2258C26.5923 66.1372 26.2238 66.0283 25.8657 65.9057C25.5075 65.7831 25.1907 65.6162 24.9118 65.4085C24.6363 65.2008 24.409 64.9352 24.2368 64.6083C24.0646 64.2814 23.9785 63.8693 23.9785 63.3687C23.9785 63.018 24.0474 62.6775 24.1886 62.3472C24.3298 62.0168 24.5364 61.724 24.8153 61.4686C25.0908 61.2132 25.4387 61.0089 25.8553 60.8591C26.272 60.7092 26.7541 60.6309 27.2982 60.6309C27.8424 60.6309 28.3348 60.7126 28.748 60.8727C29.1613 61.0327 29.5022 61.2541 29.7743 61.5333C30.0463 61.8125 30.2495 62.136 30.3872 62.5038C30.5215 62.8716 30.5904 63.2666 30.5904 63.682H29.7054C29.7054 63.2938 29.64 62.9601 29.5091 62.6741C29.3782 62.3914 29.1992 62.1599 28.9719 61.9794C28.7446 61.7989 28.4863 61.6661 28.1971 61.581C27.9078 61.4958 27.6082 61.455 27.2982 61.455C26.8265 61.455 26.4304 61.5231 26.1067 61.6593C25.783 61.7955 25.5282 61.9726 25.3388 62.1905C25.1494 62.4085 25.0151 62.6502 24.9428 62.9124C24.8704 63.178 24.8567 63.4437 24.9014 63.7059C24.9565 64.0362 25.084 64.3018 25.2837 64.4993C25.4834 64.6968 25.7279 64.8603 26.0172 64.9897C26.3065 65.1157 26.6267 65.2212 26.978 65.3029C27.3258 65.3847 27.6839 65.4698 28.0455 65.5583C28.4071 65.6469 28.7584 65.7558 29.0993 65.8784C29.4402 66.001 29.7398 66.1679 30.005 66.3756C30.2667 66.5833 30.4802 66.8489 30.6386 67.1758C30.797 67.5027 30.8762 67.9114 30.8762 68.4017C30.8762 69.3484 30.5629 70.0805 29.9361 70.5981C29.3094 71.1157 28.4312 71.3779 27.2982 71.3779C26.7886 71.3779 26.3202 71.3098 25.8829 71.1736C25.449 71.0374 25.0702 70.8297 24.7534 70.5505C24.4365 70.2712 24.1886 69.9273 24.013 69.5153C23.8373 69.1032 23.7478 68.6197 23.7478 68.0612H24.6535V68.0578Z" fill="#00FF67"/>
<path d="M34.561 71.3064C34.1064 71.2962 33.6828 71.2111 33.2903 71.051C32.8942 70.891 32.5499 70.6492 32.2572 70.3291C31.961 70.009 31.7303 69.6072 31.5581 69.1236C31.3859 68.6401 31.2998 68.0782 31.2998 67.4346C31.2998 66.8966 31.3687 66.3926 31.503 65.9261C31.6373 65.4596 31.8439 65.0509 32.116 64.7002C32.388 64.3495 32.7289 64.0736 33.1353 63.8693C33.5451 63.665 34.0203 63.5628 34.5644 63.5628C35.1085 63.5628 35.5975 63.665 36.0073 63.8693C36.4171 64.0736 36.7546 64.346 37.0267 64.6934C37.2987 65.0373 37.5019 65.446 37.6328 65.9193C37.7636 66.3926 37.829 66.8966 37.829 67.4346C37.829 68.0203 37.7533 68.5516 37.5983 69.0215C37.4434 69.4948 37.223 69.9001 36.9371 70.2406C36.6513 70.5811 36.3069 70.8433 35.904 71.0272C35.4977 71.2145 35.05 71.3064 34.561 71.3064ZM36.9543 67.4346C36.9543 66.9988 36.9096 66.5935 36.82 66.2155C36.7305 65.8376 36.5893 65.5107 36.3999 65.2314C36.2105 64.9522 35.966 64.7342 35.6664 64.5708C35.3668 64.4107 34.9983 64.329 34.5644 64.329C34.1305 64.329 33.7724 64.4176 33.4693 64.5912C33.1663 64.7649 32.9183 64.9965 32.7289 65.2859C32.5395 65.5754 32.3983 65.9057 32.3088 66.2768C32.2193 66.6514 32.1745 67.0362 32.1745 67.4312C32.1745 67.8841 32.2262 68.303 32.3295 68.6878C32.4328 69.0692 32.5843 69.3995 32.784 69.6719C32.9838 69.9477 33.2317 70.1589 33.5313 70.3087C33.8309 70.4585 34.1753 70.5368 34.5644 70.5368C34.9914 70.5368 35.3565 70.4483 35.6595 70.2746C35.9626 70.101 36.2105 69.866 36.3999 69.5731C36.5893 69.2803 36.7305 68.95 36.82 68.5822C36.9096 68.2144 36.9543 67.8296 36.9543 67.4346Z" fill="#00FF67"/>
<path d="M38.9758 71.1055H38.1597V63.7603H38.9758V64.7819C39.303 64.4244 39.6405 64.1315 39.9883 63.9034C40.3361 63.6752 40.7562 63.5628 41.2452 63.5628C41.6791 63.5628 42.0855 63.6412 42.4574 63.7978C42.8293 63.9544 43.1427 64.2269 43.3975 64.6117C43.5697 64.8773 43.673 65.1497 43.704 65.4255C43.735 65.7048 43.7522 65.9942 43.7522 66.2973V71.1055H42.9361V66.3143C42.9361 65.6537 42.7949 65.1565 42.5159 64.8262C42.2336 64.4959 41.7687 64.329 41.1144 64.329C40.8595 64.329 40.6288 64.3699 40.4222 64.4482C40.2121 64.5299 40.0261 64.6355 39.8574 64.7683C39.6887 64.9011 39.5475 65.0509 39.4304 65.2212C39.3133 65.3915 39.2203 65.5719 39.1583 65.7592C39.0757 65.9942 39.0275 66.2224 39.0103 66.4403C38.993 66.6582 38.9827 66.8932 38.9827 67.1486V71.1055H38.9758Z" fill="#00FF67"/>
<path d="M44.2756 73.0908C44.3858 73.1112 44.496 73.1283 44.6096 73.1487C44.7233 73.1691 44.8369 73.1759 44.9574 73.1759C45.1847 73.1759 45.3707 73.101 45.5153 72.9512C45.6599 72.8013 45.7805 72.6175 45.8769 72.4063C45.9733 72.1952 46.0525 71.9705 46.1145 71.7423C46.1765 71.5107 46.2488 71.3166 46.3315 71.1532L43.5972 63.7637H44.5097L46.7688 70.0737L49.0279 63.7637H49.9129L47.2888 71.0102C47.127 71.4733 46.9685 71.8887 46.8205 72.2565C46.6724 72.6243 46.5105 72.941 46.3452 73.1998C46.1765 73.4586 45.9905 73.6595 45.7874 73.7957C45.5842 73.9319 45.3397 74 45.0607 74C44.9161 74 44.7784 73.9898 44.6475 73.9728C44.5166 73.9523 44.3961 73.9319 44.2859 73.9012V73.0908H44.2756Z" fill="#00FF67"/>
<path d="M1.83893 57.6036C2.85455 57.6036 3.67786 56.7895 3.67786 55.7852C3.67786 54.7809 2.85455 53.9668 1.83893 53.9668C0.823318 53.9668 0 54.7809 0 55.7852C0 56.7895 0.823318 57.6036 1.83893 57.6036Z" fill="#00FF67"/>
<path d="M10.028 58.2574C11.4087 58.2574 12.5281 57.1506 12.5281 55.7852C12.5281 54.4198 11.4087 53.313 10.028 53.313C8.64717 53.313 7.52783 54.4198 7.52783 55.7852C7.52783 57.1506 8.64717 58.2574 10.028 58.2574Z" fill="#00FF67"/>
<path d="M18.5925 58.6865C20.2129 58.6865 21.5265 57.3875 21.5265 55.7852C21.5265 54.1829 20.2129 52.8839 18.5925 52.8839C16.9721 52.8839 15.6584 54.1829 15.6584 55.7852C15.6584 57.3875 16.9721 58.6865 18.5925 58.6865Z" fill="#00FF67"/>
<path d="M27.2327 59.0577C29.0605 59.0577 30.5421 57.5925 30.5421 55.7852C30.5421 53.9779 29.0605 52.5127 27.2327 52.5127C25.405 52.5127 23.9233 53.9779 23.9233 55.7852C23.9233 57.5925 25.405 59.0577 27.2327 59.0577Z" fill="#00FF67"/>
<path d="M35.8076 59.2994C37.7742 59.2994 39.3684 57.723 39.3684 55.7784C39.3684 53.8338 37.7742 52.2573 35.8076 52.2573C33.841 52.2573 32.2468 53.8338 32.2468 55.7784C32.2468 57.723 33.841 59.2994 35.8076 59.2994Z" fill="#00FF67"/>
<path d="M44.4408 59.4254C46.474 59.4254 48.1221 57.7956 48.1221 55.7852C48.1221 53.7747 46.474 52.145 44.4408 52.145C42.4077 52.145 40.7595 53.7747 40.7595 55.7852C40.7595 57.7956 42.4077 59.4254 44.4408 59.4254Z" fill="#00FF67"/>
<path d="M1.83893 48.9134C2.85455 48.9134 3.67786 48.0992 3.67786 47.095C3.67786 46.0907 2.85455 45.2766 1.83893 45.2766C0.823318 45.2766 0 46.0907 0 47.095C0 48.0992 0.823318 48.9134 1.83893 48.9134Z" fill="#00FF67"/>
<path d="M10.028 49.5672C11.4087 49.5672 12.5281 48.4603 12.5281 47.0949C12.5281 45.7296 11.4087 44.6227 10.028 44.6227C8.64717 44.6227 7.52783 45.7296 7.52783 47.0949C7.52783 48.4603 8.64717 49.5672 10.028 49.5672Z" fill="#00FF67"/>
<path d="M18.5925 49.9963C20.2129 49.9963 21.5265 48.6973 21.5265 47.095C21.5265 45.4926 20.2129 44.1937 18.5925 44.1937C16.9721 44.1937 15.6584 45.4926 15.6584 47.095C15.6584 48.6973 16.9721 49.9963 18.5925 49.9963Z" fill="#00FF67"/>
<path d="M27.2327 50.3674C29.0605 50.3674 30.5421 48.9023 30.5421 47.0949C30.5421 45.2876 29.0605 43.8225 27.2327 43.8225C25.405 43.8225 23.9233 45.2876 23.9233 47.0949C23.9233 48.9023 25.405 50.3674 27.2327 50.3674Z" fill="#00FF67"/>
<path d="M35.8076 50.6092C37.7742 50.6092 39.3684 49.0328 39.3684 47.0881C39.3684 45.1435 37.7742 43.5671 35.8076 43.5671C33.841 43.5671 32.2468 45.1435 32.2468 47.0881C32.2468 49.0328 33.841 50.6092 35.8076 50.6092Z" fill="#00FF67"/>
<path d="M44.4408 50.7352C46.474 50.7352 48.1221 49.1054 48.1221 47.095C48.1221 45.0845 46.474 43.4547 44.4408 43.4547C42.4077 43.4547 40.7595 45.0845 40.7595 47.095C40.7595 49.1054 42.4077 50.7352 44.4408 50.7352Z" fill="#00FF67"/>
<path d="M53.2017 50.851C55.2995 50.851 57.0001 49.1693 57.0001 47.0949C57.0001 45.0206 55.2995 43.3389 53.2017 43.3389C51.1039 43.3389 49.4033 45.0206 49.4033 47.0949C49.4033 49.1693 51.1039 50.851 53.2017 50.851Z" fill="#00FF67"/>
<path d="M1.83893 40.2231C2.85455 40.2231 3.67786 39.4089 3.67786 38.4047C3.67786 37.4004 2.85455 36.5862 1.83893 36.5862C0.823318 36.5862 0 37.4004 0 38.4047C0 39.4089 0.823318 40.2231 1.83893 40.2231Z" fill="#00FF67"/>
<path d="M10.028 40.8769C11.4087 40.8769 12.5281 39.77 12.5281 38.4047C12.5281 37.0393 11.4087 35.9324 10.028 35.9324C8.64717 35.9324 7.52783 37.0393 7.52783 38.4047C7.52783 39.77 8.64717 40.8769 10.028 40.8769Z" fill="#00FF67"/>
<path d="M18.5925 41.3059C20.2129 41.3059 21.5265 40.007 21.5265 38.4046C21.5265 36.8023 20.2129 35.5034 18.5925 35.5034C16.9721 35.5034 15.6584 36.8023 15.6584 38.4046C15.6584 40.007 16.9721 41.3059 18.5925 41.3059Z" fill="#00FF67"/>
<path d="M27.2327 41.6771C29.0605 41.6771 30.5421 40.212 30.5421 38.4047C30.5421 36.5973 29.0605 35.1322 27.2327 35.1322C25.405 35.1322 23.9233 36.5973 23.9233 38.4047C23.9233 40.212 25.405 41.6771 27.2327 41.6771Z" fill="#00FF67"/>
<path d="M35.8076 41.9257C37.7742 41.9257 39.3684 40.3493 39.3684 38.4047C39.3684 36.46 37.7742 34.8836 35.8076 34.8836C33.841 34.8836 32.2468 36.46 32.2468 38.4047C32.2468 40.3493 33.841 41.9257 35.8076 41.9257Z" fill="#00FF67"/>
<path d="M44.4408 42.0449C46.474 42.0449 48.1221 40.4151 48.1221 38.4047C48.1221 36.3942 46.474 34.7644 44.4408 34.7644C42.4077 34.7644 40.7595 36.3942 40.7595 38.4047C40.7595 40.4151 42.4077 42.0449 44.4408 42.0449Z" fill="#00FF67"/>
<path d="M53.2017 42.1607C55.2995 42.1607 57.0001 40.4791 57.0001 38.4047C57.0001 36.3303 55.2995 34.6487 53.2017 34.6487C51.1039 34.6487 49.4033 36.3303 49.4033 38.4047C49.4033 40.4791 51.1039 42.1607 53.2017 42.1607Z" fill="#00FF67"/>
<path d="M1.83893 31.5328C2.85455 31.5328 3.67786 30.7187 3.67786 29.7144C3.67786 28.7101 2.85455 27.896 1.83893 27.896C0.823318 27.896 0 28.7101 0 29.7144C0 30.7187 0.823318 31.5328 1.83893 31.5328Z" fill="#00FF67"/>
<path d="M10.028 32.1866C11.4087 32.1866 12.5281 31.0798 12.5281 29.7144C12.5281 28.349 11.4087 27.2422 10.028 27.2422C8.64717 27.2422 7.52783 28.349 7.52783 29.7144C7.52783 31.0798 8.64717 32.1866 10.028 32.1866Z" fill="#00FF67"/>
<path d="M18.5925 32.6123C20.2129 32.6123 21.5265 31.3134 21.5265 29.711C21.5265 28.1087 20.2129 26.8097 18.5925 26.8097C16.9721 26.8097 15.6584 28.1087 15.6584 29.711C15.6584 31.3134 16.9721 32.6123 18.5925 32.6123Z" fill="#00FF67"/>
<path d="M27.2327 32.9869C29.0605 32.9869 30.5421 31.5218 30.5421 29.7144C30.5421 27.9071 29.0605 26.442 27.2327 26.442C25.405 26.442 23.9233 27.9071 23.9233 29.7144C23.9233 31.5218 25.405 32.9869 27.2327 32.9869Z" fill="#00FF67"/>
<path d="M35.8076 33.2355C37.7742 33.2355 39.3684 31.659 39.3684 29.7144C39.3684 27.7698 37.7742 26.1934 35.8076 26.1934C33.841 26.1934 32.2468 27.7698 32.2468 29.7144C32.2468 31.659 33.841 33.2355 35.8076 33.2355Z" fill="#00FF67"/>
<path d="M44.4408 33.3547C46.474 33.3547 48.1221 31.7249 48.1221 29.7144C48.1221 27.704 46.474 26.0742 44.4408 26.0742C42.4077 26.0742 40.7595 27.704 40.7595 29.7144C40.7595 31.7249 42.4077 33.3547 44.4408 33.3547Z" fill="#00FF67"/>
<path d="M1.83893 31.5328C2.85455 31.5328 3.67786 30.7187 3.67786 29.7144C3.67786 28.7101 2.85455 27.896 1.83893 27.896C0.823318 27.896 0 28.7101 0 29.7144C0 30.7187 0.823318 31.5328 1.83893 31.5328Z" fill="#00FF67"/>
<path d="M10.028 32.1866C11.4087 32.1866 12.5281 31.0798 12.5281 29.7144C12.5281 28.349 11.4087 27.2422 10.028 27.2422C8.64717 27.2422 7.52783 28.349 7.52783 29.7144C7.52783 31.0798 8.64717 32.1866 10.028 32.1866Z" fill="#00FF67"/>
<path d="M18.5925 32.6123C20.2129 32.6123 21.5265 31.3134 21.5265 29.711C21.5265 28.1087 20.2129 26.8097 18.5925 26.8097C16.9721 26.8097 15.6584 28.1087 15.6584 29.711C15.6584 31.3134 16.9721 32.6123 18.5925 32.6123Z" fill="#00FF67"/>
<path d="M27.2327 32.9869C29.0605 32.9869 30.5421 31.5218 30.5421 29.7144C30.5421 27.9071 29.0605 26.442 27.2327 26.442C25.405 26.442 23.9233 27.9071 23.9233 29.7144C23.9233 31.5218 25.405 32.9869 27.2327 32.9869Z" fill="#00FF67"/>
<path d="M35.8076 33.2355C37.7742 33.2355 39.3684 31.659 39.3684 29.7144C39.3684 27.7698 37.7742 26.1934 35.8076 26.1934C33.841 26.1934 32.2468 27.7698 32.2468 29.7144C32.2468 31.659 33.841 33.2355 35.8076 33.2355Z" fill="#00FF67"/>
<path d="M44.4408 33.3547C46.474 33.3547 48.1221 31.7249 48.1221 29.7144C48.1221 27.704 46.474 26.0742 44.4408 26.0742C42.4077 26.0742 40.7595 27.704 40.7595 29.7144C40.7595 31.7249 42.4077 33.3547 44.4408 33.3547Z" fill="#00FF67"/>
<path d="M1.83893 22.8392C2.85455 22.8392 3.67786 22.025 3.67786 21.0207C3.67786 20.0165 2.85455 19.2023 1.83893 19.2023C0.823318 19.2023 0 20.0165 0 21.0207C0 22.025 0.823318 22.8392 1.83893 22.8392Z" fill="#00FF67"/>
<path d="M10.028 23.493C11.4087 23.493 12.5281 22.3861 12.5281 21.0208C12.5281 19.6554 11.4087 18.5485 10.028 18.5485C8.64717 18.5485 7.52783 19.6554 7.52783 21.0208C7.52783 22.3861 8.64717 23.493 10.028 23.493Z" fill="#00FF67"/>
<path d="M18.5925 23.922C20.2129 23.922 21.5265 22.6231 21.5265 21.0207C21.5265 19.4184 20.2129 18.1194 18.5925 18.1194C16.9721 18.1194 15.6584 19.4184 15.6584 21.0207C15.6584 22.6231 16.9721 23.922 18.5925 23.922Z" fill="#00FF67"/>
<path d="M27.2327 24.2932C29.0605 24.2932 30.5421 22.8281 30.5421 21.0208C30.5421 19.2134 29.0605 17.7483 27.2327 17.7483C25.405 17.7483 23.9233 19.2134 23.9233 21.0208C23.9233 22.8281 25.405 24.2932 27.2327 24.2932Z" fill="#00FF67"/>
<path d="M35.8076 24.5418C37.7742 24.5418 39.3684 22.9654 39.3684 21.0207C39.3684 19.0761 37.7742 17.4997 35.8076 17.4997C33.841 17.4997 32.2468 19.0761 32.2468 21.0207C32.2468 22.9654 33.841 24.5418 35.8076 24.5418Z" fill="#00FF67"/>
<path d="M1.83893 14.1489C2.85455 14.1489 3.67786 13.3348 3.67786 12.3305C3.67786 11.3262 2.85455 10.5121 1.83893 10.5121C0.823318 10.5121 0 11.3262 0 12.3305C0 13.3348 0.823318 14.1489 1.83893 14.1489Z" fill="#00FF67"/>
<path d="M10.028 14.8027C11.4087 14.8027 12.5281 13.6959 12.5281 12.3305C12.5281 10.9651 11.4087 9.85828 10.028 9.85828C8.64717 9.85828 7.52783 10.9651 7.52783 12.3305C7.52783 13.6959 8.64717 14.8027 10.028 14.8027Z" fill="#00FF67"/>
<path d="M18.5925 15.2318C20.2129 15.2318 21.5265 13.9328 21.5265 12.3305C21.5265 10.7282 20.2129 9.4292 18.5925 9.4292C16.9721 9.4292 15.6584 10.7282 15.6584 12.3305C15.6584 13.9328 16.9721 15.2318 18.5925 15.2318Z" fill="#00FF67"/>
<path d="M27.2327 15.603C29.0605 15.603 30.5421 14.1378 30.5421 12.3305C30.5421 10.5232 29.0605 9.05804 27.2327 9.05804C25.405 9.05804 23.9233 10.5232 23.9233 12.3305C23.9233 14.1378 25.405 15.603 27.2327 15.603Z" fill="#00FF67"/>
<path d="M35.8076 15.8516C37.7742 15.8516 39.3684 14.2751 39.3684 12.3305C39.3684 10.3859 37.7742 8.80945 35.8076 8.80945C33.841 8.80945 32.2468 10.3859 32.2468 12.3305C32.2468 14.2751 33.841 15.8516 35.8076 15.8516Z" fill="#00FF67"/>
<path d="M1.83893 5.45864C2.85455 5.45864 3.67786 4.64451 3.67786 3.64022C3.67786 2.63594 2.85455 1.82181 1.83893 1.82181C0.823318 1.82181 0 2.63594 0 3.64022C0 4.64451 0.823318 5.45864 1.83893 5.45864Z" fill="#00FF67"/>
<path d="M10.028 6.11246C11.4087 6.11246 12.5281 5.0056 12.5281 3.64023C12.5281 2.27485 11.4087 1.168 10.028 1.168C8.64717 1.168 7.52783 2.27485 7.52783 3.64023C7.52783 5.0056 8.64717 6.11246 10.028 6.11246Z" fill="#00FF67"/>
<path d="M18.5925 6.54154C20.2129 6.54154 21.5265 5.24259 21.5265 3.64025C21.5265 2.03791 20.2129 0.738953 18.5925 0.738953C16.9721 0.738953 15.6584 2.03791 15.6584 3.64025C15.6584 5.24259 16.9721 6.54154 18.5925 6.54154Z" fill="#00FF67"/>
<path d="M27.2327 6.9127C29.0605 6.9127 30.5421 5.44757 30.5421 3.64023C30.5421 1.8329 29.0605 0.367767 27.2327 0.367767C25.405 0.367767 23.9233 1.8329 23.9233 3.64023C23.9233 5.44757 25.405 6.9127 27.2327 6.9127Z" fill="#00FF67"/>
<path d="M35.8076 7.16128C37.7742 7.16128 39.3684 5.58485 39.3684 3.64022C39.3684 1.6956 37.7742 0.119171 35.8076 0.119171C33.841 0.119171 32.2468 1.6956 32.2468 3.64022C32.2468 5.58485 33.841 7.16128 35.8076 7.16128Z" fill="#00FF67"/>
<path d="M44.4408 7.28047C46.474 7.28047 48.1221 5.65068 48.1221 3.64024C48.1221 1.62979 46.474 0 44.4408 0C42.4077 0 40.7595 1.62979 40.7595 3.64024C40.7595 5.65068 42.4077 7.28047 44.4408 7.28047Z" fill="#00FF67"/>
</g>
<defs>
<clipPath id="clip0_36_597">
<rect width="57" height="74" fill="white"/>
</clipPath>
</defs>
</svg>
