<svg width="66" height="11" viewBox="0 0 66 11" fill="none" xmlns="http://www.w3.org/2000/svg">
<g clip-path="url(#clip0_42_970)">
<path d="M16.3516 9.96995V0.213623H17.6888L23.6014 8.86724V0.213623H24.6061V9.96995H23.1358L17.3563 1.44935V9.96995H16.3516Z" fill="white"/>
<path d="M8.28601 0.213623V9.96995H14.9338V9.10179H9.2872V5.35959H14.4997V4.48792H9.2872V1.08179H14.9338V0.213623H8.28601Z" fill="white"/>
<path d="M0 0.213623V9.96995H1.00119V4.78898V0.213623H0Z" fill="white"/>
<path d="M2.39093 4.80648L7.31636 0.213623H5.9301L1.01868 4.78898L6.26616 9.96995H7.60341L2.39093 4.80648Z" fill="white"/>
<path d="M25.3202 0.213623L29.6995 10.6701L31.6704 6.29426L33.6412 10.6701L38.0171 0.213623H36.9494L33.5747 8.23013L31.6704 4.08885L29.766 8.26513L26.3914 0.213623H25.3202Z" fill="white"/>
<path d="M30.0671 0.213623H33.2737L31.6704 3.78779L30.0671 0.213623Z" fill="white"/>
<path d="M60.8134 0.178467H57.5718V9.9348H61.349C63.6874 9.9348 65.4938 7.72938 65.4938 4.89035C65.4938 2.05132 63.0888 0.178467 60.8169 0.178467H60.8134ZM61.181 9.06663H58.5765V1.04663H60.7154C62.0176 1.04663 64.4926 2.31737 64.4926 4.98837C64.4926 7.79589 62.5532 9.06313 61.1845 9.06313L61.181 9.06663Z" fill="white"/>
<path d="M42.0499 0C39.5575 0 37.5376 2.31743 37.5376 5.17397C37.5376 8.03051 39.5575 10.3479 42.0499 10.3479C44.5424 10.3479 46.5623 8.03051 46.5623 5.17397C46.5623 2.31743 44.5424 0 42.0499 0ZM42.0499 9.45177C40.1071 9.45177 38.5283 7.53691 38.5283 5.17397C38.5283 2.81103 40.1036 0.896168 42.0499 0.896168C43.9963 0.896168 45.5716 2.81103 45.5716 5.17397C45.5716 7.53691 43.9963 9.45177 42.0499 9.45177Z" fill="white"/>
<path d="M51.9042 0C49.4117 0 47.3918 2.31743 47.3918 5.17397C47.3918 8.03051 49.4117 10.3479 51.9042 10.3479C54.3967 10.3479 56.4165 8.03051 56.4165 5.17397C56.4165 2.31743 54.3967 0 51.9042 0ZM51.9042 9.45177C49.9613 9.45177 48.3825 7.53691 48.3825 5.17397C48.3825 2.81103 49.9578 0.896168 51.9042 0.896168C53.8506 0.896168 55.4258 2.81103 55.4258 5.17397C55.4258 7.53691 53.8506 9.45177 51.9042 9.45177Z" fill="white"/>
</g>
<defs>
<clipPath id="clip0_42_970">
<rect width="65.4938" height="10.67" fill="white"/>
</clipPath>
</defs>
</svg>
