<svg width="43" height="11" viewBox="0 0 43 11" fill="none" xmlns="http://www.w3.org/2000/svg">
<g clip-path="url(#clip0_74_740)">
<path d="M5.68956 10.6403C5.50264 10.5036 5.50671 10.468 5.87503 9.01411C6.08215 8.19658 6.27316 7.26793 6.2995 6.95043L6.34739 6.37317L5.85397 7.33046C4.9751 9.03558 4.32792 9.86355 3.49031 10.3544C2.9654 10.662 1.99291 10.7656 1.34158 10.5832C0.0136089 10.2114 -0.460474 8.43439 0.525774 7.5253C1.11972 6.97782 2.81856 7.19714 2.62826 7.79673C2.56555 7.99429 2.5142 8.01021 2.12684 7.95212C1.74934 7.89551 1.66352 7.91915 1.44184 8.14084C1.24576 8.33691 1.1884 8.49417 1.1884 8.83561C1.1884 9.20686 1.23679 9.31766 1.49308 9.53332C2.0186 9.97552 2.82602 9.83044 3.47649 9.17695C3.92588 8.72548 4.69929 7.30405 5.68955 5.10966C6.71842 2.8297 7.33774 1.59888 7.87568 0.765016C8.36329 0.0091661 8.44068 -0.0547878 8.76831 0.02744C9.1393 0.120554 9.15865 0.454608 8.83493 1.17759C8.22446 2.541 7.7856 4.14348 7.6697 5.43238L7.60291 6.17511L8.57086 4.78869C9.79926 3.02923 10.5093 2.14846 11.6243 1.0008C12.3359 0.268329 12.5708 0.0847698 12.7962 0.0847698C13.1509 0.0847698 13.2569 0.329361 13.0504 0.67087C12.9653 0.81148 12.4634 1.63954 11.935 2.511C9.97629 5.74112 9.08956 8.11239 9.40385 9.2796C9.53909 9.78184 9.76691 9.86234 10.3212 9.60376C10.9258 9.32173 11.2319 9.00671 11.5893 8.29887C12.2427 7.00448 13.5387 6.02656 14.6007 6.02656C14.8795 6.02656 15.1966 6.08896 15.3055 6.16521C15.4752 6.28406 15.5305 6.28406 15.6931 6.16521C15.9402 5.98451 16.3826 5.98783 16.5351 6.17152C16.6328 6.28927 16.5528 6.51697 16.1091 7.38464C15.8086 7.97213 15.4598 8.6391 15.3338 8.8668C15.2079 9.0945 15.1353 9.31126 15.1725 9.34849C15.3992 9.57517 16.423 8.4866 17.4651 6.91071C17.8254 6.36593 17.8281 6.35433 17.6792 5.99786C17.4856 5.53458 17.4853 4.61452 17.6786 4.24078C17.8409 3.92687 18.2824 3.64985 18.6204 3.64985C18.7362 3.64985 18.9612 3.78011 19.1204 3.93932C19.3568 4.17566 19.4099 4.3127 19.4099 4.68599C19.4099 4.94776 19.3252 5.30913 19.2118 5.53141C18.9511 6.04251 18.9568 6.06173 19.3497 5.99796C19.7564 5.93197 20.1031 6.14172 20.1031 6.45374C20.1031 6.57397 19.7885 7.07081 19.4013 7.56221C18.0906 9.22539 17.879 10.0596 18.8731 9.64425C19.521 9.37354 19.849 9.05058 21.391 7.16482C22.514 5.79146 22.9434 5.33335 23.1078 5.33335C23.361 5.33335 23.7672 5.59054 23.7672 5.75085C23.7672 5.81089 23.5818 6.10566 23.3551 6.40588L22.943 6.95173L23.0744 7.40518C23.1467 7.65457 23.2253 8.04801 23.249 8.27949C23.2726 8.51098 23.3139 8.70037 23.3406 8.70037C23.3673 8.70037 23.6457 8.5204 23.9593 8.30044C24.4142 7.98134 24.5808 7.78619 24.7838 7.3349C25.8941 4.86694 26.7739 2.97012 26.8952 2.78333C27.0663 2.51969 27.6329 2.4746 27.8275 2.70913C27.9589 2.86749 27.9567 2.87394 26.9 5.36065L26.4466 6.42775L26.8734 6.17764C27.3415 5.90333 27.7056 5.86039 27.9444 6.05132C28.1693 6.23119 28.3251 6.7796 28.2551 7.14553C28.1918 7.47618 27.7246 8.44845 27.2819 9.17076C27.128 9.42198 27.072 9.59164 27.1432 9.59164C27.4105 9.59164 28.1093 8.88196 28.3733 8.34253C28.7201 7.63361 29.7921 6.53756 30.4517 6.21738C31.0771 5.91384 31.8688 5.8892 32.1723 6.16383C32.3518 6.32631 32.3863 6.33069 32.4374 6.19753C32.5622 5.87233 33.4721 5.92497 33.4721 6.25739C33.4721 6.33257 33.1602 6.99612 32.7789 7.73195C32.3977 8.46778 32.0857 9.16635 32.0857 9.28433C32.0857 9.6629 32.3573 9.63146 32.882 9.19215C33.285 8.85471 33.478 8.57578 33.8655 7.77081C34.8296 5.76788 36.2931 3.92284 37.6301 3.02458C38.4086 2.50155 39.1168 2.55589 39.1168 3.13866C39.1168 3.448 38.4755 4.83075 38.0353 5.47063C37.5854 6.12445 36.5784 7.06666 35.6437 7.70828C34.6164 8.41342 34.5773 8.4579 34.502 9.00772C34.4285 9.54384 34.6821 9.85546 35.1055 9.7492C35.5471 9.63836 36.4543 8.60495 37.0333 7.55319C37.7952 6.16916 38.1738 5.58125 38.8043 4.80315C39.4645 3.98825 40.8734 2.80178 41.2892 2.71045C41.6948 2.62137 41.977 2.72692 42.0437 2.9926C42.1135 3.27089 41.7213 4.36292 41.2833 5.10964C40.8715 5.81188 39.5089 7.17891 38.4939 7.90813C37.6967 8.48093 37.5288 8.77328 37.6712 9.34056C37.8549 10.0726 38.7001 9.76686 39.6265 8.63316C40.1646 7.97461 40.2488 7.90835 40.3806 8.04012C40.5948 8.25426 40.4836 8.54995 39.8965 9.32771C39.3406 10.0641 38.583 10.6308 38.0188 10.7322C37.3971 10.8439 36.7355 10.4102 36.5106 9.74347C36.4928 9.69082 36.3255 9.79179 36.1388 9.96785C35.6693 10.4106 34.8945 10.78 34.4354 10.78C34.1427 10.78 33.9821 10.711 33.7616 10.4905C33.6024 10.3313 33.4721 10.1085 33.4721 9.99538C33.4721 9.88226 33.448 9.7897 33.4184 9.7897C33.3888 9.7897 33.1326 9.96485 32.849 10.1789C31.9778 10.8365 31.523 10.8873 31.1068 10.3733L30.94 10.1673L30.5968 10.3692C30.4081 10.4802 30.0414 10.6184 29.7819 10.6762C29.2323 10.7988 28.8171 10.6689 28.4358 10.2552L28.2023 10.0019L27.809 10.2868C27.2086 10.7218 26.8134 10.824 26.4531 10.6377C26.0804 10.445 25.8462 10.1171 25.8492 9.79242C25.8505 9.65476 26.1178 9.03251 26.4434 8.40966C26.7689 7.7868 27.0352 7.24089 27.0352 7.19654C27.0352 7.00642 26.7517 7.14988 26.2504 7.5937C25.785 8.00563 25.6383 8.23423 25.1548 9.30059C24.5163 10.7086 24.2773 10.9498 23.792 10.6758C23.5079 10.5154 23.4405 10.157 23.6181 9.75123C23.6718 9.62837 23.4539 9.73698 22.9829 10.0678C21.7967 10.9008 20.8411 10.9689 20.1855 10.267L19.9208 9.98363L19.393 10.2995C19.0157 10.5253 18.704 10.628 18.2998 10.6598C17.7743 10.7011 17.7131 10.683 17.4333 10.4031C17.2145 10.1843 17.1322 10.0089 17.1322 9.76111C17.1322 9.28575 17.7174 8.16634 18.3172 7.49418C18.6316 7.14193 18.7783 6.90641 18.7098 6.86407C18.5768 6.78184 18.6246 6.72733 17.6787 8.03942C16.6353 9.48685 16.0352 10.1226 15.4259 10.4262C14.8071 10.7346 14.396 10.7499 14.1039 10.4755L13.8853 10.2701L13.4826 10.4755C12.9581 10.7431 12.2388 10.7458 11.806 10.482C11.6272 10.3729 11.4556 10.218 11.4248 10.1377C11.3796 10.02 11.2886 10.047 10.9535 10.2775C10.2484 10.7627 9.39215 10.8768 8.78997 10.566C8.32952 10.3283 8.15906 9.3047 8.34733 7.90813L8.42076 7.36347L8.11094 7.90813C7.25189 9.41834 6.22608 10.78 5.9474 10.78C5.91069 10.78 5.79466 10.7171 5.68956 10.6403ZM21.8406 9.74469C22.038 9.54731 22.0835 9.40302 22.0824 8.97721C22.0808 8.36996 21.9965 7.98665 21.8735 8.02787C21.6991 8.08636 20.8953 9.15058 20.8953 9.32311C20.8953 9.51768 21.3156 9.98776 21.4895 9.98776C21.5489 9.98776 21.7069 9.87838 21.8406 9.74469ZM30.5715 9.2467C31.3945 8.54226 31.9812 6.81787 31.4249 6.73864C30.6935 6.63449 29.3101 8.20617 29.2827 9.17235C29.263 9.86856 29.8082 9.90002 30.5715 9.2467ZM13.4831 9.40536C14.1537 8.98006 14.7064 8.09601 14.8201 7.26671C14.8874 6.77564 14.7628 6.64677 14.3266 6.75625C13.4194 6.98392 12.0584 9.03672 12.4787 9.54321C12.6634 9.76581 12.9841 9.72179 13.4831 9.40536ZM36.4211 6.05132C37.1288 5.35478 38.1636 3.84791 37.9343 3.84791C37.8885 3.84791 37.4989 4.21989 37.0685 4.67454C36.3181 5.46736 35.3614 6.8188 35.5507 6.8188C35.6006 6.8188 35.9923 6.47344 36.4211 6.05132ZM39.657 5.87802C40.1449 5.42924 41.1262 3.84791 40.9168 3.84791C40.6302 3.84791 38.6217 6.39037 38.6217 6.7531C38.6217 6.81192 38.8304 6.66137 39.0855 6.41855C39.3406 6.17572 39.5977 5.93249 39.657 5.87802ZM18.6062 5.12552C18.7022 4.85032 18.6203 4.44209 18.4691 4.44209C18.3429 4.44209 18.217 4.88923 18.2723 5.1411C18.3548 5.51643 18.4719 5.51097 18.6062 5.12552Z" fill="white"/>
</g>
<defs>
<clipPath id="clip0_74_740">
<rect width="42.0518" height="10.78" fill="white"/>
</clipPath>
</defs>
</svg>
