<svg width="135" height="75" viewBox="0 0 135 75" fill="none" xmlns="http://www.w3.org/2000/svg">
<g clip-path="url(#clip0_36_663)">
<path fill-rule="evenodd" clip-rule="evenodd" d="M114.742 63.4206V74.6813H119.116L119.106 63.3944C119.106 61.5499 120.743 60.0293 122.781 60.0293C124.819 60.0293 126.471 61.5499 126.471 63.3944V74.6865L130.826 74.6865L130.841 63.4049C130.841 59.3813 127.223 56.105 122.781 56.105C118.339 56.105 114.742 59.3918 114.742 63.4153C114.742 63.431 114.742 63.3944 114.742 63.4153V63.4206ZM25.4981 63.3787V74.6395H29.873L29.8627 63.3578C29.8627 61.5133 31.4995 59.9875 33.5377 59.9875C35.5759 59.9875 37.2281 61.5081 37.2281 63.3578L37.2281 74.6395H41.603L41.603 63.3683C41.603 59.3447 37.9795 56.0684 33.5377 56.0684C29.0958 56.0684 25.4981 59.3552 25.4981 63.3787C25.4981 63.3996 25.4981 63.3631 25.4981 63.3787ZM85.728 62.3546C85.728 61.0273 86.9478 59.9666 88.4147 59.9666C89.8816 59.9666 91.0551 61.043 91.0551 62.3702V74.6447H95.358V62.3337C95.358 58.8483 92.2441 56.0266 88.3993 56.0266C86.5618 56.0266 84.9251 56.7843 83.6744 57.8712C82.4185 56.7425 80.6943 56.0371 78.7796 56.0371C74.9348 56.0371 71.7334 58.864 71.7334 62.3441L71.7179 74.6551H76.098L76.1135 62.3859C76.1135 61.0587 77.3384 59.9822 78.8053 59.9822C80.2722 59.9822 81.4457 61.0587 81.4457 62.3859V74.6447H85.7486V62.3598L85.728 62.3546ZM54.9388 70.7152H48.186C47.9698 70.71 47.7639 70.5584 47.7639 70.3599L47.7485 56.3506H43.3838L43.3838 70.3546C43.3838 72.7165 45.5662 74.6447 48.1757 74.6447H54.9337V70.7152H54.9388ZM97.1337 63.3735V74.6342H101.509L101.493 63.3474C101.493 61.5028 103.13 59.9822 105.168 59.9822C107.206 59.9822 108.859 61.5028 108.859 63.3474V74.6342H113.233V63.3631C113.228 59.3395 109.605 56.0632 105.168 56.0632C100.731 56.0632 97.1286 59.3552 97.1286 63.3735C97.1286 63.3944 97.1286 63.3578 97.1286 63.3735H97.1337ZM14.0821 68.6668C14.0821 69.9941 15.302 71.0548 16.7688 71.0548C18.2357 71.0548 19.4195 69.9784 19.4195 68.6512V56.3767H23.707V68.6877C23.707 72.1731 20.593 74.9948 16.7483 74.9948C14.9108 74.9948 13.274 74.2371 12.0233 73.1502C10.7675 74.2841 9.03809 74.9843 7.12856 74.9843C3.28377 74.9843 0.0823516 72.1626 0.0823516 68.6773L0.0669107 56.3663H4.44699L4.46243 68.6355C4.46243 69.9627 5.68741 71.0392 7.15429 71.0392C8.62118 71.0392 9.79469 69.9627 9.79469 68.6355V56.3767H14.0976V68.6616L14.0821 68.6668ZM60.5284 63.3631L62.6541 63.3735C64.5225 63.3735 66.0305 61.8582 66.0305 60.1651V56.3401H70.0555L70.0761 59.9822C69.9989 62.0358 68.8923 63.9535 67.0496 65.2285C68.8717 66.5088 69.9628 68.4108 70.04 70.4487V74.5977L65.9842 74.6029V70.2606C65.9894 68.5676 64.4813 67.0522 62.6129 67.0522L60.549 67.0626L60.5387 74.6395H56.1638L56.1638 56.3401L60.5233 56.3454V63.3578L60.5284 63.3631ZM21.3702 31.6136L33.6767 31.6136L33.1053 29.2935L20.66 29.2935L21.3754 31.6136H21.3702ZM17.5666 29.2935H0L0 31.6136H17.5666V29.2935ZM46.9764 29.2935H34.2891L33.8156 31.6136H46.3125L46.9764 29.2935ZM115.014 31.6136H134.635C134.923 30.1818 134.949 29.2935 134.949 29.2935H115.58C115.58 29.2935 115.488 30.1348 115.009 31.6136H115.014ZM95.4867 31.6136H78.0024V29.2935H95.4867V31.6136ZM67.554 31.6136H50.0543L50.0698 29.2935H67.5592V31.6136H67.554ZM22.7445 36.4941H44.8868L45.5507 34.174H22.0805L22.7445 36.4941ZM17.5872 34.1793H0L0 36.4993H17.5924V34.1793H17.5872ZM111.36 36.4941H132.952C133.476 35.5117 133.878 34.174 133.878 34.174H113.779C113.779 34.174 112.781 35.7155 111.355 36.4941H111.36ZM95.4867 36.4941H78.0024V34.174H95.4867V36.4941ZM67.554 36.4941L50.0234 36.4941L50.0698 34.174L67.554 34.174V36.4941ZM24.1702 41.3799H43.5074L44.125 39.0598H23.5062L24.1702 41.3799ZM17.6181 39.0598H0L0 41.3799H17.6181V39.0598ZM67.554 41.3799L50.044 41.3799V39.0598L67.554 39.0598V41.3799ZM129.719 41.3276C130.671 40.4602 131.479 39.0598 131.479 39.0598H78.0333L78.0487 41.3799H129.719V41.3276ZM25.5496 46.2604H42.0353L42.7971 43.9403H24.8856L25.5496 46.2604ZM17.6181 43.9403H0L0 46.2604H17.6181V43.9403ZM78.0024 43.9403H126.94C126.94 43.9403 125.771 45.1892 123.733 46.2604H78.0024V43.9403ZM67.554 46.2604L50.0234 46.2604V43.9403L67.554 43.9403V46.2604ZM27.0216 51.1409H40.656L41.3199 48.8208H26.3062L27.0216 51.1409ZM17.6181 48.8208H0L0 51.1409H17.6181V48.8208ZM78.0024 48.8208H118.2C118.2 48.8208 113.506 50.6027 109.152 51.1409H78.0024V48.8208ZM67.554 51.1409L50.0234 51.1409V48.8208L67.554 48.8208V51.1409ZM25.9305 0L0 0L0 2.32007L26.5481 2.32007L25.9305 0ZM78.0024 0L110.547 0C110.547 0 114.659 0.658399 118.555 2.32007L78.0024 2.32007V0ZM67.554 2.32007L40.517 2.32007L41.042 0L67.554 0V2.32007ZM27.1657 4.88051L0 4.88051L0 7.20059L27.737 7.20059L27.1657 4.88051ZM78.0024 4.88051L123.759 4.88051C123.759 4.88051 125.586 5.86289 126.966 7.20059L78.0075 7.20059V4.88051H78.0024ZM67.554 7.20059L39.3795 7.20059L39.9508 4.88051L67.554 4.88051V7.20059ZM28.3547 9.76625L0 9.76625L0 12.0863L28.926 12.0863L28.3547 9.76625ZM78.0024 9.76625L129.652 9.76625C129.652 9.76625 130.764 10.874 131.479 12.0863L78.0075 12.0863V9.76625H78.0024ZM67.554 12.0811L38.2369 12.0811L38.7619 9.76103L67.554 9.76103V12.0811ZM29.59 14.6468L0 14.6468L0 16.9668H30.1098L29.5848 14.6468H29.59ZM113.589 16.9668H133.832C133.59 16.1726 133.271 15.3992 132.885 14.6468L111.123 14.6468C111.123 14.6468 112.786 15.5403 113.594 16.9668H113.589ZM95.4867 16.9668H78.0024V14.6468L95.4867 14.6468V16.9668ZM67.554 16.9668H37.1457L37.6707 14.6468L67.554 14.6468V16.9668ZM18.5651 21.8474H31.2988L30.7738 19.5273H17.8497L18.56 21.8474H18.5651ZM17.5666 19.5273H0L0 21.8474H17.5666V19.5273ZM49.0661 21.8474H36.0031L36.5744 19.5273H49.7764L49.0713 21.8474H49.0661ZM115.514 21.8474H134.979C134.995 21.0844 134.547 19.5273 134.547 19.5273H114.87C114.87 19.5273 115.514 20.7082 115.514 21.8474ZM95.4867 21.8474H78.0024V19.5273H95.5021L95.4867 21.8474ZM67.554 21.8474H50.0698V19.5273H67.554V21.8474ZM19.8982 26.7279L32.4877 26.7279L31.9164 24.4078H19.2806L19.8982 26.7279ZM17.5666 24.413H0L0 26.7331H17.5666V24.413ZM48.4021 24.413H35.4318L34.8605 26.7331H47.7382L48.4021 24.413ZM67.554 24.413H50.0698V26.7331H67.554V24.413ZM95.4867 24.413H78.0024V26.7331H95.4867V24.413ZM115.776 26.7279H135V24.4078H115.776C115.776 24.4078 115.966 25.6671 115.776 26.7279Z" fill="#00FF67"/>
<path fill-rule="evenodd" clip-rule="evenodd" d="M105.163 69.4768C106.795 69.4768 108.123 68.322 108.123 66.9007C108.123 65.4794 106.8 64.3245 105.163 64.3245C103.526 64.3245 102.203 65.4794 102.203 66.9007C102.203 68.322 103.526 69.4768 105.163 69.4768ZM33.5326 69.5604C35.1642 69.5813 36.5075 68.4474 36.5333 67.0261C36.559 65.6048 35.2568 64.429 33.6252 64.4081C33.5943 64.4081 33.5635 64.4081 33.5326 64.4081C31.901 64.429 30.5988 65.5995 30.6194 67.0261C30.6451 68.416 31.9319 69.5395 33.5326 69.5604Z" fill="#00FF67"/>
</g>
<defs>
<clipPath id="clip0_36_663">
<rect width="135" height="75" fill="white"/>
</clipPath>
</defs>
</svg>
