<svg width="66" height="37" viewBox="0 0 66 37" fill="none" xmlns="http://www.w3.org/2000/svg">
<g clip-path="url(#clip0_42_740)">
<path fill-rule="evenodd" clip-rule="evenodd" d="M56.0958 31.2875V36.8428H58.2347L58.2297 31.2746C58.2297 30.3646 59.0299 29.6144 60.0263 29.6144C61.0228 29.6144 61.8305 30.3646 61.8305 31.2746V36.8453H63.9593L63.9668 31.2797C63.9668 29.2948 62.1979 27.6785 60.0263 27.6785C57.8547 27.6785 56.0958 29.2999 56.0958 31.2849C56.0958 31.2926 56.0958 31.2746 56.0958 31.2849V31.2875ZM12.4657 31.2668V36.8221H14.6046L14.5996 31.2565C14.5996 30.3466 15.3997 29.5938 16.3962 29.5938C17.3927 29.5938 18.2004 30.344 18.2004 31.2565L18.2004 36.8221H20.3392L20.3392 31.2617C20.3392 29.2767 18.5678 27.6604 16.3962 27.6604C14.2246 27.6604 12.4657 29.2819 12.4657 31.2668C12.4657 31.2772 12.4657 31.2591 12.4657 31.2668ZM41.9115 30.7616C41.9115 30.1068 42.5078 29.5835 43.225 29.5835C43.9421 29.5835 44.5158 30.1145 44.5158 30.7693V36.8247H46.6195V30.7513C46.6195 29.0318 45.0971 27.6398 43.2174 27.6398C42.3191 27.6398 41.5189 28.0136 40.9075 28.5498C40.2935 27.993 39.4505 27.645 38.5145 27.645C36.6348 27.645 35.0697 29.0396 35.0697 30.7564L35.0621 36.8299H37.2035L37.211 30.7771C37.211 30.1223 37.8099 29.5912 38.5271 29.5912C39.2442 29.5912 39.8179 30.1223 39.8179 30.7771V36.8247H41.9215V30.7642L41.9115 30.7616ZM26.859 34.8862H23.5576C23.4519 34.8836 23.3513 34.8088 23.3513 34.7109L23.3437 27.7996H21.2099L21.2099 34.7083C21.2099 35.8735 22.2768 36.8247 23.5526 36.8247H26.8565V34.8862H26.859ZM47.4876 31.2643V36.8196H49.6264L49.6189 31.2514C49.6189 30.3414 50.4191 29.5912 51.4155 29.5912C52.412 29.5912 53.2197 30.3414 53.2197 31.2514V36.8196H55.3586V31.2591C55.3561 29.2742 53.5846 27.6578 51.4155 27.6578C49.2465 27.6578 47.4851 29.2819 47.4851 31.2643C47.4851 31.2746 47.4851 31.2565 47.4851 31.2643H47.4876ZM6.88459 33.8756C6.88459 34.5304 7.48096 35.0537 8.1981 35.0537C8.91525 35.0537 9.494 34.5227 9.494 33.8679V27.8125H11.5901V33.886C11.5901 35.6054 10.0677 36.9974 8.18804 36.9974C7.28972 36.9974 6.48953 36.6236 5.87807 36.0874C5.2641 36.6468 4.41862 36.9923 3.48507 36.9923C1.6054 36.9923 0.0402608 35.6002 0.0402608 33.8808L0.0327119 27.8074H2.17408L2.18163 33.8602C2.18163 34.515 2.78051 35.046 3.49766 35.046C4.2148 35.046 4.78852 34.515 4.78852 33.8602V27.8125H6.89214V33.8731L6.88459 33.8756ZM29.5917 31.2591L30.6309 31.2643C31.5443 31.2643 32.2816 30.5167 32.2816 29.6815V27.7945H34.2493L34.2594 29.5912C34.2217 30.6043 33.6807 31.5504 32.7798 32.1794C33.6706 32.811 34.204 33.7493 34.2418 34.7547V36.8015L32.2589 36.8041V34.6619C32.2615 33.8267 31.5242 33.0791 30.6108 33.0791L29.6017 33.0842L29.5967 36.8221H27.4579L27.4579 27.7945L29.5892 27.7971V31.2565L29.5917 31.2591ZM10.4477 15.596L16.4641 15.596L16.1848 14.4515L10.1004 14.4515L10.4502 15.596H10.4477ZM8.58813 14.4515H0L0 15.596H8.58813V14.4515ZM22.9663 14.4515H16.7636L16.5321 15.596H22.6417L22.9663 14.4515ZM56.2292 15.596H65.8213C65.9623 14.8897 65.9748 14.4515 65.9748 14.4515H56.506C56.506 14.4515 56.4607 14.8665 56.2267 15.596H56.2292ZM46.6824 15.596H38.1345V14.4515H46.6824V15.596ZM33.0264 15.596H24.471L24.4786 14.4515H33.0289V15.596H33.0264ZM11.1195 18.0038H21.9446L22.2692 16.8592H10.7949L11.1195 18.0038ZM8.59819 16.8618H0L0 18.0063H8.60071V16.8618H8.59819ZM54.4426 18.0038H64.9985C65.2552 17.5191 65.4514 16.8592 65.4514 16.8592H55.6253C55.6253 16.8592 55.1371 17.6197 54.4401 18.0038H54.4426ZM46.6824 18.0038H38.1345V16.8592H46.6824V18.0038ZM33.0264 18.0038L24.4559 18.0038L24.4786 16.8592L33.0264 16.8592V18.0038ZM11.8165 20.4141H21.2703L21.5722 19.2695H11.4919L11.8165 20.4141ZM8.61329 19.2695H0L0 20.4141H8.61329V19.2695ZM33.0264 20.4141L24.466 20.4141V19.2695L33.0264 19.2695V20.4141ZM63.4183 20.3883C63.8838 19.9604 64.2789 19.2695 64.2789 19.2695H38.1496L38.1572 20.4141H63.4183V20.3883ZM12.4909 22.8218H20.5506L20.923 21.6772H12.1663L12.4909 22.8218ZM8.61329 21.6772H0L0 22.8218H8.61329V21.6772ZM38.1345 21.6772H62.0595C62.0595 21.6772 61.4883 22.2933 60.4918 22.8218H38.1345V21.6772ZM33.0264 22.8218L24.4559 22.8218V21.6772L33.0264 21.6772V22.8218ZM13.2106 25.2295H19.8762L20.2008 24.0849H12.8608L13.2106 25.2295ZM8.61329 24.0849H0L0 25.2295H8.61329V24.0849ZM38.1345 24.0849H57.7868C57.7868 24.0849 55.4919 24.964 53.3631 25.2295H38.1345V24.0849ZM33.0264 25.2295L24.4559 25.2295V24.0849L33.0264 24.0849V25.2295ZM12.6771 0L0 0L0 1.14457L12.9791 1.14457L12.6771 0ZM38.1345 0L54.0451 0C54.0451 0 56.0556 0.32481 57.9604 1.14457L38.1345 1.14457V0ZM33.0264 1.14457L19.8083 1.14457L20.065 0L33.0264 0V1.14457ZM13.281 2.40772L0 2.40772L0 3.55229L13.5603 3.55229L13.281 2.40772ZM38.1345 2.40772L60.5044 2.40772C60.5044 2.40772 61.3977 2.89236 62.0721 3.55229L38.137 3.55229V2.40772H38.1345ZM33.0264 3.55229L19.2522 3.55229L19.5315 2.40772L33.0264 2.40772V3.55229ZM13.8623 4.81802L0 4.81802L0 5.96259L14.1416 5.96259L13.8623 4.81802ZM38.1345 4.81802L63.3856 4.81802C63.3856 4.81802 63.9291 5.36452 64.2789 5.96259L38.137 5.96259V4.81802H38.1345ZM33.0264 5.96001L18.6936 5.96001L18.9502 4.81544L33.0264 4.81544V5.96001ZM14.4662 7.22574L0 7.22574L0 8.37031H14.7203L14.4637 7.22574H14.4662ZM55.5322 8.37031H65.4288C65.3105 7.97847 65.1545 7.59695 64.9658 7.22574L54.3269 7.22574C54.3269 7.22574 55.1397 7.66655 55.5347 8.37031H55.5322ZM46.6824 8.37031H38.1345V7.22574L46.6824 7.22574V8.37031ZM33.0264 8.37031H18.1601L18.4168 7.22574L33.0264 7.22574V8.37031ZM9.07629 10.778H15.3016L15.045 9.63346H8.72652L9.07377 10.778H9.07629ZM8.58813 9.63346H0L0 10.778H8.58813V9.63346ZM23.9879 10.778H17.6015L17.8808 9.63346H24.3351L23.9904 10.778H23.9879ZM56.4733 10.778H65.9899C65.9975 10.4017 65.7786 9.63346 65.7786 9.63346H56.1588C56.1588 9.63346 56.4733 10.2161 56.4733 10.778ZM46.6824 10.778H38.1345V9.63346H46.6899L46.6824 10.778ZM33.0264 10.778H24.4786V9.63346H33.0264V10.778ZM9.72801 13.1857H15.8829L15.6036 12.0412H9.42605L9.72801 13.1857ZM8.58813 12.0438H0L0 13.1883H8.58813V12.0438ZM23.6633 12.0438H17.3222L17.0429 13.1883H23.3387L23.6633 12.0438ZM33.0264 12.0438H24.4786V13.1883H33.0264V12.0438ZM46.6824 12.0438H38.1345V13.1883H46.6824V12.0438ZM56.6016 13.1857H66V12.0412H56.6016C56.6016 12.0412 56.6947 12.6624 56.6016 13.1857Z" fill="white"/>
<path fill-rule="evenodd" clip-rule="evenodd" d="M51.413 34.2752C52.2107 34.2752 52.8599 33.7055 52.8599 33.0043C52.8599 32.3031 52.2132 31.7334 51.413 31.7334C50.6128 31.7334 49.9662 32.3031 49.9662 33.0043C49.9662 33.7055 50.6128 34.2752 51.413 34.2752ZM16.3937 34.3164C17.1914 34.3267 17.8481 33.7673 17.8607 33.0662C17.8733 32.365 17.2367 31.785 16.439 31.7746C16.4239 31.7746 16.4088 31.7746 16.3937 31.7746C15.596 31.785 14.9594 32.3624 14.9695 33.0662C14.9821 33.7519 15.6111 34.3061 16.3937 34.3164Z" fill="white"/>
</g>
<defs>
<clipPath id="clip0_42_740">
<rect width="66" height="37" fill="white"/>
</clipPath>
</defs>
</svg>
