<svg width="77" height="15" viewBox="0 0 77 15" fill="none" xmlns="http://www.w3.org/2000/svg">
<path d="M20.1706 4.54218L19.4136 7.30089C19.3238 7.6345 19.2596 7.91678 19.2083 8.2119C19.157 7.92962 19.1185 7.73715 19.0158 7.32655L18.2973 4.54218H16.8602L16.3341 10.1109H17.4504L17.6429 7.19824C17.6686 6.8518 17.6814 6.53102 17.6814 6.19741C17.7327 6.51819 17.8354 6.91595 17.8995 7.18541L18.6951 10.1109H19.6446L20.5299 7.06993C20.6326 6.73632 20.6711 6.53102 20.7352 6.21024C20.7352 6.50536 20.748 6.78764 20.7737 7.13408L20.979 10.1109H22.0825L21.5821 4.54218H20.1706ZM25.3288 9.34105C25.0593 9.34105 24.8412 9.27689 24.6616 9.14858C24.3279 8.90479 24.1611 8.30172 24.1611 7.35221C24.1611 6.68499 24.251 6.18458 24.4434 5.8253C24.6102 5.53019 24.931 5.33772 25.3031 5.33772C25.8934 5.33772 26.1885 5.76114 26.2783 6.04343C26.3809 6.35138 26.4194 6.76198 26.4194 7.33938C26.4323 8.75081 26.0987 9.34105 25.3288 9.34105ZM25.3288 4.47803C24.9182 4.47803 24.5076 4.58067 24.174 4.74748C23.3784 5.18374 22.9165 6.14608 22.9165 7.35221C22.9165 8.17341 23.1346 8.87913 23.5581 9.41804C23.9815 9.96978 24.5332 10.2007 25.3673 10.2007C25.8292 10.2007 26.15 10.1237 26.4836 9.94411C27.292 9.50785 27.7282 8.55835 27.7282 7.30089C27.7282 5.55585 26.8044 4.47803 25.3288 4.47803ZM31.4621 6.82613C31.4749 7.21107 31.5134 7.92962 31.5519 8.35305C31.4364 7.95528 31.2183 7.36505 30.9488 6.77481L29.8839 4.54218H28.6392V10.1109H29.717L29.6786 7.73715C29.6657 7.27523 29.6657 6.62083 29.6272 6.15891C29.7299 6.50535 30.0635 7.28806 30.3843 7.98094L31.3338 10.1109H32.5014V4.54218H31.4364L31.4621 6.82613ZM33.8487 10.1109H35.0163V4.54218H33.8487V10.1109ZM35.8247 5.47886H37.1848V10.1238H38.3268V5.47886H39.6612L39.8409 4.55501H35.8247V5.47886ZM42.2788 9.34105C42.0093 9.34105 41.7912 9.27689 41.6116 9.14858C41.278 8.90479 41.1111 8.30172 41.1111 7.35221C41.1111 6.68499 41.201 6.18458 41.3934 5.8253C41.5474 5.53019 41.881 5.33772 42.2531 5.33772C42.8434 5.33772 43.1385 5.76114 43.2283 6.04343C43.3309 6.35138 43.3694 6.76198 43.3694 7.33938C43.3823 8.75081 43.0487 9.34105 42.2788 9.34105ZM42.2788 4.47803C41.8682 4.47803 41.4576 4.58067 41.124 4.74748C40.3284 5.18374 39.8665 6.14608 39.8665 7.35221C39.8665 8.17341 40.0847 8.87913 40.5081 9.41804C40.9315 9.96978 41.4833 10.2007 42.3173 10.2007C42.7792 10.2007 43.1 10.1237 43.4336 9.94411C44.242 9.50785 44.6782 8.55835 44.6782 7.30089C44.6654 5.55585 43.7544 4.47803 42.2788 4.47803ZM47.052 6.95445H46.6799V5.4532H47.0777C47.3471 5.4532 47.5781 5.47886 47.7064 5.53018C47.9758 5.62 48.1042 5.8638 48.1042 6.21024C48.1042 6.4412 48.0272 6.6465 47.886 6.77481C47.7449 6.90312 47.5396 6.95445 47.052 6.95445ZM48.0528 7.72432C48.7457 7.71149 49.2975 7.0186 49.2975 6.18457C49.2975 5.2094 48.6431 4.55501 47.6679 4.55501H45.5892V10.1238H46.6927V7.78847C46.7697 7.80131 46.8082 7.81414 46.8724 7.8398C47.0777 7.92962 47.2445 8.19907 47.7962 9.19991C48.0143 9.59767 48.1042 9.73882 48.3223 10.1109H49.6439C49.6439 10.1109 48.6302 8.35305 48.3095 7.94245C48.2068 7.85263 48.1683 7.80131 48.0528 7.72432ZM53.3265 7.86546C53.4419 7.49336 53.5189 7.23673 53.6216 6.82613C53.7242 6.41554 53.891 5.74831 53.891 5.74831C53.891 5.74831 54.0578 6.47969 54.1092 6.73631C54.2246 7.27522 54.4171 7.85263 54.4171 7.85263L53.3265 7.86546ZM53.3265 4.52935L51.5044 10.1109H52.6721L53.0698 8.78931H54.6994L55.0972 10.1109H56.3033L54.5454 4.52935H53.3265ZM59.6394 8.10925C59.6394 8.40437 59.6394 8.48136 59.6266 8.60967C59.5752 9.02027 59.2673 9.26406 58.7797 9.26406C58.4076 9.26406 58.151 9.12292 58.0227 8.87913C57.9585 8.76364 57.9328 8.55834 57.9328 8.2119V4.55501H56.7909V8.43003C56.7909 8.96894 56.8422 9.18708 57.0347 9.48219C57.3426 9.96978 57.9713 10.2264 58.8182 10.2264C60.0243 10.2264 60.5632 9.62333 60.7044 9.17424C60.7814 8.93045 60.7942 8.8278 60.7942 8.30172V4.55501H59.6522V8.10925M63.8224 9.19991H63.2193V5.42753H63.7326C64.1688 5.42753 64.4254 5.58151 64.6179 5.88946C64.836 6.26156 64.9002 6.80047 64.9002 7.45486C64.9002 8.63533 64.5666 9.19991 63.8224 9.19991ZM64.1816 4.58068C63.9635 4.56784 63.5273 4.55501 63.2065 4.55501H62.0902V10.1238H63.4503C63.7839 10.1238 64.0405 10.1109 64.2458 10.0981C64.7719 10.0596 65.2595 9.75165 65.6059 9.30255C65.978 8.80214 66.1705 8.13491 66.1705 7.37787C66.1705 6.37704 65.9267 5.6585 65.4134 5.15808C65.0542 4.79881 64.6564 4.61917 64.1816 4.58068ZM67.1841 10.1109H68.3518V4.54218H67.1841V10.1109ZM71.7392 9.34105C71.4698 9.34105 71.2516 9.27689 71.072 9.14858C70.7384 8.90479 70.5716 8.30172 70.5716 7.35221C70.5716 6.68499 70.6614 6.18458 70.8539 5.8253C71.0078 5.53019 71.3414 5.33772 71.7136 5.33772C72.3038 5.33772 72.5989 5.76114 72.6887 6.04343C72.7914 6.35138 72.8299 6.76198 72.8299 7.33938C72.8427 8.75081 72.5219 9.34105 71.7392 9.34105ZM71.7392 4.47803C71.3286 4.47803 70.918 4.58067 70.5844 4.74748C69.7889 5.18374 69.327 6.14608 69.327 7.35221C69.327 8.17341 69.5451 8.87913 69.9685 9.41804C70.3919 9.96978 70.9437 10.2007 71.7777 10.2007C72.2396 10.2007 72.5604 10.1237 72.894 9.94411C73.7024 9.50785 74.1387 8.55835 74.1387 7.30089C74.1387 5.55585 73.2276 4.47803 71.7392 4.47803ZM5.44043 5.17091C5.77404 5.17091 6.14614 5.2479 6.51825 5.38904V10.1879H8.16064V5.38904C8.53274 5.2479 8.89202 5.17091 9.23846 5.17091C10.3419 5.17091 10.9578 5.96645 10.9835 6.72349C11.0092 8.0451 10.4189 8.63533 9.44376 9.62333L9.28978 9.77731V10.1879H12.0613V9.73882H10.111C10.4189 9.53352 10.8809 9.17424 11.2786 8.77648C11.9715 8.07076 12.3051 7.39071 12.2923 6.76198C12.241 5.05543 10.6499 4.65766 10.6371 4.65766C10.6242 4.65766 10.2265 4.51652 9.64906 4.51652C9.11015 4.51652 8.60973 4.632 8.16064 4.87579V4.56784H6.50541V4.87579C6.05632 4.64483 5.55591 4.52935 5.017 4.52935C4.43959 4.52935 4.04183 4.6705 4.02899 4.6705C4.01616 4.6705 2.41226 5.08109 2.37377 6.78764C2.36094 7.39071 2.69455 8.0451 3.36177 8.73798C3.7852 9.17424 4.29845 9.55918 4.61923 9.76448H2.60473V10.2136H5.37627V9.80297L5.22229 9.649C4.24712 8.661 3.65689 8.07076 3.68255 6.74915C3.70821 5.96644 4.32411 5.17091 5.44043 5.17091Z" fill="white"/>
<path d="M76.2301 7.37794C76.2301 10.0853 75.1651 11.9972 73.0737 13.0878C71.4826 13.909 69.853 13.9218 69.8274 13.9218H10.5986C13.0108 12.7157 14.6661 10.2265 14.6661 7.35228C14.6661 4.47809 12.998 1.98883 10.5857 0.782702H69.8145C72.4578 0.782702 74.3439 1.87335 75.3961 4.00333C76.2045 5.63289 76.2173 7.30095 76.2173 7.31378C76.2301 7.31378 76.2301 7.37794 76.2301 7.37794ZM0.769872 7.33944C0.769872 3.72105 3.72105 0.769872 7.33944 0.769872C10.9578 0.769872 13.909 3.72105 13.909 7.33944C13.909 10.945 10.9835 13.8834 7.39077 13.909H7.31378C3.70822 13.8962 0.769872 10.9578 0.769872 7.33944ZM76.1018 3.68255C75.2806 2.00167 73.5227 0 69.8145 0H7.31378C3.28479 0.0128312 0 3.29762 0 7.33944C0 11.3813 3.28479 14.6789 7.33944 14.6789C7.35227 14.6789 7.37794 14.6789 7.39077 14.6789H69.8274C69.9044 14.6789 71.6366 14.6661 73.3944 13.7679C75.0368 12.9338 77 11.1375 77 7.36511V7.31378C76.9872 7.24962 76.9872 5.47892 76.1018 3.68255Z" fill="white"/>
</svg>
