<svg width="59" height="11" viewBox="0 0 59 11" fill="none" xmlns="http://www.w3.org/2000/svg">
<g clip-path="url(#clip0_42_980)">
<path d="M19.7402 0.214238H16.6139V4.28477H13.3596V0.214238H10.2334V10.4558H13.3596V6.42715H16.6139V10.4558H19.7402V0.214238ZM30.6151 8.39837V0.214238H27.4889V10.4558H33.1417L33.6121 8.39721H30.6151V8.39837ZM25.1777 0.214238H22.0514V10.4558H25.1777V0.214238ZM37.8515 0.214238H34.7264V10.4558H37.8515V0.214238ZM53.2638 2.82818C53.2638 2.27046 53.8216 2.01314 54.7193 2.01314C55.7043 2.01314 56.7755 2.22854 57.5032 2.53011L57.247 0.300399C56.432 0.129242 55.7043 0.00116434 54.3781 0.00116434C51.8515 0.00116434 50.1388 0.997838 50.1388 3.08666C50.1388 6.68563 55.022 5.95792 55.022 7.62875C55.022 8.2703 54.5493 8.61261 53.3931 8.61261C52.3673 8.61261 50.7803 8.2703 49.8395 7.79874L50.183 10.1565C51.1249 10.5 52.408 10.67 53.4373 10.67C56.0489 10.67 58.189 9.81305 58.189 7.24102C58.189 3.81437 53.2638 4.45709 53.2638 2.82818ZM44.4463 8.01414C47.356 8.01414 49.198 6.51331 49.198 3.89937C49.198 1.02928 47.2291 0 44.0167 0C42.7755 0 41.2758 0.0861611 40.2058 0.214238V10.4558H43.332V8.01414H44.4451H44.4463ZM46.1148 3.94245C46.1148 5.2698 45.4732 6.171 43.8443 6.171H43.332V1.93862C43.5137 1.92814 43.6837 1.92814 43.8443 1.92814C45.3859 1.92814 46.1148 2.65586 46.1148 3.94245ZM4.23936 8.01414C7.1502 8.01414 8.99102 6.51331 8.99102 3.89937C8.99102 1.02928 7.02213 0 3.81204 0C2.56853 0 1.07119 0.0861611 0 0.214238V10.4558H3.12625V8.01414H4.23936ZM5.91018 3.94245C5.91018 5.2698 5.2663 6.171 3.63972 6.171H3.12625V1.93862C3.30789 1.92814 3.48021 1.92814 3.63972 1.92814C5.18131 1.92814 5.91018 2.65586 5.91018 3.94245Z" fill="white"/>
</g>
<defs>
<clipPath id="clip0_42_980">
<rect width="58.189" height="10.67" fill="white"/>
</clipPath>
</defs>
</svg>
