<svg width="73" height="11" viewBox="0 0 73 11" fill="none" xmlns="http://www.w3.org/2000/svg">
<path d="M12.1093 3.88463C11.8421 4.64871 10.1592 5.44669 6.02519 4.49905L6.56323 6.97399C10.697 7.7355 13.1472 7.10908 14.5468 5.61972C15.5833 4.51582 15.7865 3.08801 14.9347 1.99536C14.0338 0.838724 12.0381 0 9.51794 0C5.91316 0 3.34427 1.05875 1.91774 5.03173L0 10.3732H3.35501L5.26333 4.97091C6.04632 2.74916 7.69171 2.38132 9.51794 2.38132C11.4331 2.38132 12.3575 3.18052 12.1093 3.88463ZM45.3289 6.22888L45.199 6.17234C45.9499 5.86899 46.7647 5.70477 47.5745 5.70477C48.0656 5.70477 49.1586 5.7892 49.6191 6.05633C49.7314 6.12009 49.8341 6.22068 49.7788 6.34549C49.5752 6.80977 46.5827 6.78382 45.3289 6.22888ZM51.4575 4.97985C50.6648 4.55008 49.357 4.20757 48.0786 4.15471C45.4264 4.04421 42.4023 4.96112 41.8002 7.12878C41.4519 8.37561 42.644 10.0597 45.748 10.5374C47.3011 10.7791 49.7686 10.718 51.5447 10.1231L52.2078 8.27233C48.6063 9.52675 43.8994 9.16257 44.0568 7.28346C45.7992 8.41685 48.3416 8.30917 50.224 7.99675C53.485 7.45723 53.4376 6.05217 51.4575 4.97985ZM56.9553 6.22888L56.8269 6.17234C57.5767 5.86899 58.3924 5.70477 59.2008 5.70477C59.6938 5.70477 60.7846 5.7892 61.2457 6.05633C61.3576 6.12009 61.4598 6.22068 61.4048 6.34549C61.2018 6.80977 58.2102 6.78382 56.9553 6.22888ZM63.0837 4.97985C62.2918 4.55008 60.9835 4.20757 59.7048 4.15471C57.0538 4.04421 54.0298 4.96112 53.4266 7.12878C53.0792 8.37561 54.2719 10.0597 57.3743 10.5374C58.9271 10.7791 61.3961 10.718 63.1712 10.1231L63.8354 8.27233C60.2337 9.52675 55.5271 9.16257 55.6843 7.28346C57.4271 8.41685 59.9689 8.30917 61.8509 7.99675C65.111 7.45723 65.065 6.05217 63.0837 4.97985ZM65.5325 6.5709L64.2018 10.3745H67.2734L68.2973 7.44744C68.549 6.70514 68.7623 6.1497 69.6579 6.1497H71.816L72.4213 4.39736H68.4458C67.1162 4.39724 66.0442 5.06563 65.5325 6.5709ZM14.0811 10.3745H17.2613L19.4105 4.39724H16.2306L14.0811 10.3745ZM34.7152 7.15815C35.0111 6.33583 35.9049 5.95513 36.6877 5.95513C37.4637 5.95513 38.2066 6.41867 37.9191 7.21934L36.7835 10.3744H39.8554L41.0074 7.16941C41.6051 5.50518 40.3106 4.12668 37.4101 4.12668C34.1814 4.12668 32.3515 5.19607 31.6462 7.15485L30.4891 10.3746H33.5588L34.7152 7.15815ZM25.2414 6.01595C26.4824 6.06906 27.4826 6.70171 27.3044 7.52428C27.1335 8.31712 25.9237 8.85689 24.6686 8.80232C23.4273 8.75006 22.4282 8.1146 22.6048 7.29252C22.7773 6.50139 23.9861 5.96052 25.2414 6.01595ZM25.6741 4.15764C22.4753 4.0201 19.6252 5.40618 19.242 7.17871C18.864 8.92285 21.0247 10.5226 24.236 10.6601C27.4334 10.7982 30.2847 9.41233 30.6686 7.63931C31.0455 5.89554 28.8846 4.29421 25.6741 4.15764Z" fill="white"/>
</svg>
