<svg width="44" height="16" viewBox="0 0 44 16" fill="none" xmlns="http://www.w3.org/2000/svg">
<g clip-path="url(#clip0_60_750)">
<path d="M28.3199 8.49872C28.3491 7.47472 28.2484 6.40805 27.9674 5.36272C27.8084 4.77605 27.5937 4.20805 27.1803 3.74405C26.6316 3.12805 25.8921 3.09338 25.3621 3.72005C25.0679 4.06672 24.8161 4.49338 24.6809 4.92805C23.9573 7.24805 23.9785 9.59738 24.5855 11.9334C24.7153 12.4374 24.9804 12.9387 25.3011 13.3521C25.7967 13.9921 26.6396 14.0054 27.1564 13.384C27.4718 13.0054 27.7183 12.5334 27.8773 12.0614C28.2616 10.9307 28.3412 9.74672 28.3199 8.49872ZM23.0297 8.81872C23.0482 7.18938 23.1463 5.83472 23.5995 4.52805C23.8089 3.92272 24.0925 3.36272 24.5378 2.89605C25.5158 1.87738 27.0212 1.89605 27.9701 2.94138C28.63 3.66672 28.9614 4.55472 29.1495 5.49605C29.616 7.81072 29.6266 10.1254 28.9508 12.4001C28.7785 12.9787 28.4763 13.5547 28.1079 14.0347C27.1829 15.2481 25.4575 15.2694 24.4397 14.1281C23.8433 13.4641 23.5491 12.6481 23.3583 11.7947C23.2523 11.3254 23.1701 10.8481 23.1224 10.3707C23.0668 9.77072 23.0509 9.16272 23.0297 8.81872Z" fill="white"/>
<path d="M42.7622 7.23728C42.7119 6.33595 42.6297 5.48795 42.2931 4.69062C42.15 4.35195 41.9803 4.01062 41.7603 3.71995C41.3045 3.12795 40.6101 3.07462 40.08 3.60528C39.8229 3.86128 39.587 4.18128 39.4624 4.51728C39.2424 5.11995 39.102 5.75462 38.9535 6.38395C38.8899 6.65595 38.8873 6.94128 38.8555 7.23995C40.1807 7.23728 41.4396 7.23728 42.7622 7.23728ZM43.8595 8.38662C42.1765 8.38662 40.5173 8.38662 38.7839 8.38662C38.8131 8.94928 38.7945 9.48528 38.8793 10.008C39.0065 10.8053 39.1497 11.608 39.3882 12.3786C39.6135 13.1146 40.0773 13.6986 40.944 13.8666C40.9096 14.2266 40.8778 14.576 40.8406 14.9493C40.0773 14.912 39.5048 14.5653 39.0436 14.0266C38.4102 13.2826 38.1027 12.384 37.9358 11.4373C37.5461 9.22928 37.5435 7.02395 38.1372 4.84795C38.3625 4.01595 38.7229 3.24262 39.4068 2.67195C40.3901 1.85062 41.7524 1.94128 42.5687 2.93062C42.8868 3.31462 43.1306 3.77862 43.3268 4.24262C43.78 5.31195 44.0132 7.26928 43.8595 8.38662Z" fill="white"/>
<path d="M19.0594 14.9199C18.6697 14.9199 18.3437 14.9199 17.9727 14.9199C17.9647 14.7493 17.9515 14.5893 17.9515 14.4319C17.9515 11.8533 17.9647 9.2746 17.9409 6.69327C17.9356 6.03727 17.8428 5.37593 17.7341 4.72527C17.644 4.1786 17.432 3.6666 16.9788 3.25593C17.1775 2.9546 17.371 2.66127 17.5831 2.34127C18.1264 2.65593 18.3623 3.1866 18.6512 3.7386C19.3271 2.8026 20.1725 2.2346 21.3705 2.19727C21.352 2.56793 21.3334 2.91727 21.3175 3.1866C20.8643 3.42393 20.4296 3.57593 20.0851 3.84527C19.4914 4.3066 19.2263 4.9786 19.1468 5.7146C19.0938 6.19193 19.0647 6.67727 19.0647 7.15727C19.0567 9.58393 19.062 12.0133 19.062 14.4399C19.0594 14.5893 19.0594 14.7359 19.0594 14.9199Z" fill="white"/>
<path d="M33.4858 2.18384C33.7164 2.47717 33.9364 2.7545 34.1537 3.03184C32.6986 4.6265 33.0723 6.27984 33.9072 7.97584C34.2756 8.72517 34.6573 9.49317 34.8428 10.2958C35.2483 12.0532 34.8243 13.6212 33.4248 14.9065C33.1571 14.6612 32.8974 14.4238 32.6191 14.1678C32.6774 14.0932 32.7198 14.0265 32.7728 13.9732C33.9284 12.8372 34.0954 11.4745 33.6077 10.0105C33.3877 9.34917 33.0299 8.73584 32.7251 8.10384C32.1367 6.87984 31.8558 5.61317 32.1924 4.26117C32.3938 3.43984 32.7887 2.73317 33.4858 2.18384Z" fill="white"/>
<path d="M12.6797 10.3253C12.6797 8.69867 12.6797 7.17067 12.6797 5.55467C11.8528 6.34134 11.0842 7.072 10.3049 7.81334C11.1027 8.656 11.8634 9.45867 12.6797 10.3253ZM5.48377 2.144C5.45992 2.12267 5.43606 2.09867 5.40956 2.07734C4.01013 2.89067 2.61069 3.704 1.19006 4.53067C1.77315 5.41334 2.3377 6.26934 2.9367 7.17867C3.80869 5.456 4.64623 3.8 5.48377 2.144ZM4.4448 11.2693C3.31571 9.56 2.21578 7.89334 1.11584 6.22934C1.09464 6.24534 1.07079 6.25867 1.04958 6.27467C1.04958 7.97334 1.04958 9.672 1.04958 11.3947C1.42594 11.6133 1.79966 11.832 2.18662 12.0587C2.92079 11.8027 3.65232 11.5467 4.4448 11.2693ZM6.02181 3.272C7.22776 4.54934 8.41516 5.80534 9.62111 7.08534C10.5514 6.2 11.4632 5.33067 12.4041 4.43467C10.5779 3.37334 8.80478 2.34134 7.01573 1.304C6.67647 1.976 6.36107 2.60267 6.02181 3.272ZM12.4571 11.544C11.9641 11.024 11.5029 10.536 11.0258 10.0293C8.47612 10.9173 5.9423 11.8027 3.32101 12.7173C4.55877 13.4373 5.71436 14.112 6.88056 14.7893C8.72791 13.712 10.5647 12.6427 12.4571 11.544ZM10.2784 9.23467C8.68021 7.54134 7.13235 5.89867 5.54473 4.216C4.86887 5.54934 4.21951 6.83467 3.5622 8.13334C4.1771 9.064 4.78671 9.98934 5.40956 10.9333C7.02898 10.368 8.61925 9.81334 10.2784 9.23467ZM6.87791 15.9387C4.60383 14.616 2.343 13.3013 0.0742188 11.9813C0.0742188 9.328 0.0742188 6.68534 0.0742188 4.02667C2.33505 2.712 4.59587 1.39734 6.87791 0.0693359C9.15464 1.392 11.4234 2.712 13.6948 4.032C13.6948 6.68 13.6948 9.312 13.6948 11.9707C11.4314 13.2907 9.15994 14.6107 6.87791 15.9387Z" fill="white"/>
</g>
<defs>
<clipPath id="clip0_60_750">
<rect width="44" height="16" fill="white"/>
</clipPath>
</defs>
</svg>
