<svg width="75" height="11" viewBox="0 0 75 11" fill="none" xmlns="http://www.w3.org/2000/svg">
<path d="M25.5984 4.1575H19V0.320385H15.5905V10.3586H19V6.32409H25.5984V10.3586H29.0074V0.320385H25.5984V4.15719V4.1575ZM35.7531 0.320385L29.6389 10.3586H32.244L33.4963 8.30451H40.5437L41.7568 10.3586H45.9195L39.8066 0.320385H35.7531ZM34.7021 6.32379L37.0748 2.42633L39.3766 6.32379H34.7021ZM59.4435 4.66988C60.2568 3.60559 60.1457 2.04823 58.589 1.15443C57.1348 0.322195 54.3608 0.015311 52.6281 0.015311C49.8556 0.015311 48.0698 0.202097 46.5514 0.460701V10.3589H49.9609V1.96344C51.189 1.72143 52.4347 1.71509 52.9015 1.73652C54.2546 1.79808 55.0153 2.00719 55.6251 2.44021C56.2528 2.8862 56.423 3.87958 55.6073 4.56698C54.9969 5.08117 53.7561 5.48673 50.9832 5.06095L50.5937 5.70459L55.8352 10.3583H60.4755L55.8131 6.32379C56.9341 6.18106 58.6333 5.73115 59.4435 4.66988ZM8.1169 3.78875C6.15006 3.40733 4.47683 3.16774 4.47683 2.53013C4.47683 1.82041 5.82899 1.63875 7.74483 1.84545C9.55747 2.03616 11.2678 2.50992 12.8626 3.18947L14.0741 1.20272C12.7859 0.711459 10.1287 0.082904 7.71979 0.01169C5.07612 -0.0655592 0.617088 0.17162 0.424267 2.84215C0.248344 5.28877 3.7318 5.87237 6.01608 6.40285C8.24303 6.92459 10.3339 7.11107 10.3339 7.88145C10.3339 8.42491 9.5964 8.84888 7.64918 8.70222C5.30756 8.526 3.31206 7.88477 1.32108 6.89682L0 9.06704C2.20703 9.93097 5.09995 10.6229 7.70832 10.6666C10.8067 10.7173 14.3083 10.217 14.3855 7.5625C14.4504 5.34701 12.1571 4.57422 8.1169 3.78905M73.4386 1.15443C72.0508 0.334567 69.4512 0.015311 67.4584 0.015311C64.6841 0.015311 62.879 0.202097 61.3609 0.460701V10.3589H64.7692V6.73086C65.822 6.90769 67.1437 7.01119 68.2846 7.00183C71.0756 6.97951 73.148 6.32379 74.0934 5.29722C75.4389 3.83432 74.9878 2.06966 73.4389 1.15413L73.4386 1.15443ZM70.4591 4.5881C69.8698 5.07 69.0086 5.2414 67.6525 5.23748C66.6497 5.23325 65.6126 5.05069 64.7689 4.85847V1.96374C65.9961 1.72173 67.2644 1.71841 67.7291 1.73682C69.0918 1.79385 69.8842 2.0253 70.4736 2.44051C71.0879 2.87021 71.2913 3.90463 70.4588 4.5881" fill="white"/>
</svg>
