<svg width="56" height="12" viewBox="0 0 56 12" fill="none" xmlns="http://www.w3.org/2000/svg">
<g clip-path="url(#clip0_42_280)">
<path d="M50.9826 0.648193V2.12645H51.6077C51.9061 2.12645 51.9657 2.20849 51.9739 2.33154C51.9793 2.41685 51.662 2.84507 51.5413 3.01571L51.0613 3.713L50.4171 4.60881L50.0551 5.12891C49.7974 5.51776 49.8042 5.334 49.4733 4.88937L49.1519 4.42506L48.383 3.29298C48.2867 3.15188 47.7186 2.44475 47.7186 2.27412C47.7186 2.07559 47.8189 2.13138 48.2528 2.13138H48.6868V0.648193H42.5818V2.10676C44.1019 2.10676 44.1345 2.03786 44.6647 2.77288L45.5041 3.94105L47.9952 7.3865V9.56533C47.9532 10.0001 47.6263 10.0313 46.9497 10.0018H46.3706V11.3143H52.3427V9.98207H51.582L51.2443 9.98699C50.7534 9.97714 50.6653 9.93777 50.6653 9.37173V7.21915L52.5122 4.71874L53.3652 3.58995C54.3782 2.06083 54.427 2.12645 55.1511 2.12645H55.9987V0.648193H50.9812H50.9826Z" fill="white"/>
<path d="M2.39888 2.9369C2.44091 2.10671 3.75494 1.65552 5.30628 1.65552C6.51046 1.65552 8.10112 2.09523 8.80628 2.70064C9.12766 2.97792 9.4165 3.24371 9.62805 4.23797H9.50872H10.7129V0.636657H9.48838L9.49109 0.71377C9.51007 1.28473 9.34328 1.27653 8.84967 0.931981C8.10655 0.415164 6.61352 -0.00813296 5.27102 0.00827392C2.23208 0.0427284 0 1.11574 0 3.66537C0 6.01647 1.63948 6.78267 3.89868 7.17972L6.48063 7.50786C8.30046 7.77365 9.00562 8.01811 9.00562 8.87455C9.00562 9.73099 7.6048 10.4266 5.95447 10.3856C4.76792 10.3561 2.96571 9.76381 2.50736 9.30605C2.11275 8.91065 1.52422 8.52673 1.60965 7.38481H0.260364V11.6506H1.6327C1.6327 10.9812 1.60829 10.6383 1.98799 10.8713C3.03351 11.5144 4.7625 11.982 6.04533 11.9722C9.26598 11.9459 11.3109 10.7072 11.338 8.27734C11.3991 2.75479 2.55076 5.22566 2.38938 3.23551L2.39752 2.93854L2.39888 2.9369Z" fill="white"/>
<path d="M36.3208 2.11327H37.4138C38.0498 2.0903 38.1501 2.32 38.1379 2.96315V7.19941L32.1645 0.63501H27.7993V2.11655H28.6563C29.3507 2.11655 29.5825 2.37086 29.5825 2.9369V2.75806V9.35691C29.5825 9.92295 29.3507 9.99186 28.6563 9.99186H27.9173V11.4176H33.0622V10.0132H32.2458C31.5515 10.0132 31.2966 9.92459 31.2966 9.35855V3.89178L38.1732 11.4258L39.8873 11.4537V2.75806C39.8873 2.19202 40.1192 2.0985 40.8135 2.0985H41.4847V0.63501H36.3208V2.11327Z" fill="white"/>
<path d="M20.006 0C15.9459 0 13.3911 2.3347 13.3911 6.02953C13.3911 9.72436 15.8998 12 19.869 12C24.0891 12 26.53 9.7539 26.53 5.88187C26.53 2.39376 23.8843 0 20.006 0ZM19.7144 10.4742C17.6464 10.187 16.1724 8.62838 16.1724 5.97047C16.1724 3.4799 17.5285 1.67678 20.0073 1.59475C21.9031 1.5324 23.8342 3.56358 23.7487 6.09024C23.6619 8.6694 22.272 10.4545 19.968 10.4545L19.7131 10.4742H19.7144Z" fill="white"/>
</g>
<defs>
<clipPath id="clip0_42_280">
<rect width="56" height="12" fill="white"/>
</clipPath>
</defs>
</svg>
