<svg width="529" height="211" viewBox="0 0 529 211" fill="none" xmlns="http://www.w3.org/2000/svg">
<path d="M78.4461 196.219C82.4183 191.529 82.1367 186.834 81.8908 185.08C82.2149 184.874 82.4778 184.669 82.7953 184.403L87.4286 179.981C87.5302 179.854 87.7402 179.661 87.5886 179.331C88.1947 179.095 88.8876 178.72 89.5423 177.996C91.2516 176.102 91.3869 173.048 91.2649 170.872L91.1966 170.247C98.1958 163.785 108.037 153.79 111.464 146.161C112.934 142.886 115.686 136.915 119.145 130.078C118.255 130.386 117.404 130.683 116.654 130.975C115.941 131.284 115.152 130.908 114.897 130.188C114.654 129.521 115.023 128.733 115.683 128.429C117.166 127.88 118.95 127.23 120.887 126.678C123.074 126.052 125.435 125.522 127.879 125.255C128.9 125.144 129.873 125.099 130.737 125.113C130.261 129.714 130.196 134.902 130.363 137.992C130.983 148.402 134.706 153 138.456 156.793C141.362 159.698 146.807 162.157 151.655 163.871C152.866 168.111 155.463 168.752 156.965 168.758C157.194 168.733 157.367 168.769 157.596 168.744C158.166 168.682 158.718 168.506 159.276 168.329C159.885 169.181 161.049 170.38 162.617 170.494C163.011 171.484 164.252 172.274 165.472 172.372C166.482 174.22 169.553 179.752 172.21 181.937C173.921 183.362 180.433 186.622 186.47 185.847C189.793 185.423 191.968 183.806 193.425 181.348C197.007 175.198 193.386 172.03 190.15 169.27C188.793 167.922 187.202 166.538 186.391 164.9C185.64 163.309 185.017 160.215 184.459 157.223C184.03 154.85 183.529 152.375 182.969 150.417C181.528 145.624 178.252 143.561 172.962 144.139C168.013 144.679 165.949 148.358 165.346 149.75C165.112 149.721 164.944 149.739 164.763 149.698C164.28 148.942 163.635 148.325 162.894 147.889C161.426 147.071 158.986 146.875 155.85 150.27C153.071 149.016 150.007 147.338 147.067 145.184C144.308 143.126 143.557 137.796 144.081 131.462C144.146 130.435 144.252 129.349 144.418 128.257C144.511 127.553 145.146 127.028 145.85 127.122C146.601 127.155 147.198 127.892 147.111 128.657C146.986 129.561 146.908 130.406 146.837 131.25C148.546 130.975 150.194 130.387 151.492 129.266C153.54 127.486 154.402 124.801 154.011 121.219C153.645 117.866 152.259 115.196 149.988 113.37C149.361 112.922 148.741 112.473 148.013 112.144C149.64 107.016 151.517 102.61 153.196 100.067C154.236 98.5118 155.34 96.4942 156.702 94.2173C158.964 90.1694 161.811 85.1942 165.512 80.0713C172.404 70.5136 180.715 61.2565 184.258 57.3612C184.82 56.7219 185.233 56.2756 185.545 55.956C189.434 51.5606 191.706 40.2021 186.998 35.5349C185.076 33.6777 182.848 33.1186 180.416 33.4385C176.365 33.976 171.767 36.9802 167.217 40.4278C162.439 44.0161 162.312 49.8298 163.183 54.4401L163.876 53.5756C164.426 52.822 164.735 51.9859 164.703 51.1259C164.438 46.0892 166.567 43.4362 168.317 42.0961C172.942 38.5993 176.508 36.5373 179.246 35.7829C180.032 35.5815 180.839 36.1257 180.926 36.9254C181.048 37.5444 180.6 38.1712 179.988 38.3536C177.641 39.011 174.345 40.928 169.989 44.2253C167.917 45.7774 167.337 48.3701 167.449 50.9485C167.502 52.4997 166.972 53.9923 166.016 55.1914L163.965 57.7476C159.932 62.6891 154.078 68.319 147.907 74.2692C135.838 85.9491 122.098 99.1918 114.203 113.809L113.35 115.459C103.61 120.031 97.6529 127.073 98.2801 132.818C98.4848 134.693 99.8373 136.565 101.146 137.972C98.6268 142.279 95.9927 146.592 93.3572 150.395C90.2319 154.938 87.0317 158.857 84.3091 161.8C81.5234 160.492 79.2309 161.089 76.7634 163.256C76.4459 163.522 75.8955 164.268 75.5387 165.232C75.0343 165.342 74.4702 165.464 74.2132 165.724L71.92 167.932C67.9937 165.138 60.9719 161.934 54.7275 161.119C48.5971 160.293 42.6197 161.924 41.0921 164.797C39.762 167.363 39.4146 172.582 42.1872 175.326C43.9897 177.087 46.5701 178.07 49.0364 179.066C51.1353 179.87 53.1209 180.632 54.0379 181.688C55.9979 183.834 57.7565 186.749 59.3818 189.563C61.0676 192.371 62.6342 195.083 64.2852 196.514C65.7558 197.85 68.8025 199.992 72.3735 199.718C74.7302 199.46 76.7328 198.263 78.461 196.231L78.4461 196.219ZM381.283 25.9855C379.298 28.9083 378.777 30.9778 378.891 32.5224C378.954 33.0936 378.794 33.7434 378.567 34.2849C378.079 35.6028 377.364 36.9525 376.546 38.422C373.358 44.0057 368.662 49.414 362.534 54.4551C349.824 64.9947 340.315 76.9731 332.057 89.325C321.909 92.2756 314.891 97.0126 310.538 100.888C311.122 94.6635 312.12 87.9931 313.613 83.7436C316.901 74.3481 326.326 55.8173 331.751 50.7375C337.546 45.3247 340.012 41.0847 339.596 37.2748C339.18 33.4649 335.907 30.3681 332.724 30.7155C328.004 31.2309 315.312 39.8104 302.823 56.6018C296.904 64.5574 291.01 74.2986 286.711 81.8461C286.253 71.3026 291.344 56.8215 295.353 52.4673C298.698 48.8792 300.373 45.2422 299.942 42.3518C299.689 40.5368 298.663 39.0374 296.934 38.0158C291.522 34.8057 286.154 38.8459 282.035 42.7497C280.054 44.6387 279.065 47.1604 279.07 50.3828C278.771 50.8166 278.527 51.1901 278.228 51.6239C276.426 48.3121 273.09 47.7516 270.303 48.0558C263.71 48.7756 248.976 57.6392 235.399 69.1915C231.026 72.8918 226.913 76.8493 223.473 80.6246C228.582 71.6015 233.416 64.2267 235.201 62.6516C237.303 60.8106 238.43 58.4981 238.613 56.0032C238.765 53.1648 237.585 50.8186 236.415 49.566C235.957 49.0381 234.963 48.3986 233.245 48.4706C229.75 48.5666 224.641 51.307 221.943 54.5389C219.909 57.0048 219.309 60.47 219.186 63.0129C212.615 73.3991 197.548 98.1894 192.996 113.938C192.027 113.465 190.842 113.194 189.588 113.276C186.903 113.454 184.65 114.91 183.846 117.071C183.043 119.172 179.018 122.379 175.436 123.803C173.781 124.446 172.477 124.643 171.756 124.321C171.269 124.088 170.758 122.587 171.213 120.409C172.3 115.055 177.338 105.869 181.802 97.7802C189.388 83.999 197.928 70.0593 201.343 66.0555C207.206 59.1396 204.574 55.6328 201.687 52.8951C201.168 52.3737 200.224 52.13 198.969 52.2126C195.594 52.3499 190.459 54.352 187.281 57.9218C185.589 59.7793 184.637 62.6982 184.416 66.4688C180.847 72.7332 173.933 84.7683 168.226 94.6591C156.68 114.802 154.442 127.537 154.871 131.461C155.175 134.249 156.1 142.722 169.797 141.227C178.23 140.306 183.778 137.919 187.725 134.986C190.144 133.185 191.946 131.207 193.513 129.255C195.08 127.302 195.993 125.645 196.462 124.153C196.669 123.437 197.485 123.007 198.207 123.269C198.868 123.543 199.231 124.252 198.964 124.913C198.411 126.7 197.367 128.712 195.591 130.925C194.108 132.773 192.361 134.698 190.163 136.467C191.522 137.094 193.434 137.491 196.106 137.199C202.867 136.461 205.709 131.371 207.37 117.087C207.819 113.298 210.044 107.357 213.067 100.752C212.402 104.68 212.339 108.834 212.855 113.558C213.998 124.027 216.899 135.854 229.233 134.507C239.976 133.334 241.234 123.759 240.985 121.481C240.65 118.411 238.422 115.37 233.017 115.96C230.802 116.202 228.605 115.061 227.642 113.092C226.819 111.34 226.253 109.328 225.999 106.996C225.47 102.158 226.076 95.0681 231.845 88.9171C240.876 79.4114 256.778 71.2294 261.473 68.9286C262.895 68.2567 264.552 68.1301 266.104 68.6542C266.88 68.9163 267.53 69.0766 268.106 69.068C267.193 70.7248 266.423 72.0735 265.933 72.875C258.708 85.1752 242.073 115.141 243.365 126.974C243.8 130.959 246.799 133.161 251.237 132.676C255.675 132.192 260.978 127.064 261.706 120.538C263.207 106.905 269.2 95.8881 273.245 89.7486C271.861 96.0599 270.76 105.448 271.983 116.656C273.207 127.864 278.119 129.109 280.16 128.886C282.49 128.632 290.041 126.658 289.167 112.305C288.791 106.247 292.408 98.25 295.207 92.8245C296.585 90.1379 298.162 87.783 299.735 85.8231C296.505 94.6954 292.964 107.573 294.163 118.552C294.914 125.433 298.82 127.481 301.942 127.14C306.662 126.625 310.649 121.009 310.245 115.756C312.26 113.115 315.155 109.638 321.272 106.665C320.298 108.267 319.325 109.93 318.352 111.532C317.48 113.008 316.555 114.55 315.676 116.027C307.794 129.147 294.667 140.656 284.773 147.489C283.018 147.218 281.173 147.188 280.033 147.259C280.894 144.628 280.806 141.707 279.747 137.791C278.687 133.875 276.161 131.274 272.668 130.391C268.464 129.293 264.197 130.221 261.773 132.79C261.36 133.237 260.954 133.682 260.547 134.189C258.757 134.099 256.343 134.702 254.399 136.873C251.94 139.616 248.511 146.668 253.261 163.359C255.506 171.287 261.645 175.859 263.65 177.367C265.47 178.725 267.262 179.332 268.968 179.146C269.196 179.121 269.364 179.103 269.586 179.024C271.609 178.572 272.883 177.107 273.481 176.239C273.883 176.25 274.28 176.213 274.683 176.169C277.073 175.908 278.913 174.898 279.71 174.295C281.477 173.122 282.708 171.207 283.414 168.709C283.762 168.725 284.111 168.748 284.393 168.718C285.528 168.594 286.632 168.126 287.518 167.343C290.243 164.917 291.722 162.104 291.719 159.459L291.717 158.943C294.24 157.287 296.973 155.432 299.639 153.529C305.607 149.192 311.56 144.17 317.338 138.589C321.917 134.173 325.776 127.884 331.158 119.239C332.77 116.642 334.431 113.932 336.348 110.962C338.361 107.804 340.315 104.599 342.16 101.522C343.998 101.491 346.541 102.138 348.929 102.911C344.895 113.884 340.817 130.797 350.14 139.272C354.033 142.817 359.348 145.637 364.369 146.816C367.147 147.492 369.887 147.825 372.387 148.069C373.349 150.038 374.519 151.229 376.077 151.807C376.919 152.116 377.85 152.246 378.871 152.134C379.723 152.041 380.672 151.768 381.661 151.367C381.364 153.936 381.595 156.555 382.325 159.005C383.256 162.242 385.68 164.969 388.827 166.414C390.644 167.249 392.574 167.562 394.454 167.357C395.535 167.239 396.651 166.947 397.695 166.486C399.23 165.802 400.579 164.961 401.741 164.032C402.264 164.09 402.726 164.094 403.237 164.038C404.828 163.865 406.243 163.132 407.428 161.854C410.563 158.459 411.316 152.162 410.429 147.71C409.473 144.244 406.572 140.821 406.416 140.696C406.416 140.696 404.018 138.455 403.117 135.501C402.583 133.777 402.131 131.753 401.746 129.782C401.244 127.301 400.755 124.94 400.059 123.289C399.374 121.753 398.217 120.669 396.744 120.313C395.144 119.909 393.302 120.403 391.589 121.569C391.174 121.444 390.759 121.313 390.344 121.243C388.06 120.86 385.761 121.396 383.999 122.683C381.021 124.905 379.44 127.784 378.914 128.821C378.566 128.804 378.277 128.775 377.935 128.812C375.942 128.975 374.138 130.376 371.668 133.583L371.322 134.083C368.54 133.87 366.152 133.09 364.352 131.852C361.738 130.064 360.227 127.237 359.811 123.427C359.532 120.867 359.813 117.096 360.637 112.573C360.966 112.537 361.4 112.469 361.72 112.414C361.505 111.003 361.172 109.571 360.808 108.352C360.619 107.68 360.893 107.017 361.493 106.721C362.308 106.285 363.277 106.696 363.484 107.598C363.8 108.93 364.132 110.356 364.388 111.64C366.074 110.967 367.63 109.974 368.948 108.667C371.032 106.658 372.086 104.238 371.862 102.189C371.577 99.575 370.492 95.4301 366.839 92.028C367.524 90.3962 368.21 88.7711 368.955 87.1327C377.884 67.7925 392.352 46.4129 397.936 39.1262C407.246 26.9451 406.141 20.4974 401.355 14.0573C400.148 12.462 398.217 11.6393 395.802 11.6717C395.436 11.6777 395.051 11.7061 394.669 11.7546C388.883 12.4611 381.399 17.4666 377.407 23.3488C373.764 28.7509 373.697 32.8039 374.902 35.7458C375.266 35.1008 375.583 34.4543 375.846 33.8204C376.079 33.3327 376.197 32.8029 376.195 32.2864C376.175 29.9836 377.097 27.3535 379.027 24.4911C382.887 18.7729 390.568 13.6438 396.317 13.7098C397.725 13.7261 398.216 14.7399 397.96 15.5702C397.74 16.1722 397.104 16.3776 395.866 16.4312C390.836 16.654 384.428 21.2497 381.26 25.9675L381.283 25.9855ZM185.387 38.0226C185.943 37.9483 186.53 38.2174 186.759 38.7568C187.074 39.5315 187.341 40.4203 187.447 41.3879C187.527 42.127 186.971 42.8201 186.233 42.9007C185.548 42.9755 184.861 42.4725 184.78 41.7334C184.7 40.9943 184.517 40.3818 184.341 39.8231C184.05 39.2769 184.318 38.5609 184.858 38.2096C185.016 38.1039 185.199 38.0431 185.38 38.0166L185.387 38.0226ZM401.244 17.5847C401.462 18.0233 401.68 18.4007 401.897 18.8393C402.201 19.4997 401.831 20.3425 401.111 20.5978C400.499 20.7802 399.764 20.5205 399.48 19.9123C399.31 19.5365 399.14 19.2831 398.912 18.9408C398.577 18.4198 398.707 17.6849 399.246 17.2657C399.471 17.0848 399.678 16.9941 399.981 16.9679C400.533 16.9212 400.973 17.1587 401.239 17.5989L401.244 17.5847ZM332.78 32.7154C333.29 32.6596 333.759 32.724 334.24 32.9026C335.203 33.3144 335.454 34.5584 334.789 35.3177C334.49 35.7515 333.939 35.9273 333.409 35.8696C329.87 35.5624 317.653 44.328 306.473 59.4195C301.558 66.0551 296.613 73.9657 292.643 80.7906C292.254 81.4653 291.36 81.6785 290.734 81.2302C290.174 80.829 289.973 80.0485 290.253 79.44C294.278 72.5547 299.271 64.5846 304.287 57.8155C316.824 40.9032 329.026 33.1251 332.78 32.7154ZM171.005 50.669C171.167 50.6514 171.339 50.6734 171.501 50.7305C172.224 50.9984 172.653 51.8151 172.33 52.537C169.383 59.7671 161.457 67.8262 151.209 77.6959C140.385 88.1453 128.262 99.8856 120.491 112.477C120.151 113.031 119.432 113.286 118.823 113.005C118.089 112.623 117.768 111.74 118.21 111.06C126.111 98.1077 138.396 86.2886 149.382 75.706C159.421 65.9747 167.19 58.1026 169.858 51.4811C170.067 51.0299 170.514 50.7091 171.005 50.669ZM474.486 18.5844C472.036 18.7974 469.16 19.5806 465.858 20.9542C453.969 25.8763 446.61 34.3359 439.455 42.542C438.276 43.881 437.002 45.3393 435.769 46.7453C430.378 52.6851 423.785 67.1057 419.669 76.8228C418.055 67.3301 420.599 51.1077 421.504 45.7121C422.28 44.4171 423.069 43.1818 423.858 42.001C425.794 39.1991 426.341 35.7464 425.291 32.978C424.57 31.0985 423.213 29.7507 421.44 29.312C419.184 28.6947 415.987 29.9684 411.619 33.1447C408.905 35.1681 407.244 37.8788 406.746 41.2174C395.879 56.567 370.546 100.028 371.913 112.546C372.633 119.144 376.71 120.141 380.006 119.781C383.874 119.358 393.506 111.684 392.748 104.743C392.537 102.808 392.05 100.964 391.286 99.2591C393.985 91.3083 399.235 77.7822 405.644 69.0251C405.581 73.1796 405.67 78.2287 406.149 82.6097C407.018 90.5722 410.871 116.404 423.836 114.989C428.213 114.511 431.507 109.888 430.96 104.882C430.768 103.122 430.05 100.78 428.754 97.868C430.743 89.7635 433.964 78.1315 438.845 69.1333C444.975 57.8162 454.171 49.6999 462.643 42.9071C464.223 41.6399 464.951 40.0917 465.469 38.4849C465.676 37.7688 466.384 37.4059 467.094 37.5596C467.857 37.7075 468.293 38.5234 468.037 39.3537C467.567 40.8397 466.881 42.3968 465.823 43.6614C466.451 43.6813 467.073 43.6609 467.698 43.5928C474.748 42.8231 485.444 33.8836 484.78 27.7958C484.393 23.7516 483.014 21.0803 480.558 19.6826C478.96 18.7351 476.935 18.3646 474.486 18.5776L474.486 18.5844ZM291.071 39.1386C292.048 38.998 293.011 39.1037 294.05 39.4185C294.646 39.5847 295.002 40.2325 294.783 40.8345L294.788 40.8882C294.622 41.4843 294.016 41.7205 293.427 41.6148C293.072 41.5379 292.731 41.5208 292.388 41.5582C290.629 41.7503 288.208 43.2793 285.238 46.1397C284.664 46.6648 284.275 47.3395 284.02 48.1698C283.812 48.886 283.117 49.3631 282.414 49.2698C281.602 49.2428 281.12 48.4932 281.321 47.6621C281.683 46.2423 282.363 45.0733 283.357 44.1557C286.687 40.984 288.925 39.4545 291.071 39.1386ZM382.95 30.3047C383.124 30.2856 383.309 30.2927 383.485 30.3483C384.2 30.5557 384.623 31.3187 384.415 32.0281C382.646 37.9804 378.013 47.6927 365.514 58.0394C354.804 66.9193 345.895 76.9895 338.411 87.4754C337.963 88.1022 337.17 88.2432 336.551 87.7941C335.93 87.3995 335.783 86.552 336.232 85.9319C343.817 75.3193 352.875 65.0628 363.794 55.9833C375.767 46.0409 380.168 36.8095 381.806 31.2795C381.965 30.7454 382.427 30.3686 382.957 30.304L382.95 30.3047ZM77.8361 63.7371C75.3405 64.0912 72.6915 65.5295 70.4269 68.4965C68.1607 71.4501 66.1949 74.5409 64.369 77.7932C63.7832 78.7751 63.0848 79.7217 62.2458 80.5C59.0062 83.4987 56.0559 84.9155 53.9464 84.5746C52.7139 84.3624 51.7556 83.4879 51.0714 81.9511C50.157 79.9227 48.1715 79.0992 45.7111 79.7757C41.7507 80.9017 36.4358 86.4863 37.2244 93.7096C38.013 100.933 45.3403 102.207 49.0399 101.803C50.3491 101.66 52.9466 100.683 55.4777 99.6587C51.7714 113.132 50.774 126.649 51.8986 136.95C52.2155 139.853 54.2558 154.31 63.2932 153.324C71.3099 152.448 71.4364 145.703 71.5306 140.28C71.5726 138.549 71.5666 136.938 71.8264 135.584C72.7925 130.181 75.2376 125.196 77.0289 122.124C77.3431 126.061 77.7053 129.876 78.0971 133.464C79.4446 145.808 84.5826 149.68 88.9603 149.202C93.0559 148.755 97.0962 143.133 96.3509 136.306C95.6928 130.279 101.884 112.679 113.074 98.7356C120.161 89.9045 127.845 83.3676 133.426 78.6106C136.846 75.7011 139.266 73.601 140.204 72.1727C141.111 70.4622 143.259 66.4268 142.171 62.8059C141.624 60.9685 140.328 59.6142 138.33 58.7376C135.309 57.3947 130.176 58.363 125.92 61.0103C121.509 63.7969 118.796 67.9483 118.488 72.4696C111.345 79.233 96.0364 98.6373 89.0792 110.276C86.4972 97.1425 97.3478 85.9423 103.968 79.1204C104.692 78.3478 105.369 77.7028 105.931 77.0635C112.783 69.7539 108.762 64.0326 107.899 62.9777C107.235 62.1866 106.147 61.6731 104.753 61.5397C101.562 61.3102 97.634 63.2348 93.8206 66.7653C91.4201 68.9856 90.0728 71.9545 89.7731 75.5569C84.2004 83.0124 71.6242 100.561 65.4838 115.449C65.0097 100.59 79.3006 80.2632 83.4859 76.4677C85.474 74.6392 86.4271 72.2913 86.1535 69.785C85.9114 67.5676 84.7149 65.57 83.1256 64.7032C81.6272 63.8604 79.7774 63.4708 77.8369 63.7439L77.8361 63.7371ZM476.872 23.2603C476.229 23.1605 475.478 23.1269 474.625 23.22C472.692 23.4311 470.412 24.1424 467.712 25.2395C456.819 29.7672 449.819 37.8408 442.993 45.6371C441.79 47.0059 440.51 48.4716 439.23 49.8761C435.735 53.7117 425.577 75.4843 423.019 81.0603C422.691 81.7285 421.803 82.0566 421.129 81.6678C420.515 81.3337 420.26 80.5524 420.534 79.8901C422.84 74.6884 432.214 53.5726 437.247 48.0187C438.534 46.6135 439.808 45.1485 440.986 43.8096C447.932 35.7963 455.202 27.5232 466.646 22.7584C469.437 21.6242 471.867 20.9169 473.937 20.6434C475.182 20.4802 476.295 20.4675 477.283 20.618C478.215 20.7475 478.681 21.8457 478.161 22.6232C477.838 23.0868 477.347 23.3172 476.878 23.2529L476.872 23.2603ZM61.0983 151.143C55.5117 149.509 54.1019 138.151 53.9464 136.727C51.9467 118.41 56.746 89.6814 72.0529 69.6993C74.014 67.1258 76.2441 65.9576 78.3456 65.7282C79.7086 65.5794 81.0678 65.8933 82.1087 66.4664C82.4156 66.6641 82.7418 66.9753 83.067 67.3409C83.538 67.9831 83.3484 68.8605 82.6473 69.2838C82.0537 69.6342 81.3768 69.4089 80.8229 68.8778C80.2771 68.3595 79.4359 68.3085 78.6436 68.395C77.106 68.5629 75.5005 69.6017 74.1905 71.3562C59.3383 90.7106 54.6732 118.615 56.6172 136.421C57.1014 140.856 58.9277 147.565 61.8512 148.517C62.3327 148.696 62.6982 149.118 62.7837 149.653C62.92 150.59 62.0541 151.371 61.1043 151.135L61.0983 151.143ZM137.366 63.6636C137.167 63.3997 136.907 63.1357 136.48 62.9512C136.299 62.8553 135.644 62.6413 134.274 62.7908C132.401 62.9953 130.241 63.8091 128.467 64.9207C126.902 65.9007 124.416 67.8991 123.544 70.9249C123.337 71.6411 122.629 72.0039 121.98 71.8436C121.216 71.6958 120.781 70.8798 120.976 70.0562C122.116 66.2464 125.069 63.7958 127.005 62.6054C129.264 61.2096 131.884 60.3116 134.116 60.0951C135.454 59.9627 136.648 60.0771 137.528 60.4774C138.43 60.8412 139.274 61.7282 139.83 62.5855C140.307 63.2814 139.836 64.1963 139.017 64.3469C138.371 64.4718 137.764 64.1981 137.359 63.6644L137.366 63.6636ZM104.62 63.4989C105.432 63.5259 106.058 63.7839 106.365 64.1719C106.602 64.4724 106.921 64.968 107.211 65.5754C107.52 66.2284 107.205 67.072 106.545 67.3752C105.885 67.6784 105.103 67.3626 104.8 66.7022C104.55 66.1515 104.416 66.1729 103.885 66.2241C102.062 66.3959 99.5171 67.8501 97.0627 70.1375C96.069 71.0551 95.3941 72.2167 94.9606 73.5355C94.7534 74.2517 93.9852 74.6211 93.2697 74.3525C92.6145 74.1384 92.2385 73.3703 92.3389 72.6726C92.9516 70.8787 93.877 69.3973 95.1823 68.1601C98.1095 65.4743 101.193 63.7846 103.624 63.526C103.973 63.4879 104.305 63.4788 104.628 63.5048L104.62 63.4989ZM199.38 57.4101C199.182 57.1462 198.874 57.003 198.579 56.9196C196.818 56.5951 193.081 58.2134 190.521 61.0835C190.012 61.717 189.548 62.6856 189.275 63.9257C189.182 64.6294 188.534 65.0401 187.831 64.9469C187.014 64.8661 186.471 64.0619 186.653 63.1173C187.05 61.4625 187.705 60.1262 188.525 59.1731C191.553 55.8508 195.891 54.4525 198.335 54.1857C199.302 54.0801 200.258 54.4381 200.91 55.1149C201.109 55.3788 201.308 55.5882 201.501 55.7983C201.972 56.4404 201.783 57.3246 200.934 57.7028C200.308 58.0024 199.712 57.8362 199.38 57.4101ZM232.622 50.5377C232.803 50.5179 232.971 50.5063 233.141 50.5014C233.946 50.468 234.535 50.6349 234.8 50.9526C234.993 51.1628 235.205 51.4864 235.41 51.8107C235.833 52.5125 235.476 53.4695 234.708 53.8456C234.156 54.0759 233.454 53.9282 233.103 53.3886C232.976 53.2868 232.225 53.2532 232.225 53.2532C230.177 53.4768 227.325 55.2297 225.392 57.5689C224.735 58.3886 224.174 61.156 223.904 62.9126C223.763 63.7371 222.959 64.2804 222.129 64.0242C221.474 63.8102 221.063 63.2159 221.156 62.519C221.427 60.7624 222.039 57.4114 223.307 55.8927C225.789 52.9224 229.93 50.8384 232.615 50.5385L232.622 50.5377ZM480.349 24.5534C480.541 24.444 480.739 24.3884 480.941 24.3732C481.541 24.3348 482.13 24.6853 482.328 25.3165C482.407 25.5391 482.492 25.7609 482.517 25.9894C482.658 26.7831 482.168 27.5233 481.255 27.623C480.57 27.6978 480.011 27.2421 479.76 26.3175C479.536 25.5057 479.803 24.8441 480.342 24.5541L480.349 24.5534ZM420.954 31.092C421.604 31.2523 422.164 31.6535 422.628 32.174C423.153 32.7491 423.025 33.6878 422.383 34.159C421.802 34.6236 420.966 34.4973 420.514 33.9007C420.45 33.8125 420.341 33.7496 420.267 33.7577C419.813 33.7665 418.123 34.1617 414.506 36.8073C413.061 37.8285 412.171 39.136 411.714 40.7362C411.5 41.3919 410.912 41.8572 410.216 41.7633C409.399 41.6825 408.903 40.8119 409.111 40.0413C409.734 37.845 410.977 36.0366 412.887 34.6177C416.604 31.8798 418.784 31.125 420.016 31.0245C420.427 30.9932 420.737 31.0274 420.954 31.092ZM270.42 50.0624C273.885 49.6842 276.04 50.9448 276.946 54.0144C277.201 54.7957 276.718 55.5964 275.925 55.7374C275.246 55.8659 274.572 55.4839 274.383 54.811C273.817 52.799 272.639 52.5264 270.652 52.7434C265.764 53.277 252.335 60.9578 238.273 72.801C234.691 75.8371 231.302 79.0287 228.358 82.1176C227.837 82.6368 226.918 82.6215 226.393 82.0465C225.935 81.5186 225.968 80.767 226.429 80.2611C229.469 77.053 232.918 73.8547 236.547 70.7523C249.718 59.6456 264.272 50.7473 270.415 50.0766L270.42 50.0624ZM280.532 51.1956C280.878 51.1373 281.247 51.2127 281.557 51.4373C282.123 51.8922 282.27 52.6852 281.876 53.2995L281.062 54.313C280.722 54.867 279.99 55.0081 279.436 54.6606C278.755 54.2181 278.541 53.3167 278.978 52.5824L279.635 51.7626C279.86 51.4525 280.185 51.2539 280.532 51.1956ZM47.0227 81.584C47.865 81.5192 48.7469 81.7561 49.2671 82.7873C49.7806 83.8191 49.6264 84.5227 49.1064 84.9874C48.5319 85.5125 47.5335 85.3291 47.1708 84.6208C46.9472 84.1284 46.3391 83.8481 45.8596 84.186C43.8821 85.551 41.5162 89.209 41.9504 93.1869C42.0253 93.8723 42.1952 94.3705 42.4792 94.8562C42.8294 95.4503 42.6885 96.2137 42.1552 96.6187C41.4666 97.1562 40.5219 96.967 40.0392 96.2173C39.6095 95.4551 39.3426 94.5663 39.2245 93.4845C38.554 87.343 42.9282 82.6634 46.2229 81.7257C46.4736 81.6575 46.7527 81.5999 47.0287 81.5765L47.0227 81.584ZM91.9307 76.8989C92.1671 76.8866 92.4176 76.9409 92.6486 77.0653C93.3229 77.454 93.5898 78.3428 93.0941 79.0293C89.1546 84.5793 73.1317 107.461 68.5957 120.678L66.9849 125.403C66.6819 126.3 65.6193 126.586 64.8662 126.036C64.3597 125.628 64.1774 125.016 64.4103 124.474L64.9463 123.035L66.0344 119.809C71.1956 104.912 84.6436 85.8266 90.9153 77.4313C91.1665 77.1183 91.5458 76.9205 91.9448 76.9041L91.9307 76.8989ZM119.856 74.231C120.295 74.149 120.752 74.2895 121.084 74.6477C121.608 75.2228 121.581 76.0348 121.06 76.5473C113.421 84.0583 97.7844 104.131 91.983 114.719L91.5055 115.634C91.1237 116.369 90.1627 116.529 89.476 116.026C88.9695 115.619 88.8351 114.885 89.1696 114.278L89.6531 113.416C95.5495 102.641 111.397 82.3211 119.124 74.6236C119.338 74.4031 119.595 74.273 119.855 74.2242L119.856 74.231ZM373.955 112.207C372.756 101.228 394.993 62.0149 406.837 44.6071C407.05 44.2575 407.415 44.0544 407.806 44.0186C408.041 43.993 408.283 44.0345 408.512 44.1387C409.24 44.4604 409.46 45.4155 409.011 46.0969C396.671 64.2524 375.577 102.361 376.614 111.862C376.98 115.215 378.116 115.098 379.539 114.943C380.224 114.868 380.838 115.263 381.087 115.923C381.335 116.644 380.976 117.465 380.033 117.595C376.323 118.095 374.457 116.307 373.949 112.215L373.955 112.207ZM185.752 68.866C186.104 68.7936 186.486 68.8675 186.795 69.092C187.356 69.4932 187.497 70.2258 187.155 70.8342C183.395 77.4595 177.251 88.1526 172.129 97.0548C160.774 116.891 159.09 128.294 159.389 131.029C159.588 132.85 159.824 135.013 162.128 136.081C162.736 136.361 163.045 137.075 162.825 137.732C162.557 138.455 161.735 138.83 161.014 138.507C157.259 136.789 156.88 133.315 156.663 131.326C156.26 127.631 158.499 115.467 169.86 95.7522C174.976 86.7895 181.12 76.1031 184.887 69.5316C185.078 69.164 185.4 68.9452 185.752 68.866ZM279.213 59.7165C279.376 59.7124 279.549 59.7411 279.712 59.8048C280.494 60.1207 280.822 61.0096 280.433 61.6843C278.613 65.0516 275.683 68.7645 272.5 70.669C271.396 72.6866 270.374 74.4096 269.843 75.3311C253.65 103.005 246.602 122.711 247.866 126.945C248.024 127.329 247.906 127.804 247.648 128.118C246.99 128.938 245.631 128.624 245.399 127.561C245.32 127.338 245.289 127.111 245.264 126.882C244.413 119.088 252.722 99.2985 267.56 74.0233C268.193 72.975 269.399 70.8307 270.688 68.4462C273.512 66.9276 276.359 63.5094 277.988 60.5098C278.237 60.0542 278.698 59.7319 279.192 59.712L279.213 59.7165ZM220.083 66.1923C220.341 66.1913 220.607 66.2575 220.841 66.4087C221.461 66.8034 221.668 67.6443 221.273 68.2585C214.279 79.5545 201.446 101.102 197.388 115.022C197.181 115.738 196.479 116.155 195.763 115.947C195.047 115.74 194.624 114.977 194.826 114.207C199.029 99.9928 211.89 78.2106 218.992 66.8417C219.232 66.4212 219.656 66.2048 220.09 66.1915L220.083 66.1923ZM51.8349 86.2058C52.0758 86.1727 52.3294 86.1926 52.5761 86.2745C52.9369 86.4051 53.2984 86.5424 53.5863 86.5654C55.053 86.8064 56.6317 86.5185 58.3831 85.6949C59.2521 85.2533 60.1633 86.1941 59.7999 87.0973C59.6695 87.4583 59.4057 87.7183 59.0279 87.9296C58.6501 88.1408 58.1589 88.3712 57.6602 88.5956C56.233 89.2138 54.7013 89.4354 53.1809 89.2002C52.7664 89.0755 52.2371 88.9565 51.6356 88.7366C50.9133 88.4687 50.6001 87.5917 50.9169 86.884C51.0974 86.4835 51.4395 86.2558 51.8341 86.1991L51.8349 86.2058ZM372.065 62.2878C372.387 62.2526 372.71 62.3466 372.966 62.577C373.532 63.032 373.613 63.7711 373.158 64.3375L371.896 65.9711C370.066 68.1836 368.429 70.5518 366.905 72.962C364.02 77.5945 362 82.3027 360.202 86.9323C359.881 87.6609 359.113 88.0303 358.391 87.7079C357.73 87.4334 357.415 86.6654 357.689 86.0032C359.528 81.2535 361.583 76.3648 364.624 71.5451C366.141 69.1357 367.845 66.8214 369.675 64.6022L371.2 62.7631C371.427 62.4799 371.742 62.3163 372.058 62.2818L372.065 62.2878ZM409.631 58.3091C409.718 58.2995 409.801 58.3109 409.89 58.3215C410.593 58.4147 411.07 59.1106 410.977 59.8755C410.878 60.5188 410.778 61.2232 410.684 61.9202C410.59 62.6172 409.955 63.1488 409.258 63.1094C408.447 63.0824 407.85 62.3452 407.997 61.5744C408.138 60.7499 408.231 60.0529 408.385 59.3426C408.521 58.7226 409.028 58.3273 409.623 58.3031L409.631 58.3091ZM149.602 87.0575C149.915 87.0029 150.248 87.0685 150.528 87.2691C150.914 87.6281 151.096 88.2406 150.743 88.7415L146.86 96.3593C144.873 100.316 142.625 104.995 140.599 109.588C140.325 110.25 139.498 110.572 138.83 110.243C138.162 109.915 137.9 109.135 138.174 108.472C140.201 103.818 142.557 99.0729 144.536 95.1103L145.723 92.7913L148.834 87.5561C149.008 87.2787 149.288 87.1054 149.6 87.044L149.602 87.0575ZM307.828 71.2726C308.135 71.2187 308.466 71.2641 308.762 71.429C309.497 71.8111 309.771 72.7604 309.395 73.5493L308.208 75.8684C307.88 76.5365 307.052 76.8581 306.384 76.5298C305.656 76.2081 305.281 75.3856 305.602 74.6569L306.602 72.2427C306.83 71.7147 307.308 71.3633 307.821 71.2733L307.828 71.2726ZM225.353 83.4723C225.865 83.9332 225.959 84.7865 225.444 85.3595C224.929 85.9325 224.325 86.6919 223.817 87.3253C223.416 87.8859 222.564 87.9789 222.003 87.5777C221.377 87.1294 221.284 86.276 221.738 85.6484C222.3 85.0091 222.911 84.2557 223.413 83.623C223.667 83.3368 224.009 83.1703 224.359 83.1389C224.709 83.1075 225.066 83.2112 225.353 83.4723ZM408.859 65.6144C408.946 65.6048 409.04 65.5946 409.136 65.5977C409.88 65.5709 410.526 66.1939 410.492 66.9455C410.431 70.0595 410.411 77.7791 410.864 81.9317C412.423 96.2104 416.353 106.375 420.764 108.885C421.385 109.28 421.633 110.001 421.341 110.495C421.02 111.223 420.131 111.552 419.457 111.163C413.149 107.649 409.515 94.4064 408.18 82.1704C407.714 77.9036 407.716 70.016 407.776 66.902C407.758 66.2989 408.233 65.7303 408.853 65.6218L408.859 65.6144ZM277.614 81.1666C278.263 81.3269 278.728 81.9085 278.628 82.5518L278.243 85.8711C278.163 86.6891 277.413 87.2265 276.589 87.0853C275.825 86.9374 275.343 86.1878 275.49 85.4238L276.163 82.1274C276.305 81.5611 276.812 81.1657 277.367 81.146C277.448 81.1372 277.531 81.1485 277.607 81.1606L277.614 81.1666ZM305.347 78.9141C305.516 78.9092 305.689 78.9379 305.852 79.0017C306.575 79.2696 306.883 80.0383 306.622 80.7603L305.854 82.6868C302.578 90.6462 297.28 105.844 298.628 118.187C298.932 120.976 300.251 121.981 301.087 122.291C301.508 122.476 301.834 122.787 301.937 123.231C302.157 124.186 301.397 125.133 300.405 125.01C297.424 124.588 296.358 122.168 295.949 118.418C294.539 105.504 300.015 89.8245 303.381 81.6309L304.156 79.7649C304.359 79.2667 304.84 78.9355 305.347 78.9141ZM141.319 97.1954C139.237 101.339 137.056 106.065 135.179 110.472C133.468 110.604 131.312 110.894 129.949 111.043C133.921 104.735 138.078 99.6231 141.319 97.1954ZM360.198 75.258C358.158 79.2205 356.58 83.1936 355.158 87.0341C353.758 86.8403 352.37 86.7606 350.808 86.7067C351.298 85.9053 351.686 85.285 351.889 85.0316C355.357 80.451 358.067 77.3333 360.198 75.258ZM288.371 84.2351C288.65 84.2319 288.938 84.3228 289.196 84.5054C289.756 84.9066 289.897 85.6392 289.556 86.2476L287.389 90.1083C287 90.783 286.16 90.9904 285.546 90.595C284.932 90.2609 284.725 89.42 285.065 88.8049L287.233 84.9441C287.468 84.49 287.909 84.2312 288.377 84.2276L288.371 84.2351ZM279.796 126.981C276.781 127.31 274.575 123.404 273.824 116.523C272.643 105.711 273.729 96.672 275.017 90.5478C275.124 89.9718 275.578 89.589 276.098 89.4983C276.271 89.4658 276.448 89.4669 276.629 89.5083C277.339 89.662 277.755 90.3645 277.668 91.1219C276.416 97.0177 275.354 105.769 276.496 116.231C277.179 122.487 278.994 124.363 279.504 124.307C280.129 124.239 280.749 124.633 280.884 125.367C281.03 126.214 280.535 126.901 279.796 126.981ZM216.961 96.4032C217.142 96.3834 217.328 96.4107 217.506 96.4797C218.168 96.7542 218.537 97.4618 218.317 98.1182C217.029 102.631 216.685 107.448 217.313 113.193C218.318 122.406 220.233 126.746 222.618 128.62C223.125 129.027 223.319 129.754 222.972 130.309C222.591 131.044 221.63 131.203 221.003 130.694C217.606 128.012 215.676 122.47 214.688 113.426C214.03 107.398 214.324 102.185 215.754 97.3644C215.914 96.8303 216.409 96.4499 216.955 96.4107L216.961 96.4032ZM79.7808 114.16C80.5194 114.08 81.1583 114.642 81.239 115.382L81.2843 116.295C81.3054 116.986 80.7963 117.613 80.0578 117.693C79.3133 117.72 78.6737 117.151 78.66 116.465L78.6147 115.552C78.5936 114.861 79.1027 114.235 79.7875 114.16L79.7808 114.16ZM343.872 89.0143C355.414 87.7542 362.108 90.0763 365.922 93.3996C366.495 93.9151 366.54 94.828 365.966 95.3531C365.499 95.8053 364.754 95.8322 364.289 95.305C360.354 91.9337 353.49 90.6704 344.224 91.682C329.446 93.2953 319.688 99.3107 314.214 103.94C313.633 104.405 312.768 104.384 312.303 103.802C311.779 103.227 311.86 102.355 312.441 101.89C318.179 97.0072 328.363 90.7142 343.879 89.0203L343.872 89.0143ZM132.387 112.776C136.392 112.311 142.174 111.871 146.394 113.626C147.176 113.942 147.444 114.838 147.068 115.565C146.728 116.119 146.014 116.428 145.406 116.148C141.489 114.502 135.406 115.166 133.244 115.402L129.491 115.812C112.155 117.704 102.598 128.185 103.046 132.284C103.064 132.452 103.083 132.627 103.222 132.843C103.513 133.389 103.359 134.093 102.825 134.498L102.717 134.564C102.136 135.028 101.247 134.786 100.89 134.131C100.599 133.585 100.429 133.087 100.373 132.576C99.6656 126.092 111.46 115.074 129.199 113.137L132.386 112.769L132.387 112.776ZM80.0391 119.762C80.1323 119.745 80.2338 119.741 80.3285 119.737C81.0192 119.716 81.5985 120.292 81.6725 120.971C81.958 125.142 82.326 129.073 82.7361 132.829C83.6927 141.591 86.6581 144.544 88.3635 144.358C88.4776 144.346 88.7 144.267 88.9158 144.128C89.4491 143.723 90.273 143.925 90.6836 144.513C91.1009 145.161 90.9591 145.979 90.3721 146.39C89.7851 146.8 89.2327 147.031 88.6083 147.099C85.3654 147.453 81.2029 144.052 80.0167 133.187C79.6067 129.431 79.2865 125.44 78.9944 121.209C78.9181 120.51 79.3802 119.889 80.0391 119.762ZM150.75 117.237C151.106 117.892 151.482 118.653 151.689 119.494C151.884 120.221 151.394 121.022 150.541 121.115C149.856 121.19 149.296 120.789 149.114 120.177C148.937 119.618 148.767 119.12 148.489 118.688C148.211 118.256 148.263 117.679 148.586 117.208C148.819 116.918 149.106 116.75 149.406 116.691C149.904 116.589 150.446 116.761 150.749 117.231L150.75 117.237ZM188.024 118.805C186.452 122.832 180.61 126.754 177.028 128.178C176.59 128.396 176.206 128.554 175.756 128.664C175.03 128.859 174.242 128.482 174.047 127.756C173.804 127.089 174.173 126.3 174.9 126.106C175.236 126.014 175.62 125.857 176.003 125.699C179.639 124.208 184.372 120.699 185.497 117.816C186.135 116.25 187.994 115.415 189.537 115.301C190.342 115.268 191.425 115.727 192.298 116.38C192.99 116.937 193.048 117.964 192.299 118.508C191.82 118.846 191.122 118.807 190.683 118.453C190.37 118.202 189.996 117.95 189.654 117.988C188.801 118.081 188.153 118.498 188.016 118.799L188.024 118.805ZM367.565 96.62C368.118 96.5189 368.718 96.7933 368.993 97.3208C369.35 97.9754 369.599 98.635 369.842 99.3021C370.09 100.023 369.721 100.811 368.995 101.006C368.269 101.201 367.595 100.812 367.339 100.092C367.163 99.5333 366.933 98.9872 366.649 98.5015C366.359 97.9552 366.513 97.2517 367.046 96.8467C367.203 96.7276 367.385 96.6533 367.572 96.6193L367.565 96.62ZM310.944 105.1C311.463 105.621 311.495 106.481 310.98 106.993C310.31 107.698 309.795 108.271 309.443 108.718C308.988 109.284 308.189 109.371 307.63 108.977C307.004 108.528 306.85 107.621 307.359 106.994C307.766 106.487 308.329 105.854 308.998 105.142C309.252 104.856 309.609 104.701 309.968 104.69C310.327 104.678 310.688 104.808 310.95 105.099L310.944 105.1ZM134.244 125.744C135.065 125.797 135.535 126.432 135.476 127.445C135.417 128.458 134.782 128.989 134.031 128.956C133.28 128.922 132.743 128.233 132.794 127.214C132.846 126.195 133.423 125.69 134.244 125.744ZM325.134 104.822C325.41 104.805 325.696 104.87 325.949 105.012C326.509 105.413 326.71 106.193 326.376 106.808C325.027 109.199 323.678 111.59 322.269 113.995C321.397 115.47 320.472 117.013 319.594 118.489C310.499 133.699 294.573 146.949 283.538 153.852C282.891 154.27 282.068 154.074 281.65 153.426C281.294 152.771 281.495 152.001 282.083 151.597C292.578 144.985 308.313 132.095 317.258 117.132C318.129 115.657 319.055 114.114 319.933 112.638C321.343 110.24 322.637 107.91 323.987 105.518C324.226 105.098 324.668 104.853 325.134 104.829L325.134 104.822ZM194.767 120.516C194.977 121.384 194.314 122.15 193.388 122.136C192.751 122.09 192.239 121.629 192.12 121.037C192.001 120.444 192.227 119.903 192.712 119.619C192.916 119.495 193.133 119.43 193.342 119.414C193.982 119.365 194.598 119.773 194.767 120.516ZM351.692 103.017C351.874 102.998 352.059 103.018 352.255 103.065C352.977 103.333 353.345 104.095 353.078 104.818C352.905 105.353 352.679 105.895 352.507 106.437C352.24 107.16 351.478 107.528 350.756 107.26C350.034 106.993 349.665 106.23 349.933 105.508C350.105 104.972 350.331 104.431 350.503 103.888C350.707 103.39 351.16 103.062 351.692 103.017ZM168.687 124.9C169.094 124.89 169.507 125.069 169.761 125.402C169.894 125.557 170.267 125.809 170.694 126.048C171.248 126.389 171.503 127.109 171.223 127.717C170.902 128.446 170.007 128.714 169.333 128.325C168.658 127.936 167.912 127.446 167.64 127.068C167.169 126.426 167.358 125.549 168.006 125.131C168.207 124.98 168.443 124.907 168.687 124.9ZM133.944 131.332C134.688 131.305 135.334 131.928 135.3 132.679C135.23 134.645 135.247 136.425 135.342 137.795C135.842 146.607 138.702 150.15 142.067 153.583C144.593 156.184 150.621 158.694 156.575 160.574C157.224 160.734 157.647 161.436 157.487 162.085C157.286 162.855 156.53 163.339 155.827 163.185C150.703 161.555 143.442 158.839 140.204 155.507C136.521 151.823 133.257 147.691 132.65 137.966C132.548 136.536 132.518 134.642 132.583 132.622C132.622 131.925 133.191 131.346 133.936 131.326L133.944 131.332ZM106.283 134.487C106.56 134.478 106.847 134.555 107.103 134.717C107.663 135.119 107.804 135.851 107.463 136.46C104.281 142.104 100.788 148.013 97.3092 153.05C92.6418 159.836 87.8189 165.197 84.3827 168.448C83.7477 168.98 82.8222 168.904 82.352 168.269C81.9413 167.681 81.9748 166.93 82.5022 166.471C85.8435 163.345 90.564 158.105 95.0759 151.513C98.4467 146.542 101.945 140.686 105.086 135.169C105.366 134.744 105.815 134.498 106.289 134.487L106.283 134.487ZM349.591 109.353C349.766 109.334 349.95 109.341 350.126 109.396C350.842 109.604 351.258 110.306 351.051 111.022C348.506 119.82 347.205 130.556 353.068 135.845C356.063 138.509 361.473 141.203 364.919 142.207C365.634 142.414 366.051 143.117 365.91 143.941C365.708 144.711 365.007 145.135 364.244 144.987C360.462 144.074 354.527 140.812 351.273 137.883C344.438 131.667 345.646 120.078 348.434 110.329C348.593 109.795 349.055 109.418 349.585 109.353L349.591 109.353ZM66.4672 147.048C66.82 147.043 67.1695 147.196 67.4285 147.514C67.9408 147.975 67.9677 148.781 67.5073 149.294C67.3578 149.48 67.1485 149.68 66.9386 149.873C66.2499 150.41 65.2457 150.173 64.8764 149.404C64.5857 148.858 64.7077 148.233 65.3174 147.656C65.7732 147.226 66.1144 147.052 66.4672 147.048ZM230.352 130.876C230.559 131.656 230.009 132.471 228.982 132.583C227.847 132.707 227.042 132.734 226.238 132.713C225.426 132.686 224.883 131.881 225.031 131.117C225.119 130.557 225.572 130.1 226.233 130.055C227.036 130.001 227.784 130.008 228.663 129.912C229.543 129.816 230.113 129.998 230.352 130.876ZM424.303 109.186C424.741 108.968 425.098 108.691 425.542 108.588C425.906 108.501 426.275 108.637 426.572 108.938C427.139 109.522 427.203 110.48 426.561 110.952C426.19 111.223 425.805 111.435 425.375 111.659C424.607 112.029 423.672 111.559 423.539 110.649C423.437 109.967 423.768 109.455 424.303 109.186ZM250.346 128.007C250.971 127.939 251.49 128.338 251.692 129.009C251.94 129.846 251.434 130.56 250.377 130.649C249.205 130.749 248.485 129.937 248.734 129.046C248.907 128.511 249.38 128.112 249.95 128.05L250.346 128.007ZM268.018 132.054C269.251 131.954 270.566 132.055 271.873 132.388C273.821 132.869 276.398 134.315 277.529 138.393C279.72 146.327 278.013 149.104 269.55 156.474C269.131 156.866 269.085 157.504 269.477 157.923C269.869 158.343 270.506 158.389 270.925 157.996C271.71 157.278 272.446 156.681 273.129 156.029L273.198 156.654C273.384 159.917 273.516 161.685 275.526 164.287C276.727 165.828 278.769 167.673 281.104 168.458C280.57 170.413 279.632 171.842 278.296 172.735C277.277 173.425 274.46 174.997 270.9 174.005C266.697 172.907 262.729 168.737 259.455 161.901C256.931 156.709 255.875 151.759 256.369 147.326C257.033 141.27 260.262 137.117 262.99 134.228C264.146 132.987 265.966 132.238 268.019 132.061L268.018 132.054ZM258.624 136.425C256.615 139.12 254.928 142.588 254.439 147.075C253.934 151.91 255.028 157.196 257.703 162.717C261.28 170.214 265.56 174.636 270.486 176.002C270.606 176.043 270.774 176.032 270.894 176.073C270.428 176.525 269.726 176.948 268.94 177.15C267.643 177.407 266.218 176.985 264.652 175.836C263.393 174.825 260.201 172.467 257.718 168.706C256.619 167.045 255.663 165.129 255.012 162.902C250.468 147.107 253.455 140.736 255.664 138.312C256.645 137.287 257.677 136.712 258.624 136.432L258.624 136.425ZM173.182 146.216C177.445 145.75 179.853 147.269 181.014 151.058C181.615 152.89 182.056 155.317 182.479 157.63C183.121 160.898 183.691 164.005 184.581 165.805C185.549 167.827 187.326 169.36 189.159 170.833C192.455 173.642 194.804 175.683 192.04 180.364C190.87 182.273 189.156 183.439 186.845 183.868C181.652 184.782 175.146 181.576 173.815 180.457C171.664 178.679 168.98 174.137 167.831 172.012C169.36 171.267 171.247 169.565 172.992 165.574C173.224 165.086 172.988 164.48 172.5 164.247C172.013 164.015 171.407 164.251 171.175 164.739C169.232 169.099 167.207 170.523 165.813 170.39C165.465 170.373 165.211 170.17 165.024 170.014C166.211 169.306 167.33 167.98 168.428 165.902C168.72 165.408 168.472 164.748 167.93 164.515C167.448 164.337 166.897 164.512 166.658 165.001C165.089 167.994 163.871 168.474 163.307 168.535C162.563 168.562 161.863 167.945 161.459 167.411C162.639 166.65 163.668 165.558 164.511 164.317C164.852 163.763 164.657 163.037 164.061 162.809C163.64 162.624 163.082 162.801 162.837 163.174C161.403 165.343 159.271 166.848 157.372 166.824C155.816 166.823 154.894 165.714 154.354 164.447C158.866 164.702 160.62 162.845 161.92 158.385C162.667 155.768 160.754 151.373 158.445 150.823C159.547 149.839 160.956 149.053 162.124 149.728C163.471 150.499 164.423 152.87 164.655 155.551C164.705 156.008 165.03 156.373 165.445 156.443C166.088 156.543 166.73 156.072 166.655 155.387C166.524 154.191 166.279 153.007 165.927 151.896C166.691 152.044 167.137 152.458 167.819 153.417C168.363 154.167 168.817 155.151 168.953 156.4C169.003 156.857 169.328 157.223 169.744 157.293C170.393 157.454 171.022 156.868 170.947 156.183C170.848 155.276 170.587 154.441 170.272 153.666C170.759 153.898 171.084 154.264 171.35 154.582C172.086 155.535 172.675 157.259 172.521 159.519C172.463 160.043 172.794 160.469 173.33 160.58C173.919 160.686 174.44 160.228 174.491 159.644C174.626 157.209 174.096 154.969 172.889 153.373C171.815 151.934 170.232 151.188 168.581 151.307C168.188 150.888 167.761 150.649 167.334 150.41C167.841 149.26 169.507 146.603 173.2 146.2L173.182 146.216ZM395.09 122.091C395.492 122.034 395.88 122.046 396.265 122.147C397.148 122.336 397.848 122.953 398.241 123.943C398.866 125.432 399.342 127.679 399.831 130.046C400.223 132.077 400.627 134.161 401.228 135.992C402.218 139.277 404.606 141.668 404.992 142.027C405.263 142.399 407.653 145.307 408.245 148.118C409.016 152.005 408.316 157.725 405.743 160.481C405.174 161.06 404.593 161.524 403.873 161.78C406.362 158.747 407.327 154.957 406.782 150.522C406.2 145.69 404.367 143.707 402.745 141.98C401.708 140.883 400.791 139.889 400.142 138.178C399.474 136.293 399.282 134.532 399.162 132.873C398.954 130.475 398.754 128.083 396.973 125.455C396.091 124.226 395.061 123.189 393.826 122.46C394.267 122.269 394.681 122.136 395.082 122.079L395.09 122.091ZM388.057 123.26C388.694 123.184 389.347 123.194 390.004 123.299C392.054 123.653 393.975 124.878 395.273 126.756C396.771 128.898 396.934 130.892 397.123 133.177C397.268 135.004 397.406 136.831 398.219 138.986C399.019 141.027 400.122 142.233 401.232 143.437C402.74 145.115 404.236 146.679 404.755 150.94C405.505 157.304 402.794 161.979 396.659 164.777C394.356 165.838 391.827 165.821 389.468 164.753C386.802 163.548 384.837 161.288 384.022 158.616C382.751 154.383 382.552 145.653 390.283 142.219C390.775 141.995 391 141.447 390.837 140.948C390.607 140.395 389.999 140.122 389.447 140.352C388.734 140.661 388.079 141.018 387.492 141.429C387.228 137.949 386.33 133.954 383.841 131.696C382.756 130.72 381.763 130.026 380.848 129.548C381.422 128.452 382.783 126.168 385.179 124.411C386.008 123.783 386.999 123.403 388.058 123.274L388.057 123.26ZM77.1021 194.986C75.6847 196.752 74.06 197.677 72.2882 197.816C69.5498 198 67.05 196.199 65.7788 195.073C64.3811 193.845 62.894 191.301 61.2744 188.602C59.6482 185.842 57.7572 182.71 55.6648 180.409C54.3687 179.055 52.2027 178.196 49.8631 177.303C47.5771 176.403 45.1772 175.455 43.694 174.005C41.6987 172.034 41.9301 167.868 42.9735 165.85C43.5275 164.763 45.8859 163.526 49.3013 163.133C50.8515 162.957 52.6237 162.947 54.5342 163.207C60.0754 163.928 66.7241 166.827 70.518 169.465L70.2609 169.725C68.3582 171.775 69.0083 175.614 70.3648 178.58C70.6488 179.066 71.2502 179.347 71.7489 179.122C72.2475 178.898 72.4605 178.297 72.2369 177.804C71.1171 175.452 70.6074 172.339 71.7389 171.127L71.8406 171.001C71.9521 172.022 72.166 172.923 72.4329 173.812C72.6343 174.599 73.5716 174.782 74.0924 174.263C74.3494 174.004 74.4203 173.595 74.3292 173.258C74.0498 172.255 73.811 171.125 73.6745 169.876C73.6312 169.479 73.8162 169.058 74.0733 168.799L75.3786 167.561C75.4305 168.535 75.5899 169.497 75.7426 170.398C75.8836 171.192 76.8937 171.482 77.4691 170.903C77.6725 170.649 77.7558 170.355 77.7184 170.012C77.4927 169.003 77.368 167.861 77.3045 166.719C77.2297 166.033 77.5105 165.432 77.9767 164.973C79.3358 163.73 80.3197 163.221 81.2262 163.122C81.5686 163.085 81.9169 163.101 82.2114 163.184C80.7193 165.822 80.1126 169.227 82.2719 171.643C84.0457 173.639 86.6116 173.991 89.4661 172.755C89.4472 174.137 89.1891 175.756 87.9494 177.034C87.0698 177.939 86.1932 178.062 85.4709 177.794C84.4542 177.443 83.492 177.031 82.577 176.553C82.15 176.314 81.6389 176.424 81.3406 176.804C80.9339 177.31 81.1287 178.037 81.6764 178.324C82.7652 178.838 83.9749 179.338 85.0512 179.737L84.2196 180.521C83.8542 180.847 83.3506 180.963 82.8691 180.784C81.9128 180.427 80.9439 180.016 80.0959 179.591C79.6689 179.352 79.1645 179.462 78.8595 179.842C78.4528 180.349 78.6476 181.075 79.1953 181.362C80.1104 181.84 81.0188 182.258 81.9751 182.616L81.5321 183.038C81.0949 183.514 80.6036 183.745 79.9726 183.752C78.765 183.769 77.2485 183.071 75.8756 182.072C75.4362 181.718 74.8118 181.787 74.4581 182.281C74.1656 182.775 74.3479 183.387 74.7873 183.741C76.2809 184.788 78.2914 185.779 80.1293 185.748C80.3032 187.341 80.323 191.194 77.1103 194.999L77.1021 194.986ZM431.682 123.135C425.947 123.747 417.813 125.356 406.303 128.768C405.577 128.963 405.188 129.638 405.438 130.304C405.62 130.916 406.294 131.305 406.967 131.116C415.709 128.489 430.744 124.434 442.659 123.48C440.756 122.913 437.419 122.529 431.683 123.141L431.682 123.135ZM378.106 130.752C379.241 130.628 380.65 131.399 382.493 133.033C384.802 135.202 385.435 139.444 385.573 142.828C383.754 144.584 382.608 146.722 381.924 148.925C379.633 150.093 377.833 150.405 376.509 149.917C375.606 149.553 374.828 148.775 374.182 147.58C377.748 147.076 378.749 144.607 378.878 140.561C378.992 137.38 377.29 134.975 374.089 133.597C375.728 131.746 376.896 130.87 378.091 130.74L378.106 130.752ZM427.498 128.623C421.756 129.291 417.828 130.529 413.99 131.723C413.162 132.044 412.678 132.9 413 133.728C413.255 134.509 414.163 134.927 414.943 134.665C422.263 132.139 428.328 129.75 433.903 128.162C431.525 128.231 429.41 128.394 427.498 128.616L427.498 128.623ZM213.893 152.256C205.008 153.273 196.199 156.288 191.343 158.165C190.676 158.408 190.301 159.142 190.55 159.863C190.805 160.644 191.653 161.007 192.42 160.692C201.141 156.803 218.287 153.666 225.683 152.397C221.983 151.74 217.925 151.788 213.893 152.256ZM282.183 149.342C279.508 152.225 279.36 156.158 281.335 158.934C282.554 160.643 284.624 163.239 289.218 161.065C288.767 162.726 287.632 164.461 285.901 165.976C285.111 166.64 284.169 166.974 283.063 166.864C280.792 166.595 278.46 164.776 277.126 163.079C275.515 160.95 275.432 159.694 275.205 156.557C275.13 155.872 275.103 155.127 275.01 154.273C276.722 152.59 277.996 151.071 278.915 149.468C279.486 149.406 280.674 149.276 282.176 149.343L282.183 149.342ZM220.047 156.663C210.873 157.76 202.289 159.975 196.618 161.676C195.892 161.87 195.516 162.659 195.771 163.379C196.014 164.047 196.748 164.422 197.42 164.233C214.865 159.106 228.62 157.087 236.697 156.26C231.267 155.751 225.553 156.001 220.053 156.656L220.047 156.663ZM413.563 141.5C413.872 142.214 414.654 142.53 415.314 142.226C422.578 139.19 434.754 135.902 442.419 133.916C441.362 134.004 439.686 134.153 437.613 134.393C431.394 135.12 421.596 136.665 414.296 139.747C413.636 140.05 413.314 140.772 413.57 141.499L413.563 141.5ZM369.728 143.008C371.639 143.146 373.423 143.121 375.087 143.116C375.898 143.143 376.597 143.754 376.57 144.566C376.597 145.311 375.975 145.957 375.115 145.989C373.445 146.002 371.487 145.923 369.51 145.738C368.759 145.704 368.168 145.021 368.255 144.263C368.332 143.602 368.829 143.113 369.451 143.024C369.539 143.015 369.633 143.005 369.728 143.008ZM325.093 149.941C324.462 150.017 323.841 150.112 323.234 150.212C322.387 150.359 321.903 151.221 322.165 152.001C322.42 152.783 323.208 153.152 323.989 152.897C330.684 150.493 336.493 150.437 339.979 150.75C334.554 149.479 329.524 149.396 325.1 149.947L325.093 149.941ZM315.728 151.596C313.519 151.844 310.506 152.431 307.291 153.788C306.685 154.025 306.411 154.694 306.54 155.312C306.788 156.033 307.577 156.409 308.29 156.1L319.345 151.439C319.345 151.439 317.942 151.347 315.734 151.595L315.728 151.596ZM108.748 174.866C104.621 175.343 99.287 176.83 92.0115 179.827C91.4054 180.063 91.0237 180.799 91.2126 181.471C91.4612 182.192 92.3159 182.616 93.0362 182.367C102.551 178.908 108.757 177.258 116.548 175.367C114.441 174.74 111.961 174.494 108.748 174.866ZM330.35 155.405C318.187 156.699 301.924 162.01 294.606 164.618C294 164.854 293.72 165.462 293.902 166.075C294.091 166.748 294.873 167.064 295.472 166.767C306.274 161.902 331.299 156.695 335.271 155.113C333.743 155.116 332.089 155.215 330.35 155.405ZM88.3812 187.649C87.7876 187.999 87.52 188.722 87.756 189.328C88.0716 190.103 88.961 190.346 89.6688 189.983C99.9878 184.369 113.666 181.148 123.716 179.419C120.744 179.206 117.498 179.153 113.323 179.622C105.323 180.523 97.1315 182.913 88.3819 187.655L88.3812 187.649Z" fill="#00FF67"/>
<line x1="0.800246" y1="209.01" x2="528.8" y2="156.01" stroke="#00FF67" stroke-width="4"/>
</svg>
