<svg width="83" height="29" viewBox="0 0 83 29" fill="none" xmlns="http://www.w3.org/2000/svg">
<path d="M6.40286 27.9607C7.21156 27.1759 7.25322 26.3046 7.24342 25.9762C7.30591 25.9448 7.35738 25.9123 7.41987 25.8696L8.34253 25.1475C8.36336 25.1262 8.40502 25.0949 8.38419 25.0309C8.49814 24.9996 8.63048 24.9444 8.76281 24.8241C9.10835 24.5094 9.1929 23.949 9.21373 23.5454V23.4288C10.6032 22.3782 12.5748 20.7334 13.343 19.3958C13.6726 18.8216 14.2865 17.776 15.045 16.5851C14.8783 16.6239 14.7191 16.6615 14.5781 16.7004C14.4434 16.743 14.3086 16.6578 14.2767 16.5199C14.2461 16.392 14.3282 16.2541 14.4532 16.2115C14.7313 16.14 15.0658 16.056 15.4261 15.9933C15.8329 15.9219 16.2691 15.8717 16.7151 15.8717C16.9013 15.8717 17.0778 15.883 17.2334 15.9031C17.057 16.7418 16.943 17.6971 16.9124 18.27C16.8192 20.2019 17.4 21.1245 18.0017 21.8993C18.4685 22.4935 19.4022 23.0564 20.2428 23.4701C20.3776 24.2762 20.8334 24.4467 21.1042 24.4781C21.1458 24.4781 21.1765 24.4881 21.2181 24.4881C21.3223 24.4881 21.4252 24.4668 21.5293 24.4455C21.6225 24.6147 21.8087 24.8592 22.0893 24.9118C22.1408 25.1024 22.3491 25.2729 22.5672 25.3155C22.713 25.6766 23.1578 26.7585 23.594 27.2148C23.8746 27.5119 24.9847 28.244 26.0887 28.2227C26.6965 28.2115 27.1205 27.957 27.4317 27.5332C28.1987 26.4714 27.6081 25.8145 27.0788 25.2403C26.8607 24.9645 26.6009 24.6774 26.487 24.359C26.3828 24.0506 26.3314 23.4676 26.2897 22.9047C26.2591 22.4584 26.2174 21.9921 26.1549 21.6197C25.9895 20.7071 25.4393 20.2608 24.4738 20.2608C23.5707 20.2608 23.1259 20.8976 22.9899 21.1421C22.9483 21.1321 22.9176 21.1321 22.8858 21.1208C22.8135 20.9716 22.7093 20.845 22.5843 20.7497C22.3356 20.5692 21.8994 20.4839 21.2671 21.0468C20.7905 20.7597 20.271 20.3887 19.7833 19.9323C19.3262 19.4973 19.2956 18.4994 19.5149 17.3423C19.5468 17.1542 19.5872 16.9561 19.6387 16.7581C19.6693 16.6302 19.7943 16.5462 19.9193 16.5775C20.0541 16.5989 20.1472 16.7468 20.1166 16.8859C20.0761 17.0502 20.0455 17.2044 20.0161 17.3586C20.3298 17.3423 20.6385 17.2671 20.8946 17.0865C21.299 16.7994 21.5073 16.3218 21.5073 15.6536C21.5073 15.028 21.31 14.5078 20.9363 14.1254C20.8321 14.0301 20.7292 13.9348 20.6042 13.8596C20.9988 12.947 21.424 12.1722 21.7769 11.7372C21.995 11.4714 22.2339 11.1216 22.5243 10.7292C23.012 10.0285 23.6234 9.16845 24.3917 8.29841C25.8228 6.67493 27.504 5.13544 28.2196 4.48856C28.3335 4.382 28.4168 4.30803 28.4793 4.25538C29.2672 3.52324 29.9007 1.47477 29.1434 0.519488C28.8334 0.138377 28.4426 -0.00955403 27.9978 0.000475203C27.2565 0.0180264 26.3681 0.479371 25.4798 1.02346C24.5473 1.58885 24.4101 2.65822 24.4762 3.52575L24.6184 3.38033C24.7323 3.25245 24.8046 3.10452 24.8156 2.94531C24.8671 2.01134 25.3033 1.56504 25.6452 1.35317C26.5482 0.80156 27.232 0.493161 27.7405 0.409166C27.8863 0.387854 28.0211 0.504444 28.0211 0.653629C28.0309 0.770219 27.9377 0.876779 27.8238 0.898091C27.3876 0.972057 26.7553 1.25914 25.9049 1.77941C25.5006 2.02387 25.345 2.49023 25.3143 2.96787C25.2935 3.25496 25.1685 3.51948 24.9725 3.72132L24.5522 4.15132C23.7276 4.98124 22.5611 5.90143 21.3308 6.87426C18.9243 8.78483 16.1858 10.9499 14.474 13.486L14.2877 13.7731C12.4412 14.42 11.2281 15.5984 11.2281 16.6703C11.2281 17.0201 11.4352 17.3924 11.6435 17.6782C11.1044 18.4217 10.5444 19.1638 9.99425 19.812C9.34116 20.5867 8.68684 21.2449 8.1379 21.7326C7.66125 21.4355 7.23607 21.4994 6.7484 21.8492C6.6859 21.8918 6.57195 22.0184 6.48863 22.1889C6.39551 22.1989 6.29135 22.2102 6.23989 22.2528L5.78285 22.6139C5.12976 22.0197 3.9265 21.2875 2.81637 21.0117C1.72706 20.7359 0.616928 20.9164 0.284868 21.4154C-0.00553124 21.8617 -0.170949 22.817 0.275066 23.3786C0.565465 23.7397 1.01148 23.9728 1.43666 24.206C1.79936 24.3966 2.14244 24.5771 2.28703 24.7902C2.59826 25.2252 2.85803 25.7982 3.09574 26.3498C3.34448 26.9014 3.57361 27.4329 3.84318 27.73C4.08211 28.0059 4.58939 28.4622 5.23881 28.4835C5.66889 28.4835 6.05364 28.303 6.40531 27.9632L6.40286 27.9607ZM64.37 2.6695C63.9546 3.16846 63.8198 3.53954 63.81 3.82663C63.81 3.93319 63.7684 4.04978 63.7169 4.14506C63.6029 4.37824 63.4473 4.61267 63.2709 4.86716C62.5859 5.83247 61.6326 6.73511 60.4281 7.5412C57.9285 9.22862 55.9778 11.2458 54.2452 13.3569C52.357 13.6966 50.9981 14.4288 50.1367 15.0556C50.3646 13.9198 50.6759 12.71 51.0288 11.9566C51.8068 10.2905 53.8715 7.06356 54.9498 6.23615C56.1016 5.35483 56.6297 4.6227 56.6297 3.91188C56.6297 3.20105 56.1003 2.5642 55.5195 2.5642C54.6581 2.5642 52.2002 3.89056 49.6172 6.73511C48.3931 8.08278 47.1384 9.76017 46.2145 11.0652C46.3395 9.11203 47.5428 6.54455 48.3515 5.82244C49.0254 5.22821 49.3991 4.59136 49.3783 4.04978C49.3685 3.71004 49.2129 3.41292 48.9212 3.18977C48.0084 2.48898 46.9607 3.12583 46.141 3.76269C45.7464 4.07109 45.5185 4.51614 45.456 5.11037C45.3936 5.18433 45.3421 5.24827 45.2796 5.32224C45.0198 4.67535 44.4292 4.50485 43.9207 4.50485C42.7175 4.50485 39.8858 5.8425 37.2097 7.69916C36.3483 8.2934 35.5286 8.94028 34.8338 9.56711C35.9329 8.00631 36.9499 6.74388 37.3028 6.48939C37.7182 6.19227 37.9669 5.7886 38.049 5.33227C38.1323 4.812 37.9657 4.35567 37.7795 4.10118C37.7072 3.99462 37.5405 3.85672 37.2293 3.8354C36.597 3.78275 35.6217 4.18517 35.0715 4.72675C34.6561 5.14046 34.4797 5.76728 34.4074 6.23364C33.0179 8.01634 29.8125 12.2838 28.6815 15.0957C28.5161 14.9892 28.3078 14.9152 28.0799 14.9052C27.5922 14.8839 27.1572 15.107 26.9697 15.4894C26.7835 15.8605 25.9944 16.3707 25.3205 16.5612C25.0092 16.6465 24.7703 16.6565 24.6465 16.5826C24.5632 16.5299 24.5007 16.2428 24.6257 15.8504C24.9271 14.8851 26.0164 13.293 26.9808 11.8914C28.6202 9.50317 30.4349 7.10493 31.1297 6.43548C32.3231 5.27836 31.9176 4.57882 31.4507 4.01593C31.3674 3.90937 31.202 3.84543 30.9741 3.8354C30.3626 3.79278 29.3971 4.05855 28.7538 4.65279C28.4119 4.96118 28.1828 5.4802 28.0688 6.17096C27.3018 7.25412 25.8179 9.33393 24.5939 11.0427C22.1151 14.5241 21.4607 16.827 21.4607 17.5592C21.4607 18.0794 21.4607 19.6603 23.9604 19.6603C25.4994 19.6603 26.547 19.3318 27.3165 18.8705C27.7883 18.5872 28.1522 18.2587 28.4732 17.9302C28.7942 17.6018 28.9915 17.3147 29.1055 17.0489C29.1569 16.921 29.3125 16.8584 29.4375 16.921C29.5515 16.985 29.6029 17.1229 29.5417 17.2395C29.4069 17.5579 29.179 17.9077 28.8151 18.28C28.5112 18.5909 28.1583 18.9106 27.727 19.1927C27.9598 19.3356 28.2968 19.4472 28.7844 19.4472C30.0183 19.4472 30.631 18.5658 31.2118 15.9658C31.3674 15.2762 31.8857 14.2257 32.5608 13.0686C32.3636 13.7794 32.2704 14.5441 32.2704 15.4254C32.2704 17.3786 32.5608 19.6177 34.8117 19.6177C36.7722 19.6177 37.1876 17.8776 37.1876 17.4526C37.1876 16.8797 36.8458 16.2742 35.8594 16.2742C35.455 16.2742 35.0813 16.0197 34.9465 15.6373C34.8326 15.2976 34.7701 14.9152 34.7701 14.4802C34.7701 13.5775 35.0188 12.2825 36.1804 11.2646C37.9963 9.69373 41.0253 8.50526 41.9173 8.17555C42.1869 8.08028 42.4883 8.09031 42.7579 8.21818C42.8927 8.28211 43.0066 8.32474 43.1108 8.33477C42.9135 8.62185 42.7481 8.85503 42.6439 8.99294C41.0988 11.1154 37.5087 16.3055 37.5087 18.5132C37.5087 19.2566 38.0061 19.723 38.8161 19.723C39.626 19.723 40.6834 18.8843 40.9432 17.6958C41.4824 15.2123 42.78 13.3017 43.6303 12.2512C43.2566 13.387 42.8731 15.0957 42.8731 17.1868C42.8731 19.2779 43.7345 19.6064 44.107 19.6064C44.5322 19.6064 45.9327 19.3945 46.0577 16.7305C46.1091 15.606 46.9191 14.2044 47.5305 13.2604C47.8319 12.7928 48.1628 12.3903 48.485 12.0606C47.7278 13.6315 46.8357 15.9344 46.8357 17.9829C46.8357 19.2666 47.4999 19.723 48.0696 19.723C48.931 19.723 49.7606 18.7677 49.7912 17.7911C50.2066 17.3448 50.7972 16.7618 51.9588 16.3368C51.7517 16.6126 51.5434 16.8997 51.3363 17.1755C51.1501 17.43 50.9528 17.6958 50.7653 17.9503C49.0854 20.2106 46.4914 22.0685 44.5726 23.1291C44.2614 23.0439 43.9293 23.0013 43.7222 22.9912C43.9293 22.5236 43.971 21.9833 43.857 21.2399C43.7431 20.4965 43.3387 19.9662 42.726 19.733C41.9896 19.4459 41.2018 19.5312 40.7141 19.9561C40.6308 20.0301 40.5487 20.1041 40.4653 20.1893C40.1443 20.1367 39.6971 20.1993 39.3037 20.5604C38.8063 21.0167 38.049 22.2478 38.5771 25.4208C38.8259 26.9277 39.8429 27.8943 40.1749 28.2127C40.4764 28.4998 40.7876 28.6477 41.0988 28.6477C41.1405 28.6477 41.1711 28.6477 41.2128 28.6377C41.5865 28.5951 41.845 28.3506 41.97 28.2027C42.0423 28.2127 42.1146 28.214 42.1881 28.214C42.6243 28.214 42.976 28.0648 43.1316 27.9695C43.4735 27.789 43.7333 27.4605 43.9097 27.0142C43.9722 27.0242 44.0347 27.0355 44.0861 27.0355C44.2932 27.0355 44.5015 26.9716 44.6767 26.845C45.2159 26.4526 45.5381 25.9637 45.5896 25.476L45.5994 25.3807C46.0871 25.1262 46.6164 24.8391 47.1347 24.542C48.2963 23.8625 49.4689 23.0564 50.6207 22.1438C51.5336 21.4217 52.3533 20.3398 53.4941 18.8542C53.836 18.4079 54.1889 17.9415 54.5932 17.4325C55.0184 16.891 55.4338 16.3393 55.8271 15.8091C56.1592 15.8404 56.6052 16.0109 57.0206 16.2014C56.0771 18.1434 55.0086 21.1797 56.5231 22.9298C57.1553 23.6619 58.0584 24.2888 58.9406 24.6072C59.4283 24.7877 59.916 24.9043 60.362 24.9996C60.4968 25.382 60.6842 25.6252 60.9538 25.7631C61.0996 25.837 61.265 25.8797 61.4513 25.8797C61.6069 25.8797 61.7833 25.8483 61.9696 25.7944C61.8654 26.262 61.8556 26.7497 61.939 27.216C62.0431 27.8316 62.4266 28.3832 62.9658 28.7129C63.277 28.9035 63.6189 29 63.962 29C64.1592 29 64.3663 28.9687 64.5636 28.9047C64.854 28.8094 65.1137 28.6816 65.3417 28.5336C65.4348 28.555 65.5181 28.565 65.6112 28.565C65.9016 28.565 66.1712 28.4584 66.4101 28.2466C67.0424 27.6837 67.3022 26.5378 67.2299 25.6991C67.1257 25.041 66.6699 24.3515 66.6442 24.3251C66.6442 24.3251 66.2557 23.8638 66.1516 23.3009C66.0891 22.9724 66.0474 22.5901 66.0168 22.219C65.9751 21.7514 65.9335 21.3063 65.8404 20.9879C65.7472 20.6908 65.5598 20.4676 65.3012 20.3724C65.0206 20.2658 64.6788 20.3197 64.3467 20.5002C64.2744 20.4689 64.2021 20.4363 64.1286 20.415C63.7242 20.2984 63.2991 20.351 62.956 20.5529C62.3752 20.9026 62.0333 21.4016 61.9181 21.5821C61.8556 21.5721 61.8042 21.5608 61.7417 21.5608C61.379 21.5508 61.0261 21.7727 60.5176 22.3143L60.4453 22.3995C59.9478 22.3042 59.5324 22.1124 59.2322 21.8479C58.796 21.4655 58.5791 20.9139 58.5791 20.2031C58.5791 19.7255 58.7041 19.036 58.9418 18.2186C59.0019 18.2186 59.0815 18.2148 59.1403 18.2111C59.1293 17.9465 59.0975 17.6757 59.0558 17.4438C59.035 17.3159 59.0975 17.1994 59.2114 17.1567C59.367 17.0928 59.5337 17.1881 59.5533 17.3586C59.5839 17.6106 59.6158 17.8801 59.6366 18.122C59.954 18.0318 60.2542 17.8801 60.5176 17.6657C60.933 17.3373 61.1707 16.9123 61.1707 16.5299C61.1707 16.0422 61.0567 15.2562 60.4649 14.5554C60.6205 14.2683 60.7761 13.9825 60.9428 13.6954C62.9339 10.3093 65.9641 6.65863 67.1147 5.42754C69.0335 3.36904 68.9612 2.15801 68.2248 0.874272C68.0386 0.555844 67.7065 0.365289 67.2703 0.322664C67.2041 0.316396 67.1343 0.313889 67.0644 0.315142C66.007 0.328933 64.5587 1.10118 63.723 2.10536C62.9596 3.02805 62.8677 3.77397 63.027 4.34063C63.1055 4.22905 63.1753 4.11622 63.2353 4.00465C63.2868 3.9194 63.3187 3.82412 63.3285 3.72884C63.3701 3.30385 63.5882 2.83749 63.9926 2.34857C64.8013 1.37197 66.2876 0.580917 67.323 0.70879C67.5766 0.740131 67.6452 0.936955 67.5828 1.08489C67.5313 1.19145 67.4124 1.21652 67.1882 1.20148C66.2766 1.1413 65.0304 1.85964 64.3663 2.66574L64.37 2.6695ZM28.804 0.94573C28.9057 0.943223 29.0062 1.00465 29.0368 1.10871C29.0785 1.25789 29.1091 1.42713 29.1091 1.60766C29.1091 1.74556 28.9952 1.86215 28.8604 1.86215C28.7354 1.86215 28.6215 1.75559 28.6215 1.61769C28.6215 1.47979 28.6006 1.3632 28.5798 1.25664C28.5381 1.15008 28.6006 1.02346 28.7048 0.96955C28.7354 0.953252 28.7697 0.94573 28.8028 0.944477L28.804 0.94573ZM68.1354 1.52241C68.166 1.60766 68.1979 1.68163 68.2285 1.76687C68.2701 1.89475 68.1868 2.04268 68.052 2.07527C67.9381 2.09658 67.8107 2.0339 67.7714 1.91606C67.7482 1.84335 67.7224 1.7932 67.6881 1.7255C67.6379 1.6227 67.6759 1.48982 67.7813 1.42337C67.8254 1.39454 67.8646 1.382 67.9197 1.38326C68.0202 1.38576 68.0949 1.43842 68.1341 1.52492L68.1354 1.52241ZM55.4901 2.93403C55.5833 2.93403 55.6666 2.95534 55.7499 2.99796C55.9153 3.09324 55.9361 3.32767 55.8014 3.45429C55.7389 3.52826 55.6359 3.54957 55.5416 3.52826C54.9093 3.40038 52.5335 4.77063 50.2201 7.32808C49.2031 8.45261 48.1554 9.81157 47.305 10.99C47.2217 11.1066 47.0563 11.1279 46.9521 11.0326C46.859 10.9474 46.8382 10.7995 46.9007 10.6929C47.7621 9.50443 48.8195 8.13544 49.8574 6.98834C52.4514 4.12249 54.8052 2.93403 55.4901 2.93403ZM25.9613 2.98793C25.9907 2.98793 26.0213 2.99545 26.0495 3.00924C26.1745 3.07318 26.2358 3.2324 26.1635 3.35901C25.4896 4.63273 23.9016 5.95909 21.859 7.57255C19.7012 9.28128 17.2836 11.2019 15.6344 13.3669C15.5621 13.4622 15.4273 13.4948 15.3231 13.4309C15.1982 13.3456 15.1577 13.1764 15.2508 13.0598C16.9307 10.8308 19.3789 8.89891 21.5686 7.16887C23.5707 5.57673 25.1269 4.2817 25.7383 3.11455C25.7849 3.03557 25.8719 2.98543 25.9613 2.98793ZM81.3246 3.181C80.8786 3.17097 80.3444 3.25747 79.7219 3.44426C77.4808 4.11246 75.9872 5.52408 74.5352 6.89307C74.2962 7.11622 74.0377 7.35942 73.7877 7.59386C72.6984 8.58048 71.2256 11.1066 70.2919 12.8153C70.1878 11.0326 70.9658 8.09281 71.2354 7.11622C71.4008 6.89307 71.5675 6.6812 71.7329 6.47936C72.1372 6.00172 72.3039 5.37614 72.1691 4.84459C72.076 4.48354 71.8579 4.20774 71.5466 4.09115C71.1521 3.93193 70.5505 4.10243 69.7001 4.60013C69.1708 4.91856 68.8179 5.38492 68.6623 5.99043C66.4003 8.6018 60.9759 16.1049 60.9759 18.4405C60.9759 19.6716 61.6914 19.9373 62.2931 19.9373C62.9989 19.9373 64.8871 18.7163 64.8871 17.4213C64.8871 17.0602 64.8356 16.7104 64.7314 16.3807C65.3747 14.9691 66.5878 12.5809 67.916 11.0953C67.8229 11.86 67.7396 12.7928 67.7396 13.6101C67.7396 15.0957 67.9258 19.9361 70.2919 19.9361C71.0908 19.9361 71.7758 19.15 71.7758 18.2161C71.7758 17.8876 71.6925 17.4413 71.516 16.8784C72.0343 15.4242 72.8442 13.3444 73.9017 11.7836C75.2299 9.82035 77.0483 8.50903 78.7098 7.42712C79.0198 7.22528 79.1816 6.95449 79.3065 6.66866C79.358 6.54079 79.4928 6.48814 79.6178 6.53076C79.7526 6.57338 79.8151 6.7326 79.7526 6.88053C79.6386 7.14505 79.4842 7.41835 79.2686 7.63021C79.3813 7.64651 79.494 7.65529 79.608 7.65529C80.8946 7.65529 82.9996 6.22236 82.9996 5.08655C83.0094 4.3331 82.8134 3.81284 82.398 3.50569C82.1284 3.29884 81.7707 3.18977 81.3246 3.17974V3.181ZM47.8417 3.27878C48.0206 3.27251 48.1922 3.31138 48.3735 3.39036C48.4777 3.43298 48.5291 3.5596 48.4777 3.66616V3.67619C48.436 3.78275 48.3221 3.81409 48.2179 3.78275C48.1554 3.76144 48.0941 3.75141 48.0317 3.75141C47.7106 3.75141 47.2438 3.98459 46.6519 4.4522C46.538 4.53745 46.4547 4.65404 46.3922 4.80197C46.3407 4.92984 46.2059 5.00381 46.081 4.97247C45.9351 4.95116 45.8628 4.80322 45.9155 4.65404C46.0087 4.39955 46.1545 4.19771 46.3517 4.04852C47.0146 3.53077 47.4484 3.29382 47.8417 3.27878ZM64.5856 3.49942C64.6175 3.49942 64.6506 3.50444 64.6812 3.51823C64.8062 3.57088 64.8675 3.72007 64.816 3.84669C64.3798 4.90853 63.353 6.60598 60.895 8.26206C58.7887 9.6837 56.9838 11.3611 55.4276 13.1438C55.3345 13.2503 55.1887 13.2604 55.0858 13.1651C54.9816 13.0798 54.9718 12.9206 55.065 12.8153C56.6419 11.0113 58.4774 9.30259 60.6254 7.84835C62.9805 6.25621 63.9558 4.64276 64.3602 3.65613C64.3994 3.56085 64.4901 3.50068 64.5869 3.49942H64.5856ZM8.90127 3.52199C8.44423 3.53703 7.93817 3.7489 7.47133 4.25036C7.00449 4.74932 6.5891 5.27961 6.19578 5.8425C6.0708 6.01175 5.92621 6.17221 5.75957 6.29883C5.11628 6.78651 4.55631 6.98834 4.18259 6.88304C3.96448 6.8191 3.80887 6.63857 3.71575 6.34146C3.59076 5.94906 3.2489 5.75725 2.79186 5.83247C2.05545 5.96035 0.986973 6.88304 0.986973 8.23071C0.986973 9.57839 2.28335 9.96076 2.9585 9.96076C3.19744 9.96076 3.68511 9.83288 4.16176 9.69498C3.22807 12.1045 2.78206 14.5767 2.78206 16.4986C2.78206 17.0401 2.86538 19.7468 4.51465 19.7468C5.97767 19.7468 6.13329 18.5057 6.25705 17.5078C6.29871 17.1893 6.32934 16.8922 6.40286 16.6477C6.68345 15.6711 7.22259 14.8011 7.60611 14.2708C7.58528 15.003 7.57548 15.7138 7.57548 16.3832C7.57548 18.6862 8.42585 19.5036 9.22475 19.5036C9.9722 19.5036 10.8115 18.5483 10.8115 17.2746C10.8115 16.15 12.2746 13.0297 14.5671 10.6841C16.0191 9.19854 17.5336 8.14797 18.6339 7.38324C19.3079 6.91563 19.7857 6.57714 19.983 6.33268C20.1803 6.03557 20.6471 5.33477 20.5221 4.64526C20.4597 4.29549 20.2526 4.01969 19.9095 3.81785C19.3912 3.50945 18.4465 3.58467 17.6267 3.98709C16.7764 4.41208 16.2054 5.12291 16.0608 5.95032C14.6394 7.05353 11.4965 10.3231 10.0126 12.3289C9.80555 9.85545 11.9829 8.00882 13.3112 6.88429C13.457 6.75642 13.5918 6.65111 13.7057 6.54455C15.0854 5.33477 14.4728 4.19896 14.338 3.98709C14.2338 3.82788 14.0476 3.71129 13.7988 3.65864C13.2279 3.55208 12.4816 3.82788 11.7244 4.40205C11.2477 4.76311 10.9463 5.28337 10.8213 5.94154C9.66954 7.20397 7.05595 10.1864 5.65542 12.8078C5.86249 10.0585 8.84001 6.59846 9.66954 5.98291C10.0641 5.6858 10.2822 5.27209 10.2822 4.80448C10.2822 4.39077 10.1058 3.99838 9.83619 3.80657C9.58255 3.62103 9.25661 3.51196 8.90127 3.52324V3.52199ZM81.6628 4.09115C81.5489 4.05981 81.4141 4.03849 81.2585 4.03849C80.9056 4.03849 80.4804 4.12374 79.9719 4.27167C77.9183 4.88722 76.4969 6.2349 75.1123 7.53494C74.8685 7.7631 74.6087 8.00756 74.3502 8.24074C73.6444 8.8776 71.3837 12.6875 70.8127 13.6641C70.7404 13.7806 70.5737 13.8233 70.4598 13.738C70.3556 13.6641 70.325 13.5149 70.3875 13.3983C70.9058 12.4856 73.0121 8.78107 74.0291 7.85838C74.2889 7.6252 74.5474 7.38074 74.7864 7.15759C76.1967 5.81994 77.6708 4.44092 79.8285 3.79278C80.3542 3.63983 80.8063 3.55835 81.185 3.54957C81.4129 3.54456 81.6138 3.56461 81.789 3.61225C81.9545 3.65488 82.0169 3.86674 81.9079 3.99963C81.8405 4.07861 81.7474 4.11121 81.6641 4.08989L81.6628 4.09115ZM4.16176 19.3005C3.18641 18.8868 3.15578 16.7643 3.15578 16.4986C3.15578 13.0811 4.58694 7.88094 7.7409 4.50485C8.14525 4.06984 8.57044 3.89934 8.95396 3.89934C9.2027 3.89934 9.44163 3.98459 9.61808 4.11121C9.66954 4.15383 9.72223 4.21777 9.77369 4.29173C9.84599 4.41961 9.79453 4.57757 9.65974 4.6415C9.54579 4.69416 9.42816 4.639 9.33871 4.52993C9.25049 4.42337 9.09977 4.39704 8.95519 4.39704C8.67459 4.39704 8.36458 4.55625 8.09379 4.85337C5.03418 8.1229 3.64345 13.1739 3.64345 16.4961C3.64345 17.3235 3.84073 18.5972 4.34923 18.8316C4.43255 18.8742 4.49014 18.9595 4.49504 19.0598C4.50117 19.2353 4.32963 19.3619 4.16298 19.2992L4.16176 19.3005ZM19.6387 4.70669C19.6081 4.65404 19.5664 4.60013 19.4929 4.55751C19.4622 4.5362 19.3483 4.48354 19.0983 4.48354C18.7565 4.48354 18.3509 4.5901 18.009 4.75935C17.7076 4.90853 17.2199 5.22696 17.003 5.76728C16.9516 5.89516 16.8168 5.94781 16.7028 5.90519C16.5681 5.86256 16.5056 5.70335 16.557 5.55542C16.8376 4.87594 17.4184 4.48354 17.7909 4.30302C18.2259 4.09115 18.716 3.97832 19.1228 3.98333C19.3667 3.98584 19.5799 4.03097 19.7306 4.12249C19.8862 4.20774 20.021 4.38826 20.1043 4.55751C20.1766 4.69541 20.0737 4.85462 19.923 4.86591C19.8041 4.87594 19.7 4.81325 19.6375 4.70669H19.6387ZM13.7364 4.01718C13.8822 4.0385 13.99 4.09867 14.0378 4.1764C14.0745 4.23657 14.1223 4.33436 14.1628 4.4522C14.2057 4.57882 14.1321 4.728 14.0072 4.77063C13.8822 4.81325 13.7474 4.73929 13.7057 4.61141C13.6714 4.50485 13.6469 4.50611 13.5501 4.50485C13.2181 4.49984 12.7304 4.71672 12.2427 5.08906C12.0454 5.23824 11.9008 5.43883 11.7967 5.67326C11.7452 5.80113 11.5994 5.85379 11.4757 5.78985C11.3617 5.7372 11.309 5.58801 11.3409 5.46139C11.4867 5.14296 11.6827 4.88847 11.9425 4.68663C12.5233 4.25036 13.1127 4.00089 13.5562 4.00214C13.62 4.00214 13.68 4.00715 13.7376 4.01844L13.7364 4.01718ZM30.9459 4.80197C30.9153 4.74932 30.8626 4.71672 30.8111 4.69541C30.4999 4.60013 29.7941 4.82328 29.2758 5.30092C29.1716 5.40749 29.0687 5.57673 28.9952 5.79988C28.9646 5.92775 28.8396 5.99043 28.7146 5.95909C28.5688 5.92775 28.4867 5.76854 28.5381 5.59804C28.6423 5.30092 28.7869 5.06775 28.9535 4.90853C29.565 4.35692 30.3749 4.18643 30.8209 4.18643C30.9973 4.18643 31.1628 4.27167 31.2669 4.40958C31.2975 4.46223 31.3294 4.50485 31.36 4.54748C31.4323 4.67535 31.3809 4.83457 31.2204 4.88722C31.1015 4.92984 30.9973 4.88722 30.9459 4.80197ZM37.0761 4.20398C37.1092 4.20398 37.1398 4.20523 37.1705 4.20774C37.3163 4.21777 37.4192 4.26039 37.4609 4.32433C37.4915 4.36695 37.5234 4.43089 37.554 4.49482C37.6165 4.63273 37.5332 4.80197 37.3874 4.85588C37.2832 4.88722 37.1594 4.84585 37.1068 4.73929C37.0859 4.71798 36.9511 4.69666 36.9511 4.69666C36.5774 4.69666 36.0285 4.96244 35.6339 5.35483C35.4991 5.49273 35.3435 5.99169 35.2602 6.31012C35.2186 6.4593 35.0629 6.5433 34.9183 6.47936C34.8044 6.42671 34.7419 6.30886 34.7725 6.18224C34.8559 5.86382 35.0323 5.2583 35.2908 5.00381C35.7969 4.50611 36.5848 4.20523 37.0749 4.20398H37.0761ZM82.2645 4.39955C82.3012 4.38325 82.338 4.37698 82.3747 4.37824C82.4838 4.38325 82.583 4.45972 82.6063 4.58007C82.6161 4.6227 82.6271 4.66532 82.6271 4.70795C82.6369 4.85713 82.534 4.98375 82.3674 4.98375C82.2424 4.98375 82.1505 4.88847 82.1235 4.71296C82.099 4.55876 82.1603 4.44217 82.2632 4.39955H82.2645ZM71.4241 4.40958C71.5381 4.4522 71.6312 4.53745 71.7047 4.64276C71.788 4.75935 71.7464 4.92984 71.6214 5.00381C71.5074 5.07777 71.3592 5.03766 71.2893 4.91856C71.2795 4.90101 71.2611 4.88722 71.2477 4.88722C71.1656 4.8797 70.8531 4.91856 70.1486 5.33352C69.868 5.49273 69.6817 5.71588 69.5678 6.00172C69.5163 6.11831 69.4011 6.19227 69.2774 6.16093C69.1315 6.12959 69.0593 5.95909 69.1119 5.82119C69.2676 5.4288 69.5273 5.1204 69.8998 4.89725C70.624 4.46724 71.032 4.37197 71.2562 4.37824C71.331 4.38074 71.3861 4.39328 71.4241 4.40958ZM43.9023 4.87719C44.5346 4.87719 44.8985 5.15299 45.0015 5.7372C45.0321 5.88638 44.9292 6.02428 44.7833 6.03431C44.6584 6.04434 44.5444 5.96035 44.5236 5.83247C44.4611 5.45011 44.254 5.37614 43.8913 5.37614C42.9993 5.37614 40.4261 6.52198 37.6569 8.42252C36.9511 8.91019 36.2772 9.43046 35.6854 9.9407C35.5812 10.0259 35.4158 10.0046 35.3325 9.88805C35.2602 9.78148 35.281 9.64358 35.3742 9.55959C35.9856 9.02929 36.6705 8.50903 37.3861 8.01007C39.9801 6.22737 42.78 4.8797 43.9011 4.8797L43.9023 4.87719ZM45.7036 5.28964C45.7673 5.28588 45.8322 5.30719 45.8837 5.35483C45.9768 5.45011 45.9878 5.59929 45.9045 5.7046L45.7379 5.8751C45.6656 5.97038 45.5308 5.98166 45.4377 5.90644C45.3237 5.81116 45.3029 5.64066 45.396 5.51405L45.5308 5.37614C45.5773 5.32349 45.6398 5.2934 45.7036 5.28964ZM2.99281 6.19227C3.14597 6.19729 3.30036 6.25872 3.37388 6.4593C3.44618 6.65989 3.40452 6.7865 3.30159 6.86172C3.18764 6.94697 3.01119 6.89307 2.95973 6.75516C2.92909 6.65989 2.82494 6.59595 2.73182 6.6486C2.3483 6.86047 1.84959 7.4873 1.84959 8.22946C1.84959 8.35733 1.87042 8.45261 1.91208 8.54789C1.96355 8.66448 1.92311 8.80238 1.81896 8.86632C1.68418 8.95157 1.51753 8.89766 1.44524 8.74973C1.38275 8.60054 1.35212 8.4313 1.35212 8.22946C1.35212 7.08362 2.23312 6.30886 2.84577 6.2023C2.89233 6.19478 2.9438 6.18977 2.99404 6.19102L2.99281 6.19227ZM11.184 6.23239C11.2269 6.2349 11.271 6.24994 11.3102 6.27752C11.4242 6.36277 11.4548 6.53201 11.3519 6.6486C10.5322 7.5926 7.19196 11.489 6.11368 13.8345L5.73016 14.6732C5.65787 14.8325 5.46059 14.8638 5.33561 14.7472C5.25229 14.662 5.23146 14.5454 5.28415 14.4501L5.40913 14.1956L5.66889 13.6227C6.89298 10.98 9.69405 7.73176 10.9904 6.31012C11.0419 6.25746 11.1142 6.22863 11.1865 6.23364L11.184 6.23239ZM16.2728 6.30259C16.3536 6.29633 16.4333 6.33143 16.486 6.40414C16.5693 6.52073 16.5485 6.66991 16.4443 6.75391C14.9188 7.985 11.7036 11.3711 10.4488 13.2065L10.3447 13.3657C10.2614 13.4936 10.0849 13.5036 9.97097 13.397C9.88765 13.3118 9.87785 13.1739 9.95014 13.0686L10.0543 12.9194C11.3298 11.0514 14.588 7.62395 16.1331 6.36026C16.176 6.32391 16.225 6.3051 16.2728 6.30134V6.30259ZM61.3508 18.4192C61.3508 16.3707 66.1332 9.58842 68.612 6.61726C68.6573 6.55709 68.7272 6.527 68.7983 6.52825C68.8411 6.52825 68.884 6.54079 68.9232 6.56461C69.0482 6.63857 69.0691 6.8191 68.9747 6.93569C66.3917 10.0347 61.8373 16.6365 61.8373 18.4091C61.8373 19.0347 62.0443 19.036 62.3041 19.036C62.4291 19.036 62.532 19.1212 62.5639 19.2478C62.5945 19.3857 62.5136 19.5299 62.3409 19.5349C61.662 19.5525 61.3606 19.1851 61.3496 18.4204L61.3508 18.4192ZM28.2624 6.63983C28.3274 6.63356 28.3948 6.65487 28.4462 6.70251C28.5394 6.78776 28.5504 6.92566 28.4769 7.03097C27.6682 8.17681 26.3497 10.0247 25.2506 11.5629C22.8123 14.9917 22.2841 17.0602 22.2841 17.5704C22.2841 17.9102 22.2841 18.3139 22.6787 18.5571C22.7828 18.621 22.8245 18.7589 22.7718 18.8755C22.7093 19.0034 22.5537 19.056 22.43 18.9821C21.7867 18.5897 21.7867 17.9415 21.7867 17.5704C21.7867 16.8809 22.43 14.6833 24.8671 11.2771C25.9662 9.72758 27.2846 7.88094 28.0934 6.74513C28.135 6.6812 28.1975 6.64735 28.2624 6.63983ZM45.298 6.83414C45.3274 6.83665 45.358 6.84543 45.3862 6.86047C45.521 6.93444 45.5626 7.10493 45.4793 7.22152C45.0848 7.80573 44.4831 8.4313 43.8717 8.71839C43.6328 9.06816 43.4147 9.36527 43.3007 9.52449C39.8355 14.3009 38.1765 17.7923 38.321 18.5984C38.3419 18.6724 38.3112 18.7576 38.2586 18.8103C38.1238 18.9482 37.8848 18.863 37.864 18.6624C37.8542 18.6197 37.853 18.5771 37.853 18.5345C37.853 17.0803 39.7412 13.5989 42.9147 9.2374C43.0495 9.05687 43.3093 8.68579 43.5887 8.27209C44.1278 8.04893 44.7086 7.47601 45.0615 6.95575C45.1154 6.87677 45.2049 6.82662 45.2943 6.83289L45.298 6.83414ZM34.5066 6.8379C34.5532 6.84292 34.5998 6.86047 34.639 6.89307C34.7431 6.97831 34.764 7.13753 34.6806 7.24283C33.1968 9.18475 30.4582 12.8993 29.4522 15.3841C29.4008 15.5119 29.266 15.5746 29.141 15.522C29.016 15.4693 28.9547 15.3201 29.0062 15.1822C30.0441 12.6461 32.7924 8.88888 34.2971 6.93569C34.3486 6.86298 34.4294 6.83164 34.5079 6.8379H34.5066ZM3.76966 7.14129C3.81377 7.14004 3.85911 7.14881 3.90199 7.16887C3.96448 7.20021 4.02697 7.23281 4.07844 7.24283C4.3382 7.3168 4.6286 7.29549 4.96066 7.1789C5.12608 7.11496 5.27189 7.30677 5.18857 7.46599C5.15794 7.52992 5.10525 7.57255 5.03296 7.60389C4.96066 7.63523 4.86754 7.66782 4.77319 7.69916C4.50362 7.78441 4.22302 7.79444 3.95346 7.72048C3.88116 7.68914 3.78804 7.65654 3.68389 7.60389C3.55891 7.53995 3.5197 7.37196 3.59076 7.24785C3.6312 7.17765 3.69737 7.14254 3.76966 7.14004V7.14129ZM61.9929 9.17722C62.0517 9.17722 62.108 9.20104 62.1497 9.24868C62.2428 9.34396 62.2428 9.48186 62.1497 9.57714L61.8899 9.85294C61.5162 10.224 61.1744 10.6277 60.8521 11.0414C60.2407 11.8375 59.7836 12.6649 59.3683 13.4823C59.296 13.6101 59.1501 13.6628 59.0264 13.5888C58.9124 13.5249 58.8708 13.377 58.9333 13.2604C59.3584 12.4217 59.8253 11.5617 60.4686 10.7343C60.7896 10.3206 61.1425 9.92816 61.5162 9.55583L61.8275 9.24743C61.874 9.19979 61.9341 9.17597 61.9916 9.17597L61.9929 9.17722ZM68.8461 9.19979C68.862 9.19979 68.8767 9.20355 68.8926 9.20731C69.0176 9.23865 69.0899 9.37655 69.058 9.51571C69.0274 9.6323 68.9955 9.76017 68.9649 9.88679C68.9343 10.0134 68.8093 10.0987 68.6843 10.0773C68.5385 10.056 68.4454 9.9081 68.487 9.76895C68.5287 9.61976 68.5593 9.49314 68.601 9.36527C68.6377 9.2537 68.737 9.19101 68.8448 9.19854L68.8461 9.19979ZM21.3848 9.26623C21.4424 9.26247 21.5012 9.28128 21.5477 9.3239C21.6102 9.39787 21.6311 9.51446 21.5575 9.5997L20.7072 10.9261C20.271 11.6156 19.7735 12.433 19.3177 13.2391C19.2552 13.3557 19.0996 13.3983 18.9856 13.3243C18.8716 13.2503 18.8398 13.1012 18.9023 12.9846C19.3593 12.1672 19.8776 11.3398 20.3126 10.649L20.5724 10.2453L21.2365 9.34271C21.2733 9.29507 21.3272 9.26874 21.3848 9.26373V9.26623ZM50.2311 9.54078C50.2875 9.53702 50.3463 9.55207 50.3965 9.58842C50.5215 9.67367 50.5521 9.8542 50.4688 9.9921L50.209 10.3958C50.1367 10.5124 49.9811 10.555 49.8672 10.481C49.7422 10.4071 49.6907 10.2478 49.763 10.12L49.9909 9.69498C50.0424 9.60221 50.1355 9.54705 50.2299 9.54078H50.2311ZM35.1168 10.13C35.2002 10.2253 35.2002 10.3845 35.096 10.4798C34.9919 10.575 34.8681 10.7029 34.764 10.8095C34.6806 10.9048 34.525 10.9048 34.4319 10.8195C34.3277 10.7242 34.3277 10.565 34.4221 10.4585C34.5361 10.3519 34.661 10.2253 34.764 10.1187C34.8154 10.0711 34.8804 10.0473 34.9441 10.0485C35.0078 10.0498 35.0703 10.0761 35.1168 10.13ZM68.563 10.5312C68.5789 10.5312 68.5961 10.5312 68.6132 10.5337C68.748 10.5437 68.8522 10.6716 68.8313 10.8095C68.7591 11.3824 68.6034 12.8053 68.6034 13.5801C68.6034 16.2441 69.1119 18.1973 69.8582 18.7489C69.9623 18.8341 69.9929 18.972 69.9305 19.0573C69.8582 19.1851 69.6915 19.2278 69.5776 19.1425C68.5091 18.3678 68.1145 15.8529 68.1145 13.57C68.1145 12.774 68.2702 11.3197 68.3424 10.7468C68.351 10.6352 68.4478 10.5399 68.5618 10.5324L68.563 10.5312ZM44.5873 10.7568C44.7013 10.7995 44.7735 10.916 44.7429 11.0326L44.6081 11.6369C44.5775 11.7861 44.4317 11.8701 44.2859 11.8274C44.1511 11.7848 44.0788 11.6369 44.1205 11.499L44.3067 10.9048C44.3435 10.8032 44.4427 10.7405 44.5432 10.7481C44.5579 10.7481 44.5726 10.7518 44.5861 10.7556L44.5873 10.7568ZM49.6331 10.8997C49.6638 10.9023 49.6944 10.911 49.7226 10.9261C49.8476 10.99 49.888 11.1379 49.8267 11.2658L49.6503 11.6056C48.9029 13.0071 47.6481 15.7025 47.6481 18.0055C47.6481 18.5257 47.8662 18.7376 48.0108 18.8116C48.0831 18.8542 48.1358 18.9181 48.1456 19.0021C48.1664 19.1826 48.0108 19.3418 47.8344 19.2992C47.305 19.1613 47.1605 18.6937 47.1605 17.9942C47.1605 15.5846 48.4568 12.804 49.2251 11.3611L49.4016 11.0326C49.4481 10.9449 49.5412 10.8935 49.6331 10.8997ZM19.6914 10.9687C19.2343 11.6908 18.7479 12.5182 18.3227 13.293C18.0115 13.2829 17.6169 13.293 17.3682 13.293C18.2088 12.2098 19.0591 11.3511 19.6914 10.9687ZM59.5974 11.3297C59.1514 12.0193 58.7887 12.72 58.4566 13.3995C58.2079 13.3356 57.9591 13.293 57.6785 13.2516C57.7827 13.1137 57.8648 13.0071 57.9064 12.9645C58.622 12.1898 59.1722 11.6695 59.5974 11.3297ZM46.4669 11.5391C46.5172 11.5441 46.5674 11.5667 46.6103 11.6056C46.7034 11.6908 46.7144 11.8287 46.6409 11.934L46.1741 12.6022C46.0908 12.7188 45.9351 12.7401 45.8322 12.6549C45.7281 12.5809 45.7072 12.4217 45.7808 12.3151L46.2476 11.6469C46.2991 11.5679 46.3836 11.5291 46.4682 11.5379L46.4669 11.5391ZM44.0788 19.2478C43.5286 19.2478 43.2076 18.4831 43.2076 17.1994C43.2076 15.1822 43.5813 13.5374 43.9342 12.4342C43.9648 12.3302 44.0543 12.2687 44.1499 12.2625C44.1817 12.26 44.2136 12.2637 44.2454 12.275C44.3704 12.3176 44.4317 12.4555 44.401 12.5934C44.0592 13.6553 43.6953 15.2474 43.6953 17.1994C43.6953 18.3665 43.9857 18.7489 44.0788 18.7489C44.1927 18.7489 44.2969 18.8341 44.3067 18.972C44.3165 19.1312 44.2136 19.2478 44.0788 19.2478ZM33.3487 12.3452C33.3818 12.3452 33.4149 12.354 33.4455 12.3703C33.5595 12.4342 33.6122 12.5721 33.5595 12.6887C33.2384 13.4948 33.0816 14.3761 33.0816 15.448C33.0816 17.1668 33.3414 18.0055 33.7347 18.3991C33.818 18.4843 33.8388 18.6223 33.7653 18.7175C33.682 18.8454 33.5056 18.8554 33.4026 18.7489C32.8427 18.186 32.6037 17.1254 32.6037 15.438C32.6037 14.3134 32.7593 13.3582 33.1122 12.4982C33.1514 12.4029 33.2482 12.3427 33.3475 12.3465L33.3487 12.3452ZM8.25921 12.858C8.39399 12.858 8.49814 12.9745 8.49814 13.1124L8.48834 13.2817C8.47854 13.4096 8.37439 13.5149 8.2396 13.5149C8.10482 13.5048 8.00067 13.387 8.01169 13.2604L8.0215 13.0911C8.0313 12.9633 8.13545 12.858 8.26043 12.858H8.25921ZM56.3822 13.5374C58.4885 13.5374 59.6501 14.1003 60.2725 14.7898C60.3657 14.8964 60.3559 15.0656 60.2419 15.1509C60.1488 15.2249 60.014 15.2148 59.9405 15.1083C59.2972 14.4075 58.0841 14.0364 56.3932 14.0364C53.6963 14.0364 51.8179 14.949 50.7396 15.6925C50.6256 15.7664 50.47 15.7451 50.3977 15.6285C50.3144 15.5119 50.3463 15.3527 50.4602 15.2788C51.5912 14.494 53.5517 13.5387 56.3834 13.5387L56.3822 13.5374ZM17.7738 13.6615C18.5053 13.6565 19.5566 13.6916 20.2832 14.1003C20.418 14.1743 20.4486 14.3448 20.3665 14.4714C20.2942 14.5667 20.1594 14.6093 20.0553 14.5454C19.3814 14.163 18.2712 14.163 17.8767 14.163H17.1917C14.028 14.163 12.0981 15.9031 12.0981 16.6678C12.0981 16.6991 12.0981 16.7317 12.1189 16.7744C12.1606 16.8809 12.1189 17.0075 12.0148 17.0715L11.994 17.0815C11.88 17.1555 11.7244 17.0928 11.6729 16.9649C11.6313 16.8584 11.6104 16.7631 11.6104 16.6678C11.6104 15.458 13.9545 13.6641 17.1917 13.6641L17.7738 13.6603V13.6615ZM8.19549 13.896C8.21265 13.8947 8.23102 13.896 8.24818 13.8972C8.37316 13.9073 8.46629 14.0251 8.46629 14.1517C8.43565 14.9265 8.42462 15.6586 8.42462 16.3594C8.42462 17.9942 8.90127 18.5984 9.2125 18.5984C9.23333 18.5984 9.27499 18.5884 9.31665 18.5671C9.4208 18.5032 9.56539 18.5571 9.62788 18.6737C9.69037 18.8015 9.64871 18.9495 9.53476 19.0134C9.4208 19.0773 9.31665 19.1087 9.2027 19.1087C8.61087 19.1087 7.92715 18.3978 7.92715 16.3707C7.92715 15.6699 7.94798 14.9277 7.97861 14.1417C7.97861 14.0113 8.07419 13.906 8.19549 13.896ZM20.9976 14.8538C21.049 14.9816 21.1017 15.1296 21.1225 15.2888C21.1434 15.4267 21.0392 15.5646 20.8836 15.5646C20.7586 15.5646 20.6655 15.4793 20.6447 15.3628C20.6238 15.2562 20.603 15.1609 20.5614 15.0757C20.5197 14.9904 20.5405 14.8851 20.6079 14.8049C20.6557 14.756 20.7108 14.7309 20.766 14.7259C20.8579 14.7171 20.9522 14.7597 20.9976 14.8525V14.8538ZM27.689 15.893C27.3263 16.6039 26.1953 17.2094 25.5214 17.3999C25.4381 17.4313 25.3658 17.4526 25.2825 17.4639C25.1477 17.4852 25.0129 17.3999 24.9921 17.262C24.9615 17.1342 25.0435 16.9963 25.1783 16.9749C25.2408 16.9649 25.3131 16.9436 25.3854 16.9223C26.0704 16.7205 26.993 16.1689 27.2528 15.6599C27.3986 15.3841 27.7503 15.2675 28.0309 15.2775C28.1767 15.2875 28.3629 15.3941 28.5075 15.532C28.6215 15.6486 28.6117 15.8391 28.4658 15.9244C28.3727 15.977 28.2477 15.9557 28.1754 15.8818C28.124 15.8291 28.0615 15.7752 27.999 15.7752C27.8434 15.7752 27.7184 15.8391 27.6878 15.8918L27.689 15.893ZM60.5053 15.4167C60.607 15.4091 60.71 15.4718 60.7492 15.5746C60.8006 15.7025 60.8325 15.8291 60.8631 15.957C60.8938 16.0949 60.8117 16.2328 60.6769 16.2541C60.5421 16.2754 60.4281 16.1902 60.3963 16.0523C60.3755 15.9457 60.3448 15.8404 60.3032 15.7451C60.2615 15.6386 60.3032 15.5119 60.4073 15.448C60.4379 15.4292 60.4723 15.4192 60.5066 15.4167H60.5053ZM50.1269 15.8404C50.2103 15.947 50.1992 16.1062 50.0963 16.1902C49.9615 16.3068 49.8574 16.402 49.7851 16.4772C49.6919 16.5725 49.5461 16.5725 49.453 16.4885C49.3489 16.3933 49.3391 16.2228 49.4432 16.1175C49.5265 16.0322 49.6405 15.9269 49.7753 15.8091C49.8267 15.7614 49.8941 15.7401 49.9591 15.7451C50.024 15.7501 50.0865 15.7815 50.1282 15.8404H50.1269ZM17.8534 16.0899C18.0004 16.1162 18.0727 16.2428 18.0421 16.4284C18.0115 16.6139 17.8865 16.6991 17.7517 16.6778C17.6169 16.6565 17.5336 16.5186 17.563 16.3318C17.5924 16.145 17.7064 16.0635 17.8534 16.0899ZM52.6915 16.0748C52.7418 16.0773 52.792 16.0949 52.8349 16.1262C52.928 16.2115 52.9488 16.3594 52.8765 16.466C52.5861 16.8797 52.2957 17.2934 51.9943 17.7083C51.8081 17.9628 51.6108 18.2286 51.4233 18.4831C49.4836 21.1045 46.3505 23.2269 44.2246 24.2775C44.0996 24.3414 43.955 24.2888 43.8925 24.1609C43.8411 24.033 43.8925 23.8951 44.0065 23.8324C46.0295 22.8245 49.121 20.7647 51.0288 18.186C51.215 17.9315 51.4123 17.6657 51.5998 17.4112C51.9012 16.9975 52.1806 16.5938 52.471 16.1801C52.5224 16.1074 52.607 16.0711 52.6915 16.0761V16.0748ZM28.8714 16.3444C28.8923 16.5086 28.7575 16.6365 28.5908 16.6152C28.4769 16.5938 28.3936 16.4986 28.3838 16.387C28.3739 16.2754 28.4254 16.1801 28.5185 16.1375C28.5577 16.1187 28.5982 16.1112 28.6362 16.1124C28.7526 16.1162 28.8555 16.204 28.8714 16.3444ZM57.5168 16.2767C57.5499 16.2767 57.583 16.2842 57.6173 16.2967C57.7423 16.3607 57.7937 16.5086 57.7312 16.6365C57.6896 16.7317 57.6381 16.827 57.5964 16.9236C57.534 17.0514 57.3894 17.1041 57.2644 17.0401C57.1394 16.9762 57.0879 16.8283 57.1504 16.7004C57.1921 16.6051 57.2436 16.5098 57.2852 16.4133C57.3318 16.3256 57.42 16.2742 57.5168 16.2767ZM24.0817 16.6277C24.1552 16.634 24.2263 16.6753 24.2655 16.7418C24.2863 16.7731 24.3488 16.827 24.4211 16.8797C24.5142 16.9536 24.5461 17.0915 24.4836 17.1981C24.4113 17.326 24.2446 17.3573 24.1307 17.2721C24.0167 17.1868 23.8918 17.0815 23.8501 17.0063C23.7778 16.8784 23.8293 16.7205 23.9542 16.6565C23.9935 16.6327 24.0376 16.6239 24.0817 16.6277ZM17.6892 17.1141C17.824 17.1241 17.9282 17.252 17.9073 17.3899C17.8559 17.751 17.824 18.0794 17.8142 18.3339C17.7309 19.9687 18.1769 20.6795 18.716 21.3803C19.1204 21.9106 20.1582 22.4948 21.1948 22.9611C21.3088 23.0038 21.3713 23.1417 21.3296 23.2583C21.2782 23.3962 21.1323 23.4701 21.0086 23.4275C20.1166 23.0238 18.8606 22.3769 18.3423 21.6975C17.7505 20.944 17.2432 20.1166 17.3253 18.3113C17.3351 18.0456 17.367 17.6958 17.4184 17.3247C17.4393 17.1968 17.5532 17.1016 17.688 17.1129L17.6892 17.1141ZM12.6385 17.1392C12.6887 17.1429 12.739 17.163 12.7818 17.1981C12.875 17.2833 12.886 17.4213 12.8125 17.5266C12.1275 18.5032 11.3813 19.5224 10.6547 20.3811C9.67935 21.5383 8.704 22.4296 8.02027 22.9599C7.89529 23.0451 7.72987 23.0125 7.65758 22.8859C7.59509 22.7693 7.61592 22.6314 7.72007 22.5575C8.38419 22.0485 9.33871 21.1772 10.2822 20.0527C10.988 19.2039 11.7342 18.1948 12.4093 17.2407C12.4682 17.168 12.5539 17.1317 12.6397 17.1392H12.6385ZM57.0132 17.4024C57.0451 17.4024 57.0781 17.4075 57.1088 17.4213C57.2338 17.4739 57.295 17.6118 57.2436 17.7397C56.6113 19.3105 56.1653 21.2637 57.1186 22.3569C57.6062 22.9085 58.5289 23.514 59.1305 23.7685C59.2555 23.8212 59.3168 23.9591 59.2751 24.1082C59.2237 24.2461 59.0889 24.3101 58.9541 24.2675C58.29 24.023 57.284 23.3021 56.7547 22.6966C55.6445 21.4129 56.0905 19.3005 56.7853 17.5592C56.8245 17.4639 56.9152 17.4037 57.012 17.4024H57.0132ZM5.21063 18.6536C5.27434 18.6599 5.33438 18.695 5.37482 18.7589C5.45814 18.8542 5.44711 19.0034 5.35399 19.0886C5.32336 19.12 5.2817 19.1525 5.24004 19.1839C5.10525 19.2691 4.92881 19.2052 4.87734 19.056C4.83568 18.9495 4.86999 18.8366 4.9913 18.7426C5.08197 18.6724 5.14691 18.6473 5.21063 18.6536ZM35.085 18.9708C35.107 19.1187 34.9919 19.2579 34.8044 19.2579C34.5973 19.2579 34.4515 19.2466 34.3069 19.2265C34.1611 19.2052 34.079 19.046 34.1207 18.9081C34.1476 18.8065 34.2383 18.7313 34.3584 18.7363C34.5042 18.7426 34.639 18.7589 34.7995 18.7589C34.96 18.7589 35.0593 18.804 35.085 18.9708ZM70.4904 18.8755C70.5737 18.8441 70.6436 18.8003 70.7257 18.7902C70.7931 18.7815 70.8568 18.8141 70.9046 18.8755C70.9952 18.9946 70.9879 19.1726 70.8629 19.2466C70.7906 19.2892 70.7171 19.3205 70.635 19.3531C70.4892 19.4058 70.3299 19.3005 70.3238 19.13C70.3189 19.0021 70.3887 18.9144 70.4904 18.8755ZM38.7475 18.8441C38.8614 18.8441 38.9472 18.9281 38.9705 19.056C38.9986 19.2152 38.8933 19.3368 38.7009 19.3318C38.4877 19.3268 38.3737 19.1626 38.4362 19.0034C38.4779 18.9081 38.571 18.8441 38.6752 18.8441H38.7475ZM41.8548 19.9461C42.0791 19.9524 42.3143 19.9975 42.5435 20.0853C42.8853 20.2131 43.3215 20.5316 43.4453 21.3063C43.6842 22.8132 43.3215 23.2909 41.6502 24.4793C41.5669 24.5433 41.5461 24.6599 41.6086 24.7451C41.6711 24.8303 41.785 24.8517 41.8683 24.7877C42.0239 24.6711 42.1685 24.5759 42.3045 24.4693V24.5859C42.2739 25.1914 42.2629 25.5199 42.5741 26.0401C42.7604 26.3485 43.0924 26.7296 43.498 26.9214C43.3632 27.2712 43.1659 27.5157 42.9074 27.6536C42.7101 27.7601 42.171 27.9933 41.5485 27.7388C40.8121 27.4517 40.1786 26.603 39.7228 25.2766C39.3699 24.2687 39.2768 23.3347 39.4532 22.5274C39.6922 21.4242 40.3563 20.7234 40.9052 20.2457C41.138 20.0401 41.4811 19.9386 41.8548 19.9474V19.9461ZM40.0745 20.5629C39.6591 21.0192 39.2866 21.6248 39.1101 22.4421C38.9239 23.3235 39.017 24.3201 39.3907 25.392C39.8882 26.8462 40.5732 27.7476 41.4346 28.0986C41.4554 28.1087 41.486 28.1099 41.5069 28.1199C41.4137 28.1939 41.279 28.2578 41.1331 28.2792C40.8942 28.3005 40.6455 28.1939 40.3857 27.9507C40.1786 27.7388 39.6493 27.2399 39.2756 26.4965C39.1101 26.168 38.9754 25.7957 38.9018 25.3719C38.3933 22.3682 39.0575 21.2537 39.5035 20.8512C39.7007 20.682 39.898 20.5968 40.0745 20.5642V20.5629ZM24.4726 20.6482C25.2506 20.6482 25.655 20.9766 25.7898 21.6987C25.8621 22.0485 25.8939 22.5048 25.9245 22.9398C25.976 23.5554 26.0177 24.1396 26.1427 24.4894C26.2774 24.8817 26.5678 25.2002 26.8693 25.5086C27.4084 26.0928 27.7919 26.5165 27.2013 27.3239C26.9526 27.6523 26.6205 27.8328 26.1953 27.8654C25.2408 27.9294 24.1307 27.2073 23.9126 26.9741C23.5597 26.603 23.1651 25.7117 22.9997 25.2967C23.2901 25.1901 23.6638 24.9143 24.0572 24.2135C24.1086 24.1283 24.078 24.0117 23.9947 23.9591C23.9114 23.9064 23.7974 23.9377 23.7459 24.023C23.3097 24.7877 22.9164 25.0096 22.6677 24.957C22.6052 24.9469 22.5635 24.9043 22.5329 24.8717C22.7608 24.7652 22.9887 24.5433 23.2276 24.1822C23.2901 24.097 23.2583 23.9703 23.1651 23.9164C23.0818 23.8738 22.9789 23.8951 22.9262 23.9804C22.5843 24.5006 22.3552 24.5646 22.2523 24.5646C22.1175 24.5545 22.0035 24.4267 21.9411 24.3201C22.169 24.2035 22.376 24.023 22.5525 23.8111C22.6248 23.7158 22.6039 23.5779 22.501 23.524C22.4287 23.4814 22.3246 23.5027 22.2731 23.5667C21.9717 23.9377 21.5575 24.1722 21.2157 24.1296C20.9351 24.0982 20.7905 23.8751 20.7182 23.6306C21.5269 23.7685 21.8798 23.4614 22.202 22.6653C22.3883 22.1977 22.1298 21.3489 21.7242 21.201C21.9423 21.0418 22.2118 20.9252 22.4091 21.0731C22.637 21.2424 22.762 21.6987 22.751 22.1977C22.751 22.2829 22.8025 22.3569 22.876 22.3782C22.9899 22.4095 23.1149 22.3356 23.1149 22.2077C23.1149 21.9846 23.0941 21.7614 23.0524 21.5495C23.1872 21.5922 23.2595 21.6774 23.3636 21.868C23.447 22.0171 23.5095 22.2077 23.5095 22.4409C23.5095 22.5261 23.5609 22.6001 23.6344 22.6214C23.7484 22.664 23.8734 22.5688 23.8734 22.4409C23.8734 22.2716 23.8427 22.1124 23.8011 21.9632C23.8844 22.0159 23.9359 22.0899 23.9775 22.1538C24.0915 22.3444 24.1638 22.6741 24.0915 23.0878C24.0706 23.183 24.1221 23.2683 24.2165 23.2996C24.3206 23.331 24.4235 23.257 24.4444 23.1505C24.5167 22.7041 24.4652 22.2804 24.279 21.962C24.1135 21.6749 23.8427 21.5057 23.5425 21.4944C23.48 21.4091 23.4078 21.3565 23.3355 21.3038C23.4494 21.102 23.8023 20.6456 24.4762 20.6456L24.4726 20.6482ZM64.9679 20.667C65.0414 20.6645 65.1113 20.6745 65.1787 20.7008C65.3343 20.7535 65.4483 20.8813 65.4997 21.0719C65.583 21.359 65.6247 21.7827 65.6664 22.229C65.697 22.6114 65.7288 23.0038 65.8011 23.3535C65.9151 23.9791 66.2986 24.468 66.3611 24.542C66.4028 24.616 66.7765 25.2002 66.828 25.7305C66.8904 26.4626 66.6515 27.5031 66.1332 27.9595C66.0193 28.0547 65.9053 28.1287 65.7705 28.1613C66.279 27.6523 66.5278 26.9728 66.5167 26.1442C66.5069 25.2415 66.2153 24.8391 65.9568 24.4881C65.7913 24.2649 65.6455 24.0631 65.5622 23.7347C65.4789 23.3736 65.4789 23.0451 65.4899 22.7367C65.4997 22.2904 65.5107 21.8454 65.2412 21.3251C65.1064 21.0807 64.941 20.8688 64.7327 20.7096C64.816 20.6833 64.8932 20.667 64.9667 20.6645L64.9679 20.667ZM63.6765 20.7409C63.7929 20.7397 63.9105 20.7547 64.0269 20.7873C64.3896 20.8939 64.7118 21.1584 64.9091 21.5307C65.137 21.9557 65.1272 22.3268 65.1162 22.7518C65.1064 23.0915 65.0954 23.4313 65.1995 23.845C65.3037 24.2374 65.4789 24.4818 65.6553 24.7263C65.8943 25.066 66.1332 25.3845 66.143 26.1805C66.1528 27.369 65.572 28.1764 64.4104 28.5687C63.9742 28.7179 63.5184 28.664 63.114 28.4196C62.657 28.1438 62.347 27.6874 62.2526 27.1784C62.1068 26.3723 62.2428 24.7589 63.7046 24.2812C63.7978 24.2499 63.8492 24.1534 63.8296 24.0581C63.799 23.9515 63.6948 23.8889 63.5907 23.9202C63.4559 23.9628 63.3309 24.0155 63.217 24.0794C63.2378 23.4325 63.1545 22.6778 62.7501 22.2115C62.5737 22.0096 62.4083 21.8617 62.2526 21.7551C62.3776 21.5646 62.668 21.1709 63.1349 20.8951C63.2966 20.7961 63.4829 20.7459 63.6765 20.7434V20.7409ZM6.18475 27.7062C5.89435 28.0033 5.58312 28.1412 5.26087 28.1312C4.76339 28.1099 4.34801 27.7275 4.14093 27.4944C3.91302 27.2399 3.69492 26.7409 3.45598 26.2106C3.21704 25.669 2.93767 25.0535 2.60561 24.5871C2.39853 24.3113 2.02481 24.1095 1.62046 23.8976C1.22591 23.6858 0.811753 23.4626 0.572817 23.1655C0.251785 22.7618 0.375541 21.9983 0.603449 21.6473C0.724756 21.458 1.17445 21.2775 1.79813 21.2737C2.08118 21.2725 2.40098 21.3063 2.7404 21.3928C3.72555 21.6373 4.86754 22.3055 5.4998 22.8684L5.44834 22.911C5.06482 23.2507 5.10648 23.9716 5.29272 24.5458C5.33438 24.641 5.43731 24.705 5.53166 24.6736C5.62601 24.6423 5.67625 24.5357 5.64561 24.4405C5.49 23.9841 5.45937 23.3999 5.68727 23.1993L5.7081 23.178C5.7081 23.3686 5.72893 23.5391 5.75957 23.7083C5.7804 23.8575 5.94582 23.9102 6.04997 23.8249C6.10143 23.7823 6.12226 23.7083 6.11246 23.6444C6.08183 23.4538 6.061 23.2407 6.061 23.0075C6.061 22.9336 6.10266 22.8596 6.15412 22.817L6.41388 22.6151C6.40408 22.7957 6.41389 22.9762 6.42369 23.1454C6.43349 23.2946 6.60994 23.3686 6.72511 23.2733C6.76678 23.2307 6.78761 23.178 6.78761 23.1141C6.76678 22.9235 6.76678 22.7104 6.7778 22.4986C6.7778 22.3707 6.84029 22.2654 6.93342 22.1902C7.20299 21.9883 7.39046 21.9143 7.55588 21.9143C7.61837 21.9143 7.68086 21.9244 7.73232 21.9457C7.41129 22.402 7.23485 23.0176 7.57671 23.5065C7.8573 23.9102 8.31312 24.0268 8.85226 23.8563C8.82163 24.1107 8.74321 24.4041 8.49447 24.6147C8.31802 24.7639 8.15751 24.7689 8.03252 24.705C7.85608 24.6197 7.69066 24.5245 7.53505 24.4179C7.46275 24.3652 7.3684 24.3753 7.30714 24.4392C7.22382 24.5245 7.24465 24.6624 7.33777 24.7263C7.52402 24.8429 7.73232 24.9595 7.91857 25.0548L7.75315 25.1826C7.68086 25.2353 7.58774 25.2466 7.50441 25.2039C7.339 25.1187 7.17235 25.0234 7.02777 24.9281C6.95547 24.8755 6.86235 24.8855 6.79986 24.9494C6.71654 25.0347 6.73737 25.1726 6.83049 25.2365C6.98611 25.3431 7.14172 25.4384 7.30714 25.5236L7.21892 25.5926C7.13069 25.6715 7.03757 25.7041 6.92362 25.6929C6.70551 25.6715 6.44574 25.5123 6.21784 25.3005C6.14554 25.2265 6.03159 25.2265 5.95807 25.3105C5.89558 25.3957 5.91641 25.5123 5.9887 25.5863C6.23744 25.8095 6.58053 26.0326 6.91259 26.0639C6.91259 26.3611 6.84029 27.0719 6.18598 27.7087L6.18475 27.7062ZM71.5466 21.5959C70.5002 21.5934 69.0017 21.7263 66.8586 22.1237C66.7238 22.145 66.6405 22.2616 66.6723 22.3895C66.6932 22.5061 66.8071 22.5913 66.9321 22.57C68.5606 22.2616 71.3518 21.8166 73.5194 21.8805C73.1873 21.7376 72.5931 21.5997 71.5466 21.5972V21.5959ZM61.7343 21.9219C61.9414 21.9219 62.1803 22.0924 62.4805 22.4309C62.8543 22.8772 62.8849 23.672 62.8432 24.2988C62.4805 24.5859 62.2318 24.957 62.0652 25.3494C61.629 25.5186 61.2981 25.5399 61.069 25.4233C60.9134 25.3381 60.7884 25.1789 60.6953 24.9457C61.3484 24.9244 61.5775 24.4894 61.6804 23.7459C61.7637 23.1617 61.504 22.6841 60.9538 22.3657C61.2859 22.0573 61.5138 21.9194 61.7319 21.9194L61.7343 21.9219ZM70.684 22.5236C69.6352 22.5311 68.9024 22.6803 68.1868 22.8232C68.0312 22.8659 67.9271 23.0138 67.9687 23.173C67.9994 23.3222 68.155 23.4175 68.3008 23.3849C69.6707 23.0665 70.8115 22.748 71.8481 22.5675C71.418 22.5324 71.0332 22.5199 70.684 22.5224V22.5236ZM31.6958 22.5813C30.0735 22.5901 28.4254 22.9687 27.5126 23.2169C27.3876 23.2482 27.3055 23.3761 27.3361 23.514C27.3667 23.6632 27.5126 23.7472 27.6571 23.7046C29.3064 23.163 32.4604 22.9298 33.8192 22.8446C33.1649 22.649 32.4322 22.5763 31.6958 22.5813ZM44.069 23.4187C43.5298 23.8964 43.4257 24.6185 43.7271 25.1701C43.9134 25.5098 44.2356 26.0301 45.1068 25.7217C44.9929 26.0188 44.7539 26.3159 44.4121 26.5604C44.2565 26.667 44.08 26.7096 43.8827 26.667C43.4784 26.5717 43.0936 26.1893 42.8866 25.8496C42.6378 25.4246 42.6476 25.1914 42.6685 24.6084C42.6685 24.4806 42.6783 24.3427 42.6783 24.1835C43.0201 23.9077 43.2799 23.6532 43.4772 23.3761C43.5813 23.3761 43.7982 23.3761 44.0678 23.4187H44.069ZM32.7189 23.5178C31.0427 23.5353 29.451 23.771 28.3948 23.9703C28.26 23.9917 28.1767 24.1296 28.2085 24.2675C28.2392 24.3953 28.3641 24.4793 28.4891 24.458C31.7362 23.8638 34.2567 23.7685 35.7295 23.7785C34.7603 23.5754 33.7249 23.5065 32.7201 23.5165L32.7189 23.5178ZM67.9173 24.6172C67.9589 24.7551 68.0937 24.8291 68.2187 24.7865C69.5886 24.3728 71.8493 24.0117 73.2707 23.7998C73.0783 23.7948 72.7732 23.7886 72.3946 23.7911C71.2587 23.7998 69.4612 23.8876 68.0839 24.3088C67.9589 24.3515 67.8866 24.4781 67.9185 24.6172H67.9173ZM59.9821 24.013C60.324 24.0769 60.6463 24.1082 60.9465 24.1408C61.0923 24.1621 61.2062 24.2888 61.1854 24.438C61.1756 24.5759 61.0506 24.6824 60.895 24.6711C60.5936 24.6398 60.2419 24.5859 59.889 24.5119C59.7542 24.4906 59.6611 24.3527 59.6917 24.2148C59.7187 24.0945 59.8179 24.0142 59.9319 24.0105C59.9478 24.0105 59.965 24.0105 59.9821 24.013ZM51.7958 24.3928C51.6806 24.3941 51.5667 24.3991 51.4552 24.4054C51.2996 24.4154 51.1954 24.5646 51.2273 24.7138C51.2579 24.8629 51.3927 24.9469 51.5385 24.9156C52.7932 24.6072 53.8421 24.7138 54.4645 24.8416C53.5113 24.4981 52.6057 24.3815 51.797 24.3941L51.7958 24.3928ZM50.0742 24.5094C49.6711 24.5107 49.1161 24.5583 48.5095 24.7438C48.3956 24.7752 48.3331 24.893 48.3441 25.0096C48.3747 25.1475 48.5095 25.2328 48.6443 25.1901L50.7298 24.5533C50.7298 24.5533 50.4786 24.5082 50.0755 24.5094H50.0742ZM12.288 24.6335C11.5345 24.6385 10.5432 24.8053 9.17207 25.2115C9.05811 25.2428 8.97479 25.3707 8.99562 25.4985C9.02625 25.6364 9.17207 25.7317 9.30685 25.7004C11.0909 25.2541 12.2427 25.0748 13.6849 24.883C13.3173 24.725 12.875 24.6298 12.288 24.6335ZM52.6364 25.5061C50.4173 25.4998 47.3798 26.1517 46.0087 26.4852C45.8947 26.5165 45.8322 26.6231 45.853 26.7397C45.8739 26.8675 46.0087 26.9415 46.1226 26.8989C48.1664 26.2194 52.7822 25.7631 53.5296 25.5512C53.2539 25.5211 52.9537 25.5061 52.6364 25.5061ZM8.36336 26.5804C8.2494 26.6331 8.18691 26.761 8.21755 26.8776C8.25921 27.0267 8.41482 27.0894 8.54961 27.0368C10.5211 26.2094 13.0514 25.8909 14.898 25.7743C14.3662 25.6753 13.7817 25.6001 13.0195 25.6026C11.559 25.6076 10.0347 25.8834 8.36336 26.5817V26.5804Z" fill="white"/>
</svg>
