<svg width="403" height="345" viewBox="0 0 403 345" fill="none" xmlns="http://www.w3.org/2000/svg">
<circle cx="201.5" cy="172.5" r="172.5" fill="#77958A"/>
<path d="M11.4545 187.436C9.49091 187.436 7.8 186.973 6.38182 186.045C4.96364 185.118 3.87273 183.841 3.10909 182.214C2.34545 180.586 1.96364 178.727 1.96364 176.636C1.96364 174.509 2.35455 172.632 3.13636 171.005C3.92727 169.368 5.02727 168.091 6.43636 167.173C7.85455 166.245 9.50909 165.782 11.4 165.782C12.8727 165.782 14.2 166.055 15.3818 166.6C16.5636 167.145 17.5318 167.909 18.2864 168.891C19.0409 169.873 19.5091 171.018 19.6909 172.327H16.4727C16.2273 171.373 15.6818 170.527 14.8364 169.791C14 169.045 12.8727 168.673 11.4545 168.673C10.2 168.673 9.1 169 8.15455 169.655C7.21818 170.3 6.48636 171.214 5.95909 172.395C5.44091 173.568 5.18182 174.945 5.18182 176.527C5.18182 178.145 5.43636 179.555 5.94545 180.755C6.46364 181.955 7.19091 182.886 8.12727 183.55C9.07273 184.214 10.1818 184.545 11.4545 184.545C12.2909 184.545 13.05 184.4 13.7318 184.109C14.4136 183.818 14.9909 183.4 15.4636 182.855C15.9364 182.309 16.2727 181.655 16.4727 180.891H19.6909C19.5091 182.127 19.0591 183.241 18.3409 184.232C17.6318 185.214 16.6909 185.995 15.5182 186.577C14.3545 187.15 13 187.436 11.4545 187.436ZM24.8318 187V159.073H28.05V169.382H28.3227C28.5591 169.018 28.8864 168.555 29.3045 167.991C29.7318 167.418 30.3409 166.909 31.1318 166.464C31.9318 166.009 33.0136 165.782 34.3773 165.782C36.1409 165.782 37.6955 166.223 39.0409 167.105C40.3864 167.986 41.4364 169.236 42.1909 170.855C42.9455 172.473 43.3227 174.382 43.3227 176.582C43.3227 178.8 42.9455 180.723 42.1909 182.35C41.4364 183.968 40.3909 185.223 39.0545 186.114C37.7182 186.995 36.1773 187.436 34.4318 187.436C33.0864 187.436 32.0091 187.214 31.2 186.768C30.3909 186.314 29.7682 185.8 29.3318 185.227C28.8955 184.645 28.5591 184.164 28.3227 183.782H27.9409V187H24.8318ZM27.9955 176.527C27.9955 178.109 28.2273 179.505 28.6909 180.714C29.1545 181.914 29.8318 182.855 30.7227 183.536C31.6136 184.209 32.7045 184.545 33.9955 184.545C35.3409 184.545 36.4636 184.191 37.3636 183.482C38.2727 182.764 38.9545 181.8 39.4091 180.591C39.8727 179.373 40.1045 178.018 40.1045 176.527C40.1045 175.055 39.8773 173.727 39.4227 172.545C38.9773 171.355 38.3 170.414 37.3909 169.723C36.4909 169.023 35.3591 168.673 33.9955 168.673C32.6864 168.673 31.5864 169.005 30.6955 169.668C29.8045 170.323 29.1318 171.241 28.6773 172.423C28.2227 173.595 27.9955 174.964 27.9955 176.527ZM56.7545 187.436C54.7909 187.436 53.1 186.973 51.6818 186.045C50.2636 185.118 49.1727 183.841 48.4091 182.214C47.6455 180.586 47.2636 178.727 47.2636 176.636C47.2636 174.509 47.6545 172.632 48.4364 171.005C49.2273 169.368 50.3273 168.091 51.7364 167.173C53.1545 166.245 54.8091 165.782 56.7 165.782C58.1727 165.782 59.5 166.055 60.6818 166.6C61.8636 167.145 62.8318 167.909 63.5864 168.891C64.3409 169.873 64.8091 171.018 64.9909 172.327H61.7727C61.5273 171.373 60.9818 170.527 60.1364 169.791C59.3 169.045 58.1727 168.673 56.7545 168.673C55.5 168.673 54.4 169 53.4545 169.655C52.5182 170.3 51.7864 171.214 51.2591 172.395C50.7409 173.568 50.4818 174.945 50.4818 176.527C50.4818 178.145 50.7364 179.555 51.2455 180.755C51.7636 181.955 52.4909 182.886 53.4273 183.55C54.3727 184.214 55.4818 184.545 56.7545 184.545C57.5909 184.545 58.35 184.4 59.0318 184.109C59.7136 183.818 60.2909 183.4 60.7636 182.855C61.2364 182.309 61.5727 181.655 61.7727 180.891H64.9909C64.8091 182.127 64.3591 183.241 63.6409 184.232C62.9318 185.214 61.9909 185.995 60.8182 186.577C59.6545 187.15 58.3 187.436 56.7545 187.436ZM86.8227 166.055L79.0773 187H75.8045L68.0591 166.055H71.55L77.3318 182.745H77.55L83.3318 166.055H86.8227ZM91.5068 187V159.073H94.725V169.382H94.9977C95.2341 169.018 95.5614 168.555 95.9795 167.991C96.4068 167.418 97.0159 166.909 97.8068 166.464C98.6068 166.009 99.6886 165.782 101.052 165.782C102.816 165.782 104.37 166.223 105.716 167.105C107.061 167.986 108.111 169.236 108.866 170.855C109.62 172.473 109.998 174.382 109.998 176.582C109.998 178.8 109.62 180.723 108.866 182.35C108.111 183.968 107.066 185.223 105.73 186.114C104.393 186.995 102.852 187.436 101.107 187.436C99.7614 187.436 98.6841 187.214 97.875 186.768C97.0659 186.314 96.4432 185.8 96.0068 185.227C95.5705 184.645 95.2341 184.164 94.9977 183.782H94.6159V187H91.5068ZM94.6705 176.527C94.6705 178.109 94.9023 179.505 95.3659 180.714C95.8295 181.914 96.5068 182.855 97.3977 183.536C98.2886 184.209 99.3795 184.545 100.67 184.545C102.016 184.545 103.139 184.191 104.039 183.482C104.948 182.764 105.63 181.8 106.084 180.591C106.548 179.373 106.78 178.018 106.78 176.527C106.78 175.055 106.552 173.727 106.098 172.545C105.652 171.355 104.975 170.414 104.066 169.723C103.166 169.023 102.034 168.673 100.67 168.673C99.3614 168.673 98.2614 169.005 97.3705 169.668C96.4795 170.323 95.8068 171.241 95.3523 172.423C94.8977 173.595 94.6705 174.964 94.6705 176.527ZM118.139 174.4V187H114.92V159.073H118.139V169.327H118.411C118.902 168.245 119.639 167.386 120.62 166.75C121.611 166.105 122.93 165.782 124.575 165.782C126.002 165.782 127.252 166.068 128.325 166.641C129.398 167.205 130.23 168.073 130.82 169.245C131.42 170.409 131.72 171.891 131.72 173.691V187H128.502V173.909C128.502 172.245 128.07 170.959 127.207 170.05C126.352 169.132 125.166 168.673 123.648 168.673C122.593 168.673 121.648 168.895 120.811 169.341C119.984 169.786 119.33 170.436 118.848 171.291C118.375 172.145 118.139 173.182 118.139 174.4ZM146.117 187.436C144.153 187.436 142.463 186.973 141.044 186.045C139.626 185.118 138.535 183.841 137.772 182.214C137.008 180.586 136.626 178.727 136.626 176.636C136.626 174.509 137.017 172.632 137.799 171.005C138.59 169.368 139.69 168.091 141.099 167.173C142.517 166.245 144.172 165.782 146.063 165.782C147.535 165.782 148.863 166.055 150.044 166.6C151.226 167.145 152.194 167.909 152.949 168.891C153.703 169.873 154.172 171.018 154.353 172.327H151.135C150.89 171.373 150.344 170.527 149.499 169.791C148.663 169.045 147.535 168.673 146.117 168.673C144.863 168.673 143.763 169 142.817 169.655C141.881 170.3 141.149 171.214 140.622 172.395C140.103 173.568 139.844 174.945 139.844 176.527C139.844 178.145 140.099 179.555 140.608 180.755C141.126 181.955 141.853 182.886 142.79 183.55C143.735 184.214 144.844 184.545 146.117 184.545C146.953 184.545 147.713 184.4 148.394 184.109C149.076 183.818 149.653 183.4 150.126 182.855C150.599 182.309 150.935 181.655 151.135 180.891H154.353C154.172 182.127 153.722 183.241 153.003 184.232C152.294 185.214 151.353 185.995 150.181 186.577C149.017 187.15 147.663 187.436 146.117 187.436ZM176.185 166.055L168.44 187H165.167L157.422 166.055H160.913L166.694 182.745H166.913L172.694 166.055H176.185ZM183.651 174.4V187H180.433V166.055H183.542V169.327H183.815C184.306 168.264 185.051 167.409 186.051 166.764C187.051 166.109 188.342 165.782 189.924 165.782C191.342 165.782 192.583 166.073 193.647 166.655C194.71 167.227 195.538 168.1 196.128 169.273C196.719 170.436 197.015 171.909 197.015 173.691V187H193.797V173.909C193.797 172.264 193.369 170.982 192.515 170.064C191.66 169.136 190.488 168.673 188.997 168.673C187.969 168.673 187.051 168.895 186.242 169.341C185.442 169.786 184.81 170.436 184.347 171.291C183.883 172.145 183.651 173.182 183.651 174.4ZM206.114 174.4V187H202.895V159.073H206.114V169.327H206.386C206.877 168.245 207.614 167.386 208.595 166.75C209.586 166.105 210.905 165.782 212.55 165.782C213.977 165.782 215.227 166.068 216.3 166.641C217.373 167.205 218.205 168.073 218.795 169.245C219.395 170.409 219.695 171.891 219.695 173.691V187H216.477V173.909C216.477 172.245 216.045 170.959 215.182 170.05C214.327 169.132 213.141 168.673 211.623 168.673C210.568 168.673 209.623 168.895 208.786 169.341C207.959 169.786 207.305 170.436 206.823 171.291C206.35 172.145 206.114 173.182 206.114 174.4ZM241.96 166.055L234.215 187H230.942L223.197 166.055H226.688L232.469 182.745H232.688L238.469 166.055H241.96ZM253.913 195.291C252.358 195.291 251.022 195.091 249.903 194.691C248.785 194.3 247.853 193.782 247.108 193.136C246.372 192.5 245.785 191.818 245.349 191.091L247.913 189.291C248.203 189.673 248.572 190.109 249.017 190.6C249.463 191.1 250.072 191.532 250.844 191.895C251.626 192.268 252.649 192.455 253.913 192.455C255.603 192.455 256.999 192.045 258.099 191.227C259.199 190.409 259.749 189.127 259.749 187.382V183.127H259.476C259.24 183.509 258.903 183.982 258.467 184.545C258.04 185.1 257.422 185.595 256.613 186.032C255.813 186.459 254.731 186.673 253.367 186.673C251.676 186.673 250.158 186.273 248.813 185.473C247.476 184.673 246.417 183.509 245.635 181.982C244.863 180.455 244.476 178.6 244.476 176.418C244.476 174.273 244.853 172.405 245.608 170.814C246.363 169.214 247.413 167.977 248.758 167.105C250.103 166.223 251.658 165.782 253.422 165.782C254.785 165.782 255.867 166.009 256.667 166.464C257.476 166.909 258.094 167.418 258.522 167.991C258.958 168.555 259.294 169.018 259.531 169.382H259.858V166.055H262.967V187.6C262.967 189.4 262.558 190.864 261.74 191.991C260.931 193.127 259.84 193.959 258.467 194.486C257.103 195.023 255.585 195.291 253.913 195.291ZM253.803 183.782C255.094 183.782 256.185 183.486 257.076 182.895C257.967 182.305 258.644 181.455 259.108 180.345C259.572 179.236 259.803 177.909 259.803 176.364C259.803 174.855 259.576 173.523 259.122 172.368C258.667 171.214 257.994 170.309 257.103 169.655C256.213 169 255.113 168.673 253.803 168.673C252.44 168.673 251.303 169.018 250.394 169.709C249.494 170.4 248.817 171.327 248.363 172.491C247.917 173.655 247.694 174.945 247.694 176.364C247.694 177.818 247.922 179.105 248.376 180.223C248.84 181.332 249.522 182.205 250.422 182.841C251.331 183.468 252.458 183.782 253.803 183.782ZM269.294 187V159.073H272.513V169.382H272.785C273.022 169.018 273.349 168.555 273.767 167.991C274.194 167.418 274.803 166.909 275.594 166.464C276.394 166.009 277.476 165.782 278.84 165.782C280.603 165.782 282.158 166.223 283.503 167.105C284.849 167.986 285.899 169.236 286.653 170.855C287.408 172.473 287.785 174.382 287.785 176.582C287.785 178.8 287.408 180.723 286.653 182.35C285.899 183.968 284.853 185.223 283.517 186.114C282.181 186.995 280.64 187.436 278.894 187.436C277.549 187.436 276.472 187.214 275.663 186.768C274.853 186.314 274.231 185.8 273.794 185.227C273.358 184.645 273.022 184.164 272.785 183.782H272.403V187H269.294ZM272.458 176.527C272.458 178.109 272.69 179.505 273.153 180.714C273.617 181.914 274.294 182.855 275.185 183.536C276.076 184.209 277.167 184.545 278.458 184.545C279.803 184.545 280.926 184.191 281.826 183.482C282.735 182.764 283.417 181.8 283.872 180.591C284.335 179.373 284.567 178.018 284.567 176.527C284.567 175.055 284.34 173.727 283.885 172.545C283.44 171.355 282.763 170.414 281.853 169.723C280.953 169.023 279.822 168.673 278.458 168.673C277.149 168.673 276.049 169.005 275.158 169.668C274.267 170.323 273.594 171.241 273.14 172.423C272.685 173.595 272.458 174.964 272.458 176.527ZM295.926 174.4V187H292.708V166.055H295.817V169.327H296.09C296.581 168.264 297.326 167.409 298.326 166.764C299.326 166.109 300.617 165.782 302.199 165.782C303.617 165.782 304.858 166.073 305.922 166.655C306.985 167.227 307.813 168.1 308.403 169.273C308.994 170.436 309.29 171.909 309.29 173.691V187H306.072V173.909C306.072 172.264 305.644 170.982 304.79 170.064C303.935 169.136 302.763 168.673 301.272 168.673C300.244 168.673 299.326 168.895 298.517 169.341C297.717 169.786 297.085 170.436 296.622 171.291C296.158 172.145 295.926 173.182 295.926 174.4ZM323.625 195.291C322.07 195.291 320.734 195.091 319.616 194.691C318.498 194.3 317.566 193.782 316.82 193.136C316.084 192.5 315.498 191.818 315.061 191.091L317.625 189.291C317.916 189.673 318.284 190.109 318.73 190.6C319.175 191.1 319.784 191.532 320.557 191.895C321.339 192.268 322.361 192.455 323.625 192.455C325.316 192.455 326.711 192.045 327.811 191.227C328.911 190.409 329.461 189.127 329.461 187.382V183.127H329.189C328.952 183.509 328.616 183.982 328.18 184.545C327.752 185.1 327.134 185.595 326.325 186.032C325.525 186.459 324.443 186.673 323.08 186.673C321.389 186.673 319.87 186.273 318.525 185.473C317.189 184.673 316.13 183.509 315.348 181.982C314.575 180.455 314.189 178.6 314.189 176.418C314.189 174.273 314.566 172.405 315.32 170.814C316.075 169.214 317.125 167.977 318.47 167.105C319.816 166.223 321.37 165.782 323.134 165.782C324.498 165.782 325.58 166.009 326.38 166.464C327.189 166.909 327.807 167.418 328.234 167.991C328.67 168.555 329.007 169.018 329.243 169.382H329.57V166.055H332.68V187.6C332.68 189.4 332.27 190.864 331.452 191.991C330.643 193.127 329.552 193.959 328.18 194.486C326.816 195.023 325.298 195.291 323.625 195.291ZM323.516 183.782C324.807 183.782 325.898 183.486 326.789 182.895C327.68 182.305 328.357 181.455 328.82 180.345C329.284 179.236 329.516 177.909 329.516 176.364C329.516 174.855 329.289 173.523 328.834 172.368C328.38 171.214 327.707 170.309 326.816 169.655C325.925 169 324.825 168.673 323.516 168.673C322.152 168.673 321.016 169.018 320.107 169.709C319.207 170.4 318.53 171.327 318.075 172.491C317.63 173.655 317.407 174.945 317.407 176.364C317.407 177.818 317.634 179.105 318.089 180.223C318.552 181.332 319.234 182.205 320.134 182.841C321.043 183.468 322.17 183.782 323.516 183.782ZM339.007 187V159.073H342.225V169.382H342.498C342.734 169.018 343.061 168.555 343.48 167.991C343.907 167.418 344.516 166.909 345.307 166.464C346.107 166.009 347.189 165.782 348.552 165.782C350.316 165.782 351.87 166.223 353.216 167.105C354.561 167.986 355.611 169.236 356.366 170.855C357.12 172.473 357.498 174.382 357.498 176.582C357.498 178.8 357.12 180.723 356.366 182.35C355.611 183.968 354.566 185.223 353.23 186.114C351.893 186.995 350.352 187.436 348.607 187.436C347.261 187.436 346.184 187.214 345.375 186.768C344.566 186.314 343.943 185.8 343.507 185.227C343.07 184.645 342.734 184.164 342.498 183.782H342.116V187H339.007ZM342.17 176.527C342.17 178.109 342.402 179.505 342.866 180.714C343.33 181.914 344.007 182.855 344.898 183.536C345.789 184.209 346.88 184.545 348.17 184.545C349.516 184.545 350.639 184.191 351.539 183.482C352.448 182.764 353.13 181.8 353.584 180.591C354.048 179.373 354.28 178.018 354.28 176.527C354.28 175.055 354.052 173.727 353.598 172.545C353.152 171.355 352.475 170.414 351.566 169.723C350.666 169.023 349.534 168.673 348.17 168.673C346.861 168.673 345.761 169.005 344.87 169.668C343.98 170.323 343.307 171.241 342.852 172.423C342.398 173.595 342.17 174.964 342.17 176.527ZM378.798 166.055L371.052 187H367.78L360.034 166.055H363.525L369.307 182.745H369.525L375.307 166.055H378.798ZM386.264 174.4V187H383.045V166.055H386.155V169.327H386.427C386.918 168.264 387.664 167.409 388.664 166.764C389.664 166.109 390.955 165.782 392.536 165.782C393.955 165.782 395.195 166.073 396.259 166.655C397.323 167.227 398.15 168.1 398.741 169.273C399.332 170.436 399.627 171.909 399.627 173.691V187H396.409V173.909C396.409 172.264 395.982 170.982 395.127 170.064C394.273 169.136 393.1 168.673 391.609 168.673C390.582 168.673 389.664 168.895 388.855 169.341C388.055 169.786 387.423 170.436 386.959 171.291C386.495 172.145 386.264 173.182 386.264 174.4Z" fill="black"/>
</svg>
