<svg width="306" height="128" viewBox="0 0 306 128" fill="none" xmlns="http://www.w3.org/2000/svg">
<rect width="306" height="128" rx="64" fill="white"/>
<path d="M74.5642 62.9581L56.1211 82.2395C56.7199 84.2754 58.6361 85.8323 60.9115 85.8323C61.8696 85.8323 62.7079 85.5928 63.4265 85.1138L84.2648 73.2575L74.5642 62.9581Z" fill="#EA4335"/>
<path d="M93.245 59.6048L84.263 54.4551L74.2031 63.3174L84.3828 73.2575L93.3648 68.2275C94.9217 67.3892 95.9995 65.7126 95.9995 63.9162C95.8798 62.1197 94.8019 60.4431 93.245 59.6048Z" fill="#FBBC04"/>
<path d="M56.1198 45.5928C56 45.9521 56 46.4312 56 46.9102V81.0419C56 81.521 56 81.8803 56.1198 82.3593L75.2814 63.5569L56.1198 45.5928Z" fill="#4285F4"/>
<path d="M74.684 63.9162L84.2648 54.4551L63.5462 42.7186C62.8277 42.2395 61.8696 42 60.9115 42C58.6361 42 56.6001 43.5569 56.1211 45.5928L74.684 63.9162Z" fill="#34A853"/>
<path fill-rule="evenodd" clip-rule="evenodd" d="M223.264 72.298H226.301V51.7432H223.264V72.298ZM250.622 59.1473L247.14 68.0591H247.036L243.422 59.1473H240.151L245.57 71.6025L242.48 78.5314H245.649L254 59.1473H250.622ZM233.397 69.9632C232.4 69.9632 231.014 69.4617 231.014 68.2186C231.014 66.6319 232.742 66.0235 234.233 66.0235C235.57 66.0235 236.197 66.3146 237.009 66.7108C236.773 68.6149 235.15 69.9632 233.397 69.9632ZM233.763 58.6984C231.564 58.6984 229.286 59.6767 228.344 61.8455L231.04 62.9817C231.616 61.8455 232.689 61.4739 233.815 61.4739C235.386 61.4739 236.983 62.4259 237.009 64.1195V64.33C236.459 64.0126 235.282 63.5374 233.841 63.5374C230.935 63.5374 227.976 65.1504 227.976 68.1644C227.976 70.9152 230.359 72.6877 233.029 72.6877C235.072 72.6877 236.197 71.762 236.905 70.6768H237.009V72.2635H239.941V64.3842C239.941 60.734 237.245 58.6984 233.763 58.6984ZM214.991 61.6498H210.671V54.6042H214.991C217.262 54.6042 218.551 56.5033 218.551 58.1262C218.551 59.7195 217.262 61.6498 214.991 61.6498ZM214.913 51.7432H207.635V72.298H210.671V64.5108H214.913C218.279 64.5108 221.588 62.0477 221.588 58.1262C221.588 54.2047 218.279 51.7432 214.913 51.7432ZM175.225 69.9665C173.127 69.9665 171.37 68.1923 171.37 65.7555C171.37 63.2924 173.127 61.4903 175.225 61.4903C177.297 61.4903 178.922 63.2924 178.922 65.7555C178.922 68.1923 177.297 69.9665 175.225 69.9665ZM178.712 60.2983H178.608C177.925 59.4778 176.615 58.7362 174.963 58.7362C171.5 58.7362 168.328 61.8077 168.328 65.7555C168.328 69.6754 171.5 72.7222 174.963 72.7222C176.615 72.7222 177.925 71.9807 178.608 71.1322H178.712V72.1385C178.712 74.8154 177.297 76.2459 175.015 76.2459C173.153 76.2459 171.999 74.8943 171.527 73.7548L168.878 74.868C169.638 76.7227 171.658 79 175.015 79C178.582 79 181.598 76.8806 181.598 71.716V59.1588H178.712V60.2983ZM183.696 72.298H186.739V51.7416H183.696V72.298ZM191.222 65.5171C191.143 62.8156 193.294 61.4377 194.84 61.4377C196.048 61.4377 197.07 62.0461 197.41 62.9208L191.222 65.5171ZM200.663 63.1856C200.087 61.6235 198.329 58.7362 194.736 58.7362C191.169 58.7362 188.207 61.5693 188.207 65.7292C188.207 69.6491 191.143 72.7222 195.076 72.7222C198.25 72.7222 200.087 70.7623 200.847 69.6228L198.486 68.0328C197.7 69.1986 196.624 69.9665 195.076 69.9665C193.53 69.9665 192.428 69.2512 191.72 67.8487L200.977 63.9814L200.663 63.1856ZM126.91 60.882V63.8482H133.937C133.727 65.5171 133.177 66.7355 132.338 67.5839C131.315 68.6165 129.714 69.7544 126.91 69.7544C122.583 69.7544 119.199 66.2324 119.199 61.8619C119.199 57.4899 122.583 53.9679 126.91 53.9679C129.244 53.9679 130.948 54.8952 132.207 56.0873L134.279 53.9942C132.521 52.299 130.188 51 126.91 51C120.983 51 116 55.8752 116 61.8619C116 67.8487 120.983 72.7222 126.91 72.7222C130.108 72.7222 132.521 71.6633 134.409 69.6754C136.349 67.7155 136.953 64.9614 136.953 62.735C136.953 62.0461 136.901 61.4114 136.795 60.882H126.91ZM144.944 69.9665C142.846 69.9665 141.036 68.2186 141.036 65.7292C141.036 63.2119 142.846 61.4903 144.944 61.4903C147.041 61.4903 148.851 63.2119 148.851 65.7292C148.851 68.2186 147.041 69.9665 144.944 69.9665ZM144.944 58.7362C141.114 58.7362 137.993 61.6761 137.993 65.7292C137.993 69.7544 141.114 72.7222 144.944 72.7222C148.773 72.7222 151.893 69.7544 151.893 65.7292C151.893 61.6761 148.773 58.7362 144.944 58.7362ZM160.104 69.9665C158.006 69.9665 156.196 68.2186 156.196 65.7292C156.196 63.2119 158.006 61.4903 160.104 61.4903C162.202 61.4903 164.011 63.2119 164.011 65.7292C164.011 68.2186 162.202 69.9665 160.104 69.9665ZM160.104 58.7362C156.276 58.7362 153.155 61.6761 153.155 65.7292C153.155 69.7544 156.276 72.7222 160.104 72.7222C163.933 72.7222 167.053 69.7544 167.053 65.7292C167.053 61.6761 163.933 58.7362 160.104 58.7362Z" fill="#1A1A1A"/>
</svg>
