<svg width="76" height="36" viewBox="0 0 76 36" fill="none" xmlns="http://www.w3.org/2000/svg">
<path d="M5.80434 12.9972H1.4328V10.8564H12.6966V12.9972H8.33197V25H5.80434V12.9972ZM26.7099 17.9282C26.7099 22.5 23.9198 25.1934 20.2182 25.1934C16.4958 25.1934 13.7265 22.4862 13.7265 17.9282C13.7265 13.3564 16.4958 10.663 20.2182 10.663C23.9198 10.663 26.7099 13.3564 26.7099 17.9282ZM24.1477 17.9282C24.1477 14.6961 22.5248 12.9489 20.2182 12.9489C17.9047 12.9489 16.2817 14.6961 16.2817 17.9282C16.2817 21.1602 17.9047 22.9075 20.2182 22.9075C22.5248 22.9075 24.1477 21.1602 24.1477 17.9282ZM28.9753 10.8564H34.2654C37.5181 10.8564 39.2516 12.8384 39.2516 15.5387C39.2516 18.2528 37.4974 20.2141 34.2308 20.2141H31.5098V25H28.9753V10.8564ZM31.5098 18.1215H33.8924C35.7985 18.1215 36.6549 17.0442 36.6549 15.5387C36.6549 14.0331 35.7985 12.9834 33.8786 12.9834H31.5098V18.1215Z" fill="white"/>
<path d="M51.88 19.12L50 17.3846L58 10L66 17.3846L64.1067 19.12L59.3333 14.7138L59.3333 26L56.6667 26L56.6667 14.7138L51.88 19.12Z" fill="white"/>
</svg>
