<svg width="292" height="128" viewBox="0 0 292 128" fill="none" xmlns="http://www.w3.org/2000/svg">
<rect width="292" height="128" rx="64" fill="white"/>
<path d="M94.8536 73.1379C92.5292 79.8652 87.8132 85.8683 83.5393 85.8683C81.8199 85.8683 81.1895 84.143 77.5804 84.143C73.9713 84.143 72.4894 85.8683 70.77 85.8683C64.8111 85.8683 58 74.2163 58 65.1681C58 56.12 63.9589 52.2305 69.0671 52.2305C71.8165 52.2305 74.7795 53.9558 77.5804 53.9558C80.3814 53.9558 82.4929 52.2305 85.2423 52.2305C87.9917 52.2305 91.2527 53.4548 93.4494 56.1374C90.5715 57.7931 88.6475 60.8291 88.6475 64.3055C88.6475 68.3244 91.2184 71.7577 94.8536 73.1372V73.1379Z" fill="#1A1A1A" stroke="#1A1A1A" stroke-width="1.73" stroke-miterlimit="10"/>
<path d="M83.5143 47.8983C84.1066 47.1461 84.5832 46.2902 84.9103 45.3466C85.3846 43.9762 85.5669 42.4453 85.2442 41.0197C85.2218 40.9213 83.8893 41.2225 83.7683 41.2565C83.0393 41.4623 82.3305 41.7408 81.6538 42.0844C78.7087 43.5781 75.9989 46.4824 75.7964 49.9581C75.7695 50.4197 75.7681 50.9176 75.8793 51.3701C75.8973 51.4412 76.863 51.3595 76.931 51.355C79.5273 51.1665 81.9339 49.9036 83.5143 47.899V47.8983Z" fill="#1A1A1A" stroke="#1A1A1A" stroke-width="1.73" stroke-miterlimit="10"/>
<path d="M143.952 57.7869C147.748 57.7869 150.25 60.8103 150.25 65.4804C150.25 70.1635 147.762 73.1723 144.008 73.1723C142.068 73.2746 140.24 72.2505 139.302 70.5357H139.231V78H136.161V57.9446H139.133V60.4511H139.189C140.169 58.747 141.998 57.7234 143.952 57.7869ZM160.414 57.7869C164.21 57.7869 166.712 60.8103 166.712 65.4804C166.712 70.1635 164.224 73.1723 160.47 73.1723C158.53 73.2746 156.702 72.2505 155.764 70.5357H155.693V78H152.623V57.9446H155.595V60.4511H155.651C156.63 58.747 158.46 57.7234 160.414 57.7869ZM182.454 52C186.789 52 189.761 54.4496 189.861 58.016H186.762C186.576 55.9532 184.884 54.7081 182.411 54.7081C179.938 54.7081 178.245 55.9679 178.245 57.8014C178.245 59.2628 179.326 60.1227 181.97 60.7809L184.23 61.3401C188.439 62.343 190.188 64.0466 190.188 67.07C190.188 70.9371 187.131 73.3591 182.269 73.3591C177.719 73.3591 174.648 70.994 174.449 67.2553L177.592 67.2554C177.819 69.3052 179.796 70.651 182.496 70.651C185.084 70.651 186.946 69.3051 186.946 67.4569C186.946 65.8526 185.823 64.8919 183.164 64.2336L180.505 63.5882C176.738 62.6714 174.99 60.8964 174.99 58.016C174.99 54.4496 178.074 52 182.454 52ZM208.399 57.7593C212.736 57.7593 215.494 60.7387 215.494 65.4804C215.494 70.235 212.75 73.2015 208.399 73.2015C204.05 73.2015 201.306 70.235 201.306 65.4804C201.306 60.7388 204.077 57.7593 208.399 57.7593ZM233.26 57.7592C237.398 57.7592 240 60.6234 240 65.1927V66.2525H229.436V66.4394C229.338 67.5614 229.722 68.6719 230.492 69.4886C231.262 70.3053 232.343 70.7494 233.46 70.708C234.95 70.8486 236.354 69.9867 236.914 68.5883L239.829 68.5883C239.416 71.3241 236.772 73.2015 233.389 73.2015C229.038 73.2015 226.337 70.2642 226.337 65.5519C226.337 60.8249 229.052 57.7592 233.26 57.7592ZM196.814 54.3782V57.9446H199.658V60.3942H196.814V68.7021C196.814 69.9928 197.384 70.5942 198.634 70.5942C198.971 70.5883 199.309 70.5644 199.644 70.5226V72.9577C199.082 73.0635 198.51 73.1114 197.939 73.1007C194.91 73.1007 193.729 71.9547 193.729 69.0321V60.3942H191.555V57.9446H193.729V54.3782H196.814ZM126.848 52.3447L134.254 73.0146H130.886L129.009 67.4277H121.19L119.312 73.0146H116L123.407 52.3447H126.848ZM224.622 57.7869C224.976 57.7856 225.329 57.8243 225.674 57.9023V60.7957C225.227 60.6582 224.762 60.595 224.295 60.6087C223.392 60.5718 222.519 60.9343 221.904 61.6009C221.289 62.2675 220.993 63.1716 221.096 64.0759V73.0146H218.025V57.9446H220.954V60.5096H221.025C221.433 58.8584 222.935 57.7219 224.622 57.7869ZM208.399 60.308C205.911 60.308 204.434 62.2424 204.434 65.4804C204.434 68.746 205.911 70.6511 208.399 70.6511C210.887 70.6511 212.366 68.746 212.366 65.4804C212.366 62.2278 210.887 60.308 208.399 60.308ZM143.142 60.4234C140.796 60.4234 139.218 62.4716 139.218 65.4804C139.218 68.5168 140.796 70.5503 143.142 70.5503C145.529 70.5503 147.094 68.5591 147.094 65.4804C147.094 62.4293 145.529 60.4234 143.142 60.4234ZM159.604 60.4234C157.258 60.4234 155.68 62.4716 155.68 65.4804C155.68 68.5168 157.258 70.5503 159.604 70.5503C161.991 70.5503 163.556 68.5591 163.556 65.4804C163.556 62.4293 161.991 60.4234 159.604 60.4234ZM125.143 55.7826H125.057L122 64.8497H128.198L125.143 55.7826ZM233.26 60.2658C232.25 60.2597 231.28 60.6603 230.564 61.3785C229.849 62.0968 229.448 63.0731 229.451 64.0906H236.928C236.984 63.0824 236.62 62.0966 235.923 61.3705C235.227 60.6445 234.262 60.2441 233.26 60.2658Z" fill="#1A1A1A"/>
</svg>
