<svg width="601" height="128" viewBox="0 0 601 128" fill="none" xmlns="http://www.w3.org/2000/svg">
<rect y="18" width="92" height="92" rx="16" fill="white"/>
<path d="M30.5415 64H51.6647C58.209 64 63.5143 69.3053 63.5143 75.8496C63.5143 82.3939 58.209 87.6992 51.6647 87.6992H30.5415V64Z" fill="#1A1A1A"/>
<g opacity="0.6">
<mask id="mask0_872_4091" style="mask-type:luminance" maskUnits="userSpaceOnUse" x="30" y="40" width="31" height="23">
<path d="M30.554 40.2998H49.1012C55.361 40.2998 60.4356 45.3744 60.4356 51.6342C60.4356 57.894 55.361 62.9686 49.1012 62.9686H30.554V40.2998Z" fill="white"/>
</mask>
<g mask="url(#mask0_872_4091)">
<path d="M60.4356 40.2998H30.554V42.3606H60.4356V40.2998Z" fill="#1A1A1A"/>
<path d="M60.4356 42.875H30.554V44.9358H60.4356V42.875Z" fill="#1A1A1A"/>
<path d="M60.4356 45.4507H30.554V47.5115H60.4356V45.4507Z" fill="#1A1A1A"/>
<path d="M60.4356 48.0293H30.554V50.0901H60.4356V48.0293Z" fill="#1A1A1A"/>
<path d="M60.4356 50.6045H30.554V52.6653H60.4356V50.6045Z" fill="#1A1A1A"/>
<path d="M60.4356 53.1797H30.554V55.2405H60.4356V53.1797Z" fill="#1A1A1A"/>
<path d="M60.4356 55.7554H30.554V57.8162H60.4356V55.7554Z" fill="#1A1A1A"/>
<path d="M60.4356 58.3306H30.554V60.3914H60.4356V58.3306Z" fill="#1A1A1A"/>
<path d="M60.4356 60.9092H30.554V62.97H60.4356V60.9092Z" fill="#1A1A1A"/>
</g>
</g>
<path d="M162.974 30.2818C184.072 30.2818 196.779 43.5414 196.779 65.5718C196.779 87.6713 184.072 101 162.525 101H138.595V30.2818H162.974ZM151.268 89.9848H161.903C176.682 89.9848 184.175 81.8356 184.175 65.5718C184.175 49.3425 176.682 41.297 162.283 41.297H151.268V89.9848ZM230.675 102.036C215.171 102.036 205.261 91.0898 205.261 74.6878C205.261 58.2514 215.171 47.2707 230.675 47.2707C246.179 47.2707 256.055 58.2514 256.055 74.6878C256.055 91.0898 246.179 102.036 230.675 102.036ZM230.709 92.0912C239.204 92.0912 243.451 84.3564 243.451 74.6533C243.451 64.9503 239.204 57.1119 230.709 57.1119C222.077 57.1119 217.83 64.9503 217.83 74.6533C217.83 84.3564 222.077 92.0912 230.709 92.0912ZM288.305 101H275.356L260.335 47.9613H273.008L282.366 85.3232H282.849L292.38 47.9613H304.949L314.514 85.116H314.997L324.251 47.9613H336.924L321.903 101H308.989L298.975 65.0539H298.284L288.305 101ZM357.373 69.9227V101H344.942V47.9613H356.82V56.9738H357.476C359.894 51.0345 365.315 47.2707 373.257 47.2707C384.203 47.2707 391.42 54.5221 391.42 67.2293V101H378.989V69.1285C378.989 62.0497 375.121 57.8025 368.63 57.8025C362.034 57.8025 357.373 62.2224 357.373 69.9227ZM403.34 30.2818H415.771V101H403.34V30.2818ZM450.89 102.036C435.386 102.036 425.475 91.0898 425.475 74.6878C425.475 58.2514 435.386 47.2707 450.89 47.2707C466.394 47.2707 476.27 58.2514 476.27 74.6878C476.27 91.0898 466.394 102.036 450.89 102.036ZM450.924 92.0912C459.419 92.0912 463.666 84.3564 463.666 74.6533C463.666 64.9503 459.419 57.1119 450.924 57.1119C442.292 57.1119 438.044 64.9503 438.044 74.6533C438.044 84.3564 442.292 92.0912 450.924 92.0912ZM505.772 101.932C493.272 101.932 483.88 91.9876 483.88 74.5497C483.88 56.8702 493.514 47.2707 505.807 47.2707C515.164 47.2707 519.066 52.8992 520.965 56.6975H521.449V47.9613H533.88V101H521.691V92.6436H520.965C518.963 96.511 514.888 101.932 505.772 101.932ZM509.191 91.7459C517.202 91.7459 521.76 84.8052 521.76 74.4807C521.76 64.1561 517.271 57.4917 509.191 57.4917C500.834 57.4917 496.552 64.5704 496.552 74.4807C496.552 84.4599 500.938 91.7459 509.191 91.7459ZM566.221 101.932C553.721 101.932 544.329 91.9876 544.329 74.5497C544.329 56.8702 553.963 47.2707 566.256 47.2707C575.613 47.2707 579.515 52.8992 581.415 56.6975H581.898V30.2818H594.329V101H582.14V92.6436H581.415C579.412 96.511 575.337 101.932 566.221 101.932ZM569.64 91.7459C577.651 91.7459 582.209 84.8052 582.209 74.4807C582.209 64.1561 577.72 57.4917 569.64 57.4917C561.283 57.4917 557.002 64.5704 557.002 74.4807C557.002 84.4599 561.387 91.7459 569.64 91.7459Z" fill="white"/>
</svg>
