<svg width="98" height="28" viewBox="0 0 98 28" fill="none" xmlns="http://www.w3.org/2000/svg">
<g clip-path="url(#clip0_872_4072)">
<path d="M0 14.645H12.1237C15.8115 14.645 18.8011 17.6346 18.8011 21.3224V21.3224C18.8011 25.0103 15.8115 27.9999 12.1237 27.9999H0V14.645Z" fill="white"/>
<g opacity="0.6">
<path d="M0 1H10.6514C14.1789 1 17.0385 3.8596 17.0385 7.3871V7.3871C17.0385 10.9146 14.1789 13.7742 10.6514 13.7742H0V1Z" fill="white"/>
</g>
<path d="M49.9994 22.6641L49.7229 23.1688C49.4367 23.6799 49.1082 23.8888 48.5976 23.8888C47.856 23.8888 46.8738 23.6252 46.8738 21.3495V14.7602H51.2971V10.707H46.8738V5.82129H42.3204V10.707H39.4258V14.757H42.3204V21.0891C42.3204 25.6116 44.3337 27.9999 48.1423 27.9999C49.7067 27.9999 51.811 27.4374 53.2583 24.9334C53.3787 24.7245 53.5803 24.2681 53.5803 24.2681" fill="white"/>
<path d="M79.4333 21.6351C79.4333 21.6351 79.2837 21.9887 79.2251 22.1012C78.5486 23.374 77.2932 23.9204 75.654 23.9204C73.6147 23.9204 72.2129 22.7054 71.7836 20.5776H83.7525V20.3237C83.8436 17.1479 82.9947 14.2358 81.3002 12.5129C79.8919 11.0794 77.9274 10.3208 75.6215 10.3208C70.4273 10.3208 66.9375 13.8597 66.9375 19.1279C66.9375 24.3962 70.4273 27.9351 75.6215 27.9351C79.069 27.9351 81.762 26.4019 83.1833 23.6022C83.2874 23.3997 83.4338 23.0462 83.4338 23.0462M71.8682 17.1351C72.4081 15.3544 73.7546 14.3387 75.5889 14.3387C77.2607 14.3387 78.4478 15.3544 78.8674 17.1351H71.8649H71.8682Z" fill="white"/>
<path d="M33.279 21.6351C33.279 21.6351 33.1294 21.9887 33.0708 22.1012C32.3943 23.374 31.1389 23.9204 29.4997 23.9204C27.4604 23.9204 26.0586 22.7054 25.6293 20.5776H37.5982V20.3237C37.6893 17.1479 36.8404 14.2358 35.1459 12.5129C33.7376 11.0794 31.7731 10.3208 29.4672 10.3208C24.273 10.3208 20.7832 13.8629 20.7832 19.1312C20.7832 24.3994 24.273 27.9383 29.4672 27.9383C32.9147 27.9383 35.6077 26.4051 37.029 23.6054C37.1331 23.4029 37.2795 23.0494 37.2795 23.0494M25.7139 17.1383C26.2538 15.3576 27.6003 14.3419 29.4346 14.3419C31.1064 14.3419 32.2935 15.3576 32.7131 17.1383H25.7139Z" fill="white"/>
<path d="M97.9971 15.3038V10.8456L97.7531 10.7941L97.5092 10.7427C97.3303 10.7074 97.158 10.6816 96.9693 10.6656C96.7807 10.6495 96.5758 10.6431 96.3416 10.6431C95.3301 10.6431 94.3674 10.8649 93.5152 11.2795C92.6631 11.6941 91.9151 12.292 91.3426 13.0506L91.3036 12.2502L91.2646 11.4499C91.2646 11.2731 91.2028 11.1284 91.0954 11.0288C90.9881 10.9291 90.832 10.8713 90.6466 10.8713H87.0039V27.8427H91.5573V19.0677C91.5573 18.0681 91.9216 17.0652 92.6403 16.3099C93.3591 15.5545 94.4227 15.0499 95.8212 15.0499C96.0359 15.0499 96.3123 15.0691 96.5335 15.0916C96.7547 15.1141 96.8262 15.1174 96.9238 15.1334C97.1937 15.172 98.0003 15.3102 98.0003 15.3102L97.9971 15.3038Z" fill="white"/>
<path d="M62.7865 22.6609L62.51 23.1656C62.2238 23.6766 61.8953 23.8856 61.3847 23.8856C60.6432 23.8856 59.6609 23.622 59.6609 21.3463V14.757H64.0842V10.707H59.6609V5.82129H55.1075V10.707H52.2129V14.757H55.1075V21.0891C55.1075 25.6116 57.1208 27.9999 60.9294 27.9999C62.4938 27.9999 64.5981 27.4374 66.0454 24.9334C66.1658 24.7245 66.3674 24.2681 66.3674 24.2681" fill="white"/>
</g>
<defs>
<clipPath id="clip0_872_4072">
<rect width="98.0003" height="28" fill="white"/>
</clipPath>
</defs>
</svg>
