<svg width="98" height="28" viewBox="0 0 98 28" fill="none" xmlns="http://www.w3.org/2000/svg">
<path d="M0 14.645H12.1236C15.8113 14.645 18.8008 17.6345 18.8008 21.3223V21.3223C18.8008 25.01 15.8113 27.9995 12.1236 27.9995H0V14.645Z" fill="#1A1A1A"/>
<g opacity="0.6">
<path d="M0 1H10.6513C14.1787 1 17.0382 3.85953 17.0382 7.38694V7.38694C17.0382 10.9144 14.1787 13.7739 10.6513 13.7739H0V1Z" fill="#1A1A1A"/>
</g>
<path d="M49.9973 22.6642L49.7208 23.1689C49.4346 23.6799 49.1061 23.8888 48.5955 23.8888C47.854 23.8888 46.8718 23.6253 46.8718 21.3496V14.7605H51.295V10.7074H46.8718V5.82178H42.3184V10.7074H39.4238V14.7573H42.3184V21.0893C42.3184 25.6117 44.3317 27.9998 48.1402 27.9998C49.7046 27.9998 51.8089 27.4373 53.2562 24.9335C53.3765 24.7245 53.5782 24.2681 53.5782 24.2681" fill="#1A1A1A"/>
<path d="M79.5288 21.6358C79.5288 21.6358 79.3792 21.9894 79.3207 22.1018C78.6442 23.3747 77.3888 23.9211 75.7496 23.9211C73.7103 23.9211 72.3086 22.7061 71.8792 20.5783H83.848V20.3244C83.939 17.1488 83.0902 14.2367 81.3957 12.5139C79.9874 11.0803 78.023 10.3218 75.717 10.3218C70.523 10.3218 67.0332 13.8606 67.0332 19.1287C67.0332 24.3968 70.523 27.9356 75.717 27.9356C79.1646 27.9356 81.8575 26.4025 83.2788 23.6029C83.3829 23.4004 83.5292 23.0468 83.5292 23.0468M71.9638 17.1359C72.5037 15.3552 73.8502 14.3395 75.6845 14.3395C77.3562 14.3395 78.5434 15.3552 78.9629 17.1359H71.9606H71.9638Z" fill="#1A1A1A"/>
<path d="M33.2788 21.6358C33.2788 21.6358 33.1292 21.9894 33.0707 22.1018C32.3942 23.3747 31.1388 23.9211 29.4996 23.9211C27.4603 23.9211 26.0586 22.7061 25.6292 20.5783H37.598V20.3244C37.689 17.1488 36.8402 14.2367 35.1457 12.5139C33.7374 11.0803 31.773 10.3218 29.467 10.3218C24.273 10.3218 20.7832 13.8638 20.7832 19.1319C20.7832 24.4 24.273 27.9388 29.467 27.9388C32.9146 27.9388 35.6075 26.4057 37.0288 23.6061C37.1329 23.4036 37.2792 23.05 37.2792 23.05M25.7138 17.1391C26.2537 15.3584 27.6002 14.3428 29.4345 14.3428C31.1062 14.3428 32.2934 15.3584 32.7129 17.1391H25.7138Z" fill="#1A1A1A"/>
<path d="M97.9969 15.3027V10.8446L97.753 10.7932L97.5091 10.7417C97.3302 10.7064 97.1578 10.6807 96.9692 10.6646C96.7805 10.6485 96.5756 10.6421 96.3415 10.6421C95.33 10.6421 94.3673 10.8639 93.5152 11.2785C92.663 11.6931 91.915 12.291 91.3426 13.0495L91.3035 12.2492L91.2645 11.4489C91.2645 11.2721 91.2027 11.1274 91.0954 11.0278C90.9881 10.9282 90.8319 10.8703 90.6466 10.8703H87.0039V27.8413H91.5572V19.0665C91.5572 18.0669 91.9215 17.0641 92.6403 16.3087C93.359 15.5534 94.4226 15.0488 95.8211 15.0488C96.0357 15.0488 96.3122 15.0681 96.5334 15.0906C96.7545 15.1131 96.8261 15.1163 96.9236 15.1323C97.1936 15.1709 98.0002 15.3091 98.0002 15.3091L97.9969 15.3027Z" fill="#1A1A1A"/>
<path d="M62.7883 22.661L62.5119 23.1656C62.2256 23.6767 61.8972 23.8856 61.3865 23.8856C60.645 23.8856 59.6628 23.6221 59.6628 21.3464V14.7573H64.086V10.7074H59.6628V5.82178H55.1095V10.7074H52.2148V14.7573H55.1095V21.0893C55.1095 25.6117 57.1227 27.9998 60.9312 27.9998C62.4956 27.9998 64.5999 27.4373 66.0472 24.9335C66.1675 24.7245 66.3692 24.2681 66.3692 24.2681" fill="#1A1A1A"/>
</svg>
