<svg width="100" height="100" viewBox="0 0 100 100" fill="none" xmlns="http://www.w3.org/2000/svg">
<g clip-path="url(#clip0_653_60813)">
<path d="M75.5528 83.9227L69.6531 86.5334L77.2721 82.9758L67.035 87.5074L78.6561 82.1845L65.7865 87.8726L78.5633 82.0357L64.0031 88.4746L78.8772 81.711L62.7618 88.833L79.2696 81.3458L61.8843 89.036L78.7631 81.3864L60.5431 89.4418L79.1697 81.0211L59.7655 89.6041L79.1768 80.8318L58.9951 89.7529L79.0413 80.7033L58.139 89.9423L79.3053 80.3989L57.0903 90.2196L79.2625 80.2366L56.5624 90.2669L79.398 79.9863L55.6207 90.4969L79.0984 79.9322L55.207 90.4969L78.9771 79.8037L54.5578 90.5983L79.5621 79.3506L54.1369 90.5983L79.3267 79.2762L53.024 90.9027L79.1126 79.1815L52.7244 90.8486L79.0342 79.0259L51.9468 91.0041L79.5335 78.6201L50.9552 91.2544L79.2054 78.5795L50.4487 91.295L79.3124 78.3428L49.8994 91.3491L79.027 78.2819L49.721 91.2409L79.4551 77.9099L48.8007 91.4641L79.3837 77.7544L48.708 91.3153L79.3409 77.5853L47.8733 91.4979L79.1126 77.5041L47.8448 91.3288L78.8986 77.4094L46.896 91.5588L78.8701 77.2336L46.9245 91.3559L78.92 77.0307L46.2183 91.4844L79.1626 76.7331L45.8473 91.4641L79.0413 76.6046L45.405 91.4708L78.9557 76.449L44.5703 91.6534L78.8844 76.2934L44.021 91.7143L79.2339 75.9553L43.8427 91.5993L78.9272 75.9011L43.6429 91.5046L78.6917 75.82L42.7441 91.7143L78.7417 75.6103L42.2019 91.7684L79.0056 75.3127L41.4243 91.924L78.9842 75.1301L41.0177 91.9172L78.6204 75.1098L40.7751 91.8361L78.8201 74.8325L39.9619 92.0119L78.8915 74.6161L39.7407 91.924L78.5847 74.562L39.2413 91.9578L78.8416 74.2644L38.4994 92.0998L78.7702 74.1088L38.1284 92.0796L78.5063 74.0344L37.6647 92.0931L78.3779 73.9059L37.6505 91.9172L78.9628 73.4595L37.4793 91.8022L78.5919 73.4392L37.0013 91.8293L78.3065 73.3783L36.8015 91.7278L78.7845 72.9861L36.5162 91.667L78.7274 72.8237L36.2665 91.5926L78.3136 72.817L36.0453 91.5046L78.2708 72.6479L35.8884 91.3829L78.1567 72.5126L35.1821 91.5114L78.4777 72.1812L35.2178 91.3085L78.0711 72.1744L35.2963 91.0921L78.0996 71.9783L34.8683 91.0921L78.2708 71.7145L34.6614 90.9974L78.4635 71.444L34.5472 90.8621L77.9498 71.4845L34.3903 90.7404L77.9712 71.2884L34.2405 90.6254L77.8856 71.1396L33.9337 90.5713L77.8571 70.9638L33.8624 90.4157L78.0069 70.7135L33.3131 90.4766L77.8285 70.6053L33.1918 90.3413L77.7001 70.4768L33.4129 90.0573L77.7501 70.2671L33.0491 90.0302L77.8856 70.0236L32.8779 89.922L78.1567 69.7125L32.7138 89.807L78.0212 69.5908L32.5212 89.7055L78.0212 69.4014L32.4927 89.5297L77.6645 69.3743L32.3857 89.3944L77.7287 69.1579L32.4356 89.1848L77.586 69.0361L32.1431 89.1239L77.4576 68.9076L31.9576 89.0224L77.4576 68.7183L31.5938 88.9954L77.5147 68.5086L31.4939 88.8533L77.5004 68.326L31.4297 88.6978L77.4861 68.1434L31.2014 88.6098L77.429 67.9878L31.2228 88.4137L77.4005 67.8119L30.9732 88.3393L77.3862 67.6293L31.23 88.0349L77.3934 67.4399L31.1729 87.8726L77.586 67.1694L30.6165 87.9335L77.4076 67.0612L30.8305 87.6494L77.4718 66.8448L30.3596 87.6765L77.0295 66.8583L30.8947 87.2504L77.215 66.5877L30.488 87.2436L77.1151 66.4457L30.7021 86.9663L76.8369 66.3781L30.0457 87.0678L76.7656 66.2225L30.0101 86.8987L77.1223 65.8843L30.2812 86.5876L76.7442 65.864L30.4167 86.3441L77.0866 65.5259L30.274 86.2223L77.1936 65.2891L30.1742 86.0803L76.6729 65.3365L30.0315 85.9518L76.6015 65.1809L30.1528 85.715L76.4874 65.0457L29.582 85.7827L76.6158 64.8022L29.6534 85.5595L76.8084 64.5249L29.418 85.4783L76.6372 64.4166L29.8103 85.1199L76.7585 64.1732L29.368 85.1266L76.6443 64.0379L29.5749 84.8493L76.3304 63.9905L29.4251 84.7276L76.523 63.72L29.5178 84.4976L76.6158 63.4968L29.0755 84.5111L76.5658 63.3277L29.4251 84.173L76.4588 63.1924L29.3466 84.0174L76.1235 63.1519L28.9899 83.9903L76.0522 62.9963L29.4322 83.6048L76.3376 62.6852L29.4893 83.3952L75.9951 62.6514L28.9329 83.456L76.1663 62.3876L29.3752 83.0705L75.988 62.2794L28.9828 83.0637L76.1307 62.0291L28.9971 82.8676L75.774 62.0021L29.2896 82.5497L76.3233 61.5692L29.154 82.4212L75.8097 61.6098L29.0113 82.2995L76.0451 61.3189L29.0541 82.0966L76.1164 61.1025L29.1683 81.8598L75.7098 61.0957L29.0898 81.7043L76.1093 60.7305L28.833 81.6366L75.5172 60.8117L28.5405 81.5758L75.6099 60.5749L28.4335 81.4405L75.6456 60.3788L28.8187 81.082L75.5457 60.2368L28.5405 81.0144L75.4958 60.0677L28.6903 80.7641L75.6527 59.8107L28.3051 80.7438L75.3602 59.7566L28.2195 80.595L75.5956 59.4657L28.3407 80.3583L75.774 59.202L28.3836 80.1554L75.7383 59.0329L28.4264 79.9457L75.4387 58.9788L28.3836 79.7767L75.1034 58.9382L28.5976 79.4994L75.5885 58.5391L28.1624 79.5061L75.5671 58.3565L27.9555 79.4047L75.189 58.343L27.877 79.2559L75.2889 58.113L28.1267 78.9583L75.2461 57.9439L28.0625 78.8027L74.9322 57.8966L27.9341 78.6674L75.3531 57.5246L27.7986 78.5457L75.4458 57.2946L28.0839 78.2346L75.1319 57.2473L28.0911 78.0452L74.9036 57.1594L28.0839 77.8626L75.0963 56.8888L27.8842 77.7611L75.3031 56.6115L27.9627 77.5379L75.0606 56.5303L27.7272 77.4568L74.7396 56.4898L27.5061 77.3688L74.6112 56.3613L27.6987 77.0983L74.6397 56.1584L27.5988 76.9563L74.8323 55.8878L27.235 76.9292L75.0606 55.597L27.606 76.5775L74.818 55.5158L27.4561 76.4558L74.5184 55.4685L27.449 76.2731L74.4328 55.3197L27.1708 76.2123L74.5684 55.0694L27.2921 75.9688L74.6468 54.8462L27.021 75.9011L74.6254 54.6704L27.4847 75.5156L74.8323 54.3931L27.128 75.4818L74.7966 54.224L26.9496 75.3736L74.6754 54.0887L27.3777 75.0016L74.283 54.0752L27.2992 74.846L74.4043 53.8385L26.9853 74.7987L74.3044 53.6964L26.6215 74.7716L74.0975 53.6017L26.5573 74.6161L74.176 53.3785L27.1423 74.1697L74.3472 53.1148L26.6357 74.2103L74.6254 52.8036L26.5787 74.0479L74.4328 52.7022L26.6357 73.8383L74.1475 52.6413L26.6643 73.6354L73.9192 52.5602L26.8355 73.3716L74.0975 52.2896L26.6786 73.2566L74.1617 52.0799L26.3718 73.2025L74.4613 51.7621L26.2006 73.0943L73.8978 51.8229L26.4289 72.8034L73.9334 51.62L26.115 72.7561L74.2616 51.2886L26.3861 72.4517L73.805 51.3021L26.1863 72.357L73.7551 51.1398L26.4574 72.0527L73.9049 50.8828L26.0222 72.0527L73.748 50.7678L26.0008 71.8768L74.1546 50.4026L26.2006 71.5995L73.7765 50.3823L25.9224 71.5387L74.2473 49.99L25.9366 71.3425L73.7408 50.0238L25.744 71.2411L74.1475 49.6586L25.7654 71.0449L74.0547 49.5098L25.6655 70.9097L74.0904 49.3136L25.7583 70.6797L73.748 49.2731L25.5585 70.5782L73.8835 49.0296L25.7868 70.2942L73.912 48.8334L25.6798 70.1521L73.9263 48.6373L25.5157 70.0371L74.2473 48.3059L25.637 69.8004L74.2331 48.13L25.5728 69.6381L73.9049 48.0894L25.2446 69.5975L73.8478 47.9271L25.4943 69.3067L74.2759 47.5484L25.159 69.2661L74.0904 47.4469L25.5086 68.9279L73.7765 47.3996L25.4801 68.7521L74.2188 47.014L25.4872 68.5559L74.3258 46.7841L25.0663 68.5559L73.8193 46.8179L24.9236 68.4342L74.1332 46.4932L24.8237 68.2922L73.8407 46.4391L25.1091 67.981L73.7979 46.2701L25.1804 67.7646L74.2473 45.8845L24.7524 67.7646L74.0904 45.7628L24.624 67.6361L74.3829 45.4517L24.5384 67.4873L74.3472 45.2826L24.7738 67.1965L73.8264 45.3232L24.3957 67.1762L74.0904 45.0188L24.9093 66.7636L73.7622 44.9782L24.4528 66.7771L74.0262 44.6739L24.2388 66.6892L74.0262 44.4912L24.4385 66.4119L73.7337 44.4304L24.36 66.2563L73.6766 44.2748L24.5384 65.9926L73.8336 44.0178L24.6383 65.7626L73.9334 43.7811L24.5883 65.6003L73.4055 43.8284L24.5812 65.4177L73.377 43.6593L24.3172 65.3433L73.6124 43.3685L23.8678 65.3568L73.4911 43.2332L23.8393 65.1877L73.641 42.983L24.1532 64.8563L73.0702 43.0438L24.039 64.721L72.9204 42.9289L23.9748 64.5654L72.9632 42.7192L24.1532 64.3017L73.0203 42.5095L24.0319 64.1664L72.9062 42.3742L23.9962 63.9973L73.1059 42.0969L23.6609 63.9567L72.8776 42.009L23.6895 63.7606L72.8134 41.8535L23.9463 63.4562L72.3497 41.8737L23.9035 63.2871L72.3426 41.6844L23.3114 63.3615L72.207 41.5626L23.6038 63.0504L72.3854 41.2921L23.4112 62.949L72.0929 41.238L23.3898 62.7663L71.9074 41.1365L23.2543 62.6446L72.314 40.7645L23.5254 62.3402L71.8931 40.7713L23.4683 62.1779L71.6292 40.6969L23.1972 62.1103L71.7433 40.4602L23.1544 61.9412L71.5436 40.3655L23.1758 61.745L71.5222 40.1896L23.1901 61.5557L71.6863 39.9258L23.0474 61.4272L71.1512 39.98L23.1401 61.204L71.4223 39.6688L23.3756 60.9131L70.9443 39.6959L23.1259 60.832L70.8659 39.5403L22.762 60.8049L70.6518 39.4524L23.0831 60.4803L71.1584 39.0398L23.2115 60.2368L71.0442 38.9045L22.919 60.1827L70.8231 38.8166L22.812 60.0406L70.8659 38.6137L22.5552 59.9662L70.5662 38.5596L22.8048 59.6686L70.6233 38.3432L22.4268 59.6483L70.2809 38.3094L22.8477 59.2763L70.2452 38.1403L22.9404 59.0532L70.4521 37.863L22.5409 59.0396L70.5234 37.6398L22.705 58.7826L69.9527 37.7074L22.3697 58.742L69.8029 37.5857L22.7549 58.3836L69.967 37.3286L22.4981 58.3159L70.1596 37.0581L22.6479 58.0589L69.9741 36.9499L22.6408 57.8763L69.9313 36.7876L22.3697 57.8087L69.8671 36.6252L22.5766 57.5314L69.9813 36.3885L22.441 57.4096L70.2381 36.0909L22.334 57.2676L69.753 36.118L22.1628 57.1526L69.6317 35.9827L22.491 56.8212L69.6888 35.773L21.9274 56.8888L69.6103 35.6175L22.2912 56.5439L69.5532 35.4619L21.8917 56.5303L69.5461 35.2793L22.2769 56.1719L69.8671 34.9479L21.8204 56.1854L69.8743 34.7585L22.0273 55.9081L69.432 34.7653L22.0558 55.712L69.7815 34.4271L22.2698 55.4279L69.7316 34.258L22.2413 55.2588L69.6674 34.1024L21.6135 55.3467L69.753 33.8792L21.585 55.1709L69.275 33.8995L22.0986 54.7583L69.5247 33.6087L22.0201 54.6095L69.4819 33.4396L21.7205 54.5554L69.6674 33.1691L21.5279 54.4539L69.7102 32.9662L21.4423 54.2984L69.1537 33.0203L21.7562 53.9805L69.2108 32.8106L21.9773 53.6964L69.5746 32.4657L21.3995 53.7641L69.596 32.2695L21.4066 53.5747L69.4748 32.1342L21.6563 53.2771L69.3178 32.0193L21.5065 53.1553L69.4106 31.7893L21.7633 52.8577L69.5033 31.5661L21.6349 52.7292L69.0539 31.5729L21.6706 52.5196L69.5318 31.1738L21.5707 52.3775L69.1181 31.1738L21.5921 52.1814L69.3463 30.883L21.5778 52.0055L69.4106 30.6733L21.5279 51.8365L69.0681 30.6395L21.4565 51.6809L69.1823 30.4028L21.4565 51.4983L69.2322 30.1931L21.1498 51.4509L69.2108 30.0105L21.6206 51.0519L69.2821 29.7941L21.6706 50.8422L69.1109 29.6858L21.5921 50.6934L68.9397 29.5709L21.3139 50.6258L68.8684 29.4221L21.0998 50.5379L68.6544 29.3274L21.6706 50.0982L68.7756 29.0839L21.5778 49.9562L69.1323 28.7389L21.2425 49.9156L69.1537 28.5496L21.1783 49.7533L69.0467 28.4075L21.1355 49.591L68.7114 28.3669L21.5564 49.219L68.797 28.1437L21.5636 49.0228L68.6258 28.0288L21.0713 49.0566L68.8612 27.7447L21.5564 48.6576L68.954 27.5147L21.2853 48.5899L68.954 27.3321L21.2853 48.4006L68.5902 27.2983L21.5707 48.0894L68.6187 27.1022L21.1569 48.0894L68.4903 26.9737L21.0713 47.9339L68.262 26.8857L21.2711 47.6633L68.3476 26.6625L21.0784 47.5619L68.3904 26.4596L21.0356 47.3928L68.6116 26.1756L21.2425 47.1155L68.2263 26.1553L21.6206 46.7638L68.5902 25.8103L21.1997 46.757L68.3405 25.7359L21.5778 46.4053L68.155 25.6277L21.2425 46.3715L67.8482 25.5804L21.5136 46.0604L67.8268 25.3977L21.3923 45.9319L68.2263 25.0393L21.6349 45.6343L67.6342 25.1137L21.2853 45.6072L67.4701 24.9987L21.1284 45.4855L67.4487 24.8228L21.7348 45.0323L67.0849 24.7958L21.6064 44.9038L67.1491 24.5794L21.2211 44.8835L67.0849 24.4238L21.749 44.4642L66.9137 24.3088L21.7633 44.2748L66.5142 24.3021L21.642 44.1395L66.2716 24.2209L21.6206 43.9637L65.865 24.2141L21.2711 43.9299L64.16 24.7823L21.5065 43.639L62.5121 25.3233L21.7419 43.3482L61.1281 25.7495L21.4708 43.2806L59.0093 26.5002L21.8204 42.9424L57.1046 27.1563L21.692 42.8139L55.3711 27.7379L21.6278 42.6516L54.0727 28.1235L21.6777 42.4419L51.9183 28.8877L21.5207 42.3269L50.1205 29.4965L22.1057 41.8805L48.8649 29.8684L21.8132 41.8264L46.8746 30.5583L22.0772 41.522L45.1125 31.1535L21.9416 41.3935L43.5716 31.6473L22.2983 41.0554L43.9497 31.2956L21.9987 40.9945L43.9996 31.0859L21.7918 40.8998L43.5787 31.0859L21.9559 40.6428L43.8712 30.768L22.2484 40.3249L43.7856 30.6192L22.013 40.2437L43.3219 30.6395L22.5623 39.8109L43.3933 30.4231L22.5837 39.6147L43.807 30.0511L22.6122 39.4186L43.2862 30.0916L22.5409 39.263L43.6643 29.7399L22.4981 39.1007L43.5003 29.625L22.4196 38.9451L43.6215 29.3882L22.2841 38.8166L43.5074 29.2462L22.7692 38.4176L43.4432 29.0906L22.705 38.262L43.1222 29.0501L23.0474 37.9238L43.4289 28.7254L22.5124 37.9712L43.329 28.5834L23.0331 37.5518L43.4361 28.3467L22.7906 37.4774L42.9224 28.3872L22.9547 37.2137L43.0223 28.1573L23.0474 36.9905L43.1008 27.9341L23.0474 36.8011L42.8511 27.8597L23.4255 36.4494L42.8796 27.6635L23.0617 36.4223L42.6727 27.5688L23.4041 36.0842L43.2078 27.1427L23.2614 35.9624L42.8011 27.136L23.8678 35.5092L42.8653 26.9195L23.5468 35.4619L42.7797 26.7707L23.7822 35.1711L42.5087 26.7031L23.8535 34.9546L42.7726 26.4055L24.2031 34.6097L42.5657 26.3041L23.7965 34.6029L42.5586 26.1214L23.9106 34.3662L42.4873 25.9659L24.196 34.0551L42.8083 25.6412L23.9819 33.9604L42.3018 25.6818L24.3172 33.629L42.7227 25.3031L24.6739 33.284L42.6228 25.161L24.5598 33.1488L42.2946 25.1204L24.5241 32.9797L42.5943 24.8026L24.8808 32.6347L42.5943 24.6132L24.8951 32.4386L42.5943 24.4306L25.1733 32.1342L42.0735 24.4711L25.1947 31.9313L42.2233 24.2209L25.1519 31.769L42.4873 23.9165L25.2874 31.5188L42.0021 23.9436L25.5157 31.2347L42.1876 23.673L25.5799 31.0183L42.2732 23.4498L25.7583 30.7545L42.423 23.1996L25.6156 30.6327L42.1306 23.1387L25.5728 30.4636L41.9451 23.0373L26.1934 30.0037L42.2732 22.7059L26.3647 29.7399L42.1948 22.5571L26.2719 29.5911L41.8238 22.53L26.1221 29.4694L41.6811 22.4083L26.3932 29.165L41.8452 22.1512L26.4645 28.9486L41.6026 22.0701L26.6928 28.6578L41.6883 21.8469L27.0638 28.3128L42.0093 21.5155L26.8712 28.2046L41.6669 21.4817L27.4775 27.7582L42.0021 21.1502L27.5988 27.5147L41.4956 21.1841L27.3919 27.42L41.781 20.8662L27.3705 27.2374L41.674 20.7309L27.5703 26.9669L41.4742 20.6362L27.9983 26.5949L41.2745 20.5348L27.927 26.4393L41.567 20.2169L28.1481 26.1485L41.2174 20.1898L28.4406 25.8374L41.674 19.7975L28.2908 25.7156L41.1389 19.8449L28.4834 25.4451L41.6169 19.4526L28.7545 25.1407L41.2031 19.4458L28.7973 24.9311L41.1675 19.2767L29.5107 24.4306L41.41 18.9859L29.0898 24.4306L41.1033 18.9318L29.3181 24.1397L41.1532 18.7221L29.5036 23.8759L40.9249 18.6342L30.1528 23.3957L41.2674 18.3028L30.3739 23.1184L41.2174 18.1337L30.1456 23.0305L40.9249 18.0796L30.1742 22.8276L40.9321 17.8902L30.431 22.53L40.7109 17.7955L30.8376 22.1648L40.6752 17.6264L30.8091 21.9889L40.7394 17.4168L30.9446 21.7454L41.089 17.0718L31.6081 21.2652L40.9035 16.9704L31.6723 21.0488L40.6253 16.9027L31.4725 20.9541L40.8179 16.6322L31.6937 20.6633L40.9249 16.3955L32.3357 20.1966L41.0391 16.1655L32.1859 20.0748L40.9249 16.0235L32.7566 19.6352L40.7608 15.9085L32.8565 19.4052L40.4256 15.8747L32.6282 19.3241L40.6396 15.5906L33.363 18.8101L40.2757 15.5636L33.5342 18.5463L40.5397 15.2592L33.6769 18.296L40.7965 14.9616L33.6555 18.1202L40.6895 14.8196L33.9979 17.782L40.3185 14.7993L34.4117 17.41L40.0903 14.7113L34.7042 17.0989L40.554 14.3258L34.7042 16.9095L40.29 14.2514L35.1037 16.5443L40.2329 14.0959L34.9895 16.409L40.0047 14.0079L35.0395 16.2061L39.9333 13.8524L35.3177 15.8882L40.3828 13.4669L35.5246 15.6109L40.1973 13.3654L35.6673 15.3674L40.2829 13.1354L36.131 14.9751L39.9048 13.1151L36.6731 14.5423L40.1759 12.8108L36.5875 14.4002L40.0974 12.662L36.6089 14.2041L39.6765 12.6552L37.3294 13.6968L39.7835 12.4253L37.5577 13.406L39.8406 12.2156L37.358 13.3113L39.6123 12.1277L37.6505 12.9934L39.6694 11.918L37.786 12.7499L39.705 11.7151L38.4566 12.2697L39.541 11.6001L38.2212 12.1818L39.705 11.3431L38.742 11.7692L39.4197 11.2822L38.9346 11.4919" stroke="#FD8516" stroke-width="0.5" stroke-linecap="round" stroke-linejoin="round"/>
<path d="M19.7543 39.641H21.3237L19.526 39.8101H22.1013L19.8328 39.9792H22.03L19.4547 40.1483H22.3082L19.5973 40.3173H21.8945L19.4404 40.4864H21.9373L19.048 40.6555H22.3439L19.1194 40.8246H21.9087L19.5331 40.9937H22.4937L19.419 41.1628H22.2297L19.3263 41.3319H22.3225L19.6259 41.501H22.2155L19.5902 41.6701H21.8088L19.2977 41.8391H21.8945L19.6473 42.0082H22.3938L19.6187 42.1773H22.458L19.1336 42.3464H22.1085L19.5831 42.5155H22.4366L19.2621 42.6846H22.3867L19.2977 42.8537H21.8731L19.2763 43.0228H22.3368L19.2977 43.1918H21.7304L19.4903 43.3609H22.4224L19.2264 43.53H21.9301L19.155 43.6991H22.0514L19.0195 43.8682H22.2868L19.098 44.0373H22.1085L19.5759 44.2064H22.2512L19.2335 44.3755H22.294L19.4903 44.5446H22.2726L19.2977 44.7136H21.9515L18.9767 44.8827H22.0086L19.4475 45.0518H22.1584L18.9268 45.2209H22.0229L18.9838 45.39H22.3154L19.2977 45.5591H21.816L19.3833 45.7282H21.709L18.9482 45.8973H21.8517L19.1764 46.0664H22.2155L19.098 46.2354H22.1085L19.0908 46.4045H22.1727L19.4047 46.5736H22.351L19.5902 46.7427H21.8873L19.4261 46.9118H22.3938L19.0837 47.0809H21.9444L19.2835 47.25H21.816L19.155 47.4191H22.137L19.5831 47.5882H22.2654L18.9553 47.7572H22.0799L19.5189 47.9263H21.7304L18.9767 48.0954H22.1798L19.2478 48.2645H22.1584L19.3691 48.4336H22.0157L19.2121 48.6027H22.1513L18.9767 48.7718H21.9444L19.0908 48.9409H21.9016L19.2406 49.11H22.1441L19.098 49.279H22.3724L19.4975 49.4481H21.9301L19.1408 49.6172H22.2226L19.2549 49.7863H22.3796L19.2906 49.9554H22.0799L19.1764 50.1245H22.2369L19.6187 50.2936H22.1798L19.0195 50.4627H22.0086L19.4261 50.6318H22.03L19.5474 50.8008H21.8873L19.4832 50.9699H21.9658L19.2692 51.139H22.1156L19.155 51.3081H22.3011L19.2264 51.4772H22.0157L19.4475 51.6463H22.0514L19.2406 51.8154H22.3154L19.0766 51.9845H22.2726L19.5189 52.1536H22.0229L19.7186 52.3226H22.2297L19.74 52.4917H22.2512L19.2906 52.6608H22.2583L19.1978 52.8299H22.2226L19.1622 52.999H22.2868L19.3191 53.1681H22.565L19.4333 53.3372H22.615L19.8256 53.5063H22.0657L19.8399 53.6753H22.244L19.8042 53.8444H22.3154L19.4119 54.0135H22.4438L19.8328 54.1826H22.5508L19.3049 54.3517H22.3582L19.9326 54.5208H22.2297L19.6615 54.6899H22.5793L19.5545 54.859H22.4794L19.3833 55.0281H22.294L19.8399 55.1971H22.4937L19.4261 55.3662H22.6506L19.7472 55.5353H22.2797L19.8827 55.7044H22.508L19.3976 55.8735H22.294L19.8756 56.0426H22.351L20.004 56.2117H22.2512L20.0967 56.3808H22.2654L19.5831 56.5499H22.4794L19.7543 56.7189H22.3225L19.6401 56.888H22.2797L19.9683 57.0571H23.0073L19.9112 57.2262H22.3154L19.5403 57.3953H22.9146L19.5688 57.5644H22.9645L19.74 57.7335H23.0216L19.6473 57.9026H23.0501L19.9255 58.0717H22.4652L19.9754 58.2407H23.1215L19.8256 58.4098H22.7577L20.1395 58.5789H22.8647L19.6972 58.748H22.6578L19.9968 58.9171H22.508L20.3892 59.0862H23.0501L20.2037 59.2553H23.0287L20.2394 59.4244H22.6863L20.0753 59.5935H23.0287L20.3963 59.7625H23.0573L19.8756 59.9316H22.7291L20.4891 60.1007H23.3212L20.3464 60.2698H22.8076L20.5033 60.4389H22.8147L20.1538 60.608H23.1215L20.111 60.7771H23.2642L20.5961 60.9462H23.3355L20.2323 61.1153H22.829L20.3107 61.2843H22.9788L20.4177 61.4534H23.2356L20.2323 61.6225H23.043L20.2751 61.7916H23.0002L20.6246 61.9607H23.0715L20.2751 62.1298H23.043L20.2679 62.2989H23.6423L20.4891 62.468H23.2214L20.6104 62.637H23.6351L20.7102 62.8061H23.4639L20.7388 62.9752H23.3212L20.646 63.1443H23.4425L20.4605 63.3134H23.5638L20.9956 63.4825H23.8848L20.4177 63.6516H23.2713L21.0027 63.8207H23.7635L20.9314 63.9898H23.6066L20.91 64.1588H23.3426L21.0455 64.3279H23.7207L20.589 64.497H23.5495L20.8529 64.6661H23.521L21.1811 64.8352H23.6993L20.7174 65.0043H23.735L20.8172 65.1734H23.6066L20.91 65.3425H24.0132L20.9385 65.5116H23.9633L21.3309 65.6806H23.8705L20.9956 65.8497H24.3128L21.4664 66.0188H24.32L21.445 66.1879H23.9276L21.4308 66.357H23.8777L21.1739 66.5261H24.2058L21.0812 66.6952H23.9776L21.4094 66.8643H23.8777L21.3309 67.0334H24.3556L21.0241 67.2024H23.9918L21.2809 67.3715H24.4912L21.6162 67.5406H24.2344L21.1739 67.7097H24.0132L21.6448 67.8788H24.3556L21.231 68.0479H24.106L21.338 68.217H24.1773L21.6662 68.3861H24.2558L21.8303 68.5551H24.4769L21.6519 68.7242H24.7123L21.4664 68.8933H24.3913L21.7518 69.0624H24.7979L21.4664 69.2315H24.534L21.5663 69.4006H24.6838L21.7946 69.5697H24.4127L22.2012 69.7388H24.9549L22.0229 69.9079H25.0548L22.0585 70.0769H24.8764L22.351 70.246H24.8693L22.2297 70.4151H25.1047L21.9373 70.5842H24.8693L22.3582 70.7533H24.9549L21.9872 70.9224H24.962L22.4794 71.0915H24.9692L22.615 71.2606H25.4115L22.1869 71.4297H25.0548L22.6935 71.5987H25.4043L22.137 71.7678H25.3829L22.6007 71.9369H25.4257L22.829 72.106H25.119L22.7719 72.2751H25.2688L22.7862 72.4442H25.3187L22.3439 72.6133H25.2046L22.5151 72.7824H25.4685L22.3867 72.9515H25.6611L22.5151 73.1205H25.6897L22.6935 73.2896H25.8038L22.672 73.4587H25.8038L22.5508 73.6278H25.7182L22.9431 73.7969H26.0321L23.1429 73.966H25.9108L22.7006 74.1351H25.5755L23.0715 74.3042H26.1748L23.2285 74.4733H25.654L22.9075 74.6423H26.2675L22.9431 74.8114H25.8894L23.4496 74.9805H25.9893L23.1928 75.1496H25.9608L23.1001 75.3187H26.2533L23.3569 75.4878H26.3531L23.735 75.6569H26.3745L23.8063 75.826H26.3032L23.7849 75.9951H26.1534L23.8919 76.1641H26.5101L23.4853 76.3332H26.4459L23.5781 76.5023H26.5672L23.9847 76.6714H26.3317L23.5567 76.8405H26.6599L23.7493 77.0096H27.038L24.1844 77.1787H26.5814L23.735 77.3478H26.5529L24.1202 77.5168H26.9096L23.949 77.6859H26.667L23.8777 77.855H26.9809L23.9347 78.0241H26.8596L23.8919 78.1932H27.1878L23.9704 78.3623H27.1379L23.949 78.5314H27.5017L24.4199 78.7005H27.4732L24.056 78.8696H27.1307L24.2986 79.0386H27.68L24.2415 79.2077H27.2092L24.8194 79.3768H27.73L24.4769 79.5459H27.68L24.5554 79.715H27.9012L24.9692 79.8841H27.4803L24.9549 80.0532H27.8869L24.9121 80.2223H27.6872L25.0976 80.3914H27.8655L24.9977 80.5604H27.6301L24.8408 80.7295H28.1437L24.9977 80.8986H28.1865L25.2403 81.0677H28.3649L25.5256 81.2368H28.0011L25.012 81.4059H28.0296L25.4828 81.575H28.1366L25.4899 81.7441H28.2222L25.6183 81.9132H28.1937L25.5827 82.0822H28.2365L25.3758 82.2513H28.6717L25.8181 82.4204H28.2079L25.6469 82.5895H28.4434L26.0392 82.7586H28.9213L26.0321 82.9277H29.0355L26.0535 83.0968H29.114L25.8181 83.2659H28.7073L25.9394 83.4349H28.6288L26.346 83.604H28.9713L26.1819 83.7731H29.2067L25.9679 83.9422H29.1496L26.2247 84.1113H29.1568L26.2675 84.2804H29.3066L26.0749 84.4495H29.3494L26.4744 84.6186H29.6775L26.1605 84.7877H29.3922L26.4173 84.9567H29.2424L26.7098 85.1258H29.6633L26.5386 85.2949H29.8915L26.5814 85.464H29.5705L26.8953 85.6331H29.756L26.8882 85.8022H29.5135L26.9381 85.9713H29.9486L27.2163 86.1404H29.8131L27.2092 86.3095H30.2197L27.3519 86.4785H30.3338L26.9096 86.6476H30.291L27.2163 86.8167H30.1912L27.4946 86.9858H30.662L27.6301 87.1549H30.4623L27.2805 87.324H30.5407L27.5944 87.4931H30.341L27.409 87.6622H30.9117L27.8299 87.8313H30.4623L27.5802 88.0003H30.662L28.1509 88.1694H30.8689L27.8227 88.3385H31.1685L28.3221 88.5076H31.197L28.2294 88.6767H31.0544L28.2151 88.8458H31.1257L27.9654 89.0149H31.1471L28.0653 89.184H31.0116L28.5361 89.3531H31.1186L28.2936 89.5221H31.2113L28.3792 89.6912H31.3469L28.3221 89.8603H31.8177L28.9213 90.0294H31.5395L28.9713 90.1985H32.0174L28.636 90.3676H31.6822L28.8001 90.5367H31.7321L29.0997 90.7058H32.5026L28.9998 90.8748H33.2516L29.4207 91.0439H34.2932L29.278 91.213H34.8853L29.6062 91.3821H36.4405L29.2281 91.5512H38.2311L29.492 91.7203H55.7376L29.7917 91.8894H54.8887L29.9272 92.0585H54.2038L30.341 92.2276H53.5975L30.6763 92.3966H52.4774L30.9973 92.5657H51.8211L31.6179 92.7348H50.4443L32.2671 92.9039H49.4883L33.166 93.073H48.2684L33.9579 93.2421H47.3838L35.4917 93.4112H45.5576L36.9113 93.5803H43.8026M66.6739 22.766H69.5845L66.681 22.935H69.1279L66.6667 23.1041H69.3705L66.7381 23.2732H69.7129L66.9949 23.4423H69.7629L66.788 23.6114H69.292L66.4527 23.7805H69.3063L66.5241 23.9496H69.4561L67.0662 24.1187H69.613L67.002 24.2877H69.5845L67.2018 24.4568H69.9911L66.7523 24.6259H69.9769L67.159 24.795H69.9483L66.945 24.9641H69.5702L66.7951 25.1332H69.6915L67.3302 25.3023H70.2337L66.9521 25.4714H70.198L67.4372 25.6405H70.3122L66.9307 25.8095H69.7486L67.5228 25.9786H70.305L67.0163 26.1477H70.305L67.1304 26.3168H70.3978L67.1518 26.4859H70.1053L67.6013 26.655H69.9055L67.2803 26.8241H69.9198L67.7511 26.9932H70.3978L67.6227 27.1623H69.9555L67.3516 27.3313H70.3764L67.2161 27.5004H70.5547L67.8082 27.6695H70.6689L67.4586 27.8386H70.5333L67.6227 28.0077H70.7545L67.5513 28.1768H70.6546L67.5371 28.3459H70.1909L67.3516 28.515H70.4548L68.0864 28.6841H70.3478L67.4372 28.8531H70.676L67.744 29.0222H70.5832L67.5656 29.1913H70.626L68.1292 29.3604H70.5975L67.7154 29.5295H70.412L68.0222 29.6986H71.0826L68.1078 29.8677H70.6118L68.2219 30.0368H70.5975L67.7012 30.2059H71.2324L67.9437 30.3749H71.2396L68.2077 30.544H70.6403L68.0507 30.7131H70.6831L68.2505 30.8822H71.2324L68.0293 31.0513H70.7473L68.015 31.2204H71.0255L68.0793 31.3895H71.2396L68.6143 31.5586H70.9756L68.3004 31.7276H71.1682L68.6714 31.8967H71.1397L68.5715 32.0658H71.1183L68.3432 32.2349H71.4322L68.5215 32.404H71.6105L68.7498 32.5731H71.1183L68.5144 32.7422H71.4108L68.2148 32.9113H71.6605L68.5073 33.0804H71.1254L68.2933 33.2494H71.3038L68.5358 33.4185H71.796L68.6072 33.5876H71.582L68.4074 33.7567H71.2538L68.9853 33.9258H71.8031L68.7213 34.0949H71.7675L69.1636 34.264H71.5392L68.7855 34.4331H71.4892L68.9853 34.6022H71.6319L69.0423 34.7712H71.582L69.1137 34.9403H71.9244L68.8497 35.1094H71.8245L68.7855 35.2785H71.7746L69.0352 35.4476H71.8317L69.0067 35.6167H71.7389L69.2135 35.7858H72.2526L69.3919 35.9549H71.7318L69.399 36.124H72.2383L69.0851 36.293H72.0742L68.9282 36.4621H72.0243L69.2991 36.6312H72.4809L69.3277 36.8003H71.9601L69.2991 36.9694H72.1313L69.5702 37.1385H72.0243L69.3562 37.3076H72.4737L69.3848 37.4767H72.1384L69.7129 37.6458H72.2312L69.7414 37.8148H72.4238L69.8413 37.9839H72.5023L69.4418 38.153H72.2668L69.984 38.3221H72.1741L69.8627 38.4912H72.4809L69.6416 38.6603H72.5308L70.0268 38.8294H72.4809L70.1124 38.9985H72.2954L69.9198 39.1675H72.6021L69.556 39.3366H72.6806L69.556 39.5057H72.6592L69.7985 39.6748H72.6164L70.0696 39.8439H72.5379L69.7914 40.013H72.8804L69.9769 40.1821H72.5807L69.9911 40.3512H72.5593L70.2694 40.5203H73.0872L70.0054 40.6893H72.7876L70.4762 40.8584H73.3369L70.4406 41.0275H73.0016L70.4192 41.1966H72.9945L70.5119 41.3657H72.7662L70.3906 41.5348H73.4653L70.3764 41.7039H73.0516L70.4976 41.873H73.4011L70.2337 42.0421H73.3084L70.2051 42.2111H72.9018L70.3692 42.3802H73.5224L70.2694 42.5493H73.0302L70.6475 42.7184H73.6936L70.3978 42.8875H73.287L70.4192 43.0566H73.6152L70.8329 43.2257H73.4511L70.6332 43.3948H73.7008L70.4976 43.5639H73.2941L70.9399 43.7329H73.4582L71.0826 43.902H73.5723L70.8115 44.0711H73.4225L71.1112 44.2402H74.0004L70.8187 44.4093H73.4725L70.7402 44.5784H73.8934L70.6831 44.7475H73.6223L71.1397 44.9166H73.7864L70.7545 45.0857H73.8648L70.8115 45.2547H74.0218L70.9114 45.4238H73.7079L70.9185 45.5929H74.0788L71.1112 45.762H73.6366L71.0612 45.9311H74.1145L71.1611 46.1002H74.2429L71.2895 46.2693H73.9932L70.9043 46.4384H74.0646L70.997 46.6074H74.3071L71.4393 46.7765H74.4783L71.4393 46.9456H73.9076L71.532 47.1147H74.4783L71.1112 47.2838H74.2501L71.7461 47.4529H73.9647L71.425 47.622H74.4427L71.2324 47.7911H74.5711L71.6676 47.9602H74.6852L71.5392 48.1292H74.5925L71.9316 48.2983H74.4641L71.5392 48.4674H74.7566L71.368 48.6365H74.728L71.6319 48.8056H74.8564L71.6819 48.9747H74.7494L71.8959 49.1438H74.3927L71.8602 49.3129H74.4141L71.5392 49.482H74.8065L72.1884 49.651H74.9849L72.2026 49.8201H75.099L71.8103 49.9892H74.9135L71.903 50.1583H74.9991L72.2098 50.3274H75.1347L72.2882 50.4965H74.8778L72.1955 50.6656H75.2559L72.274 50.8347H75.0776L71.8245 51.0038H74.6638L72.4167 51.1728H75.0419L72.2954 51.3419H74.992L72.4452 51.511H75.1418L71.9815 51.6801H75.4486L72.381 51.8492H75.0776L72.331 52.0183H75.363L72.4809 52.1874H74.9206L72.2312 52.3565H75.5484L72.5379 52.5256H75.2702L72.1456 52.6946H75.4557L72.6949 52.8637H75.4486L72.5879 53.0328H75.4343L72.2383 53.2019H75.0491L72.6735 53.371H75.1204L72.8661 53.5401H75.1561L72.8447 53.7092H75.8338L72.5736 53.8783H75.5556L72.488 54.0474H75.6412L72.6663 54.2164H75.2345L72.5807 54.3855H75.3915L73.1514 54.5546H75.6483L73.1015 54.7237H75.4628L72.6592 54.8928H75.527L72.9232 55.0619H75.7553L72.7519 55.231H75.7268L72.7876 55.4001H75.5342L72.8019 55.5691H75.5984L73.2299 55.7382H75.8837L73.4083 55.9073H75.6198L73.0088 56.0764H76.0121L72.7805 56.2455H75.9907L73.3155 56.4146H76.0906L72.9874 56.5837H75.9693L73.0516 56.7528H75.8766L73.3583 56.9219H76.4402L73.394 57.0909H76.433L73.5295 57.26H75.8338L73.4511 57.4291H76.5115L73.6223 57.5982H75.9265L73.1372 57.7673H76.3831L73.2727 57.9364H76.5115L73.7079 58.1055H76.6114L73.4225 58.2746H76.4758L73.6437 58.4437H76.1263L73.2799 58.6127H76.5614L73.4653 58.7818H76.5115L73.7864 58.9509H76.2832L73.4368 59.12H76.4616L73.658 59.2891H76.6542L74.0788 59.4582H76.4544L73.6865 59.6273H76.8325L73.872 59.7964H76.7969L73.8934 59.9655H76.8967L74.1431 60.1345H76.9681L74.0717 60.3036H76.8397L73.6936 60.4727H76.9823L73.7578 60.6418H76.8325L74.2501 60.8109H76.4901L73.7864 60.98H76.9253L74.3571 61.1491H76.6185L74.1859 61.3182H77.1964L74.0717 61.4873H77.3105L73.9504 61.6563H77.125L73.9219 61.8254H76.8611L74.0075 61.9945H77.1036L74.0289 62.1636H77.1036L74.2501 62.3327H76.8682L74.5854 62.5018H77.0679L74.0218 62.6709H77.2677L74.671 62.84H77.175L74.621 63.0091H77.4104L74.5283 63.1781H77.5602L74.2572 63.3472H77.1821L74.6638 63.5163H77.4389L74.3856 63.6854H77.0608L74.8992 63.8545H77.4246L74.5283 64.0236H77.5388L74.7138 64.1927H77.2178L74.5711 64.3618H77.6743L74.6924 64.5309H77.8241L74.8208 64.6999H77.3176L74.7851 64.869H77.5245L74.6852 65.0381H77.9026L75.1275 65.2072H77.603L74.9563 65.3763H77.4532L74.7922 65.5454H77.5031L74.6496 65.7145H78.031L74.8564 65.8836H78.1594L74.942 66.0527H77.7599L74.7637 66.2217H77.9026L75.3273 66.3908H78.188L75.3273 66.5599H77.8313L74.885 66.729H78.2094L75.2274 66.8981H77.7243L74.8493 67.0672H77.8955L74.9492 67.2363H77.8883L75.0776 67.4054H78.402L75.3558 67.5744H78.3663L75.5128 67.7435H78.5161L75.6626 67.9126H78.0952L75.1632 68.0817H78.5161L75.3344 68.2508H77.924L75.6198 68.4199H78.0453L75.3202 68.589H78.3735L75.8623 68.7581H78.4234L75.4414 68.9272H78.4733L75.3415 69.0962H78.4519L75.5556 69.2653H78.7159L75.6483 69.4344H78.2022L75.47 69.6035H78.2236L75.9337 69.7726H78.4947L75.42 69.9417H78.8514L75.9765 70.1108H78.937L75.5056 70.2799H78.616L75.7339 70.449H78.7016L75.5484 70.618H78.5375L75.9836 70.7871H78.4305L76.1049 70.9562H78.9584L75.8124 71.1253H78.5875L76.0193 71.2944H79.0868L75.9194 71.4635H78.5732L75.9123 71.6326H78.5803L75.7981 71.8017H79.1439L76.2119 71.9708H79.2509L76.005 72.1398H79.0797L76.1334 72.3089H79.1724L76.376 72.478H79.3651L76.2832 72.6471H78.9442L76.3974 72.8162H79.1439L76.59 72.9853H79.4721L76.1548 73.1544H79.0654L76.326 73.3235H79.4935L76.3617 73.4926H79.1082L76.7469 73.6616H79.1011L76.483 73.8307H79.5577L76.5329 73.9998H79.1225L76.219 74.1689H79.2367L76.6256 74.338H79.629L76.8611 74.5071H79.629L76.5614 74.6762H79.3294L76.5614 74.8453H79.8644L76.7113 75.0143H79.5149L76.8468 75.1834H79.5363L76.5614 75.3525H79.4578L76.911 75.5216H79.3793L76.6042 75.6907H79.5862L76.9538 75.8598H80.0214L76.7826 76.0289H79.5291L76.8682 76.198H79.9001L76.7826 76.3671H80.107L77.282 76.5361H79.6147L76.7755 76.7052H79.8359L76.9039 76.8743H80.0927L77.2748 77.0434H80.2782L77.2249 77.2125H80.0998L77.4318 77.3816H79.8074L76.8896 77.5507H79.8644L76.9681 77.7198H79.7646L77.018 77.8889H79.9215L77.0608 78.0579H80.0927L77.3604 78.227H80.057L77.4532 78.3961H80.3424L77.4246 78.5652H80.2853L77.339 78.7343H80.4423L77.282 78.9034H80.3709L77.1607 79.0725H80.0927L77.4817 79.2416H80.3067L77.7457 79.4107H80.3781L77.6244 79.5797H80.0998L77.5317 79.7488H80.2425L77.4175 79.9179H80.8132L77.7813 80.087H80.6634L77.4389 80.2561H80.6492L77.7885 80.4252H80.8703L77.4389 80.5943H80.3781L77.5959 80.7634H80.5707L78.031 80.9325H80.8132L77.8741 81.1015H80.4137L77.7956 81.2706H81.0701L77.5602 81.4397H80.4351L76.9324 81.6088H80.8917L76.9752 81.7779H80.9203L76.1691 81.947H80.9631L76.112 82.1161H80.6706L75.5841 82.2852H80.7704L75.0776 82.4542H80.9345L74.8921 82.6233H80.6349L74.6638 82.7924H80.2853L74.4712 82.9615H79.6932L73.9219 83.1306H79.1867L73.6437 83.2997H78.9085L73.2014 83.4688H78.4591L72.9018 83.6379H78.245L72.3524 83.807H77.6886L71.8459 83.976H77.2463L71.3109 84.1451H77.3533L71.0255 84.3142H76.6185L70.2266 84.4833H76.483L70.2051 84.6524H76.3403L69.6558 84.8215H75.8053L69.3848 84.9906H75.2773L68.5644 85.1597H74.5354L68.1791 85.3288H74.3143L67.9865 85.4978H73.7079L67.4943 85.6669H74.0004L66.9093 85.836H73.4439L66.8023 86.0051H72.702L66.039 86.1742H72.7377L65.7465 86.3433H72.167L64.9118 86.5124H71.7746L64.4695 86.6815H71.0469L63.9559 86.8506H70.7402L63.8061 87.0196H70.0054L63.5849 87.1887H69.8984L62.9785 87.3578H69.7129L62.044 87.5269H68.9781L61.8014 87.696H68.7427L61.1665 87.8651H68.3575L60.7028 88.0342H67.4229L60.0964 88.2033H67.4443L59.647 88.3724H66.6097L59.1976 88.5414H66.5027L58.6411 88.7105H65.8178L57.514 88.8796H65.3327L57.2571 89.0487H65.1044L56.3012 89.2178H64.3839L55.6734 89.3869H64.0985L55.1812 89.556H63.3495L54.5748 89.7251H62.5148L54.054 89.8941H61.8656L53.0481 90.0632H61.7729L52.4489 90.2323H61.1594L51.1719 90.4014H60.5316L50.2659 90.5705H60.1178L49.8236 90.7396H59.49L48.6965 90.9087H59.0977L47.2055 91.0778H58.0704L45.8073 91.2469H57.1573L44.2164 91.4159H57.036M66.6525 20.1485H68.2647L66.945 20.3175H68.4716L66.096 20.4866H68.5786L66.1531 20.6557H69.1137L65.404 20.8248H68.971L65.4683 20.9939H69.399L64.8191 21.163H69.0067L64.5337 21.3321H68.9781L64.8333 21.5012H69.3848L64.441 21.6703H69.5488L63.8417 21.8393H69.5132L63.6848 22.0084H69.5631L63.4422 22.1775H69.1565L62.9357 22.3466H69.6986L62.6076 22.5157H69.399L62.6004 22.6848H67.4943L61.937 22.8539H66.7024L62.0654 23.023H66.945L61.7016 23.1921H66.1959L61.0238 23.3611H66.0176L61.0666 23.5302H65.9034L60.1606 23.6993H65.6109L60.3104 23.8684H65.3898L59.647 24.0375H65.0973L59.383 24.2066H64.6265L59.3402 24.3757H64.2484L58.5983 24.5448H63.8631L58.5769 24.7139H63.4708L58.2345 24.8829H63.3994L58.0205 25.052H63.2496L57.0931 25.2211H62.9072L57.3213 25.3902H62.1653L56.9861 25.5593H62.1439L56.3369 25.7284H61.6516L56.1657 25.8975H61.5089L55.4737 26.0666H60.6671L55.0813 26.2356H60.3033L54.9743 26.4047H60.2748L54.6533 26.5738H59.5828L53.9756 26.7429H59.2118L53.412 26.912H59.0906L53.2408 27.0811H59.1048L52.7771 27.2502H58.1988L52.6915 27.4193H57.9491L52.2349 27.5884H57.8065L51.3289 27.7574H57.5211L51.5215 27.9265H57.0003L51.015 28.0956H56.501L50.1304 28.2647H55.916L50.0448 28.4338H55.5735L49.3457 28.6029H55.224L48.725 28.772H55.2383L48.4539 28.9411H54.3822L48.1828 29.1102H54.1682L47.9189 29.2792H53.8471L47.0914 29.4483H53.3906L46.6705 29.6174H53.2978L46.6419 29.7865H52.9625L46.1568 29.9556H51.9353L45.5005 30.1247H51.7355L44.9583 30.2938H51.6L44.2449 30.4629H51.0435L44.0809 30.632H50.751L43.5387 30.801H49.8664L42.9965 30.9701H49.8022L42.333 31.1392H49.3385L42.0548 31.3083H48.6465L40.9847 31.4774H47.9688L40.7707 31.6465H47.5265L40.2357 31.8156H47.4195L39.9361 31.9847H46.7489L39.1799 32.1538H46.0712L38.1669 32.3228H45.9357L37.8815 32.4919H45.2223L37.3465 32.661H44.8085L36.255 32.8301H44.1522L36.205 32.9992H44.088L35.6629 33.1683H43.0821L34.6641 33.3374H42.9038L33.9864 33.5065H41.8337L33.1731 33.6756H41.3343L32.6809 33.8446H41.263L31.5323 34.0137H40.6709L30.7833 34.1828H40.2571L30.6406 34.3519H39.1656L29.2994 34.521H38.866L29.0355 34.6901H38.2596L27.9797 34.8592H37.1182L27.0808 35.0283H36.7329L25.7468 35.1974H36.0481L25.0405 35.3664H35.5987M39.1946 9.88838H42.1338L39.0448 10.0575H41.8199L39.4443 10.2266H42.2408L39.4229 10.3956H42.1266L39.0234 10.5647H42.4548L39.3016 10.7338H42.3549L38.9948 10.9029H42.2622L39.7082 11.072H42.0696L39.7225 11.2411H42.0053L39.6797 11.4102H42.3692L39.6726 11.5793H42.6046L39.7796 11.7484H42.0125L39.5656 11.9174H42.6474L39.4371 12.0865H42.6902L39.6369 12.2556H42.6902L39.7938 12.4247H42.6831L39.5513 12.5938H42.5047L40.0293 12.7629H42.8329L39.8081 12.932H42.5761L39.9936 13.1011H42.3335L39.8866 13.2702H42.7758L40.1291 13.4392H42.7544L39.7154 13.6083H42.5761L40.1077 13.7774H42.8899L39.9223 13.9465H42.626L40.1077 14.1156H42.8043L40.2219 14.2847H43.1824L39.801 14.4538H42.6688L40.015 14.6229H43.054L40.493 14.792H42.6545L40.4644 14.961H42.8329L40.1077 15.1301H43.2823L40.3146 15.2992H43.3537L40.5429 15.4683H42.8614L40.5001 15.6374H43.0255L40.6071 15.8065H42.9328L40.5572 15.9756H43.3537L40.1505 16.1447H43.4321L40.5286 16.3138H43.4892L40.1719 16.4828H43.5391L40.3075 16.6519H43.5177L40.5144 16.821H43.6818L40.3432 16.9901H43.1325L40.9424 17.1592H43.4464L40.7355 17.3283H43.3323L40.9995 17.4974H43.5534L40.5786 17.6665H43.9172L40.6142 17.8355H43.7103L40.9923 18.0046H43.5391L40.5572 18.1737H43.4607L40.814 18.3428H44.0314L41.1493 18.5119H43.9743L41.0209 18.681H44.1098L41.0565 18.8501H43.6533L41.1493 19.0192H43.9101L41.2848 19.1883H43.8887L40.9495 19.3573H44.2811L40.9995 19.5264H44.3239L41.5488 19.6955H44.3952L41.5131 19.8646H43.9101L41.0494 20.0337H44.3096L41.0851 20.2028H43.9529L41.3562 20.3719H44.117L41.1279 20.541H44.2525L41.0637 20.7101H44.6021L41.7485 20.8791H44.2597L41.7557 21.0482H44.0028L41.7628 21.2173H44.4023L41.3419 21.3864H44.7662L41.8056 21.5555H44.2097L41.506 21.7246H44.4594L41.8912 21.8937H44.1812L41.7557 22.0628H44.6449L41.9768 22.2319H44.3952L41.563 22.4009H44.702L41.8841 22.57H44.4166L41.7057 22.7391H44.7733L41.7628 22.9082H44.8304L41.72 23.0773H44.7162L41.7699 23.2464H44.6449L41.8841 23.4155H44.9802L41.8627 23.5846H44.6877L42.1552 23.7537H44.9802L42.1623 23.9227H45.1799L42.1195 24.0918H44.7876L42.2408 24.2609H44.8946L42.1623 24.43H45.2513L42.5475 24.5991H45.3226L42.2336 24.7682H45.1086L42.1195 24.9373H44.9445L42.6046 25.1064H45.3654L42.4191 25.2755H44.9873L42.3834 25.4445H44.9944L42.1124 25.6136H45.558L42.198 25.7827H45.7007L42.3264 25.9518H45.0587L42.8115 26.1209H45.6151L42.6759 26.29H45.6793L42.7187 26.4591H45.3725L42.5119 26.6282H45.2655L42.8043 26.7972H45.3868L42.5261 26.9663H45.4367L42.6189 27.1354H45.8006L42.4833 27.3045H45.5723L42.6046 27.4736H45.4367L42.7401 27.6427H45.772L43.268 27.8118H45.4724L42.8757 27.9809H45.5509L42.947 28.15H45.8862L43.0112 28.319H45.5866L43.1682 28.4881H45.7221L43.0683 28.6572H45.6508L43.104 28.8263H46.3142L42.8971 28.9954H46.3285L42.9042 29.1645H46.2857L43.4535 29.3336H46.0431L43.6176 29.5027H45.6793L43.2894 29.6718H46.1216L43.4464 29.8408H45.772M38.9307 6.41846H40.5929L39.1019 6.58755H40.9567L38.7951 6.75663H41.2278L38.9307 6.92572H41.3063L38.3885 7.09481H41.4347L38.3957 7.2639H41.5203L37.9391 7.43299H41.7272L38.4599 7.60208H41.3633L37.6894 7.77117H41.5488L38.203 7.94025H41.3919L37.5824 8.10934H41.8984L37.4468 8.27843H41.3705L37.4682 8.44752H41.6273L37.2257 8.61661H41.877L37.4397 8.7857H41.4632L37.2542 8.95479H41.8841L36.9189 9.12388H41.9911L37.24 9.29296H42.0625L36.6336 9.46205H41.9626L36.4624 9.63114H42.0411L36.3982 9.80023H41.984L36.5408 9.96932H39.6084L36.4766 10.1384H39.6797L35.963 10.3075H39.3801L36.0415 10.4766H39.5299L35.9345 10.6457H39.0448L35.6562 10.8148H38.9664L35.7204 10.9839H39.2517L35.9559 11.1529H38.8665L35.1497 11.322H38.4171L35.4922 11.4911H38.5883L35.428 11.6602H38.2958L34.9072 11.8293H38.6453L34.7431 11.9984H38.3457L34.9785 12.1675H38.3029L34.6147 12.3366H37.7037L34.3579 12.5056H37.6609L34.5077 12.6747H38.0318L34.3008 12.8438H37.5824L34.4078 13.0129H37.5182L33.9512 13.182H37.7821L33.9655 13.3511H37.5396L34.2223 13.5202H37.511L34.2081 13.6893H37.1258L33.6445 13.8584H37.19L33.7729 14.0274H36.655L33.5731 14.1965H36.6407L33.5517 14.3656H36.8761L33.1522 14.5347H36.548L33.1808 14.7038H36.1627L33.0809 14.8729H36.3768L33.0452 15.042H36.3839L33.1522 15.2111H36.2198L32.8598 15.3802H35.642L32.6671 15.5492H35.8988L32.4103 15.7183H35.7276L32.232 15.8874H35.2995L32.4317 16.0565H35.8346L31.9252 16.2256H35.6848L31.8467 16.3947H35.0285L32.2248 16.5638H35.3495L31.6327 16.7329H35.2995L31.6399 16.902H35.3138L31.754 17.071H35.1212L31.4829 17.2401H34.5362L31.383 17.4092H34.3935L31.6827 17.5783H34.6646L31.326 17.7474H34.7716L31.3973 17.9165H34.5862L31.433 18.0856H34.3436L31.0977 18.2547H34.1439L31.1476 18.4238H34.3293L30.4128 18.5928H33.9869L30.37 18.7619H33.5303L30.7196 18.931H33.8728L30.2202 19.1001H33.2735L30.5341 19.2692H33.352L30.3843 19.4383H33.0452L30.4556 19.6074H32.9882L30.3843 19.7765H33.2022L29.8635 19.9455H32.924L30.1275 20.1146H33.088L29.5211 20.2837H32.8027L29.3855 20.4528H32.8669L29.1929 20.6219H32.4103L29.1073 20.791H32.8455L29.6709 20.9601H32.6671L29.0289 21.1292H32.446L28.9718 21.2983H32.289L29.0075 21.4673H31.8111L28.8291 21.6364H32.2676L28.9718 21.8055H31.6755L28.879 21.9746H31.9537L28.7506 22.1437H31.7968L28.8505 22.3128H31.49L28.3654 22.4819H31.8467L28.558 22.651H31.5685L28.3083 22.8201H31.7326L28.4225 22.9891H31.4544L27.9802 23.1582H31.169L28.1728 23.3273H30.8765L27.8375 23.4964H30.8551L27.6235 23.6655H30.7481L27.9088 23.8346H30.7695L27.9659 24.0037H30.4485L27.174 24.1728H30.5555L27.2525 24.3419H30.4699L27.0171 24.5109H30.1845L27.01 24.68H30.0133L27.3381 24.8491H30.1489L26.6889 25.0182H29.9705L27.1812 25.1873H30.1061L26.7531 25.3564H30.1132L26.9672 25.5255H29.835L26.9814 25.6946H29.7422L26.2538 25.8637H29.9206L26.5962 26.0327H29.4426L26.6247 26.2018H29.7351L26.3394 26.3709H29.0574L26.3465 26.54H29.357L26.425 26.7091H29.3499L26.0612 26.8782H28.9076L26.2752 27.0473H29.1573L25.8043 27.2164H28.7863L25.6403 27.3854H29.0717L25.4619 27.5545H28.9646L25.6403 27.7236H28.7221L25.626 27.8927H28.8148L25.5047 28.0618H28.2441L25.4405 28.2309H28.2941L24.8983 28.4H28.3511L25.0339 28.5691H28.2798L25.148 28.7382H28.2299L24.8413 28.9072H28.08L25.1195 29.0763H27.7662L25.0695 29.2454H27.5022L24.6058 29.4145H27.9445L24.6915 29.5836H27.3738L24.8769 29.7527H27.4808L24.7913 29.9218H27.3881L24.4061 30.0909H27.1812L24.456 30.26H27.0599L24.2848 30.429H27.3025L23.8068 30.5981H26.96L24.2634 30.7672H26.7175L23.9424 30.9363H27.1812L23.7997 31.1054H26.9386L23.7426 31.2745H27.0956L23.4716 31.4436H26.8602L23.3931 31.6127H26.6675L23.443 31.7818H26.7817L23.1505 31.9508H26.532L23.3289 32.1199H26.3536L23.1719 32.289H26.2538L22.9151 32.4581H26.211L23.2932 32.6272H26.4821L23.3289 32.7963H26.3108L23.1363 32.9654H26.0683L23.2005 33.1345H26.2324L22.8866 33.3036H25.8614L22.3801 33.4726H25.4619L22.587 33.6417H25.626L22.3515 33.8108H25.8614L22.2517 33.9799H25.2408L22.3943 34.149H25.4476L22.3301 34.3181H25.4833L22.4799 34.4872H25.3478L22.002 34.6563H25.3977L21.9378 34.8253H25.4191L21.7452 34.9944H24.8912L21.9592 35.1635H25.148L21.6595 35.3326H24.9197L21.5454 35.5017H24.7771L21.8022 35.6708H34.2009L21.4669 35.8399H33.3235L21.2458 36.009H33.0381L21.3599 36.1781H32.1036L21.1459 36.3471H31.433L21.3243 36.5162H30.4057L21.3671 36.6853H29.9135L21.2458 36.8544H28.7506L21.4455 37.0235H28.1942L21.1887 37.1926H26.6675L21.3171 37.3617H26.2966L21.2244 37.5308H25.3192L21.5097 37.6999H23.8782" stroke="#1A1A1A" stroke-width="0.5" stroke-linecap="round" stroke-linejoin="round"/>
</g>
<defs>
<clipPath id="clip0_653_60813">
<rect width="62.5" height="87.5" fill="white" transform="translate(18.75 6.25)"/>
</clipPath>
</defs>
</svg>
