<svg fill="#1D1D1D" width="24" height="24" viewBox="0 0 24 24" xmlns="http://www.w3.org/2000/svg">
<path fill-rule="evenodd" clip-rule="evenodd" d="M12 12.5C13.6569 12.5 15 11.1569 15 9.5C15 7.84315 13.6569 6.5 12 6.5C10.3431 6.5 9 7.84315 9 9.5C9 11.1569 10.3431 12.5 12 12.5ZM12 11C12.8284 11 13.5 10.3284 13.5 9.5C13.5 8.67157 12.8284 8 12 8C11.1716 8 10.5 8.67157 10.5 9.5C10.5 10.3284 11.1716 11 12 11Z" />
<path fill-rule="evenodd" clip-rule="evenodd" d="M12.75 16.963C16.54 16.5867 19.5 13.389 19.5 9.5C19.5 5.35786 16.1421 2 12 2C7.85786 2 4.5 5.35786 4.5 9.5C4.5 13.389 7.46001 16.5867 11.25 16.963V20.5H7V22H17V20.5H12.75V16.963ZM12 15.5C15.3137 15.5 18 12.8137 18 9.5C18 6.18629 15.3137 3.5 12 3.5C8.68629 3.5 6 6.18629 6 9.5C6 12.8137 8.68629 15.5 12 15.5Z" />
</svg>
